#N canvas 307 22 845 720 10;
#X obj 264 71 complexosc~;
#X obj 344 661 output~;
#X obj 314 603 stereo-out-prep;
#X obj 454 579 vu~;
#X obj 289 307 lpg~ 10000;
#X obj 341 271 nbx 5 14 0 1 0 1 empty empty empty 0 -8 0 10 -262144
-1 -1 0.5 256;
#X obj 276 271 / 20000;
#X obj 282 244 nbx 5 14 0 20000 0 1 empty empty empty 0 -8 0 10 -262144
-1 -1 11000 256;
#N canvas 396 22 854 656 zrev 0;
#X obj 52 226 inlet~;
#X obj 130 222 inlet~;
#X obj 120 545 outlet~;
#X obj 205 545 outlet~;
#X obj 188 444 zrev1~ 10 10 10;
#X obj 494 279 hsl 128 15 0 100 0 1 empty empty reverb_time -2 -8 0
10 -262144 -1 -1 12000 1;
#X floatatom 507 350 5 0 0 0 - - -;
#X obj 544 395 hsl 128 15 -1 1 0 1 empty empty mix -2 -8 0 10 -262144
-1 -1 9400 1;
#X floatatom 536 431 5 0 0 0 - - -;
#X obj 467 235 hsl 128 15 0 200 0 1 empty empty room_size -2 -8 0 10
-262144 -1 -1 11500 1;
#X floatatom 428 277 5 0 0 0 - - -;
#X obj 401 191 hsl 128 15 200 20000 1 1 empty empty lpf_cutoff -2 -8
0 10 -262144 -1 -1 9600 1;
#X floatatom 390 239 5 0 0 0 - - -;
#X obj 375 145 hsl 128 15 -99 18 0 1 empty empty recycle -2 -8 0 10
-262144 -1 -1 11400 1;
#X obj 316 105 hsl 128 15 -99 18 0 1 empty empty 2nd_reflection_(db)
-2 -8 0 10 -262144 -1 -1 4300 1;
#X obj 238 69 hsl 128 15 -99 18 0 1 empty empty 1st_reflection_(db)
-2 -8 0 10 -262144 -1 -1 2600 1;
#X connect 0 0 4 0;
#X connect 1 0 4 1;
#X connect 4 0 2 0;
#X connect 4 1 3 0;
#X connect 5 0 6 0;
#X connect 6 0 4 7;
#X connect 7 0 8 0;
#X connect 8 0 4 8;
#X connect 9 0 10 0;
#X connect 10 0 4 6;
#X connect 11 0 12 0;
#X connect 12 0 4 5;
#X connect 13 0 4 4;
#X connect 14 0 4 3;
#X connect 15 0 4 2;
#X restore 400 577 pd zrev;
#N canvas 405 91 544 479 freeverb 0;
#X obj 161 191 freeverb~;
#X msg 351 134 wet \$1;
#X msg 356 178 dry \$1;
#X obj 156 36 inlet~;
#X obj 248 34 inlet~;
#X obj 110 412 outlet~;
#X obj 222 411 outlet~;
#X obj 354 90 nbx 5 14 0 1 0 1 empty empty empty 0 -8 0 10 -262144
-1 -1 0.7 256;
#X obj 353 157 nbx 5 14 0 1 0 1 empty empty empty 0 -8 0 10 -262144
-1 -1 0.2 256;
#X msg 344 249 roomsize \$1;
#X obj 345 221 nbx 5 14 0 1 0 1 empty empty empty 0 -8 0 10 -262144
-1 -1 0.7 256;
#X msg 344 304 damping \$1;
#X obj 343 278 nbx 5 14 0 1 0 1 empty empty empty 0 -8 0 10 -262144
-1 -1 0.94 256;
#X obj 349 335 nbx 5 14 0 1 0 1 empty empty empty 0 -8 0 10 -262144
-1 -1 0.78 256;
#X msg 345 364 width \$1;
#X connect 0 0 5 0;
#X connect 0 1 6 0;
#X connect 1 0 0 0;
#X connect 2 0 0 0;
#X connect 3 0 0 0;
#X connect 4 0 0 1;
#X connect 7 0 1 0;
#X connect 8 0 2 0;
#X connect 9 0 0 0;
#X connect 10 0 9 0;
#X connect 11 0 0 0;
#X connect 12 0 11 0;
#X connect 13 0 14 0;
#X connect 14 0 0 0;
#X restore 306 576 pd freeverb;
#X obj 48 6 frv;
#X floatatom 181 91 5 0 0 0 - - -;
#X obj 332 5 cvscale;
#X obj 554 14 frv;
#X obj 403 4 cvscale;
#X obj 464 4 cvscale;
#X obj 473 342 bpw2~ 110 30 50;
#X obj 319 487 *~ 1;
#X obj 391 482 *~ 1;
#X obj 501 248 cvscale;
#X obj 502 317 * 2000;
#X floatatom 561 294 5 0 0 0 - - -;
#X obj 481 385 *~;
#X obj 526 380 nbx 5 14 0 5 0 1 empty empty empty 0 -8 0 10 -262144
-1 -1 1 256;
#X obj 291 343 gain~;
#X obj 19 401 e_chorusr;
#X msg 137 391 freq \$1;
#X msg 100 366 mod \$1;
#X obj 162 239 *~;
#X obj 76 183 frv;
#X obj 12 212 cvscale;
#X floatatom 154 365 5 0 1 0 - - -;
#X floatatom 105 336 5 0 1 0 - - -;
#X obj 13 319 e_phaser;
#X msg 75 289 freq \$1;
#X msg 127 299 depth \$1;
#X floatatom 86 264 5 0 0 0 - - -;
#X floatatom 140 271 5 0 0 0 - - -;
#X obj 10 359 e_freqshift;
#X obj 172 324 nbx 5 14 -1e+37 1e+37 0 0 empty empty empty 0 -8 0 10
-262144 -1 -1 2.4884 256;
#X obj 195 269 * 5;
#X obj 209 238 nbx 5 14 -1e+37 1e+37 0 0 empty empty empty 0 -8 0 10
-262144 -1 -1 0 256;
#N canvas 632 125 708 530 bubbler 0;
#X obj 298 361 +bubbler~;
#X obj 296 117 inlet~;
#X obj 302 473 outlet~;
#X msg 370 276 time \$1;
#X msg 409 322 timeVariation \$1;
#X msg 433 393 filterFreq \$1;
#X msg 470 441 feedback \$1;
#X msg 451 466 resonance \$1;
#X msg 431 192 density \$1;
#X msg 455 255 grainSize \$1;
#X msg 527 294 grainStartVariation \$1;
#X msg 472 34 octave \$1;
#X msg 473 62 octaveVariation \$1;
#X msg 476 100 grainReversal \$1;
#X obj 347 201 nbx 5 14 1 10000 1 1 empty empty empty 0 -8 0 10 -262144
-1 -1 500 256;
#X obj 436 153 nbx 5 14 0 200 0 1 empty empty empty 0 -8 0 10 -262144
-1 -1 170 256;
#X obj 458 224 nbx 5 14 0 50 0 1 empty empty empty 0 -8 0 10 -262144
-1 -1 34 256;
#X obj 575 254 nbx 5 14 0 100 0 1 empty empty empty 0 -8 0 10 -262144
-1 -1 74.66 256;
#X obj 460 289 nbx 5 14 0 100 0 1 empty empty empty 0 -8 0 10 -262144
-1 -1 83 256;
#X obj 443 359 nbx 5 14 20 20000 1 1 empty empty empty 0 -8 0 10 -262144
-1 -1 12305.3 256;
#X obj 563 407 nbx 5 14 0 200 0 1 empty empty empty 0 -8 0 10 -262144
-1 -1 70 256;
#X connect 0 0 2 0;
#X connect 1 0 0 0;
#X connect 3 0 0 0;
#X connect 4 0 0 0;
#X connect 5 0 0 0;
#X connect 6 0 0 0;
#X connect 7 0 0 0;
#X connect 8 0 0 0;
#X connect 9 0 0 0;
#X connect 10 0 0 0;
#X connect 14 0 3 0;
#X connect 15 0 8 0;
#X connect 16 0 9 0;
#X connect 17 0 10 0;
#X connect 18 0 4 0;
#X connect 19 0 5 0;
#X connect 20 0 6 0;
#X restore 706 263 pd bubbler;
#X obj 664 376 panner~;
#X obj 438 419 panner~;
#X obj 269 410 panner~;
#X obj 680 335 *~ 0.3;
#X obj 779 342 nbx 5 14 -1e+37 1e+37 0 0 empty empty empty 0 -8 0 10
-262144 -1 -1 0 256;
#X obj 314 506 stereo-eq~;
#X obj 400 385 nbx 5 14 0 1 0 1 empty empty empty 0 -8 0 10 -262144
-1 -1 0 256;
#X obj 646 118 frv;
#X obj 736 182 cvscale;
#X obj 190 662 recorder~;
#X obj 404 -88 line;
#X obj 351 -204 t b b b;
#X obj 336 -241 bng 15 250 50 0 empty empty empty 17 7 0 10 -262144
-1 -1;
#X msg 452 -156 0 0;
#X obj 587 -66 line;
#X obj 545 -173 t b b b;
#X obj 528 -96 delay;
#X obj 527 -119 minutes 7;
#X msg 528 -70 0 30000;
#X text 548 -200 volume;
#X text 343 -222 cv scaling;
#X msg 370 -131 1 \$1;
#X obj 276 -135 delay;
#X msg 273 -87 0 \$1;
#X msg 632 -139 0 5000;
#X msg 570 -142 1 10000;
#X obj 366 -166 minutes 4;
#X obj 274 -111 minutes 3;
#X msg 240 -195 0 0;
#X obj 395 354 * 0.3;
#X obj 55 -71 * 0.005;
#X floatatom 305 -53 5 0 0 0 - - -;
#X obj 431 311 nbx 5 14 -1e+37 1e+37 0 0 empty empty empty 0 -8 0 10
-262144 -1 -1 0.3 256;
#X obj 95 234 * 0.4;
#X obj 43 499 vu~;
#X obj 682 483 vu~;
#X obj 543 531 vu~;
#X obj 198 508 vu~;
#X obj 721 295 * 0.4;
#X obj 773 285 nbx 5 14 -1e+37 1e+37 0 0 empty empty empty 0 -8 0 10
-262144 -1 -1 0.3 256;
#X obj 149 151 nbx 5 14 -1e+37 1e+37 0 0 empty empty empty 0 -8 0 10
-262144 -1 -1 0.4 256;
#X obj 109 -121 nbx 5 14 -1e+37 1e+37 0 0 empty empty empty 0 -8 0
10 -262144 -1 -1 0.0025 256;
#X connect 0 0 4 0;
#X connect 2 0 1 0;
#X connect 2 0 52 0;
#X connect 2 1 1 1;
#X connect 2 1 3 0;
#X connect 2 1 52 1;
#X connect 4 0 24 0;
#X connect 4 0 28 0;
#X connect 4 0 16 0;
#X connect 4 0 42 0;
#X connect 5 0 4 2;
#X connect 6 0 4 1;
#X connect 7 0 6 0;
#X connect 8 0 2 0;
#X connect 8 1 2 1;
#X connect 9 0 2 0;
#X connect 9 1 2 1;
#X connect 10 1 11 0;
#X connect 10 1 12 0;
#X connect 12 0 0 2;
#X connect 13 1 14 0;
#X connect 13 1 15 0;
#X connect 13 1 19 0;
#X connect 14 0 0 3;
#X connect 15 0 0 4;
#X connect 16 0 22 0;
#X connect 17 0 48 0;
#X connect 18 0 48 1;
#X connect 19 0 20 0;
#X connect 20 0 16 1;
#X connect 21 0 20 1;
#X connect 22 0 44 0;
#X connect 23 0 22 1;
#X connect 24 0 45 0;
#X connect 25 0 17 0;
#X connect 25 0 77 0;
#X connect 25 1 18 0;
#X connect 26 0 25 1;
#X connect 27 0 25 1;
#X connect 28 0 33 0;
#X connect 29 1 30 0;
#X connect 29 1 40 0;
#X connect 29 1 31 0;
#X connect 29 1 37 0;
#X connect 30 0 76 0;
#X connect 31 0 26 0;
#X connect 32 0 27 0;
#X connect 33 0 38 0;
#X connect 34 0 33 1;
#X connect 35 0 33 1;
#X connect 36 0 34 0;
#X connect 37 0 35 0;
#X connect 38 0 25 0;
#X connect 39 0 38 1;
#X connect 40 0 39 0;
#X connect 41 0 40 1;
#X connect 42 0 46 0;
#X connect 43 0 17 0;
#X connect 43 0 78 0;
#X connect 43 1 18 0;
#X connect 44 0 17 0;
#X connect 44 0 79 0;
#X connect 44 1 18 0;
#X connect 45 0 17 0;
#X connect 45 0 18 0;
#X connect 45 0 80 0;
#X connect 46 0 43 0;
#X connect 47 0 46 1;
#X connect 48 0 9 0;
#X connect 48 0 8 0;
#X connect 48 1 9 1;
#X connect 48 1 8 1;
#X connect 49 0 17 1;
#X connect 49 0 18 1;
#X connect 50 1 51 0;
#X connect 51 0 81 0;
#X connect 53 0 12 1;
#X connect 53 0 51 1;
#X connect 53 0 14 1;
#X connect 53 0 15 1;
#X connect 53 0 30 1;
#X connect 53 0 19 1;
#X connect 53 0 73 0;
#X connect 53 0 74 0;
#X connect 54 0 58 0;
#X connect 54 1 69 0;
#X connect 54 2 56 0;
#X connect 55 0 54 0;
#X connect 56 0 53 0;
#X connect 57 0 72 0;
#X connect 58 0 60 0;
#X connect 58 1 68 0;
#X connect 58 2 67 0;
#X connect 59 0 61 0;
#X connect 60 0 59 0;
#X connect 61 0 57 0;
#X connect 64 0 53 0;
#X connect 65 0 70 0;
#X connect 66 0 53 0;
#X connect 67 0 57 0;
#X connect 68 0 57 0;
#X connect 69 0 64 0;
#X connect 69 0 65 0;
#X connect 70 0 66 0;
#X connect 71 0 53 0;
#X connect 71 0 57 0;
#X connect 72 0 49 0;
#X connect 73 0 13 0;
#X connect 73 0 29 0;
#X connect 73 0 10 0;
#X connect 73 0 50 0;
#X connect 75 0 72 1;
#X connect 76 0 28 1;
#X connect 81 0 46 1;
#X connect 82 0 81 1;
#X connect 83 0 76 1;
#X connect 84 0 73 1;
