#N canvas 257 93 1037 562 10;
#X obj 135 152 cvgateseq;
#X obj 466 546 makenote;
#X obj 400 440 t b b;
#X obj 545 532 ii;
#X obj 428 479 f;
#X obj 468 592 noteout;
#X msg 548 563 8;
#X obj 574 474 ii;
#X obj 366 490 bng 15 250 50 0 empty empty empty 17 7 0 10 -262144
-1 -1;
#X floatatom 411 558 5 0 0 0 - - -;
#X msg 460 499 50;
#X msg 509 505 50;
#X obj 49 508 makenote;
#X msg 71 467 50;
#X msg 111 466 50;
#X obj 53 551 noteout;
#X msg 123 531 9;
#X msg 14 465 0;
#X obj 843 47 / 127;
#X obj 815 19 ctlin 7;
#X obj 778 51 / 127;
#X obj 750 23 ctlin 6;
#X obj 716 51 / 127;
#X obj 688 23 ctlin 5;
#X obj 659 53 / 127;
#X obj 631 25 ctlin 4;
#X obj 602 53 / 127;
#X obj 574 25 ctlin 3;
#X obj 544 53 / 127;
#X obj 516 25 ctlin 2;
#X obj 489 55 / 127;
#X obj 461 27 ctlin 1;
#X obj 428 55 / 127;
#X obj 400 27 ctlin 0;
#X obj 25 16 tgl 15 0 empty empty empty 17 7 0 10 -262144 -1 -1 1 1
;
#X obj 190 106 bng 15 250 50 0 empty empty empty 17 7 0 10 -262144
-1 -1;
#X obj 47 109 bng 15 250 50 0 empty empty empty 17 7 0 10 -262144 -1
-1;
#X obj 108 93 onebang;
#X obj 128 500 ii;
#X obj 75 16 pulse 110 1 8;
#X obj 193 46 euclid 4 5 16;
#X obj 49 45 clockdivider;
#X obj 273 4 bng 15 250 50 0 empty empty empty 17 7 0 10 -262144 -1
-1;
#X msg 272 67 5;
#X msg 357 74 3;
#X obj 322 39 sel 1 2 3;
#X obj 318 9 counter 1 2 3;
#X msg 314 71 6;
#X obj 288 108 euclid 5 1 16;
#X connect 0 0 2 0;
#X connect 0 1 4 1;
#X connect 1 0 5 0;
#X connect 1 1 5 1;
#X connect 2 0 4 0;
#X connect 2 1 8 0;
#X connect 3 0 6 0;
#X connect 4 0 1 0;
#X connect 4 0 9 0;
#X connect 6 0 5 2;
#X connect 7 0 10 0;
#X connect 7 0 11 0;
#X connect 10 0 1 1;
#X connect 11 0 1 2;
#X connect 12 0 15 0;
#X connect 12 1 15 1;
#X connect 13 0 12 1;
#X connect 14 0 12 2;
#X connect 16 0 15 2;
#X connect 17 0 12 0;
#X connect 18 0 0 12;
#X connect 19 0 18 0;
#X connect 20 0 0 11;
#X connect 21 0 20 0;
#X connect 22 0 0 10;
#X connect 23 0 22 0;
#X connect 24 0 0 9;
#X connect 25 0 24 0;
#X connect 26 0 0 8;
#X connect 27 0 26 0;
#X connect 28 0 0 7;
#X connect 29 0 28 0;
#X connect 30 0 0 6;
#X connect 31 0 30 0;
#X connect 32 0 0 5;
#X connect 33 0 32 0;
#X connect 34 0 39 0;
#X connect 35 0 0 0;
#X connect 36 0 17 0;
#X connect 36 0 37 1;
#X connect 37 0 35 0;
#X connect 38 0 16 0;
#X connect 39 0 36 0;
#X connect 39 0 40 0;
#X connect 39 0 41 0;
#X connect 39 0 48 0;
#X connect 40 0 37 0;
#X connect 41 3 46 0;
#X connect 43 0 48 1;
#X connect 44 0 48 1;
#X connect 45 0 43 0;
#X connect 45 1 47 0;
#X connect 45 2 44 0;
#X connect 46 0 42 0;
#X connect 46 0 45 0;
#X connect 47 0 48 1;
#X connect 48 0 37 0;
