#N canvas 308 35 893 691 12;
#X obj 509 305 sah~;
#X obj 545 353 edge~;
#X obj 261 309 adenv~;
#X obj 137 544 output~;
#X obj 241 238 bng 15 250 50 0 empty empty empty 17 7 0 10 -262144
-1 -1;
#X floatatom 296 230 5 0 0 0 - - -;
#X floatatom 332 257 5 0 0 0 - - -;
#X obj 140 483 *~;
#X obj 93 384 mtof;
#X obj 130 269 zl nth;
#X obj 42 88 metro 1000;
#X obj 25 42 tgl 15 0 empty empty empty 17 7 0 10 -262144 -1 -1 1 1
;
#X obj 100 334 +;
#X floatatom 161 324 5 0 0 0 - - -;
#X msg 98 201 1 3 5 6 7 9 11;
#X obj 203 60 hradio 15 1 0 7 empty empty empty 0 -8 0 10 -262144 -1
-1 5;
#X obj 143 139 t b f b;
#X floatatom 212 285 5 0 0 0 - - -;
#X obj 518 214 msgfile;
#X obj 458 175 r chain;
#X obj 448 229 prob;
#C restore;
#X obj 460 83 s chain;
#X floatatom 442 269 5 0 0 0 - - -;
#X obj 424 163 bng 15 250 50 0 empty empty empty 17 7 0 10 -262144
-1 -1;
#X msg 572 161 clear;
#X msg 464 -26 1 6 50 \, 1 2 25 \, 1 5 25 \, 2 5 50 \, 2 4 25 \, 2
7 25 \, 3 5 50 \, 3 2 25 \, 3 7 25 \, 4 2 25 \, 4 3 25 \, 4 6 25 \,
4 7 25 \, 5 1 25 \, 5 3 25 \, 5 4 25 \, 5 2 25 \, 6 3 50 \, 6 5 25
\, 6 2 25 \, 7 2 25 \, 7 3 25 \, 7 4 25 \, 7 6 25;
#X obj 126 57 zl nth;
#X obj 612 510 random 4;
#X obj 120 -55 t b b;
#X obj 522 441 t b b;
#X obj 550 562 zl nth;
#X obj 179 6 random 4;
#X obj 134 98 t f;
#X floatatom 194 36 5 0 0 0 - - -;
#X obj 165 32 + 1;
#X obj 601 534 + 1;
#X text 623 289 flat random is boring;
#X obj 109 419 2cosfm~;
#X floatatom 148 368 5 0 0 0 - - -;
#X floatatom 188 385 5 0 0 0 - - -;
#X msg 489 496 500 250 125;
#X msg 130 -23 1000 500 250;
#X connect 2 0 7 1;
#X connect 4 0 2 0;
#X connect 5 0 2 1;
#X connect 6 0 2 2;
#X connect 6 0 29 0;
#X connect 7 0 3 0;
#X connect 7 0 3 1;
#X connect 8 0 37 0;
#X connect 9 0 12 0;
#X connect 10 0 4 0;
#X connect 10 0 16 0;
#X connect 10 0 28 0;
#X connect 11 0 10 0;
#X connect 12 0 8 0;
#X connect 13 0 12 1;
#X connect 14 0 9 0;
#X connect 15 0 16 0;
#X connect 16 0 14 0;
#X connect 16 1 4 0;
#X connect 16 2 4 0;
#X connect 16 2 23 0;
#X connect 19 0 20 0;
#X connect 20 0 22 0;
#X connect 22 0 9 1;
#X connect 23 0 20 0;
#X connect 24 0 20 0;
#X connect 25 0 21 0;
#X connect 26 0 32 0;
#X connect 27 0 35 0;
#X connect 28 0 41 0;
#X connect 28 1 31 0;
#X connect 29 0 40 0;
#X connect 29 1 27 0;
#X connect 30 0 10 1;
#X connect 31 0 33 0;
#X connect 31 0 34 0;
#X connect 32 0 6 0;
#X connect 34 0 26 1;
#X connect 35 0 30 1;
#X connect 37 0 7 0;
#X connect 38 0 37 1;
#X connect 39 0 37 2;
#X connect 40 0 30 0;
#X connect 41 0 26 0;
