#N canvas 262 145 1507 882 10;
#X obj 104 30 tgl 15 0 empty empty empty 17 7 0 10 -262144 -1 -1 0
1;
#X obj 14 103 noise~;
#X obj 94 112 adenv~ 10 20;
#X obj 48 148 *~;
#X obj 104 50 metro 500;
#X floatatom 162 14 5 0 0 0 - - -, f 5;
#X obj 253 30 tgl 15 0 empty empty empty 17 7 0 10 -262144 -1 -1 0
1;
#X obj 197 148 *~;
#X obj 260 65 metro 500;
#X floatatom 311 14 5 0 0 0 - - -, f 5;
#X obj 179 107 phasor~ 500;
#X obj 29 183 s~ \$0-dry;
#X obj 258 110 adenv~ 10 10;
#X obj 43 67 pink~;
#X obj 764 838 dac~;
#X obj 826 750 gain~;
#X obj 820 696 r~ \$0-dry;
#X obj 676 744 gain~;
#X obj 671 697 r~ \$0-wet;
#X obj 105 432 vd~ \$0-loop1;
#X obj 86 574 *~ 0.5;
#X obj 546 580 vd~ \$0-loop1;
#X floatatom 134 396 5 0 0 0 - - -, f 5;
#X obj 16 416 r~ \$0-input;
#X floatatom 547 543 5 0 0 0 - - -, f 5;
#X floatatom 227 476 5 0 0 0 - - -, f 5;
#X floatatom 292 537 5 0 0 0 - - -, f 5;
#X floatatom 196 439 5 0 0 0 - - -, f 5;
#X floatatom 266 501 5 0 0 0 - - -, f 5;
#X obj 472 430 *~ 0.5;
#X floatatom 519 272 5 0 0 0 - - -, f 5;
#X floatatom 621 336 5 0 0 0 - - -, f 5;
#X floatatom 631 375 5 0 0 0 - - -, f 5;
#X floatatom 608 311 5 0 0 0 - - -, f 5;
#X floatatom 627 356 5 0 0 0 - - -, f 5;
#X obj 504 300 vd~ \$0-loop2;
#X obj 484 215 r~ \$0-input;
#X obj 688 666 s~ \$0-wet;
#X floatatom 643 538 5 0 0 0 - - -, f 5;
#X obj 638 576 vd~ \$0-loop2;
#X obj 84 613 delwrite~ \$0-loop1 200;
#X obj 793 394 *~ 0.5;
#X floatatom 814 253 5 0 0 0 - - -, f 5;
#X obj 798 179 r~ \$0-input;
#X floatatom 931 298 5 0 0 0 - - -, f 5;
#X floatatom 941 337 5 0 0 0 - - -, f 5;
#X floatatom 918 273 5 0 0 0 - - -, f 5;
#X floatatom 984 309 5 0 0 0 - - -, f 5;
#X obj 1161 441 *~ 0.5;
#X floatatom 1208 283 5 0 0 0 - - -, f 5;
#X floatatom 1299 345 5 0 0 0 - - -, f 5;
#X floatatom 1309 384 5 0 0 0 - - -, f 5;
#X floatatom 1286 320 5 0 0 0 - - -, f 5;
#X floatatom 1352 356 5 0 0 0 - - -, f 5;
#X obj 1173 226 r~ \$0-input;
#X floatatom 741 542 5 0 0 0 - - -, f 5;
#X floatatom 831 552 5 0 0 0 - - -, f 5;
#X obj 734 585 vd~ \$0-loop3;
#X obj 824 588 vd~ \$0-loop4;
#X obj 791 469 delwrite~ \$0-loop3 200;
#X obj 1157 496 delwrite~ \$0-loop4 200;
#X obj 1198 310 vd~ \$0-loop4;
#X obj 810 294 vd~ \$0-loop3;
#X obj 470 481 delwrite~ \$0-loop2 500;
#X floatatom 173 306 5 0 0 0 - - -, f 5;
#X obj 165 331 / 1000;
#X obj 271 139 adc~;
#X obj 1179 57 s \$0-decay;
#X obj 1186 19 hsl 128 15 0 1 0 0 empty empty empty -2 -8 0 10 -262144
-1 -1 11400 1;
#X floatatom 1142 39 5 0 0 0 - - -, f 5;
#X obj 147 572 r \$0-decay;
#X obj 523 428 r \$0-decay;
#X obj 850 390 r \$0-decay;
#X obj 1218 434 r \$0-decay;
#X obj 187 374 hsl 128 15 20 40 0 0 empty empty empty -2 -8 0 10 -262144
-1 -1 0 1;
#X obj 233 431 hsl 128 15 20 40 0 0 empty empty empty -2 -8 0 10 -262144
-1 -1 0 1;
#X obj 168 262 hsl 128 15 0 40 0 0 empty empty empty -2 -8 0 10 -262144
-1 -1 0 1;
#X obj 269 452 hsl 128 15 0 1 0 0 empty empty empty -2 -8 0 10 -262144
-1 -1 0 1;
#X obj 322 501 hsl 128 15 0 1 0 0 empty empty empty -2 -8 0 10 -262144
-1 -1 0 1;
#X obj 653 613 *~ -0.6;
#X obj 569 618 *~ 0.6;
#X obj 730 618 *~ 0.6;
#X obj 824 619 *~ -0.6;
#X obj 150 189 s~ \$0-diffusers;
#X obj 538 83 r~ \$0-diffusers;
#X obj 535 177 s~ \$0-input;
#X msg 88 363 28.66;
#X obj 85 330 loadbang;
#X msg 582 270 24, f 4;
#X obj 581 245 loadbang;
#X msg 856 252 15;
#X obj 854 228 loadbang;
#X msg 1254 269 11.3;
#X obj 1254 247 loadbang;
#X msg 599 538 15;
#X msg 697 536 25;
#X msg 794 542 7.5;
#X msg 892 544 8;
#X obj 702 496 loadbang;
#X obj 89 514 allpass~ 100 25.66 0.598;
#X obj 90 546 allpass~ 100 37.48 0.519;
#X obj 475 370 allpass~ 100 22 0.49;
#X obj 475 404 allpass~ 100 16 0.52;
#X obj 796 334 allpass~ 100 23 0.5;
#X obj 798 366 allpass~ 100 28 0.6;
#X obj 1164 382 allpass~ 100 22 0.7;
#X obj 1165 413 allpass~ 100 40 0.6;
#X obj 518 716 s~ \$0-left;
#X obj 921 698 s~ \$0-right;
#X obj 1060 755 r~ \$0-right;
#X obj 986 754 r~ \$0-left;
#X obj 989 787 *~ 1.2;
#X obj 1065 788 *~ 1.2;
#X floatatom 1090 671 5 0 0 0 - - -, f 5;
#X obj 537 115 gain~;
#X connect 0 0 4 0;
#X connect 2 0 3 1;
#X connect 3 0 11 0;
#X connect 3 0 83 0;
#X connect 4 0 2 0;
#X connect 5 0 4 1;
#X connect 6 0 8 0;
#X connect 7 0 11 0;
#X connect 7 0 83 0;
#X connect 8 0 12 0;
#X connect 9 0 8 1;
#X connect 10 0 7 0;
#X connect 12 0 7 1;
#X connect 13 0 3 0;
#X connect 15 0 14 0;
#X connect 15 0 14 1;
#X connect 16 0 15 0;
#X connect 17 0 14 0;
#X connect 17 0 14 1;
#X connect 18 0 17 0;
#X connect 19 0 99 0;
#X connect 20 0 40 0;
#X connect 21 0 80 0;
#X connect 22 0 19 0;
#X connect 23 0 99 0;
#X connect 24 0 21 0;
#X connect 25 0 100 1;
#X connect 26 0 100 2;
#X connect 27 0 99 1;
#X connect 28 0 99 2;
#X connect 29 0 63 0;
#X connect 30 0 35 0;
#X connect 31 0 101 2;
#X connect 32 0 102 2;
#X connect 33 0 101 1;
#X connect 34 0 102 1;
#X connect 35 0 101 0;
#X connect 36 0 101 0;
#X connect 38 0 39 0;
#X connect 39 0 79 0;
#X connect 41 0 59 0;
#X connect 42 0 62 0;
#X connect 43 0 103 0;
#X connect 44 0 103 2;
#X connect 45 0 104 2;
#X connect 46 0 103 1;
#X connect 47 0 104 1;
#X connect 48 0 60 0;
#X connect 49 0 61 0;
#X connect 50 0 105 2;
#X connect 51 0 106 2;
#X connect 52 0 105 1;
#X connect 53 0 106 1;
#X connect 54 0 105 0;
#X connect 55 0 57 0;
#X connect 56 0 58 0;
#X connect 57 0 81 0;
#X connect 58 0 82 0;
#X connect 61 0 105 0;
#X connect 62 0 103 0;
#X connect 64 0 65 0;
#X connect 65 0 19 0;
#X connect 66 0 11 0;
#X connect 66 0 83 0;
#X connect 68 0 69 0;
#X connect 68 0 67 0;
#X connect 70 0 20 1;
#X connect 71 0 29 1;
#X connect 72 0 41 1;
#X connect 73 0 48 1;
#X connect 79 0 37 0;
#X connect 79 0 107 0;
#X connect 80 0 37 0;
#X connect 80 0 107 0;
#X connect 81 0 37 0;
#X connect 81 0 108 0;
#X connect 82 0 37 0;
#X connect 82 0 108 0;
#X connect 84 0 114 0;
#X connect 86 0 19 0;
#X connect 87 0 86 0;
#X connect 88 0 35 0;
#X connect 89 0 88 0;
#X connect 90 0 62 0;
#X connect 91 0 90 0;
#X connect 92 0 61 0;
#X connect 93 0 92 0;
#X connect 94 0 21 0;
#X connect 95 0 39 0;
#X connect 96 0 57 0;
#X connect 97 0 58 0;
#X connect 98 0 94 0;
#X connect 98 0 95 0;
#X connect 98 0 96 0;
#X connect 98 0 97 0;
#X connect 99 0 100 0;
#X connect 100 0 20 0;
#X connect 101 0 102 0;
#X connect 102 0 29 0;
#X connect 103 0 104 0;
#X connect 104 0 41 0;
#X connect 105 0 106 0;
#X connect 106 0 48 0;
#X connect 109 0 112 0;
#X connect 110 0 111 0;
#X connect 111 0 14 1;
#X connect 112 0 14 0;
#X connect 113 0 111 1;
#X connect 113 0 112 1;
#X connect 114 0 85 0;
