#N canvas 197 71 1096 634 10;
#X obj 876 521 output~;
#N canvas 38 112 543 551 lopassgates 0;
#X obj 13 26 inlet~;
#X obj 224 19 inlet~;
#X obj 152 117 vradio 12 1 1 2 empty empty gate_2_source 0 -8 1 10
-262144 -1 -1 0;
#X text 168 112 mod osc;
#X text 168 127 primary osc;
#X text 146 151 lopass filter;
#X text 153 164 combination;
#X text 135 177 voltage ctrld amp;
#X obj 110 157 vradio 12 1 1 3 empty empty gate_1 -8 -8 1 10 -262144
-1 -1 1;
#X obj 256 157 vradio 12 1 1 3 empty empty gate_2 -8 -8 1 10 -262144
-1 -1 1;
#X obj 130 494 crossfade~;
#X obj 28 494 outlet~;
#X obj 235 482 outlet~;
#X text 15 4 input 1;
#X text 65 4 control 1;
#X text 222 2 input 2;
#X text 293 8 control 2;
#X obj 127 209 hsl 128 15 0 1 0 1 empty empty gate_1_level -2 -8 1
10 -262144 -1 -1 0 1;
#X obj 127 239 hsl 128 15 0 1 0 1 empty empty gate_1_cv -2 -8 1 10
-262144 -1 -1 4000 1;
#X obj 127 269 hsl 128 15 0 1 0 1 empty empty gate_2_level -2 -8 1
10 -262144 -1 -1 0 1;
#X obj 127 299 hsl 128 15 0.001 1 1 1 empty empty gate_2_cv -2 -8 1
10 -262144 -1 -1 10400 1;
#X obj 116 436 *~ -1;
#X obj 36 437 mmg~;
#X obj 242 395 t b f;
#X obj 69 22 inlet~;
#X obj 50 344 cvcontrol~;
#X obj 236 438 mmg~;
#X obj 316 367 cvcontrol~;
#X obj 296 33 inlet~;
#X connect 0 0 22 0;
#X connect 1 0 10 0;
#X connect 2 0 10 2;
#X connect 8 0 22 2;
#X connect 9 0 23 0;
#X connect 10 0 26 0;
#X connect 17 0 25 1;
#X connect 18 0 25 2;
#X connect 19 0 27 1;
#X connect 20 0 27 2;
#X connect 21 0 10 1;
#X connect 22 0 11 0;
#X connect 22 0 21 0;
#X connect 23 1 26 2;
#X connect 24 0 25 0;
#X connect 25 0 22 1;
#X connect 26 0 12 0;
#X connect 27 0 26 1;
#X connect 28 0 27 0;
#X coords 0 -1 1 1 180 220 2 100 100;
#X restore 833 -106 pd lopassgates;
#N canvas 360 116 955 604 levels 0;
#X obj 524 50 inlet~;
#X obj 663 50 inlet~;
#X obj 524 79 *~;
#X obj 663 78 *~;
#X obj 626 538 outlet~;
#X obj 110 117 hsl 128 15 0.001 1 1 1 empty empty chan_A_level -2 -8
1 10 -262144 -1 -1 12200 1;
#X obj 110 150 hsl 128 15 0.001 1 1 1 empty empty chan_B_level -2 -8
1 10 -262144 -1 -1 12700 1;
#X obj 110 249 hsl 128 15 -1 0 0 1 empty empty reverb -2 -8 1 10 -262144
-1 -1 12065 1;
#X obj 110 282 hsl 128 15 0 100 0 1 empty empty master_level -2 -8
1 10 -262144 -1 -1 12700 1;
#N canvas 21 58 770 633 verb 0;
#X obj 42 216 inlet~;
#X obj 120 212 inlet~;
#X obj 110 535 outlet~;
#X obj 195 535 outlet~;
#X obj 178 434 zrev1~ 10 10 10;
#X obj 484 269 hsl 128 15 0 100 0 1 empty empty reverb_time -2 -8 0
10 -262144 -1 -1 12065 1;
#X floatatom 497 340 5 0 0 0 - - -;
#X obj 534 385 hsl 128 15 -1 1 0 1 empty empty mix -2 -8 0 10 -262144
-1 -1 6032 1;
#X floatatom 526 421 5 0 0 0 - - -;
#X obj 457 225 hsl 128 15 0 200 0 1 empty empty room_size -2 -8 0 10
-262144 -1 -1 11300 1;
#X floatatom 418 267 5 0 0 0 - - -;
#X obj 391 181 hsl 128 15 200 20000 1 1 empty empty lpf_cutoff -2 -8
0 10 -262144 -1 -1 10500 1;
#X floatatom 380 229 5 0 0 0 - - -;
#X obj 365 135 hsl 128 15 -99 18 0 1 empty empty recycle -2 -8 0 10
-262144 -1 -1 9100 1;
#X obj 306 95 hsl 128 15 -99 18 0 1 empty empty 2nd_reflection_(db)
-2 -8 0 10 -262144 -1 -1 6200 1;
#X obj 228 59 hsl 128 15 -99 18 0 1 empty empty 1st_reflection_(db)
-2 -8 0 10 -262144 -1 -1 8300 1;
#X obj 598 33 inlet;
#X floatatom 638 89 5 0 0 0 - - -;
#X obj 531 114 expr 1 - ($f1 * -1);
#X obj 526 142 * 100;
#X connect 0 0 4 0;
#X connect 1 0 4 1;
#X connect 4 0 2 0;
#X connect 4 1 3 0;
#X connect 5 0 6 0;
#X connect 6 0 4 7;
#X connect 7 0 8 0;
#X connect 8 0 4 8;
#X connect 9 0 10 0;
#X connect 10 0 4 6;
#X connect 11 0 12 0;
#X connect 12 0 4 5;
#X connect 13 0 4 4;
#X connect 14 0 4 3;
#X connect 15 0 4 2;
#X connect 16 0 7 0;
#X connect 16 0 17 0;
#X connect 16 0 18 0;
#X connect 18 0 19 0;
#X connect 19 0 5 0;
#X restore 605 311 pd verb;
#X obj 572 138 pan~;
#X obj 656 136 pan~;
#X obj 110 183 hsl 128 15 -45 45 0 1 empty empty chan_A_pan -2 -8 1
10 -262144 -1 -1 6500 1;
#X obj 110 216 hsl 128 15 -45 45 0 1 empty empty chan_B_pan -2 -8 1
10 -262144 -1 -1 6600 1;
#X obj 598 394 vols~;
#X obj 571 537 outlet~;
#X obj 576 453 hip~ 1;
#X obj 633 454 hip~ 1;
#X obj 489 324 spring~;
#X obj 492 236 nbx 5 14 0 1 0 1 empty empty empty 0 -8 0 10 -262144
-1 -1 1 256;
#X obj 416 239 nbx 5 14 0 1 0 1 empty empty empty 0 -8 0 10 -262144
-1 -1 0 256;
#X obj 549 492 clip~ -1 1;
#X obj 632 491 clip~ -1 1;
#X obj 754 52 inlet;
#X obj 751 116 * 45;
#X floatatom 759 166 5 0 0 0 - - -;
#X floatatom 879 76 5 0 0 0 - - -;
#X obj 752 87 expr ($f1 * 2) - 1;
#X obj 890 46 inlet;
#X floatatom 897 118 5 0 0 0 - - -;
#X floatatom 833 194 5 0 0 0 - - -;
#X obj 821 154 expr ($f1 - 1);
#X connect 0 0 2 0;
#X connect 1 0 3 0;
#X connect 2 0 10 0;
#X connect 3 0 11 0;
#X connect 5 0 2 1;
#X connect 6 0 3 1;
#X connect 7 0 9 2;
#X connect 7 0 20 0;
#X connect 7 0 18 2;
#X connect 8 0 14 2;
#X connect 9 0 14 0;
#X connect 9 1 14 1;
#X connect 10 0 18 0;
#X connect 10 0 9 0;
#X connect 10 1 18 1;
#X connect 10 1 9 1;
#X connect 11 0 18 0;
#X connect 11 0 9 0;
#X connect 11 1 18 1;
#X connect 11 1 9 1;
#X connect 12 0 10 1;
#X connect 13 0 11 1;
#X connect 14 0 16 0;
#X connect 14 1 17 0;
#X connect 16 0 21 0;
#X connect 17 0 22 0;
#X connect 19 0 18 2;
#X connect 20 0 18 3;
#X connect 21 0 15 0;
#X connect 22 0 4 0;
#X connect 23 0 26 0;
#X connect 23 0 27 0;
#X connect 24 0 10 1;
#X connect 24 0 25 0;
#X connect 27 0 24 0;
#X connect 28 0 29 0;
#X connect 28 0 31 0;
#X connect 31 0 7 0;
#X connect 31 0 30 0;
#X coords 0 -1 1 1 145 210 2 100 100;
#X restore 844 133 pd levels;
#X text 382 505 todo: keyboard \, env sustain \, env modes \, pulser
modes;
#X obj 110 290 tinyseq;
#X obj 135 356 +;
#X obj 514 178 complexosc~;
#X obj 184 398 mtof;
#X obj 327 190 bng 15 250 50 0 empty empty empty 17 7 0 10 -262144
-1 -1;
#X obj 251 478 mtof;
#X floatatom 269 511 5 0 0 0 - - -;
#X obj 253 443 - 12;
#X floatatom 309 344 5 0 0 0 - - -;
#X floatatom 77 336 5 0 0 0 - - -;
#X obj 257 371 +;
#X obj 462 383 osc~;
#X obj 856 435 stereo-out-prep;
#X obj 1013 428 vu~;
#X obj 863 385 panner~;
#X obj 673 386 frv;
#X obj 352 -40 adenv~ 1000 2000;
#X obj 134 52 bng 15 250 50 0 empty empty empty 17 7 0 10 -262144 -1
-1;
#X obj 42 -96 bng 15 250 50 0 empty empty empty 17 7 0 10 -262144 -1
-1;
#X msg 132 -28 1 \$1;
#X obj 150 9 line;
#X obj 793 187 + 50;
#X obj 15 210 4numberlist;
#X obj 386 -76 nbx 5 14 -1e+37 1e+37 0 1 empty empty empty 0 -8 0 10
-262144 -1 -1 3000 256;
#X obj 459 -66 nbx 5 14 -1e+37 1e+37 0 1 empty empty empty 0 -8 0 10
-262144 -1 -1 12000 256;
#X obj 185 324 nbx 5 14 -1e+37 1e+37 0 1 empty empty empty 0 -8 0 10
-262144 -1 -1 54 256;
#X obj 693 -5 *~;
#X obj 662 57 sig~;
#X obj 748 38 *~ 0.5;
#X msg 224 -12 0 0;
#X obj 128 -61 minutes 0.1;
#X obj 236 -74 minutes 2;
#X msg 260 -20 1 \$1;
#X obj 282 55 line;
#X obj 642 105 * 0.3;
#X obj 148 -97 bng 15 250 50 0 empty empty empty 17 7 0 10 -262144
-1 -1;
#X obj 494 111 expr ($f1 * -1) + 1;
#X floatatom 631 481 5 0 0 0 - - -;
#X obj 503 435 frv;
#X floatatom 694 481 5 0 0 0 - - -;
#X obj 308 -62 delay;
#X floatatom 760 345 5 0 0 0 - - -;
#X obj 346 14 line;
#X msg 322 -10 0 0;
#X obj 706 -40 * 0.7;
#X obj 556 361 expr ($f1 * 0.3) + ($f2 * 0.2);
#X obj 193 87 tgl 15 0 empty empty empty 17 7 0 10 -262144 -1 -1 1
1;
#X msg 170 61 1;
#X obj 325 233 4numberlist;
#X obj 203 115 metro 5000;
#X obj 463 -101 expr ($f1 * 8000) + 4000;
#X msg 218 -45 1 0.7;
#X msg 259 143 0 2 4 5 7 9 11 12 14 16 17;
#X obj 269 315 tinyseq;
#X obj 80 -94 t b b b b;
#X msg 233 44 0;
#X obj 704 117 * 0.3;
#X obj 780 316 + 0.8;
#X obj 783 283 * 0.15;
#X obj 746 473 recorder~;
#X obj 787 158 * 49;
#N canvas 309 106 833 588 bubbler 0;
#X obj 308 371 +bubbler~;
#X obj 306 127 inlet~;
#X obj 305 512 outlet~;
#X msg 380 286 time \$1;
#X msg 419 332 timeVariation \$1;
#X msg 443 403 filterFreq \$1;
#X msg 480 451 feedback \$1;
#X msg 461 476 resonance \$1;
#X msg 441 202 density \$1;
#X msg 465 265 grainSize \$1;
#X msg 537 304 grainStartVariation \$1;
#X msg 482 44 octave \$1;
#X msg 483 72 octaveVariation \$1;
#X msg 486 110 grainReversal \$1;
#X obj 357 211 nbx 5 14 1 10000 1 1 empty empty empty 0 -8 0 10 -262144
-1 -1 496.445 256;
#X obj 446 163 nbx 5 14 0 200 0 1 empty empty empty 0 -8 0 10 -262144
-1 -1 113 256;
#X obj 468 234 nbx 5 14 0 50 0 1 empty empty empty 0 -8 0 10 -262144
-1 -1 44 256;
#X obj 585 264 nbx 5 14 0 100 0 1 empty empty empty 0 -8 0 10 -262144
-1 -1 100 256;
#X obj 470 299 nbx 5 14 0 100 0 1 empty empty empty 0 -8 0 10 -262144
-1 -1 71 256;
#X obj 453 369 nbx 5 14 20 20000 1 1 empty empty empty 0 -8 0 10 -262144
-1 -1 10000 256;
#X obj 573 417 nbx 5 14 0 200 0 1 empty empty empty 0 -8 0 10 -262144
-1 -1 50 256;
#X obj 305 411 gain~;
#X obj 627 36 inlet;
#X obj 636 363 nbx 5 14 0 100 0 1 empty empty empty 0 -8 0 10 -262144
-1 -1 3 256;
#X obj 655 102 ii;
#X obj 662 64 bng 15 250 50 0 empty empty empty 17 7 0 10 -262144 -1
-1;
#X connect 0 0 21 0;
#X connect 1 0 0 0;
#X connect 3 0 0 0;
#X connect 4 0 0 0;
#X connect 5 0 0 0;
#X connect 6 0 0 0;
#X connect 7 0 0 0;
#X connect 8 0 0 0;
#X connect 9 0 0 0;
#X connect 10 0 0 0;
#X connect 14 0 3 0;
#X connect 15 0 8 0;
#X connect 16 0 9 0;
#X connect 17 0 10 0;
#X connect 18 0 4 0;
#X connect 19 0 5 0;
#X connect 20 0 6 0;
#X connect 21 0 2 0;
#X connect 22 0 20 0;
#X connect 23 0 7 0;
#X connect 24 0 15 0;
#X connect 24 0 14 0;
#X connect 24 0 16 0;
#X connect 24 0 17 0;
#X connect 24 0 18 0;
#X connect 24 0 23 0;
#X connect 24 0 19 0;
#X connect 25 0 24 0;
#X restore 876 358 pd bubbler;
#X obj 301 -96 minutes 2.33;
#X msg 57 137 3 6 8 7;
#X msg 383 182 1 4 6 5;
#X connect 1 0 2 0;
#X connect 1 1 2 1;
#X connect 2 0 16 0;
#X connect 2 0 65 0;
#X connect 2 1 16 1;
#X connect 4 0 5 0;
#X connect 4 0 13 0;
#X connect 5 0 7 0;
#X connect 6 0 1 0;
#X connect 7 0 6 0;
#X connect 8 0 68 0;
#X connect 8 0 67 0;
#X connect 9 0 15 0;
#X connect 11 0 9 0;
#X connect 11 0 10 0;
#X connect 14 0 11 0;
#X connect 15 0 1 2;
#X connect 16 0 0 0;
#X connect 16 0 63 0;
#X connect 16 1 0 1;
#X connect 16 1 17 0;
#X connect 16 1 63 1;
#X connect 18 0 16 0;
#X connect 18 1 16 1;
#X connect 19 1 18 1;
#X connect 20 0 30 0;
#X connect 21 0 4 3;
#X connect 21 0 57 3;
#X connect 22 0 58 0;
#X connect 23 0 24 0;
#X connect 24 0 31 0;
#X connect 24 0 48 0;
#X connect 25 0 65 1;
#X connect 26 0 4 1;
#X connect 27 0 20 1;
#X connect 28 0 20 2;
#X connect 29 0 5 1;
#X connect 29 0 14 1;
#X connect 30 0 1 1;
#X connect 31 0 32 0;
#X connect 32 0 1 3;
#X connect 33 0 24 0;
#X connect 33 0 37 0;
#X connect 34 0 23 0;
#X connect 35 0 36 0;
#X connect 36 0 37 0;
#X connect 37 0 6 2;
#X connect 37 0 38 0;
#X connect 37 0 40 0;
#X connect 37 0 49 1;
#X connect 37 0 54 0;
#X connect 37 0 60 0;
#X connect 37 0 62 0;
#X connect 37 0 64 0;
#X connect 39 0 34 0;
#X connect 40 0 6 4;
#X connect 42 0 41 0;
#X connect 42 1 43 0;
#X connect 42 1 49 0;
#X connect 44 0 47 0;
#X connect 45 0 49 1;
#X connect 46 0 31 0;
#X connect 46 0 48 0;
#X connect 46 0 64 0;
#X connect 47 0 46 0;
#X connect 48 0 30 1;
#X connect 49 0 6 3;
#X connect 50 0 53 0;
#X connect 51 0 50 0;
#X connect 52 0 57 1;
#X connect 53 0 4 0;
#X connect 53 0 20 0;
#X connect 53 0 57 0;
#X connect 54 0 28 0;
#X connect 55 0 48 0;
#X connect 55 0 31 0;
#X connect 56 0 4 2;
#X connect 56 0 57 2;
#X connect 57 0 12 0;
#X connect 57 0 14 0;
#X connect 58 0 35 0;
#X connect 58 0 34 0;
#X connect 58 0 51 0;
#X connect 58 0 66 0;
#X connect 58 1 21 0;
#X connect 58 2 33 0;
#X connect 58 2 55 0;
#X connect 58 3 56 0;
#X connect 58 3 8 0;
#X connect 58 3 59 0;
#X connect 59 0 50 0;
#X connect 60 0 6 6;
#X connect 61 0 2 3;
#X connect 62 0 61 0;
#X connect 64 0 25 0;
#X connect 65 0 18 0;
#X connect 66 0 44 0;
#X connect 67 0 4 1;
#X connect 68 0 57 1;
