#N canvas 0 22 801 678 10;
#X obj 248 74 osc~;
#X floatatom 248 20 5 0 0 0 - - -;
#X obj 247 592 clip~ -1 1;
#X obj 238 633 output~;
#X obj 65 105 vd~ \$0-feedback;
#X floatatom 84 60 5 0 0 0 - - -;
#X obj 245 128 *~;
#X obj 352 48 metro;
#X obj 323 22 tgl 15 0 empty empty empty 17 7 0 10 -262144 -1 -1 1
1;
#X floatatom 392 15 5 0 0 0 - - -;
#X obj 431 61 random 2000;
#X obj 359 450 delwrite~ \$0-feedback 500;
#X obj 238 560 hip~ 1;
#X floatatom 436 137 5 0 0 0 - - -;
#X floatatom 527 155 5 0 0 0 - - -;
#X obj 245 524 *~ 0.1;
#X obj 443 347 FIR~;
#X obj 249 418 +~;
#X obj 302 176 allpass~ 100 10 1 0.9;
#X obj 300 206 allpass~ 100 10 1 0.8;
#X obj 297 239 allpass~ 100 10 1 0.7;
#X obj 296 267 allpass~ 100 10 1 0.6;
#X obj 291 297 allpass~ 100 10 1 0.5;
#X obj 289 349 rzero_rev~;
#X obj 291 378 rpole~;
#X obj 369 335 / 100;
#X floatatom 457 298 5 0 0 0 - - -;
#X obj 373 94 adenv~ 15 100;
#X connect 0 0 6 0;
#X connect 1 0 0 0;
#X connect 2 0 3 0;
#X connect 2 0 3 1;
#X connect 5 0 4 0;
#X connect 6 0 17 0;
#X connect 6 0 18 0;
#X connect 6 0 23 0;
#X connect 7 0 10 0;
#X connect 7 0 27 0;
#X connect 8 0 7 0;
#X connect 9 0 7 1;
#X connect 10 0 0 0;
#X connect 12 0 2 0;
#X connect 13 0 18 1;
#X connect 13 0 19 1;
#X connect 13 0 20 1;
#X connect 13 0 21 1;
#X connect 13 0 22 1;
#X connect 14 0 18 2;
#X connect 14 0 19 2;
#X connect 14 0 20 2;
#X connect 14 0 21 2;
#X connect 14 0 22 2;
#X connect 15 0 12 0;
#X connect 17 0 15 0;
#X connect 18 0 19 0;
#X connect 19 0 20 0;
#X connect 20 0 21 0;
#X connect 21 0 22 0;
#X connect 23 0 24 0;
#X connect 24 0 17 1;
#X connect 25 0 23 1;
#X connect 25 0 24 1;
#X connect 26 0 25 0;
#X connect 27 0 6 1;
