#N canvas 525 128 673 535 10;
#X obj 56 12 loadbang;
#X obj 380 21 table \$0-register;
#X obj 28 288 rand1;
#X obj 26 241 counter 0 3;
#X obj 63 325 tabwrite;
#X obj 40 62 bng 15 250 50 0 empty empty empty 17 7 0 10 -262144 -1
-1;
#X obj 27 94 t a b;
#X obj 60 131 pack 0 \$0;
#X msg 81 166 set \$2-register;
#X obj 14 183 t b b b b;
#X obj 227 22 bng 15 250 50 0 empty empty empty 17 7 0 10 -262144 -1
-1;
#X obj 227 71 t a b;
#X obj 300 102 pack 0 \$0;
#X msg 311 162 set \$2-register;
#X obj 195 300 tabread;
#X obj 232 425 tabwrite;
#X obj 291 315 rand1;
#X obj 336 378 tabwrite;
#X obj 87 98 bng 15 250 50 0 empty empty empty 17 7 0 10 -262144 -1
-1;
#X obj 329 66 bng 15 250 50 0 empty empty empty 17 7 0 10 -262144 -1
-1;
#X floatatom 374 348 5 0 0 0 - - -;
#X obj 137 96 print start;
#X obj 217 146 bng 15 250 50 0 empty empty empty 17 7 0 10 -262144
-1 -1;
#X obj 198 354 t a b;
#X obj 213 200 counter 1 0 2;
#X obj 190 171 bng 15 250 50 0 empty empty empty 17 7 0 10 -262144
-1 -1;
#X obj 267 137 bng 15 250 50 0 empty empty empty 17 7 0 10 -262144
-1 -1;
#X obj 389 285 print writeTo;
#X obj 94 372 print readVal;
#X obj 25 435 print readFrom;
#X obj 236 261 + 0;
#X obj 146 266 - 1;
#X obj 137 491 sel 1;
#X obj 152 453 expr ($f2 > 0);
#X obj 55 35 t b b;
#X obj 435 196 setsize;
#X obj 429 337 pack 0 \$0;
#X msg 440 397 \; array \$2-register resize;
#X connect 0 0 34 0;
#X connect 2 0 4 0;
#X connect 3 0 2 0;
#X connect 3 0 4 1;
#X connect 5 0 6 0;
#X connect 6 0 7 0;
#X connect 6 1 9 0;
#X connect 7 0 8 0;
#X connect 8 0 4 0;
#X connect 9 0 3 0;
#X connect 9 1 3 0;
#X connect 9 2 3 0;
#X connect 9 3 3 0;
#X connect 10 0 11 0;
#X connect 10 0 21 0;
#X connect 11 0 12 0;
#X connect 11 0 22 0;
#X connect 12 0 13 0;
#X connect 13 0 14 0;
#X connect 13 0 17 0;
#X connect 13 0 15 0;
#X connect 14 0 23 0;
#X connect 14 0 28 0;
#X connect 16 0 17 0;
#X connect 18 0 7 0;
#X connect 19 0 12 0;
#X connect 20 0 17 1;
#X connect 22 0 24 0;
#X connect 23 0 15 0;
#X connect 23 1 33 0;
#X connect 24 0 30 0;
#X connect 24 0 31 0;
#X connect 24 0 33 1;
#X connect 24 1 16 0;
#X connect 24 1 26 0;
#X connect 25 0 24 0;
#X connect 26 0 24 4;
#X connect 30 0 15 1;
#X connect 30 0 27 0;
#X connect 31 0 14 0;
#X connect 31 0 29 0;
#X connect 32 0 25 0;
#X connect 33 0 32 0;
#X connect 34 1 19 0;
#X connect 34 1 18 0;
#X connect 34 1 5 0;
#X connect 36 0 37 0;
