#N canvas 159 68 1039 619 10;
#X obj 80 203 triggerseq;
#X obj 343 244 midinote;
#X obj 16 18 tgl 15 0 empty empty empty 17 7 0 10 -262144 -1 -1 0 1
;
#X obj 40 55 pulse 120 1 16;
#X text 253 12 36: KICK \, 38: SNARE \, 43: LO TOM \, 50: HI TOM \,
42: CL HAT \, 46: OP HAT \, 39: CLAP.;
#X obj 81 118 triggerseq;
#X obj 339 151 midinote;
#X obj 66 279 minicvseq;
#X obj 70 404 * 127;
#X obj 67 450 ctlout;
#X floatatom 140 424 5 0 0 0 - - -;
#X floatatom 102 420 5 0 0 0 - - -;
#X obj 202 406 * 127;
#X obj 199 452 ctlout;
#X floatatom 277 428 5 0 0 0 - - -;
#X floatatom 234 422 5 0 0 0 - - -;
#X obj 72 80 sendclock 9;
#X floatatom 149 47 5 0 0 0 - - -;
#X obj 303 153 onoff;
#X obj 303 243 onoff;
#X obj 485 75 mini16seq;
#X obj 506 386 makenote 50 50;
#X obj 494 346 +;
#X obj 488 309 * 12;
#X floatatom 532 320 5 0 0 0 - - -;
#X obj 511 440 noteout;
#X floatatom 561 415 5 0 0 0 - - -;
#X obj 117 20 t b;
#X connect 0 0 19 0;
#X connect 2 0 3 0;
#X connect 2 0 27 0;
#X connect 3 0 16 0;
#X connect 3 0 5 0;
#X connect 3 0 0 0;
#X connect 3 0 7 0;
#X connect 3 0 20 0;
#X connect 5 0 18 0;
#X connect 7 0 8 0;
#X connect 7 0 12 0;
#X connect 8 0 9 0;
#X connect 10 0 9 2;
#X connect 11 0 9 1;
#X connect 12 0 13 0;
#X connect 14 0 13 2;
#X connect 15 0 13 1;
#X connect 17 0 16 1;
#X connect 18 0 6 0;
#X connect 19 0 1 0;
#X connect 20 0 23 0;
#X connect 21 0 25 0;
#X connect 22 0 21 0;
#X connect 23 0 22 0;
#X connect 24 0 22 1;
#X connect 26 0 25 2;
#X connect 27 0 5 1;
#X connect 27 0 0 1;
#X connect 27 0 20 1;
