#N canvas 227 66 900 676 10;
#X obj 187 236 tri~;
#N canvas 400 73 890 644 shiftreg 0;
#X obj 314 172 bitsample;
#X obj 315 216 bitsample;
#X obj 317 256 bitsample;
#X obj 317 295 bitsample;
#X obj 316 332 bitsample;
#X obj 317 368 bitsample;
#X obj 318 404 bitsample;
#X obj 319 443 bitsample;
#X obj 476 58 inlet;
#X obj 475 92 bang;
#X obj 539 62 bng 15 250 50 0 empty empty empty 17 7 0 10 -262144 -1
-1;
#X obj 574 331 delay 2;
#X obj 599 232 delay 5;
#X obj 606 202 delay 6;
#X obj 608 163 delay 7;
#X obj 564 363 delay 1;
#X floatatom 402 470 5 0 0 0 - - -;
#X floatatom 393 185 5 0 0 0 - - -;
#X floatatom 395 309 5 0 0 0 - - -;
#X floatatom 398 235 5 0 0 0 - - -;
#X floatatom 392 276 5 0 0 0 - - -;
#X floatatom 393 347 5 0 0 0 - - -;
#X floatatom 398 385 5 0 0 0 - - -;
#X floatatom 399 427 5 0 0 0 - - -;
#X obj 597 269 delay 4;
#X obj 598 299 delay 3;
#X obj 546 646 bytepack;
#X obj 734 62 inlet;
#X obj 548 673 outlet;
#X obj 314 58 loadbang;
#X obj 314 88 uzi 8;
#X obj 669 668 outlet;
#X obj 670 611 pack f f f;
#X floatatom 494 665 5 0 0 0 - - -;
#X connect 0 0 1 0;
#X connect 0 0 17 0;
#X connect 1 0 2 0;
#X connect 1 0 19 0;
#X connect 2 0 3 0;
#X connect 2 0 20 0;
#X connect 3 0 4 0;
#X connect 3 0 18 0;
#X connect 4 0 5 0;
#X connect 4 0 21 0;
#X connect 5 0 6 0;
#X connect 5 0 22 0;
#X connect 5 0 32 2;
#X connect 6 0 7 0;
#X connect 6 0 23 0;
#X connect 6 0 32 1;
#X connect 7 0 16 0;
#X connect 7 0 32 0;
#X connect 8 0 9 0;
#X connect 9 0 7 1;
#X connect 9 0 15 0;
#X connect 9 0 11 0;
#X connect 9 0 12 0;
#X connect 9 0 13 0;
#X connect 9 0 14 0;
#X connect 9 0 24 0;
#X connect 9 0 25 0;
#X connect 10 0 9 0;
#X connect 11 0 5 1;
#X connect 12 0 2 1;
#X connect 13 0 1 1;
#X connect 14 0 0 1;
#X connect 15 0 6 1;
#X connect 16 0 31 0;
#X connect 24 0 3 1;
#X connect 25 0 4 1;
#X connect 26 0 28 0;
#X connect 26 0 33 0;
#X connect 27 0 0 0;
#X connect 29 0 30 0;
#X connect 30 0 9 0;
#X connect 32 0 26 0;
#X restore 240 378 pd shiftreg;
#X floatatom 137 224 5 0 0 0 - - -;
#X obj 83 149 hsl 128 15 0.1 10000 1 0 empty empty OSC_1 -2 -8 0 10
-262144 -1 -1 0 1;
#X obj 238 159 hsl 128 15 0.1 10000 1 0 empty empty OSC_2 -2 -8 0 10
-262144 -1 -1 0 1;
#X obj 136 330 >~;
#X obj 93 232 tri~;
#N canvas 0 22 450 278 (subpatch) 0;
#X array \$0-scope 100 float 3;
#A 0 0.875 0.875 0.875 0.875 0.875 0.875 0.875 0.875 0.875 0.875 0.875
0.875 0.875 0.875 0.875 0.875 0.875 0.875 0.875 0.875 0.875 0.875 0.875
0.875 0.875 0.875 0.875 0.875 0.875 0.875 0.875 0.875 0.875 0.875 0.875
0.875 0.875 0.875 0.875 0.875 0.875 0.875 0.875 0.875 0.875 0.875 0.875
0.875 0.875 0.875 0.875 0.875 0.875 0.875 0.875 0.875 0.875 0.875 0.875
0.875 0.875 0.875 0.875 0.875 0.875 0.875 0.875 0.875 0.875 0.875 0.875
0.875 0.875 0.875 0.875 0.875 0.875 0.875 0.875 0.875 0.875 0.875 0.875
0.875 0.875 0.875 0.875 0.875 0.875 0.875 0.875 0.875 0.875 0.875 0.875
0.875 0.875 0.875 0.875 0.875;
#X coords 0 1 99 -1 200 140 1;
#X restore 556 32 graph;
#X obj 233 297 sigtobang~;
#X obj 45 311 sigtof~;
#X obj 65 348 < 0;
#X obj 237 414 / 8;
#X obj 319 349 xor;
#X obj 256 73 osc~;
#X obj 199 189 *~;
#X obj 236 444 sig~;
#X obj 236 501 s~ \$0-feedback;
#X obj 147 42 r~ \$0-feedback;
#X obj 59 188 *~;
#X obj 61 69 osc~;
#X obj 149 445 *~ 0.4;
#X obj 115 505 vcf_filter~ lp2;
#X obj 118 477 *~ 1;
#X obj 384 473 hsl 128 15 0.5 10 0 0 empty empty RES -2 -8 0 10 -262144
-1 -1 0 1;
#X obj 322 397 hsl 128 15 1 20000 1 0 empty empty FREQ -2 -8 0 10 -262144
-1 -1 0 1;
#X obj 106 637 dac~;
#X obj 252 113 hsl 128 15 0 1 0 0 empty empty RUN_2 -2 -8 0 10 -262144
-1 -1 0 1;
#X obj 216 126 *~;
#X obj 82 105 hsl 128 15 0 1 0 0 empty empty RUN_1 -2 -8 0 10 -262144
-1 -1 0 1;
#X obj 45 128 *~;
#X obj 414 325 osc~;
#X obj 417 278 r~ \$0-feedback;
#X obj 356 363 *~;
#X obj 456 341 hsl 128 15 0 1 0 0 empty empty RUN_F -2 -8 0 10 -262144
-1 -1 0 1;
#X obj 111 546 clip~ -0.8 0.8;
#X obj 161 479 iem_cot4~;
#X obj 112 590 *~;
#X obj 263 564 hsl 128 15 0 1 0 0 empty empty empty -2 -8 0 10 -262144
-1 -1 0 1;
#N canvas 586 178 450 300 filter 0;
#X obj 215 9 inlet;
#X obj 72 252 outlet~;
#X obj 17 14 inlet~;
#X obj 76 144 vcf~;
#X obj 65 65 vcf~;
#X obj 110 9 inlet~;
#X connect 0 0 3 2;
#X connect 0 0 4 2;
#X connect 2 0 4 0;
#X connect 3 0 1 0;
#X connect 4 0 3 0;
#X connect 5 0 4 1;
#X connect 5 0 3 1;
#X restore 668 465 pd filter;
#X connect 0 0 5 1;
#X connect 0 0 8 0;
#X connect 1 0 11 0;
#X connect 1 1 12 1;
#X connect 3 0 2 0;
#X connect 3 0 18 1;
#X connect 4 0 14 1;
#X connect 5 0 22 0;
#X connect 6 0 5 0;
#X connect 6 0 9 0;
#X connect 8 0 1 0;
#X connect 9 0 10 0;
#X connect 10 0 12 0;
#X connect 11 0 15 0;
#X connect 12 0 1 1;
#X connect 13 0 27 0;
#X connect 14 0 0 0;
#X connect 15 0 16 0;
#X connect 15 0 20 0;
#X connect 17 0 13 0;
#X connect 17 0 19 0;
#X connect 18 0 6 0;
#X connect 19 0 29 0;
#X connect 20 0 22 0;
#X connect 21 0 34 0;
#X connect 22 0 21 0;
#X connect 23 0 21 2;
#X connect 24 0 35 0;
#X connect 26 0 27 1;
#X connect 27 0 14 0;
#X connect 28 0 29 1;
#X connect 29 0 18 0;
#X connect 30 0 32 0;
#X connect 31 0 30 0;
#X connect 33 0 32 1;
#X connect 34 0 36 0;
#X connect 35 0 21 1;
#X connect 36 0 25 0;
#X connect 36 0 25 1;
#X connect 37 0 36 1;
