#N canvas 397 22 899 720 10;
#X obj 187 236 tri~;
#N canvas 399 36 890 644 shiftreg 0;
#X obj 314 172 bitsample;
#X obj 315 216 bitsample;
#X obj 317 256 bitsample;
#X obj 317 295 bitsample;
#X obj 316 332 bitsample;
#X obj 317 368 bitsample;
#X obj 318 404 bitsample;
#X obj 319 443 bitsample;
#X obj 476 58 inlet;
#X obj 475 92 bang;
#X obj 539 62 bng 15 250 50 0 empty empty empty 17 7 0 10 -262144 -1
-1;
#X obj 574 331 delay 2;
#X obj 599 232 delay 5;
#X obj 606 202 delay 6;
#X obj 608 163 delay 7;
#X obj 564 363 delay 1;
#X floatatom 402 470 5 0 0 0 - - -;
#X floatatom 393 185 5 0 0 0 - - -;
#X floatatom 395 309 5 0 0 0 - - -;
#X floatatom 398 235 5 0 0 0 - - -;
#X floatatom 392 276 5 0 0 0 - - -;
#X floatatom 393 347 5 0 0 0 - - -;
#X floatatom 398 385 5 0 0 0 - - -;
#X floatatom 399 427 5 0 0 0 - - -;
#X obj 597 269 delay 4;
#X obj 598 299 delay 3;
#X obj 535 610 bytepack;
#X obj 734 62 inlet;
#X obj 548 673 outlet;
#X obj 314 58 loadbang;
#X obj 314 88 uzi 8;
#X obj 669 668 outlet;
#X floatatom 486 664 5 0 0 0 - - -;
#X obj 449 577 t b;
#X obj 540 642 / 8;
#X obj 664 518 pack f f f;
#X connect 0 0 1 0;
#X connect 0 0 17 0;
#X connect 1 0 2 0;
#X connect 1 0 19 0;
#X connect 2 0 3 0;
#X connect 2 0 20 0;
#X connect 3 0 4 0;
#X connect 3 0 18 0;
#X connect 4 0 5 0;
#X connect 4 0 21 0;
#X connect 5 0 6 0;
#X connect 5 0 22 0;
#X connect 5 0 35 2;
#X connect 6 0 7 0;
#X connect 6 0 23 0;
#X connect 6 0 35 1;
#X connect 7 0 16 0;
#X connect 7 0 33 0;
#X connect 7 0 35 0;
#X connect 8 0 9 0;
#X connect 9 0 7 1;
#X connect 9 0 15 0;
#X connect 9 0 11 0;
#X connect 9 0 12 0;
#X connect 9 0 13 0;
#X connect 9 0 14 0;
#X connect 9 0 24 0;
#X connect 9 0 25 0;
#X connect 10 0 9 0;
#X connect 11 0 5 1;
#X connect 12 0 2 1;
#X connect 13 0 1 1;
#X connect 14 0 0 1;
#X connect 15 0 6 1;
#X connect 16 0 31 0;
#X connect 24 0 3 1;
#X connect 25 0 4 1;
#X connect 26 0 32 0;
#X connect 26 0 34 0;
#X connect 27 0 0 0;
#X connect 29 0 30 0;
#X connect 30 0 9 0;
#X connect 33 0 26 0;
#X connect 34 0 28 0;
#X connect 35 0 26 0;
#X restore 199 371 pd shiftreg;
#X floatatom 137 224 5 0 0 0 - - -;
#X obj 71 149 hsl 128 15 0.1 10000 1 0 empty empty VCO_1_Frequency
-2 -8 0 10 -262144 -1 -1 7600 1;
#X obj 93 232 tri~;
#N canvas 0 22 450 278 (subpatch) 0;
#X array \$0-scope 100 float 3;
#A 0 0.0591157 0.0591152 0.0591147 0.0591142 0.0591137 0.0591132 0.0591127
0.0591122 0.0591117 0.0591113 0.0798243 0.114856 0.158854 0.207536
0.257627 0.306737 0.353222 0.396041 0.434622 0.468748 0.498455 0.523953
0.545562 0.563661 0.578656 0.590951 0.600932 0.608955 0.615341 0.620375
0.623622 0.623622 0.623622 0.623622 0.623622 0.623622 0.623622 0.623622
0.623622 0.623622 0.623622 0.623622 0.623622 0.623622 0.623622 0.623622
0.623622 0.623622 0.623622 0.623622 0.623622 0.623622 0.623622 0.623622
0.623622 0.623622 0.623622 0.623622 0.623622 0.623622 0.623622 0.623622
0.623622 0.623622 0.623622 0.623622 0.623622 0.623622 0.623622 0.623622
0.623622 0.623622 0.623622 0.623622 0.623622 0.623622 0.623622 0.623622
0.623622 0.623622 0.623622 0.623622 0.623622 0.623622 0.623622 0.623622
0.623622 0.623622 0.623622 0.623622 0.623622 0.623622 0.623622 0.623622
0.623622 0.623622 0.623622 0.623622 0.623622 0.623622;
#X coords 0 1 99 -1 200 140 1;
#X restore 556 32 graph;
#X obj 194 305 sigtobang~;
#X obj 45 311 sigtof~;
#X obj 240 349 xor;
#X obj 59 188 *~;
#X obj 337 473 hsl 128 15 0.1 30 1 0 empty empty Resonance 0 -8 0 10
-262144 -1 -1 3200 0;
#X obj 380 406 hsl 128 15 1 16000 1 0 empty empty Filter_Cutoff -2
-8 0 10 -262144 -1 -1 7900 1;
#X obj 105 655 dac~;
#X obj 342 89 hsl 128 15 0.01 1 0 0 empty empty Rungle_VCO_2 -2 -8
0 10 -262144 -1 -1 4200 1;
#X obj 84 76 hsl 128 15 0 1 0 0 empty empty Rungle_VCO_1 -2 -8 0 10
-262144 -1 -1 10900 1;
#X obj 492 294 hsl 128 15 0 1 0 0 empty empty Rungle_Filter -2 -8 0
10 -262144 -1 -1 6500 1;
#X obj 111 620 *~;
#X obj 263 564 hsl 128 15 0 1 0 0 empty empty Volume -2 -8 0 10 -262144
-1 -1 8800 1;
#X obj 298 160 hsl 128 15 0.1 10000 1 0 empty empty VCO_2_Frequency
-2 -8 0 10 -262144 -1 -1 4400 1;
#X obj 335 392 *~;
#X floatatom 406 502 5 0 0 0 - - -;
#X obj 199 188 *~;
#X obj 647 306 tabwrite~ \$0-scope;
#X obj 781 212 metro 100;
#X obj 806 170 tgl 15 0 empty empty empty 17 7 0 10 -262144 -1 -1 1
1;
#X obj 357 199 hsl 128 15 0 1 0 0 empty empty Filter_Sweep -2 -8 0
10 -262144 -1 -1 6100 1;
#X floatatom 400 429 5 0 0 0 - - -;
#X obj 292 442 lop~ 100;
#X obj 155 11 r~ \$0-rungler;
#X obj 474 231 r~ \$0-rungler;
#X obj 9 517 s~ \$0-rungler;
#X obj 204 264 >~ 0;
#X obj 56 268 >~ 0;
#X floatatom 383 245 5 0 0 0 - - -;
#X obj 201 286 -~ 0.5;
#X floatatom 212 425 5 0 0 0 - - -;
#X obj 113 463 *~ 0.8;
#N canvas 107 387 450 300 filter~ 1;
#X obj 82 262 outlet~;
#X obj 27 24 inlet~;
#X obj 86 154 vcf~;
#X obj 35 73 vcf~;
#X obj 99 22 inlet~;
#X obj 172 20 inlet;
#X obj 74 200 *~ 1;
#X obj 93 228 *~;
#X floatatom 206 149 5 0 0 0 - - -;
#X obj 177 98 expr 1 + ($f1 / 5);
#X obj 23 136 *~ 0.5;
#X connect 1 0 3 0;
#X connect 2 0 6 0;
#X connect 2 1 6 0;
#X connect 3 0 2 0;
#X connect 3 0 10 0;
#X connect 3 1 2 0;
#X connect 4 0 3 1;
#X connect 4 0 2 1;
#X connect 5 0 3 2;
#X connect 5 0 2 2;
#X connect 5 0 9 0;
#X connect 6 0 7 0;
#X connect 7 0 0 0;
#X connect 9 0 8 0;
#X connect 9 0 7 1;
#X restore 104 535 pd filter~;
#X obj 108 558 *~ 0.5;
#X obj 7 398 expr~ ($v1 * 1) - 0.5;
#X obj 97 587 clip~ -0.9 0.9;
#X obj 358 321 expr~ 1 + ($v1 * $v2);
#X obj 32 487 *~ 0.4;
#X obj 319 353 +~ 0.5;
#X obj 257 117 expr~ 1 + ($v1 * $v2);
#X obj 383 363 -~ 0;
#X obj 273 269 expr~ 1 + ($v1 * $v2);
#X obj 299 413 *~;
#X obj 555 360 hsl 128 15 0.01 1 1 0 empty empty PWM -2 -8 0 10 -262144
-1 -1 0 1;
#X obj 117 358 <~;
#X obj -3 109 expr~ 1 + ($v1 * $v2);
#X obj 10 436 lop~ 5;
#X connect 0 0 31 0;
#X connect 0 0 46 0;
#X connect 0 0 49 1;
#X connect 1 0 35 0;
#X connect 1 0 39 0;
#X connect 1 1 8 1;
#X connect 3 0 2 0;
#X connect 3 0 9 1;
#X connect 4 0 32 0;
#X connect 4 0 49 0;
#X connect 6 0 1 0;
#X connect 7 0 8 0;
#X connect 8 0 1 1;
#X connect 9 0 4 0;
#X connect 10 0 20 0;
#X connect 10 0 37 2;
#X connect 11 0 19 0;
#X connect 11 0 26 0;
#X connect 13 0 44 1;
#X connect 14 0 50 1;
#X connect 15 0 41 1;
#X connect 16 0 12 1;
#X connect 16 0 12 0;
#X connect 16 0 22 0;
#X connect 17 0 16 1;
#X connect 18 0 21 1;
#X connect 19 0 47 1;
#X connect 21 0 0 0;
#X connect 23 0 22 0;
#X connect 24 0 23 0;
#X connect 25 0 33 0;
#X connect 25 0 46 1;
#X connect 27 0 37 1;
#X connect 28 0 44 0;
#X connect 28 0 50 0;
#X connect 29 0 41 0;
#X connect 31 0 34 0;
#X connect 32 0 7 0;
#X connect 34 0 6 0;
#X connect 36 0 37 0;
#X connect 37 0 38 0;
#X connect 38 0 40 0;
#X connect 39 0 51 0;
#X connect 40 0 16 0;
#X connect 41 0 45 0;
#X connect 42 0 36 0;
#X connect 43 0 47 0;
#X connect 44 0 21 0;
#X connect 45 0 19 1;
#X connect 46 0 43 0;
#X connect 47 0 27 0;
#X connect 49 0 36 0;
#X connect 50 0 9 0;
#X connect 51 0 30 0;
#X connect 51 0 42 0;
