#N canvas 321 22 853 703 10;
#X obj 352 394 saw~;
#X obj 365 45 mini16seq;
#X obj 365 267 * 24;
#X obj 365 294 + 30;
#X obj 365 321 t f b;
#X obj 343 419 *~;
#X obj 333 7 tgl 15 0 empty empty empty 17 7 0 10 -262144 -1 -1 1 1
;
#X obj 384 8 pulse 120 1 16;
#X obj 416 334 bng 15 250 50 0 empty empty empty 17 7 0 10 -262144
-1 -1;
#X obj 351 344 mtof;
#X obj 192 545 pansig~;
#X obj 302 546 pansig~;
#X obj 564 391 osc~ 1;
#X obj 573 434 *~ -1;
#X floatatom 559 370 5 0 0 0 - - -;
#X obj 138 267 osc~ 1;
#X obj 174 513 296e~ ----------------------;
#X obj 466 325 nbx 5 14 -1e+37 1e+37 0 0 empty empty empty 0 -8 0 10
-262144 -1 -1 200 256;
#X obj 218 640 output~;
#N canvas 355 22 839 653 verb 0;
#X obj 72 246 inlet~;
#X obj 150 242 inlet~;
#X obj 140 565 outlet~;
#X obj 225 565 outlet~;
#X obj 208 464 zrev1~ 10 10 10;
#X obj 514 299 hsl 128 15 0 100 0 1 empty empty reverb_time -2 -8 0
10 -262144 -1 -1 11600 1;
#X floatatom 527 370 5 0 0 0 - - -;
#X obj 564 415 hsl 128 15 -1 1 0 1 empty empty mix -2 -8 0 10 -262144
-1 -1 5600 1;
#X floatatom 556 451 5 0 0 0 - - -;
#X obj 487 255 hsl 128 15 0 200 0 1 empty empty room_size -2 -8 0 10
-262144 -1 -1 0 1;
#X floatatom 448 297 5 0 0 0 - - -;
#X obj 421 211 hsl 128 15 200 20000 1 1 empty empty lpf_cutoff -2 -8
0 10 -262144 -1 -1 9200 1;
#X floatatom 410 259 5 0 0 0 - - -;
#X obj 395 165 hsl 128 15 -99 18 0 1 empty empty recycle -2 -8 0 10
-262144 -1 -1 12300 1;
#X obj 336 125 hsl 128 15 -99 18 0 1 empty empty 2nd_reflection_(db)
-2 -8 0 10 -262144 -1 -1 9000 1;
#X obj 258 89 hsl 128 15 -99 18 0 1 empty empty 1st_reflection_(db)
-2 -8 0 10 -262144 -1 -1 8600 1;
#X connect 0 0 4 0;
#X connect 1 0 4 1;
#X connect 4 0 2 0;
#X connect 4 1 3 0;
#X connect 5 0 6 0;
#X connect 6 0 4 7;
#X connect 7 0 8 0;
#X connect 8 0 4 8;
#X connect 9 0 10 0;
#X connect 10 0 4 6;
#X connect 11 0 12 0;
#X connect 12 0 4 5;
#X connect 13 0 4 4;
#X connect 14 0 4 3;
#X connect 15 0 4 2;
#X restore 249 573 pd verb;
#X obj 145 230 nbx 5 14 -1e+37 1e+37 0 0 empty empty empty 0 -8 0 10
-262144 -1 -1 3 256;
#X obj 201 288 osc~ 1;
#X obj 247 256 nbx 5 14 -1e+37 1e+37 0 0 empty empty empty 0 -8 0 10
-262144 -1 -1 2 256;
#X obj 640 348 kick~ ---;
#X obj 602 15 clockdivider;
#X floatatom 697 278 5 0 0 0 - - -;
#X floatatom 732 272 5 0 0 0 - - -;
#X floatatom 757 292 5 0 0 0 - - -;
#X obj 266 294 sig~ -0.5;
#X obj 284 231 nbx 5 14 -0.5 2 0 0 empty empty empty 0 -8 0 10 -262144
-1 -1 -0.5 256;
#X obj 41 269 sig~ -0.5;
#X obj 42 235 nbx 5 14 -0.5 2 0 0 empty empty empty 0 -8 0 10 -262144
-1 -1 -0.5 256;
#X obj 329 451 lp2_butt~;
#X obj 426 418 nbx 5 14 -1e+37 1e+37 0 0 empty empty empty 0 -8 0 10
-262144 -1 -1 197.627 256;
#X obj 425 387 + 200;
#X obj 478 361 nbx 5 14 -1e+37 1e+37 0 0 empty empty empty 0 -8 0 10
-262144 -1 -1 100 256;
#X obj 498 509 comb~ 50 0.2 0.3 0.9;
#X floatatom 553 465 5 0 0 0 - - -;
#X floatatom 599 459 5 0 0 0 - - -;
#X floatatom 648 456 5 0 0 0 - - -;
#X obj 396 354 ead~ 10 200;
#X obj 181 118 osc~ 0.5;
#X obj 77 120 osc~ 0.1;
#X obj 141 327 +~ 0.3;
#X obj 209 337 +~ 0.2;
#X obj 290 369 +~ 0.01;
#X obj 294 338 lop~ 10;
#X msg 416 286 100;
#X msg 485 287 10;
#X obj 659 114 bng 15 250 50 0 empty empty empty 17 7 0 10 -262144
-1 -1;
#X msg 525 292 700;
#X msg 449 289 200;
#X obj 179 161 *~ 0.1;
#X obj 76 151 *~ 0.2;
#X obj 285 391 saw~;
#X obj 54 485 lop~ 5000;
#X obj 86 408 nbx 5 14 -1e+37 1e+37 0 0 empty empty empty 0 -8 0 10
-262144 -1 -1 20000 256;
#X obj 30 323 sig~ 0.01;
#X obj 724 447 *~ 3;
#X obj 702 472 +~ 3;
#X floatatom 784 427 5 0 0 0 - - -;
#X obj 721 411 osc~ 0.048;
#X msg 564 290 1500;
#X msg 616 296 2;
#X obj 92 545 vu~;
#X obj 240 620 vols~;
#X obj 475 553 vsl 15 128 0 100 0 0 empty empty empty 0 -9 0 10 -262144
-1 -1 9000 1;
#X floatatom 388 544 5 0 0 0 - - -;
#X floatatom 526 541 5 0 0 0 - - -;
#X obj 175 572 lop~ 100;
#X obj 299 579 lop~ 100;
#X floatatom 138 67 5 0 0 0 - - -;
#X floatatom 234 51 5 0 0 0 - - -;
#X obj 573 611 line;
#X floatatom 597 546 5 0 0 0 - - -;
#X obj 572 579 pack \$1 \$2;
#X floatatom 648 553 5 0 0 0 - - -;
#X obj 567 651 recorder~;
#X obj 318 602 hip~ 1;
#X obj 175 598 hip~ 1;
#X connect 0 0 5 0;
#X connect 1 0 2 0;
#X connect 2 0 3 0;
#X connect 3 0 4 0;
#X connect 4 0 9 0;
#X connect 4 1 8 0;
#X connect 4 1 40 0;
#X connect 5 0 32 0;
#X connect 5 0 16 0;
#X connect 6 0 7 0;
#X connect 6 0 24 2;
#X connect 6 0 1 1;
#X connect 7 0 1 0;
#X connect 7 0 24 0;
#X connect 9 0 34 0;
#X connect 9 0 46 0;
#X connect 10 0 19 0;
#X connect 10 1 19 1;
#X connect 11 0 19 0;
#X connect 11 1 19 1;
#X connect 12 0 13 0;
#X connect 12 0 10 1;
#X connect 13 0 11 1;
#X connect 14 0 12 0;
#X connect 15 0 43 0;
#X connect 16 0 55 0;
#X connect 17 0 40 2;
#X connect 19 0 69 0;
#X connect 19 1 70 0;
#X connect 20 0 15 1;
#X connect 21 0 44 0;
#X connect 22 0 21 1;
#X connect 23 0 10 0;
#X connect 23 0 11 0;
#X connect 24 0 47 0;
#X connect 24 1 48 0;
#X connect 24 2 23 0;
#X connect 24 4 49 0;
#X connect 24 5 62 0;
#X connect 25 0 23 1;
#X connect 26 0 23 2;
#X connect 27 0 23 3;
#X connect 28 0 44 0;
#X connect 29 0 28 0;
#X connect 30 0 43 0;
#X connect 31 0 30 0;
#X connect 32 0 10 0;
#X connect 32 0 11 0;
#X connect 33 0 32 1;
#X connect 34 0 33 0;
#X connect 35 0 34 1;
#X connect 36 0 11 0;
#X connect 37 0 36 2;
#X connect 38 0 36 3;
#X connect 39 0 36 4;
#X connect 40 0 5 1;
#X connect 41 0 52 0;
#X connect 42 0 53 0;
#X connect 43 0 16 2;
#X connect 43 0 16 4;
#X connect 43 0 16 6;
#X connect 43 0 16 8;
#X connect 43 0 16 12;
#X connect 43 0 16 14;
#X connect 43 0 16 10;
#X connect 44 0 16 3;
#X connect 44 0 16 5;
#X connect 44 0 16 7;
#X connect 44 0 16 9;
#X connect 44 0 16 11;
#X connect 44 0 16 13;
#X connect 45 0 54 0;
#X connect 46 0 0 0;
#X connect 46 0 45 0;
#X connect 47 0 46 1;
#X connect 47 0 51 0;
#X connect 48 0 46 1;
#X connect 48 0 50 0;
#X connect 50 0 17 0;
#X connect 51 0 17 0;
#X connect 52 0 16 6;
#X connect 52 0 16 7;
#X connect 52 0 16 8;
#X connect 52 0 16 9;
#X connect 52 0 16 10;
#X connect 52 0 16 11;
#X connect 53 0 16 2;
#X connect 53 0 16 3;
#X connect 53 0 16 4;
#X connect 53 0 16 5;
#X connect 54 0 5 0;
#X connect 55 0 10 0;
#X connect 55 0 36 0;
#X connect 56 0 55 1;
#X connect 57 0 16 15;
#X connect 58 0 59 0;
#X connect 59 0 36 1;
#X connect 60 0 58 1;
#X connect 60 0 59 1;
#X connect 61 0 58 0;
#X connect 62 0 17 0;
#X connect 62 0 63 0;
#X connect 63 0 46 1;
#X connect 65 0 18 0;
#X connect 65 0 64 0;
#X connect 65 0 77 0;
#X connect 65 1 18 1;
#X connect 65 1 77 1;
#X connect 66 0 65 2;
#X connect 67 0 69 1;
#X connect 67 0 70 1;
#X connect 69 0 79 0;
#X connect 70 0 78 0;
#X connect 71 0 42 1;
#X connect 72 0 41 1;
#X connect 73 0 67 0;
#X connect 74 0 75 0;
#X connect 75 0 73 0;
#X connect 76 0 75 1;
#X connect 78 0 65 1;
#X connect 79 0 65 0;
