#N canvas 311 169 729 488 10;
#X obj 293 235 multibp~;
#X obj 237 136 phasor~;
#X floatatom 228 59 5 0 0 0 - - -;
#X obj 305 424 output~;
#X obj 307 97 osc~;
#X obj 301 131 sigtof~;
#X obj 300 161 cvscale;
#X floatatom 312 52 5 0 0 0 - - -;
#X obj 362 93 osc~;
#X obj 356 127 sigtof~;
#X obj 355 157 cvscale;
#X floatatom 367 48 5 0 0 0 - - -;
#X obj 421 93 osc~;
#X obj 415 127 sigtof~;
#X obj 414 157 cvscale;
#X floatatom 426 48 5 0 0 0 - - -;
#X obj 482 97 osc~;
#X obj 476 131 sigtof~;
#X obj 475 161 cvscale;
#X floatatom 487 52 5 0 0 0 - - -;
#X connect 0 0 3 0;
#X connect 0 0 3 1;
#X connect 1 0 0 0;
#X connect 2 0 1 0;
#X connect 4 0 5 0;
#X connect 5 0 6 0;
#X connect 6 0 0 1;
#X connect 7 0 4 0;
#X connect 8 0 9 0;
#X connect 9 0 10 0;
#X connect 10 0 0 2;
#X connect 11 0 8 0;
#X connect 12 0 13 0;
#X connect 13 0 14 0;
#X connect 14 0 0 3;
#X connect 15 0 12 0;
#X connect 16 0 17 0;
#X connect 17 0 18 0;
#X connect 18 0 0 4;
#X connect 19 0 16 0;
