#N canvas 45 26 857 704 10;
#X text 63 291 comment;
#N canvas 14 101 470 566 randomseq 0;
#X obj 142 196 bng 15 250 50 0 empty empty empty 17 7 0 10 -262144
-1 -1;
#X obj 149 259 qrv;
#X obj 231 147 zl len;
#X obj 154 489 mtof;
#X obj 160 431 +;
#X floatatom 201 503 5 0 0 0 - - -;
#X obj 181 341 *;
#X obj 180 362 int;
#X obj 157 403 zl nth;
#X floatatom 91 322 5 0 0 0 - - -;
#X obj 280 131 s \$0-scale;
#X obj 111 376 l;
#X obj 137 348 t b;
#X floatatom 232 347 5 0 0 0 - - -;
#X obj 179 380 + 1;
#X obj 60 342 r \$0-scale;
#X obj 54 415 nbx 5 14 -1e+37 1e+37 0 0 empty empty empty 0 -8 0 10
-262144 -1 -1 0 256;
#X obj 196 42 inlet;
#X obj 82 39 inlet;
#X obj 149 534 outlet;
#X connect 0 0 1 0;
#X connect 0 0 12 0;
#X connect 1 0 6 0;
#X connect 1 0 9 0;
#X connect 2 0 6 1;
#X connect 2 0 1 3;
#X connect 3 0 5 0;
#X connect 3 0 19 0;
#X connect 4 0 3 0;
#X connect 6 0 7 0;
#X connect 6 0 13 0;
#X connect 7 0 14 0;
#X connect 8 0 4 0;
#X connect 11 0 8 0;
#X connect 12 0 11 0;
#X connect 14 0 8 1;
#X connect 15 0 11 1;
#X connect 16 0 4 1;
#X connect 17 0 10 0;
#X connect 17 0 2 0;
#X connect 18 0 0 0;
#X restore 155 26 pd randomseq;
#X obj 223 427 foldedsine~;
#X obj 261 570 lpg~;
#X obj 96 207 qrv;
#X obj 69 148 bng 15 250 50 0 empty empty empty 17 7 0 10 -262144 -1
-1;
#X obj 278 386 nbx 5 14 -1e+37 1e+37 0 0 empty empty empty 0 -8 0 10
-262144 -1 -1 0.0845119 256;
#X obj 244 361 nbx 5 14 -1e+37 1e+37 0 0 empty empty empty 0 -8 0 10
-262144 -1 -1 1 256;
#X obj 185 411 mtof;
#X obj 124 436 nbx 5 14 -1e+37 1e+37 0 0 empty empty empty 0 -8 0 10
-262144 -1 -1 82.4069 256;
#X obj 163 382 +;
#X obj 184 348 nbx 5 14 -1e+37 1e+37 0 0 empty empty empty 0 -8 0 10
-262144 -1 -1 40 256;
#X obj 170 55 frv;
#X obj 252 487 nbx 5 14 -1e+37 1e+37 0 0 empty empty empty 0 -8 0 10
-262144 -1 -1 9137 256;
#X obj 306 278 * 3;
#X obj 359 379 ead~ 5 100;
#N canvas 376 22 621 692 reson-bank 0;
#X obj 46 24 reson1;
#X obj 46 44 reson1;
#X obj 46 64 reson1;
#X obj 46 84 reson1;
#X obj 46 104 reson1;
#X obj 46 124 reson1;
#X obj 46 144 reson1;
#X obj 46 164 reson1;
#X obj 46 184 reson1;
#X obj 46 204 reson1;
#X obj 102 24 reson1;
#X obj 102 44 reson1;
#X obj 102 64 reson1;
#X obj 102 84 reson1;
#X obj 102 104 reson1;
#X obj 102 124 reson1;
#X obj 102 144 reson1;
#X obj 102 164 reson1;
#X obj 102 184 reson1;
#X obj 102 204 reson1;
#X obj 157 24 reson1;
#X obj 157 44 reson1;
#X obj 157 64 reson1;
#X obj 157 84 reson1;
#X obj 157 104 reson1;
#X obj 157 124 reson1;
#X obj 157 144 reson1;
#X obj 157 164 reson1;
#X obj 157 184 reson1;
#X obj 157 204 reson1;
#X obj 213 24 reson1;
#X obj 213 44 reson1;
#X obj 213 64 reson1;
#X obj 213 84 reson1;
#X obj 213 104 reson1;
#X obj 213 124 reson1;
#X obj 213 144 reson1;
#X obj 213 164 reson1;
#X obj 213 184 reson1;
#X obj 213 204 reson1;
#X obj 265 23 reson1;
#X obj 265 43 reson1;
#X obj 265 63 reson1;
#X obj 265 83 reson1;
#X obj 265 103 reson1;
#X obj 265 123 reson1;
#X obj 265 143 reson1;
#X obj 265 163 reson1;
#X obj 265 183 reson1;
#X obj 265 203 reson1;
#X obj 316 24 reson1;
#X obj 316 44 reson1;
#X obj 316 64 reson1;
#X obj 316 84 reson1;
#X obj 316 104 reson1;
#X obj 316 124 reson1;
#X obj 316 144 reson1;
#X obj 316 164 reson1;
#X obj 316 184 reson1;
#X obj 316 204 reson1;
#X obj 372 24 reson1;
#X obj 372 44 reson1;
#X obj 372 64 reson1;
#X obj 372 84 reson1;
#X obj 372 104 reson1;
#X obj 372 124 reson1;
#X obj 372 144 reson1;
#X obj 372 164 reson1;
#X obj 372 184 reson1;
#X obj 372 204 reson1;
#X obj 427 24 reson1;
#X obj 427 44 reson1;
#X obj 427 64 reson1;
#X obj 427 84 reson1;
#X obj 427 104 reson1;
#X obj 427 124 reson1;
#X obj 427 144 reson1;
#X obj 427 164 reson1;
#X obj 427 184 reson1;
#X obj 427 204 reson1;
#X obj 483 24 reson1;
#X obj 483 44 reson1;
#X obj 483 64 reson1;
#X obj 483 84 reson1;
#X obj 483 104 reson1;
#X obj 483 124 reson1;
#X obj 483 144 reson1;
#X obj 483 164 reson1;
#X obj 483 184 reson1;
#X obj 483 204 reson1;
#X obj 535 23 reson1;
#X obj 535 43 reson1;
#X obj 535 63 reson1;
#X obj 535 83 reson1;
#X obj 535 103 reson1;
#X obj 535 123 reson1;
#X obj 535 143 reson1;
#X obj 535 163 reson1;
#X obj 535 183 reson1;
#X obj 535 203 reson1;
#X obj 46 241 reson1;
#X obj 46 261 reson1;
#X obj 46 281 reson1;
#X obj 46 301 reson1;
#X obj 46 321 reson1;
#X obj 46 341 reson1;
#X obj 46 361 reson1;
#X obj 46 381 reson1;
#X obj 46 401 reson1;
#X obj 46 421 reson1;
#X obj 102 241 reson1;
#X obj 102 261 reson1;
#X obj 102 281 reson1;
#X obj 102 301 reson1;
#X obj 102 321 reson1;
#X obj 102 341 reson1;
#X obj 102 361 reson1;
#X obj 102 381 reson1;
#X obj 102 401 reson1;
#X obj 102 421 reson1;
#X obj 157 241 reson1;
#X obj 157 261 reson1;
#X obj 157 281 reson1;
#X obj 157 301 reson1;
#X obj 157 321 reson1;
#X obj 157 341 reson1;
#X obj 157 361 reson1;
#X obj 157 381 reson1;
#X obj 157 401 reson1;
#X obj 157 421 reson1;
#X obj 213 241 reson1;
#X obj 213 261 reson1;
#X obj 213 281 reson1;
#X obj 213 301 reson1;
#X obj 213 321 reson1;
#X obj 213 341 reson1;
#X obj 213 361 reson1;
#X obj 213 381 reson1;
#X obj 213 401 reson1;
#X obj 213 421 reson1;
#X obj 265 240 reson1;
#X obj 265 260 reson1;
#X obj 265 280 reson1;
#X obj 265 300 reson1;
#X obj 265 320 reson1;
#X obj 265 340 reson1;
#X obj 265 360 reson1;
#X obj 265 380 reson1;
#X obj 265 400 reson1;
#X obj 265 420 reson1;
#X obj 316 241 reson1;
#X obj 316 261 reson1;
#X obj 316 281 reson1;
#X obj 316 301 reson1;
#X obj 316 321 reson1;
#X obj 316 341 reson1;
#X obj 316 361 reson1;
#X obj 316 381 reson1;
#X obj 316 401 reson1;
#X obj 316 421 reson1;
#X obj 372 241 reson1;
#X obj 372 261 reson1;
#X obj 372 281 reson1;
#X obj 372 301 reson1;
#X obj 372 321 reson1;
#X obj 372 341 reson1;
#X obj 372 361 reson1;
#X obj 372 381 reson1;
#X obj 372 401 reson1;
#X obj 372 421 reson1;
#X obj 427 241 reson1;
#X obj 427 261 reson1;
#X obj 427 281 reson1;
#X obj 427 301 reson1;
#X obj 427 321 reson1;
#X obj 427 341 reson1;
#X obj 427 361 reson1;
#X obj 427 381 reson1;
#X obj 427 401 reson1;
#X obj 427 421 reson1;
#X obj 483 241 reson1;
#X obj 483 261 reson1;
#X obj 483 281 reson1;
#X obj 483 301 reson1;
#X obj 483 321 reson1;
#X obj 483 341 reson1;
#X obj 483 361 reson1;
#X obj 483 381 reson1;
#X obj 483 401 reson1;
#X obj 483 421 reson1;
#X obj 535 240 reson1;
#X obj 535 260 reson1;
#X obj 535 280 reson1;
#X obj 535 300 reson1;
#X obj 535 320 reson1;
#X obj 535 340 reson1;
#X obj 535 360 reson1;
#X obj 535 380 reson1;
#X obj 535 400 reson1;
#X obj 535 420 reson1;
#X obj 49 452 reson1;
#X obj 49 472 reson1;
#X obj 49 492 reson1;
#X obj 49 512 reson1;
#X obj 49 532 reson1;
#X obj 49 552 reson1;
#X obj 49 572 reson1;
#X obj 49 592 reson1;
#X obj 49 612 reson1;
#X obj 49 632 reson1;
#X obj 105 452 reson1;
#X obj 105 472 reson1;
#X obj 105 492 reson1;
#X obj 105 512 reson1;
#X obj 105 532 reson1;
#X obj 105 552 reson1;
#X obj 105 572 reson1;
#X obj 105 592 reson1;
#X obj 105 612 reson1;
#X obj 105 632 reson1;
#X obj 160 452 reson1;
#X obj 160 472 reson1;
#X obj 160 492 reson1;
#X obj 160 512 reson1;
#X obj 160 532 reson1;
#X obj 160 552 reson1;
#X obj 160 572 reson1;
#X obj 160 592 reson1;
#X obj 160 612 reson1;
#X obj 160 632 reson1;
#X obj 216 452 reson1;
#X obj 216 472 reson1;
#X obj 216 492 reson1;
#X obj 216 512 reson1;
#X obj 216 532 reson1;
#X obj 216 552 reson1;
#X obj 216 572 reson1;
#X obj 216 592 reson1;
#X obj 216 612 reson1;
#X obj 216 632 reson1;
#X obj 268 451 reson1;
#X obj 268 471 reson1;
#X obj 268 491 reson1;
#X obj 268 511 reson1;
#X obj 268 531 reson1;
#X obj 268 551 reson1;
#X obj 268 571 reson1;
#X obj 268 591 reson1;
#X obj 268 611 reson1;
#X obj 268 631 reson1;
#X obj 319 452 reson1;
#X obj 319 472 reson1;
#X obj 319 492 reson1;
#X obj 319 512 reson1;
#X obj 319 532 reson1;
#X obj 319 552 reson1;
#X obj 319 572 reson1;
#X obj 319 592 reson1;
#X obj 319 612 reson1;
#X obj 319 632 reson1;
#X obj 375 452 reson1;
#X obj 375 472 reson1;
#X obj 375 492 reson1;
#X obj 375 512 reson1;
#X obj 375 532 reson1;
#X obj 375 552 reson1;
#X obj 375 572 reson1;
#X obj 375 592 reson1;
#X obj 375 612 reson1;
#X obj 375 632 reson1;
#X obj 430 452 reson1;
#X obj 430 472 reson1;
#X obj 430 492 reson1;
#X obj 430 512 reson1;
#X obj 430 532 reson1;
#X obj 430 552 reson1;
#X obj 430 572 reson1;
#X obj 430 592 reson1;
#X obj 430 612 reson1;
#X obj 430 632 reson1;
#X obj 486 452 reson1;
#X obj 486 472 reson1;
#X obj 486 492 reson1;
#X obj 486 512 reson1;
#X obj 486 532 reson1;
#X obj 486 552 reson1;
#X obj 486 572 reson1;
#X obj 486 592 reson1;
#X obj 486 612 reson1;
#X obj 486 632 reson1;
#X obj 538 451 reson1;
#X obj 538 471 reson1;
#X obj 538 491 reson1;
#X obj 538 511 reson1;
#X obj 538 531 reson1;
#X obj 538 551 reson1;
#X obj 538 571 reson1;
#X obj 538 591 reson1;
#X obj 538 611 reson1;
#X obj 538 631 reson1;
#X restore 270 21 pd reson-bank;
#X obj 284 633 s~ spring-in;
#N canvas 423 74 499 530 stuff 0;
#X obj 251 170 setctl base-freq;
#X obj 253 197 setctl freq-spread;
#X obj 253 217 setctl freq-random;
#X obj 253 245 setctl decay;
#X obj 249 267 setctl decay-random;
#X obj 94 360 t b f;
#X obj 52 301 r base-freq;
#X obj 73 400 pack 0 0 0 0 0;
#X obj 226 303 r freq-spread;
#X obj 137 303 r freq-random;
#X obj 140 361 t b f;
#X obj 184 363 t b f;
#X obj 231 364 t b f;
#X obj 315 302 r decay;
#X obj 371 303 r decay-random;
#X obj 75 423 t l b;
#X obj 75 443 s params;
#X obj 158 430 0;
#X obj 158 450 v count;
#X obj 68 482 print params;
#X connect 5 0 7 0;
#X connect 5 1 7 1;
#X connect 6 0 7 0;
#X connect 7 0 15 0;
#X connect 8 0 10 0;
#X connect 9 0 5 0;
#X connect 10 0 7 0;
#X connect 10 1 7 2;
#X connect 11 0 7 0;
#X connect 11 1 7 3;
#X connect 12 0 7 0;
#X connect 12 1 7 4;
#X connect 13 0 11 0;
#X connect 14 0 12 0;
#X connect 15 0 16 0;
#X connect 15 0 19 0;
#X connect 15 1 17 0;
#X connect 17 0 18 0;
#X restore -93 29 pd stuff;
#X floatatom -40 61 5 0 0 0 base-freq base-freq-set base-freq;
#X floatatom -40 80 5 0 0 0 freq-spread freq-spread-set freq-spread
;
#X floatatom -39 96 5 0 0 0 freq-random freq-random-set freq-random
;
#X floatatom -39 118 5 0 9999 0 decay decay-set decay;
#X floatatom -37 137 5 0 9999 0 decay-random decay-random-set decay-random
;
#X obj 507 352 catch~ spring-out;
#X obj 423 519 vols~;
#X obj 529 495 hsl 128 15 0 110 0 0 empty empty empty -2 -8 0 10 -262144
-1 -1 9200 1;
#X obj 427 559 dac~;
#X obj 346 273 / 4;
#X obj 436 465 *~ 1;
#X obj 293 601 *~ 0.5;
#X obj 499 400 *~ 0.1;
#X obj 174 566 *~ -1;
#X obj 190 530 *~;
#X obj 46 477 osc~ 1;
#X obj 215 582 *~;
#X obj -50 399 208random;
#X obj 82 585 *~;
#X obj 57 432 *;
#X obj -31 289 int;
#X obj -67 343 zl nth;
#X floatatom 85 454 5 0 0 0 - - -;
#X floatatom -97 379 5 0 0 0 - - -;
#X obj -87 195 t b;
#X obj 384 274 expr 50 + (350 * $f1);
#X obj -48 316 + 1;
#X obj 184 642 +~;
#X obj 234 307 * 12;
#X obj 121 296 * 4;
#X msg 268 173 24;
#X obj 144 351 *;
#X obj 38 64 pulse 120 1 16;
#X obj 26 24 tgl 15 0 empty empty empty 17 7 0 10 -262144 -1 -1 1 1
;
#N canvas 101 185 552 420 kick 0;
#X obj 205 244 bng 15 250 50 0 empty empty empty 17 7 0 10 -262144
-1 -1;
#X floatatom 246 245 5 0 0 0 - - -;
#X floatatom 292 245 5 0 0 0 - - -;
#X obj 284 302 kick~;
#X floatatom 342 245 5 0 0 0 - - -;
#N canvas 120 49 1067 672 kickverb 0;
#X obj 76 234 inlet~;
#X obj 154 230 inlet~;
#X obj 100 525 outlet~;
#X obj 185 525 outlet~;
#X obj 168 424 zrev1~ 10 10 10;
#X obj 497 257 hsl 128 15 0 100 0 1 empty empty time -2 -8 0 10 -262144
-1 -1 10500 1;
#X floatatom 487 330 5 0 0 0 - - -;
#X obj 524 375 hsl 128 15 -1 1 0 1 empty empty mix -2 -8 0 10 -262144
-1 -1 6000 1;
#X floatatom 516 411 5 0 0 0 - - -;
#X obj 447 215 hsl 128 15 0 200 0 1 empty empty room_size -2 -8 0 10
-262144 -1 -1 10200 1;
#X floatatom 408 257 5 0 0 0 - - -;
#X obj 381 171 hsl 128 15 200 20000 1 1 empty empty lpf_hz -2 -8 0
10 -262144 -1 -1 6900 1;
#X floatatom 370 219 5 0 0 0 - - -;
#X obj 355 125 hsl 128 15 -99 18 0 1 empty empty recycle -2 -8 0 10
-262144 -1 -1 10400 1;
#X obj 296 85 hsl 128 15 -99 18 0 1 empty empty 2nd_ref -2 -8 0 10
-262144 -1 -1 8000 1;
#X obj 218 49 hsl 128 15 -99 18 0 1 empty empty 1st_ref -2 -8 0 10
-262144 -1 -1 9300 1;
#X obj 656 154 ctlin 16;
#X obj 655 190 / 127;
#X floatatom 678 293 5 0 0 0 - - -;
#X obj 657 217 * 2;
#X obj 660 253 - 1;
#X connect 0 0 4 0;
#X connect 1 0 4 1;
#X connect 4 0 2 0;
#X connect 4 1 3 0;
#X connect 5 0 6 0;
#X connect 6 0 4 7;
#X connect 7 0 8 0;
#X connect 8 0 4 8;
#X connect 9 0 10 0;
#X connect 10 0 4 6;
#X connect 11 0 12 0;
#X connect 12 0 4 5;
#X connect 13 0 4 4;
#X connect 14 0 4 3;
#X connect 15 0 4 2;
#X connect 16 0 17 0;
#X connect 17 0 19 0;
#X connect 19 0 20 0;
#X connect 20 0 18 0;
#X connect 20 0 7 0;
#X restore 279 365 pd kickverb;
#X obj 234 98 r \$0-reset;
#X msg 285 203 73;
#X msg 321 200 189;
#X obj 296 167 ii;
#X obj 219 25 ii;
#X obj 264 395 outlet~;
#X obj 343 396 outlet~;
#X obj 108 47 inlet;
#X obj 286 330 vols~;
#X obj 372 302 knob 32 32 0 120 0 0 empty empty empty 0 -8 0 8 -262144
-1 -1 2900 1;
#X obj 408 244 ctlin 0;
#X floatatom 444 311 5 0 0 0 - - -;
#X obj 399 273 expr $f1 * 0.82;
#X msg 205 51 1 5 9 13;
#X obj 174 128 bangseq 16;
#X connect 0 0 3 0;
#X connect 1 0 3 1;
#X connect 2 0 3 2;
#X connect 3 0 14 0;
#X connect 3 0 14 1;
#X connect 4 0 3 3;
#X connect 5 0 11 0;
#X connect 5 1 12 0;
#X connect 6 0 20 3;
#X connect 7 0 2 0;
#X connect 8 0 4 0;
#X connect 9 0 7 0;
#X connect 9 0 8 0;
#X connect 10 0 19 0;
#X connect 13 0 20 0;
#X connect 14 0 5 0;
#X connect 14 1 5 1;
#X connect 15 0 14 2;
#X connect 16 0 18 0;
#X connect 18 0 15 0;
#X connect 18 0 17 0;
#X connect 19 0 20 2;
#X connect 20 0 0 0;
#X restore 340 518 pd kick;
#X obj 82 87 clockdivider;
#X obj 90 120 s \$0-kickseq;
#X obj 339 481 r \$0-kickseq;
#X obj 473 602 recorder~;
#X obj 626 571 vu 15 120 empty empty -1 -8 0 10 -66577 -1 1 0;
#X obj 582 526 prvu~ 50 1000 300 -0.01;
#X floatatom 384 335 5 0 0 0 - - -;
#X obj 447 384 *~ 1.5;
#X obj 232 461 *~;
#X obj 9 536 * 2;
#X msg -82 238 0.25 0.5 1 2 3 4 5 6;
#X obj 500 428 *~ 0.01;
#X obj -5 268 * 9;
#X connect 2 0 62 0;
#X connect 3 0 30 0;
#X connect 3 0 61 0;
#X connect 4 0 48 0;
#X connect 4 1 47 0;
#X connect 5 0 4 0;
#X connect 5 0 36 0;
#X connect 5 0 15 0;
#X connect 6 0 2 2;
#X connect 7 0 2 1;
#X connect 8 0 9 0;
#X connect 8 0 2 0;
#X connect 9 0 38 0;
#X connect 10 0 8 0;
#X connect 11 0 10 1;
#X connect 12 0 28 0;
#X connect 12 0 44 0;
#X connect 12 1 14 0;
#X connect 13 0 3 1;
#X connect 14 0 2 1;
#X connect 15 0 3 2;
#X connect 24 0 31 0;
#X connect 25 0 27 0;
#X connect 25 0 57 0;
#X connect 25 1 27 1;
#X connect 25 1 57 1;
#X connect 25 1 59 0;
#X connect 26 0 25 2;
#X connect 28 0 6 0;
#X connect 29 0 25 0;
#X connect 29 0 25 1;
#X connect 30 0 17 0;
#X connect 31 0 65 0;
#X connect 32 0 35 0;
#X connect 33 0 32 0;
#X connect 33 0 35 1;
#X connect 34 0 37 0;
#X connect 35 0 46 0;
#X connect 36 2 66 0;
#X connect 36 3 63 0;
#X connect 37 0 62 1;
#X connect 38 0 34 0;
#X connect 38 0 41 0;
#X connect 39 0 45 0;
#X connect 40 0 38 1;
#X connect 40 0 42 0;
#X connect 43 0 64 0;
#X connect 44 0 15 2;
#X connect 45 0 40 1;
#X connect 45 0 43 0;
#X connect 47 0 50 0;
#X connect 49 0 4 3;
#X connect 50 0 10 0;
#X connect 51 0 5 0;
#X connect 51 0 54 0;
#X connect 51 0 55 0;
#X connect 52 0 51 0;
#X connect 53 0 25 0;
#X connect 53 1 25 1;
#X connect 56 0 53 0;
#X connect 59 0 58 0;
#X connect 60 0 15 1;
#X connect 61 0 29 0;
#X connect 62 0 3 0;
#X connect 63 0 37 1;
#X connect 64 0 40 0;
#X connect 65 0 29 0;
#X connect 66 0 39 0;
