#N canvas 385 317 1109 668 10;
#X obj 923 30 xsample;
#X obj 701 630 dac~;
#X obj 692 538 gain~;
#X obj 196 6 tgl 15 0 empty empty empty 17 7 0 10 -262144 -1 -1 1 1
;
#X obj 195 44 s \$0-delay;
#X obj 282 17 nbx 5 14 0 1 0 0 empty empty empty 0 -8 0 10 -262144
-1 -1 0.48 256;
#X obj 283 44 s \$0-input;
#X obj 357 15 nbx 5 14 0 1 0 0 empty empty empty 0 -8 0 10 -262144
-1 -1 0.57 256;
#X obj 359 42 s \$0-fbk;
#X obj 117 7 tgl 15 0 empty empty empty 17 7 0 10 -262144 -1 -1 1 1
;
#X obj 116 45 s \$0-enable;
#X obj 705 356 adc~;
#X obj 24 15 nbx 5 14 0.001 1 0 0 empty empty empty 0 -8 0 10 -262144
-1 -1 0.23 256;
#X msg 905 71 const 0;
#X obj 905 100 s \$0-coco;
#N canvas 260 296 1114 765 coco 0;
#N canvas 19 334 427 333 loopzone 0;
#X msg 28 84 xzone \$1;
#X obj 32 43 hsl 128 15 0 300 0 0 empty empty empty -2 -6 0 8 -262131
-1 -1 0 1;
#X floatatom 28 64 5 0 0 0 - - -;
#X msg 203 207 xfade \$1;
#X obj 203 142 vdl 15 0 0 4 empty empty empty 0 -6 0 8 -262144 -1 -1
0;
#X text 202 123 loop zone mode;
#X text 222 141 keep loop pos;
#X text 222 157 keep loop length;
#X text 222 173 keep fade length;
#X msg 47 205 xshape \$1;
#X obj 48 155 vdl 15 0 0 3 empty empty empty 0 -6 0 8 -262144 -1 -1
0;
#X text 45 133 fade zone shape;
#X text 67 152 linear;
#X text 67 168 quarter sine;
#X text 67 184 half sine;
#X text 125 67 length of the loop zone;
#X text 123 84 (in units);
#X text 222 188 zone inside loop;
#X text 21 9 xgroove~ crossfading loop zone;
#X obj 27 255 s to-g;
#X msg 209 246 xzone 80;
#X msg 212 291 xshape 0;
#X msg 306 274 xfade 2;
#X obj 292 228 loadbang;
#X connect 0 0 19 0;
#X connect 1 0 2 0;
#X connect 2 0 0 0;
#X connect 3 0 19 0;
#X connect 4 0 3 0;
#X connect 9 0 19 0;
#X connect 10 0 9 0;
#X connect 20 0 19 0;
#X connect 21 0 19 0;
#X connect 22 0 19 0;
#X connect 23 0 22 0;
#X connect 23 0 21 0;
#X connect 23 0 20 0;
#X restore 847 75 pd loopzone;
#X text 847 44 settings for;
#X text 846 56 cross-fading loop zone;
#N canvas 0 22 450 278 (subpatch) 0;
#X array \$0-coco 44100 float 2;
#X coords 0 1 44099 -1 200 140 1 0 0;
#X restore 774 173 graph;
#X obj 568 213 xgroove~ \$0-coco;
#X msg 644 168 loop 1;
#X msg 579 163 stop;
#X obj 111 369 lop~ 6000;
#X obj 112 401 hip~ 20;
#X obj 412 663 cyclone/poke~ \$0-coco;
#X obj 413 441 hip~ 20;
#X obj 413 411 *~ 0;
#N canvas 781 678 450 300 sample 0;
#X obj 173 44 inlet;
#X obj 85 42 inlet~;
#X msg 185 105 \$1 30;
#X obj 186 135 line 0;
#X obj 89 172 *~ 1;
#X obj 86 245 outlet~;
#X obj 184 242 outlet;
#X obj 173 75 expr 1 - $f1;
#X connect 0 0 7 0;
#X connect 1 0 4 0;
#X connect 2 0 3 0;
#X connect 3 0 4 1;
#X connect 4 0 5 0;
#X connect 7 0 2 0;
#X connect 7 0 6 0;
#X restore 411 342 pd sample;
#X obj 116 544 *~ 0;
#X obj 167 417 cyclone/gate 1;
#X msg 196 376 1;
#X obj 196 354 loadbang;
#X obj 115 572 *~ 1;
#X msg 174 490 1;
#X obj 213 507 f;
#X obj 188 444 r \$0-delay;
#X obj 434 381 r \$0-input;
#X obj 290 282 r \$0-fbk;
#X obj 522 294 spigot~;
#X obj 580 278 r \$0-enable;
#X obj 676 485 s~ \$0-output;
#N canvas 1213 445 626 583 sync 0;
#X obj 254 46 inlet;
#X obj 115 41 inlet~;
#X obj 119 461 outlet~;
#X obj 118 136 int_fract~;
#X obj 119 220 +~ -3;
#X msg 147 187 3;
#X msg 190 187 -3;
#X obj 147 163 sel 1;
#X connect 0 0 7 0;
#X connect 1 0 3 0;
#X connect 3 0 4 0;
#X connect 4 0 2 0;
#X connect 5 0 4 1;
#X connect 6 0 4 1;
#X connect 7 0 5 0;
#X connect 7 1 6 0;
#X restore 575 510 pd sync;
#X obj 611 487 r \$0-flp;
#X obj 577 570 mux~ . .;
#X obj 622 534 sig~ -1;
#X obj 509 535 r \$0-delay;
#N canvas 1161 450 496 487 playlogic 0;
#X obj 50 25 inlet;
#X obj 121 26 inlet;
#X obj 215 21 inlet;
#X obj 98 438 outlet;
#X obj 62 274 * 1;
#X obj 122 52 t b f;
#X obj 62 316 * 1;
#X obj 210 133 sel 1;
#X msg 207 171 -1;
#X msg 257 172 1;
#X obj 208 206 t b f;
#X connect 0 0 4 0;
#X connect 1 0 5 0;
#X connect 2 0 7 0;
#X connect 4 0 6 0;
#X connect 5 0 6 0;
#X connect 5 1 6 1;
#X connect 6 0 3 0;
#X connect 7 0 8 0;
#X connect 7 1 9 0;
#X connect 8 0 10 0;
#X connect 9 0 10 0;
#X connect 10 0 4 0;
#X connect 10 1 4 1;
#X restore 556 90 pd playlogic;
#X obj 555 113 sig~;
#X obj 556 137 +~;
#X obj 630 146 loadbang;
#X obj 409 293 r~ \$0-signalin;
#X msg 588 62 1;
#X obj 585 16 loadbang;
#X obj 681 270 bng 15 250 50 0 empty empty empty 17 7 0 10 -262144
-1 -1;
#X obj 461 318 r \$0-delay;
#X obj 188 466 sel 1;
#X obj 493 246 s~ \$0-fbksig;
#X obj 111 339 r~ \$0-fbksig;
#X floatatom 141 455 5 0 0 0 - - -;
#X obj 158 518 * 1;
#X floatatom 173 544 5 0 0 0 - - -;
#X floatatom 485 358 5 0 0 0 - - -;
#X floatatom 231 533 5 0 0 0 - - -;
#X obj 269 401 f;
#X obj 281 308 t b f;
#X obj 306 369 t b f;
#X floatatom 286 422 5 0 0 0 - - -;
#X floatatom 256 503 5 0 0 0 - - -;
#X obj 303 492 bng 15 250 50 0 empty empty empty 17 7 0 10 -262144
-1 -1;
#X obj 214 551 bng 15 250 50 0 empty empty empty 17 7 0 10 -262144
-1 -1;
#X obj 212 486 t b;
#X obj 615 128 r to-g;
#X obj 695 697 outlet~;
#X obj 696 666 r~ \$0-output;
#X obj 156 49 inlet~;
#X obj 159 99 s~ \$0-signalin;
#X obj 484 40 r \$0-cocospeed;
#X obj 673 455 hip~ 40;
#X msg 639 190 15;
#N canvas 842 172 450 300 skip 0;
#X obj 71 263 outlet;
#X obj 65 55 clip~ 0 1;
#X obj 64 83 >~ 0.5;
#X obj 9 134 r~ \$0-pos;
#X obj 5 164 snapshot~;
#X obj 72 195 f;
#X msg 72 231 pos \$1;
#X obj 64 20 inlet~;
#X obj 63 113 cyclone/edge~;
#X connect 1 0 2 0;
#X connect 2 0 8 0;
#X connect 3 0 4 0;
#X connect 4 0 5 1;
#X connect 5 0 6 0;
#X connect 6 0 0 0;
#X connect 7 0 1 0;
#X connect 8 0 4 0;
#X connect 8 1 5 0;
#X restore 452 125 pd skip;
#N canvas 351 678 450 300 flip 0;
#X obj 50 12 inlet~;
#X obj 53 227 outlet;
#X obj 51 46 clip~ 0 1;
#X obj 52 79 >~ 0.5;
#X msg 54 156 1;
#X obj 50 110 cyclone/edge~;
#X msg 103 159 0;
#X obj 174 98 unsig~;
#X floatatom 178 129 5 0 0 0 - - -;
#X connect 0 0 2 0;
#X connect 2 0 3 0;
#X connect 3 0 5 0;
#X connect 3 0 7 0;
#X connect 4 0 1 0;
#X connect 5 0 4 0;
#X connect 5 1 6 0;
#X connect 6 0 1 0;
#X connect 7 0 8 0;
#X restore 642 61 pd flip;
#X obj 597 247 s~ \$0-pos;
#X obj 452 94 r~ \$0-skp;
#X floatatom 662 90 5 0 0 0 - - -;
#X obj 650 30 r~ \$0-flp;
#N canvas 466 231 450 300 afec 0;
#X obj 72 36 inlet~;
#X obj 185 38 inlet;
#X obj 300 40 inlet;
#X obj 73 248 outlet~;
#X obj 72 69 *~;
#X obj 73 100 clip~ -0.999 1;
#X obj 72 201 *~ 1;
#X obj 115 144 sel 1;
#X msg 100 170 -1;
#X msg 147 169 1;
#X connect 0 0 4 0;
#X connect 1 0 7 0;
#X connect 2 0 4 1;
#X connect 4 0 5 0;
#X connect 5 0 6 0;
#X connect 6 0 3 0;
#X connect 7 0 8 0;
#X connect 7 1 9 0;
#X connect 8 0 6 1;
#X connect 9 0 6 1;
#X restore 736 89 pd afec;
#X obj 776 53 r \$0-afctl;
#X obj 728 26 r~ \$0-afec;
#N canvas 553 460 467 537 degrade~ 0;
#X obj 105 21 inlet~;
#X obj 104 479 outlet~;
#X obj 170 90 >~ 0;
#X obj 170 63 osc~ 11907;
#X obj 102 119 samphold~;
#X obj 105 162 expr~ int($v1/$v2)*$v2;
#X obj 263 87 sig~ 1e-05;
#X obj 34 45 pink~;
#X obj 31 73 *~ 0.1;
#X connect 0 0 4 0;
#X connect 2 0 4 1;
#X connect 3 0 2 0;
#X connect 4 0 5 0;
#X connect 5 0 1 0;
#X connect 6 0 5 1;
#X connect 7 0 8 0;
#X connect 8 0 4 0;
#X restore 432 515 pd degrade~;
#X connect 4 0 23 0;
#X connect 4 0 41 0;
#X connect 4 1 26 0;
#X connect 4 1 66 0;
#X connect 4 4 38 0;
#X connect 5 0 4 0;
#X connect 6 0 4 0;
#X connect 7 0 8 0;
#X connect 8 0 13 0;
#X connect 10 0 73 0;
#X connect 11 0 10 0;
#X connect 12 0 11 0;
#X connect 12 1 46 0;
#X connect 12 1 50 0;
#X connect 13 0 17 0;
#X connect 14 0 43 0;
#X connect 14 0 44 0;
#X connect 15 0 14 0;
#X connect 16 0 15 0;
#X connect 17 0 9 0;
#X connect 18 0 44 0;
#X connect 19 0 44 0;
#X connect 19 0 47 0;
#X connect 20 0 40 0;
#X connect 21 0 11 1;
#X connect 22 0 49 0;
#X connect 23 1 62 0;
#X connect 24 0 23 1;
#X connect 26 0 28 0;
#X connect 27 0 26 1;
#X connect 28 0 9 1;
#X connect 29 0 28 1;
#X connect 30 0 28 0;
#X connect 31 0 32 0;
#X connect 32 0 33 0;
#X connect 33 0 4 0;
#X connect 34 0 5 0;
#X connect 34 0 4 0;
#X connect 34 0 63 0;
#X connect 35 0 12 0;
#X connect 36 0 31 1;
#X connect 37 0 36 0;
#X connect 39 0 12 1;
#X connect 40 0 18 0;
#X connect 40 0 54 0;
#X connect 40 1 52 0;
#X connect 40 1 53 0;
#X connect 40 1 55 0;
#X connect 42 0 7 0;
#X connect 44 0 13 1;
#X connect 44 0 45 0;
#X connect 48 0 14 1;
#X connect 48 0 19 1;
#X connect 48 0 51 0;
#X connect 49 0 48 0;
#X connect 49 1 48 1;
#X connect 50 0 48 0;
#X connect 50 1 14 0;
#X connect 55 0 19 0;
#X connect 56 0 4 0;
#X connect 58 0 57 0;
#X connect 59 0 60 0;
#X connect 61 0 31 0;
#X connect 62 0 25 0;
#X connect 63 0 4 1;
#X connect 64 0 4 0;
#X connect 65 0 31 2;
#X connect 65 0 68 0;
#X connect 65 0 70 1;
#X connect 67 0 64 0;
#X connect 69 0 65 0;
#X connect 70 0 33 1;
#X connect 71 0 70 2;
#X connect 72 0 70 0;
#X connect 73 0 9 0;
#X restore 705 447 pd coco -----;
#N canvas 572 469 770 475 quantussy 0;
#N canvas 817 319 450 300 tussy 0;
#X obj 123 162 osc~;
#X obj 172 15 bng 15 250 50 0 empty empty empty 17 7 0 10 -262144 -1
-1;
#X obj 175 78 abs;
#X floatatom 198 99 5 0 0 0 - - -;
#X obj 115 265 outlet~;
#X obj 200 22 loadbang;
#X obj 55 19 inlet~;
#X obj 164 111 sig~;
#X obj 59 93 *~;
#X obj 82 48 r \$0-chaos;
#X obj 93 105 r \$0-speed;
#X obj 61 125 +~;
#X obj 204 198 >~ 0;
#X obj 203 259 outlet~;
#X floatatom 291 77 5 0 0 0 - - -;
#X obj 174 49 gauss 0.3 0.2;
#X connect 0 0 4 0;
#X connect 0 0 12 0;
#X connect 1 0 15 0;
#X connect 2 0 3 0;
#X connect 2 0 7 0;
#X connect 5 0 15 0;
#X connect 6 0 8 0;
#X connect 7 0 0 0;
#X connect 8 0 11 0;
#X connect 9 0 8 1;
#X connect 10 0 11 1;
#X connect 11 0 0 0;
#X connect 12 0 13 0;
#X connect 14 0 7 0;
#X connect 15 0 2 0;
#X restore 84 172 pd tussy;
#X obj 81 105 r~ \$0-loop;
#X obj 548 207 s~ \$0-loop;
#X obj 136 225 samphold~;
#X obj 225 224 samphold~;
#X obj 322 226 samphold~;
#X obj 423 228 samphold~;
#X obj 34 223 samphold~;
#N canvas 817 319 450 300 tussy 0;
#X obj 123 162 osc~;
#X obj 172 15 bng 15 250 50 0 empty empty empty 17 7 0 10 -262144 -1
-1;
#X obj 175 78 abs;
#X floatatom 198 99 5 0 0 0 - - -;
#X obj 115 265 outlet~;
#X obj 200 22 loadbang;
#X obj 55 19 inlet~;
#X obj 164 111 sig~;
#X obj 59 93 *~;
#X obj 71 60 r \$0-chaos;
#X obj 93 105 r \$0-speed;
#X obj 61 125 +~;
#X obj 204 198 >~ 0;
#X obj 203 259 outlet~;
#X obj 174 49 gauss 0.3 0.2;
#X connect 0 0 4 0;
#X connect 0 0 12 0;
#X connect 1 0 14 0;
#X connect 2 0 3 0;
#X connect 2 0 7 0;
#X connect 5 0 14 0;
#X connect 6 0 8 0;
#X connect 7 0 0 0;
#X connect 8 0 11 0;
#X connect 9 0 8 1;
#X connect 10 0 11 1;
#X connect 11 0 0 0;
#X connect 12 0 13 0;
#X connect 14 0 2 0;
#X restore 183 168 pd tussy;
#N canvas 817 319 450 300 tussy 0;
#X obj 122 206 osc~;
#X obj 172 15 bng 15 250 50 0 empty empty empty 17 7 0 10 -262144 -1
-1;
#X obj 175 78 abs;
#X floatatom 198 99 5 0 0 0 - - -;
#X obj 115 265 outlet~;
#X obj 200 22 loadbang;
#X obj 55 19 inlet~;
#X obj 164 111 sig~;
#X obj 59 93 *~;
#X obj 80 60 r \$0-chaos;
#X obj 93 105 r \$0-speed;
#X obj 61 125 +~;
#X obj 198 230 >~ 0;
#X obj 203 259 outlet~;
#X obj 174 49 gauss 0.3 0.2;
#X floatatom 238 77 5 0 0 0 - - -;
#X connect 0 0 4 0;
#X connect 0 0 12 0;
#X connect 1 0 14 0;
#X connect 2 0 3 0;
#X connect 2 0 7 0;
#X connect 5 0 14 0;
#X connect 6 0 8 0;
#X connect 7 0 0 0;
#X connect 8 0 11 0;
#X connect 9 0 8 1;
#X connect 10 0 11 1;
#X connect 11 0 0 0;
#X connect 12 0 13 0;
#X connect 14 0 2 0;
#X connect 15 0 7 0;
#X restore 283 169 pd tussy;
#N canvas 817 319 450 300 tussy 0;
#X obj 123 162 osc~;
#X obj 172 15 bng 15 250 50 0 empty empty empty 17 7 0 10 -262144 -1
-1;
#X obj 174 49 gauss 0.5 0.1;
#X obj 175 78 abs;
#X floatatom 198 99 5 0 0 0 - - -;
#X obj 115 265 outlet~;
#X obj 200 22 loadbang;
#X obj 55 19 inlet~;
#X obj 164 111 sig~;
#X obj 59 93 *~;
#X obj 71 60 r \$0-chaos;
#X obj 93 105 r \$0-speed;
#X obj 61 125 +~;
#X obj 204 198 >~ 0;
#X obj 203 259 outlet~;
#X connect 0 0 5 0;
#X connect 0 0 13 0;
#X connect 1 0 2 0;
#X connect 2 0 3 0;
#X connect 3 0 4 0;
#X connect 3 0 8 0;
#X connect 6 0 2 0;
#X connect 7 0 9 0;
#X connect 8 0 0 0;
#X connect 9 0 12 0;
#X connect 10 0 9 1;
#X connect 11 0 12 1;
#X connect 12 0 0 0;
#X connect 13 0 14 0;
#X restore 377 169 pd tussy;
#N canvas 817 319 450 300 tussy 0;
#X obj 123 162 osc~;
#X obj 172 15 bng 15 250 50 0 empty empty empty 17 7 0 10 -262144 -1
-1;
#X obj 175 78 abs;
#X floatatom 198 99 5 0 0 0 - - -;
#X obj 115 265 outlet~;
#X obj 200 22 loadbang;
#X obj 55 19 inlet~;
#X obj 164 111 sig~;
#X obj 59 93 *~;
#X obj 71 60 r \$0-chaos;
#X obj 93 105 r \$0-speed;
#X obj 61 125 +~;
#X obj 204 198 >~ 0;
#X obj 203 259 outlet~;
#X obj 174 49 gauss 0.3 0.2;
#X connect 0 0 4 0;
#X connect 0 0 12 0;
#X connect 1 0 14 0;
#X connect 2 0 3 0;
#X connect 2 0 7 0;
#X connect 5 0 14 0;
#X connect 6 0 8 0;
#X connect 7 0 0 0;
#X connect 8 0 11 0;
#X connect 9 0 8 1;
#X connect 10 0 11 1;
#X connect 11 0 0 0;
#X connect 12 0 13 0;
#X connect 14 0 2 0;
#X restore 467 167 pd tussy;
#X obj 548 232 s~ \$0-shloop;
#X obj 22 135 r~ \$0-shloop;
#X obj 15 313 outlet~;
#X obj 110 311 outlet~;
#X obj 207 310 outlet~;
#X obj 296 307 outlet~;
#X obj 413 309 outlet~;
#X obj 510 308 outlet~;
#X obj 593 306 outlet~;
#X connect 0 0 8 0;
#X connect 0 0 7 0;
#X connect 0 0 14 0;
#X connect 0 1 3 1;
#X connect 1 0 0 0;
#X connect 3 0 15 0;
#X connect 5 0 17 0;
#X connect 6 0 20 0;
#X connect 8 0 3 0;
#X connect 8 0 9 0;
#X connect 8 0 19 0;
#X connect 8 1 4 1;
#X connect 9 0 4 0;
#X connect 9 0 10 0;
#X connect 9 0 16 0;
#X connect 9 1 5 1;
#X connect 10 0 5 0;
#X connect 10 0 11 0;
#X connect 10 1 6 1;
#X connect 11 0 6 0;
#X connect 11 0 2 0;
#X connect 11 0 18 0;
#X connect 11 1 12 0;
#X connect 13 0 7 1;
#X restore 215 255 pd quantussy -----;
#X floatatom 512 76 5 0 0 0 - - -;
#X floatatom 630 78 6 0 0 0 - - -;
#X obj 493 114 s \$0-chaos;
#X obj 455 37 hsl 128 15 0.1 10 1 0 empty empty empty -2 -8 0 10 -262144
-1 -1 2800 1;
#X obj 606 35 hsl 128 15 0.001 20 1 0 empty empty empty -2 -8 0 10
-262144 -1 -1 3000 1;
#X obj 241 371 *~;
#X obj 282 338 hsl 128 15 0.2 20 1 0 empty empty empty -2 -8 0 10 -262144
-1 -1 2300 1;
#X obj 610 117 s \$0-speed;
#X obj 26 42 s \$0-cocospeed;
#X obj 355 409 s~ \$0-skp;
#X obj 357 381 *~;
#X obj 385 361 hsl 128 15 0.2 20 1 0 empty empty empty -2 -8 0 10 -262144
-1 -1 10000 1;
#X obj 240 398 s~ \$0-flp;
#X floatatom 417 389 5 0 0 0 - - -;
#X floatatom 300 369 5 0 0 0 - - -;
#X obj 347 303 s~ \$0-afec;
#X obj 283 74 nbx 5 14 0 1 0 0 empty empty empty 0 -8 0 10 -262144
-1 -1 0 256;
#X obj 284 101 s \$0-afctl;
#X obj 786 536 gain~;
#N canvas 30 466 591 581 testaudio 0;
#X obj 198 171 tgl 15 0 empty empty empty 17 7 0 10 -262144 -1 -1 1
1;
#X obj 122 361 *~;
#X obj 198 191 metro 500;
#X floatatom 256 155 5 0 0 0 - - -;
#X obj 188 253 adenv~ 10 100;
#X floatatom 290 101 5 0 0 0 - - -;
#X obj 328 156 mtof;
#X obj 327 134 + 50;
#X obj 327 95 random 50;
#X floatatom 287 214 5 0 0 0 - - -;
#X obj 118 407 s~ \$0-testsig;
#X obj 219 124 phasor~ 440;
#X obj 226 278 *~ 15000;
#X floatatom 299 251 5 0 0 0 - - -;
#X floatatom 232 214 5 0 0 0 - - -;
#X obj 124 308 svf~ 200 0.8;
#X obj 356 270 hsl 128 15 200 20000 1 1 empty empty empty -2 -8 0 10
-262144 -1 -1 3400 1;
#X floatatom 413 83 5 0 0 0 - - -;
#X floatatom 375 118 5 0 0 0 - - -;
#X obj 123 215 osc~;
#X floatatom 258 313 5 0 0 0 - - -;
#X obj 230 62 numberseq;
#X msg 270 23 0 3 7 9 12;
#X obj 80 73 osc~;
#X obj 101 135 *~;
#X floatatom 153 94 5 0 0 0 - - -;
#X obj 86 35 *~;
#X floatatom 113 16 5 0 0 0 - - -;
#X obj 110 172 +~;
#X connect 0 0 2 0;
#X connect 1 0 10 0;
#X connect 2 0 4 0;
#X connect 2 0 21 0;
#X connect 3 0 2 1;
#X connect 4 0 1 1;
#X connect 4 0 12 0;
#X connect 5 0 11 0;
#X connect 6 0 11 0;
#X connect 6 0 26 0;
#X connect 6 0 28 1;
#X connect 7 0 6 0;
#X connect 8 0 7 0;
#X connect 9 0 4 2;
#X connect 12 0 15 1;
#X connect 13 0 12 1;
#X connect 14 0 4 1;
#X connect 15 0 1 0;
#X connect 16 0 12 1;
#X connect 17 0 8 1;
#X connect 18 0 7 1;
#X connect 19 0 1 0;
#X connect 20 0 15 2;
#X connect 21 0 7 0;
#X connect 22 0 21 1;
#X connect 23 0 24 0;
#X connect 24 0 28 0;
#X connect 25 0 24 1;
#X connect 26 0 23 0;
#X connect 27 0 26 1;
#X connect 28 0 19 0;
#X restore 62 592 pd testaudio;
#X obj 801 308 r~ \$0-testsig;
#X obj 959 186 dsp~ 1;
#X floatatom 962 215 5 0 0 0 - - -;
#X connect 2 0 1 0;
#X connect 2 0 1 1;
#X connect 3 0 4 0;
#X connect 5 0 6 0;
#X connect 7 0 8 0;
#X connect 9 0 10 0;
#X connect 11 0 15 0;
#X connect 11 1 35 0;
#X connect 12 0 25 0;
#X connect 13 0 14 0;
#X connect 15 0 2 0;
#X connect 16 0 27 0;
#X connect 16 1 22 0;
#X connect 16 3 32 0;
#X connect 16 4 27 0;
#X connect 16 6 32 0;
#X connect 20 0 19 0;
#X connect 20 0 17 0;
#X connect 21 0 18 0;
#X connect 21 0 24 0;
#X connect 22 0 29 0;
#X connect 23 0 22 1;
#X connect 23 0 31 0;
#X connect 27 0 26 0;
#X connect 28 0 27 1;
#X connect 28 0 30 0;
#X connect 33 0 34 0;
#X connect 35 0 1 1;
#X connect 35 0 1 0;
#X connect 37 0 15 0;
#X connect 37 0 35 0;
#X connect 38 0 39 0;
