#N canvas 0 22 866 778 10;
#X obj 64 46 loadbang;
#X msg 64 123 \; pd dsp 1;
#X obj 63 84 delay 100;
#X obj 405 117 adc~;
#X obj 379 458 dac~;
#X connect 0 0 2 0;
#X connect 2 0 1 0;
#X connect 3 0 4 0;
#X connect 3 1 4 1;
