#N canvas 197 71 1096 634 10;
#X obj 876 521 output~;
#N canvas 38 112 543 551 lopassgates 0;
#X obj 13 26 inlet~;
#X obj 224 19 inlet~;
#X obj 152 117 vradio 12 1 1 2 empty empty gate_2_source 0 -8 1 10
-262144 -1 -1 0;
#X text 168 112 mod osc;
#X text 168 127 primary osc;
#X text 146 151 lopass filter;
#X text 153 164 combination;
#X text 135 177 voltage ctrld amp;
#X obj 110 157 vradio 12 1 1 3 empty empty gate_1 -8 -8 1 10 -262144
-1 -1 1;
#X obj 256 157 vradio 12 1 1 3 empty empty gate_2 -8 -8 1 10 -262144
-1 -1 1;
#X obj 130 494 crossfade~;
#X obj 28 494 outlet~;
#X obj 235 482 outlet~;
#X text 15 4 input 1;
#X text 65 4 control 1;
#X text 222 2 input 2;
#X text 293 8 control 2;
#X obj 127 209 hsl 128 15 0 1 0 1 empty empty gate_1_level -2 -8 1
10 -262144 -1 -1 0 1;
#X obj 127 239 hsl 128 15 0 1 0 1 empty empty gate_1_cv -2 -8 1 10
-262144 -1 -1 8400 1;
#X obj 127 269 hsl 128 15 0 1 0 1 empty empty gate_2_level -2 -8 1
10 -262144 -1 -1 0 1;
#X obj 127 299 hsl 128 15 0.001 1 1 1 empty empty gate_2_cv -2 -8 1
10 -262144 -1 -1 9300 1;
#X obj 116 436 *~ -1;
#X obj 36 437 mmg~;
#X obj 242 395 t b f;
#X obj 69 22 inlet~;
#X obj 50 344 cvcontrol~;
#X obj 236 438 mmg~;
#X obj 316 367 cvcontrol~;
#X obj 296 33 inlet~;
#X connect 0 0 22 0;
#X connect 1 0 10 0;
#X connect 2 0 10 2;
#X connect 8 0 22 2;
#X connect 9 0 23 0;
#X connect 10 0 26 0;
#X connect 17 0 25 1;
#X connect 18 0 25 2;
#X connect 19 0 27 1;
#X connect 20 0 27 2;
#X connect 21 0 10 1;
#X connect 22 0 11 0;
#X connect 22 0 21 0;
#X connect 23 1 26 2;
#X connect 24 0 25 0;
#X connect 25 0 22 1;
#X connect 26 0 12 0;
#X connect 27 0 26 1;
#X connect 28 0 27 0;
#X coords 0 -1 1 1 180 220 2 100 100;
#X restore 836 36 pd lopassgates;
#N canvas 21 58 631 653 pulser 0;
#X obj 90 574 outlet;
#X obj 211 116 hsl 128 15 0.001 1 1 1 empty empty period -2 -8 1 10
-99865 -257985 -1 6300 1;
#X obj 178 431 phasor~;
#X obj 177 466 *~ 2;
#X obj 178 494 -~ 0.5;
#X obj 99 527 sigtobang~;
#X obj 176 561 bng 15 250 50 0 empty empty empty 17 7 0 10 -262144
-1 -1;
#X obj 210 155 hsl 128 15 0.0001 1 1 1 empty empty period_cv -2 -8
1 10 -99865 -257985 -1 12700 1;
#X obj 76 36 inlet;
#X obj 70 119 sig~;
#X obj 122 79 sig~;
#X obj 99 241 crossfade~;
#X obj 99 267 sigtof~;
#N canvas 392 191 471 349 periodtohz 0;
#X obj 119 136 * 10;
#X obj 118 233 expr 1 / ($f1 + 0.00001);
#X obj 118 165 + 0.002;
#X obj 116 42 inlet;
#X obj 117 300 outlet;
#X connect 0 0 2 0;
#X connect 1 0 4 0;
#X connect 2 0 1 0;
#X connect 3 0 0 0;
#X restore 118 327 pd periodtohz;
#X floatatom 198 386 5 0 0 0 - - -;
#X floatatom 36 74 5 0 0 0 - - -;
#X obj 131 373 abs;
#X obj 122 135 abs~;
#N canvas 598 197 450 300 transfer 0;
#X obj 126 38 inlet~;
#X obj 138 238 outlet~;
#X obj 160 128 expr~ pow($v1 \, 4);
#X connect 0 0 2 0;
#X connect 2 0 1 0;
#X restore 117 101 pd transfer;
#X floatatom 155 292 5 0 0 0 - - -;
#X obj 246 573 outlet~;
#X connect 1 0 9 0;
#X connect 2 0 3 0;
#X connect 3 0 4 0;
#X connect 4 0 5 0;
#X connect 4 0 20 0;
#X connect 5 0 0 0;
#X connect 5 0 6 0;
#X connect 7 0 11 2;
#X connect 8 0 15 0;
#X connect 8 0 10 0;
#X connect 9 0 11 0;
#X connect 10 0 18 0;
#X connect 11 0 12 0;
#X connect 12 0 13 0;
#X connect 12 0 19 0;
#X connect 13 0 16 0;
#X connect 16 0 2 0;
#X connect 16 0 14 0;
#X connect 17 0 11 1;
#X connect 18 0 17 0;
#X coords 0 -1 1 1 150 75 2 200 100;
#X restore 431 26 pd pulser;
#N canvas 527 337 450 300 random 0;
#X obj 124 56 208random;
#X obj 81 17 inlet;
#X text 104 106 random voltage source;
#X obj 71 232 outlet;
#X obj 130 231 outlet;
#X obj 197 229 outlet;
#X obj 277 227 outlet;
#X connect 0 0 3 0;
#X connect 0 1 4 0;
#X connect 0 2 5 0;
#X connect 0 3 6 0;
#X connect 1 0 0 0;
#X coords 0 -1 1 1 135 30 2 100 100;
#X restore 477 -38 pd random;
#X obj 18 -10 easelseq;
#N canvas 20 205 505 481 envelope 0;
#X obj 106 115 hsl 128 15 0.0005 1 1 1 empty empty attack -2 -8 1 10
-99865 -260097 -1 9100 1;
#X obj 106 147 hsl 128 15 0.001 1 1 1 empty empty decay -2 -8 1 10
-99865 -260097 -1 11700 1;
#X obj 101 22 inlet;
#X obj 133 212 * 10;
#X obj 186 209 * 10;
#X obj 185 243 + 0.002;
#X obj 132 241 + 0.001;
#X obj 133 276 * 1000;
#X obj 191 279 * 1000;
#X obj 253 23 inlet;
#X text 98 3 bang;
#X text 248 4 decay cv;
#X obj 106 180 hsl 128 15 0.001 1 1 1 empty empty decay_cv -2 -8 1
10 -99865 -260097 -1 0 1;
#X floatatom 305 195 5 0 0 0 - - -;
#X floatatom 147 302 5 0 0 0 - - -;
#X floatatom 211 310 10 0 0 0 - - -;
#X obj 291 158 cvcontrol;
#X obj 125 358 ead~;
#X obj 127 432 outlet~;
#X connect 0 0 3 0;
#X connect 1 0 16 1;
#X connect 2 0 17 0;
#X connect 3 0 6 0;
#X connect 4 0 5 0;
#X connect 5 0 8 0;
#X connect 6 0 7 0;
#X connect 7 0 14 0;
#X connect 7 0 17 1;
#X connect 8 0 15 0;
#X connect 8 0 17 2;
#X connect 9 0 16 0;
#X connect 12 0 16 2;
#X connect 16 0 4 0;
#X connect 16 0 13 0;
#X connect 17 0 18 0;
#X coords 0 -1 1 1 140 100 2 100 100;
#X restore 218 -1 pd envelope;
#N canvas 360 116 955 604 levels 0;
#X obj 524 50 inlet~;
#X obj 663 50 inlet~;
#X obj 524 79 *~;
#X obj 663 78 *~;
#X obj 626 538 outlet~;
#X obj 110 117 hsl 128 15 0.001 1 1 1 empty empty chan_A_level -2 -8
1 10 -262144 -1 -1 10000 1;
#X obj 110 150 hsl 128 15 0.001 1 1 1 empty empty chan_B_level -2 -8
1 10 -262144 -1 -1 12700 1;
#X obj 110 249 hsl 128 15 -1 0 0 1 empty empty reverb -2 -8 1 10 -262144
-1 -1 1600 1;
#X obj 110 282 hsl 128 15 0 100 0 1 empty empty master_level -2 -8
1 10 -262144 -1 -1 12700 1;
#N canvas 21 58 770 633 verb 0;
#X obj 42 216 inlet~;
#X obj 120 212 inlet~;
#X obj 110 535 outlet~;
#X obj 195 535 outlet~;
#X obj 178 434 zrev1~ 10 10 10;
#X obj 484 269 hsl 128 15 0 100 0 1 empty empty reverb_time -2 -8 0
10 -262144 -1 -1 1600 1;
#X floatatom 497 340 5 0 0 0 - - -;
#X obj 534 385 hsl 128 15 -1 1 0 1 empty empty mix -2 -8 0 10 -262144
-1 -1 800 1;
#X floatatom 526 421 5 0 0 0 - - -;
#X obj 457 225 hsl 128 15 0 200 0 1 empty empty room_size -2 -8 0 10
-262144 -1 -1 11300 1;
#X floatatom 418 267 5 0 0 0 - - -;
#X obj 391 181 hsl 128 15 200 20000 1 1 empty empty lpf_cutoff -2 -8
0 10 -262144 -1 -1 10500 1;
#X floatatom 380 229 5 0 0 0 - - -;
#X obj 365 135 hsl 128 15 -99 18 0 1 empty empty recycle -2 -8 0 10
-262144 -1 -1 9100 1;
#X obj 306 95 hsl 128 15 -99 18 0 1 empty empty 2nd_reflection_(db)
-2 -8 0 10 -262144 -1 -1 6200 1;
#X obj 228 59 hsl 128 15 -99 18 0 1 empty empty 1st_reflection_(db)
-2 -8 0 10 -262144 -1 -1 8300 1;
#X obj 598 33 inlet;
#X floatatom 638 89 5 0 0 0 - - -;
#X obj 531 114 expr 1 - ($f1 * -1);
#X obj 526 142 * 100;
#X connect 0 0 4 0;
#X connect 1 0 4 1;
#X connect 4 0 2 0;
#X connect 4 1 3 0;
#X connect 5 0 6 0;
#X connect 6 0 4 7;
#X connect 7 0 8 0;
#X connect 8 0 4 8;
#X connect 9 0 10 0;
#X connect 10 0 4 6;
#X connect 11 0 12 0;
#X connect 12 0 4 5;
#X connect 13 0 4 4;
#X connect 14 0 4 3;
#X connect 15 0 4 2;
#X connect 16 0 7 0;
#X connect 16 0 17 0;
#X connect 16 0 18 0;
#X connect 18 0 19 0;
#X connect 19 0 5 0;
#X restore 605 311 pd verb;
#X obj 572 138 pan~;
#X obj 656 136 pan~;
#X obj 110 183 hsl 128 15 -45 45 0 1 empty empty chan_A_pan -2 -8 1
10 -262144 -1 -1 3600 1;
#X obj 110 216 hsl 128 15 -45 45 0 1 empty empty chan_B_pan -2 -8 1
10 -262144 -1 -1 8400 1;
#X obj 598 394 vols~;
#X obj 571 537 outlet~;
#X obj 576 453 hip~ 1;
#X obj 633 454 hip~ 1;
#X obj 489 324 spring~;
#X obj 492 236 nbx 5 14 0 1 0 1 empty empty empty 0 -8 0 10 -262144
-1 -1 1 256;
#X obj 416 239 nbx 5 14 0 1 0 1 empty empty empty 0 -8 0 10 -262144
-1 -1 0 256;
#X obj 549 492 clip~ -1 1;
#X obj 632 491 clip~ -1 1;
#X obj 754 52 inlet;
#X obj 751 116 * 45;
#X floatatom 759 166 5 0 0 0 - - -;
#X floatatom 879 76 5 0 0 0 - - -;
#X obj 752 87 expr ($f1 * 2) - 1;
#X connect 0 0 2 0;
#X connect 1 0 3 0;
#X connect 2 0 10 0;
#X connect 3 0 11 0;
#X connect 5 0 2 1;
#X connect 6 0 3 1;
#X connect 7 0 9 2;
#X connect 7 0 20 0;
#X connect 8 0 14 2;
#X connect 10 0 18 0;
#X connect 10 0 9 0;
#X connect 10 1 18 1;
#X connect 10 1 9 1;
#X connect 11 0 18 0;
#X connect 11 0 9 0;
#X connect 11 1 18 1;
#X connect 11 1 9 1;
#X connect 12 0 10 1;
#X connect 13 0 11 1;
#X connect 14 0 16 0;
#X connect 14 1 17 0;
#X connect 16 0 21 0;
#X connect 17 0 22 0;
#X connect 18 0 14 0;
#X connect 18 1 14 1;
#X connect 19 0 18 2;
#X connect 20 0 18 3;
#X connect 21 0 15 0;
#X connect 22 0 4 0;
#X connect 23 0 26 0;
#X connect 23 0 27 0;
#X connect 24 0 10 1;
#X connect 24 0 25 0;
#X connect 27 0 24 0;
#X coords 0 -1 1 1 145 210 2 100 100;
#X restore 844 273 pd levels;
#X obj 538 136 easelosc~;
#X text 386 439 todo: keyboard \, env sustain \, env modes \, pulser
modes;
#X connect 1 0 6 0;
#X connect 1 1 6 1;
#X connect 2 0 5 0;
#X connect 2 0 3 0;
#X connect 2 1 1 3;
#X connect 3 0 5 1;
#X connect 3 0 6 2;
#X connect 3 1 2 0;
#X connect 3 2 7 1;
#X connect 3 2 7 2;
#X connect 3 3 7 0;
#X connect 3 3 7 3;
#X connect 5 0 1 1;
#X connect 6 0 0 0;
#X connect 6 1 0 1;
#X connect 7 0 1 0;
#X connect 7 1 1 2;
