#N canvas 496 46 715 693 10;
#X obj 65 123 sig~;
#X obj 119 150 mtof~;
#X obj 122 185 osc~ 110;
#X obj 119 227 *~;
#X obj 208 96 vsl 15 128 0 1 0 0 empty empty exp_fm 0 -9 0 10 -262144
-1 -1 0 1;
#X floatatom 204 259 5 0 0 0 - - -;
#X msg 183 300 \$1 100;
#X obj 183 326 line~ 0;
#X obj 94 257 mtof~;
#X obj 60 621 output~;
#X obj 63 81 mtof;
#X obj 68 39 nbx 5 14 -1e+37 1e+37 0 0 empty empty empty 0 -8 0 10
-262144 -1 -1 17 256;
#X obj 307 115 vsl 15 128 0 127 0 0 empty empty lin_fm 0 -9 0 10 -262144
-1 -1 0 1;
#X obj 300 274 / 127;
#X floatatom 294 349 5 0 0 0 - - -;
#X obj 290 399 line~ 0;
#X obj 123 303 osc~ 110;
#X obj 129 346 *~;
#X msg 292 376 \$1 100;
#X obj 67 372 cycle~;
#X obj 208 234 * 127;
#X floatatom 109 107 5 0 0 0 - - -;
#N canvas 348 51 904 691 comb 0;
#X obj 441 403 *~ 0;
#X obj 385 220 line~;
#X obj 135 47 inlet~;
#X obj 251 587 outlet~;
#X obj 387 158 nbx 5 14 -1e+37 1e+37 0 0 empty empty empty 0 -8 0 10
-262144 -1 -1 2.5 256;
#X obj 386 63 inlet;
#X obj 526 60 inlet;
#X text 519 30 feedback;
#X text 136 29 input;
#X text 385 44 freq;
#X floatatom 548 104 5 0 0 0 - - -;
#X obj 443 488 lop~ 5000;
#X obj 445 530 hip~ 30;
#X obj 386 106 expr ($f1 * 22.5) + 2.5;
#X obj 619 57 inlet;
#X obj 404 187 pack 0 0;
#X floatatom 706 158 5 0 0 0 - - -;
#X obj 618 124 expr 1000 / $f1;
#X obj 537 306 delwrite~ \$0-c1 500;
#X obj 533 346 vd~ \$0-c1;
#X obj 552 260 r~ \$0-cfdbk;
#X obj 433 624 s~ \$0-cfdbk;
#X connect 0 0 11 0;
#X connect 2 0 18 0;
#X connect 4 0 15 0;
#X connect 4 0 19 0;
#X connect 5 0 13 0;
#X connect 6 0 10 0;
#X connect 6 0 0 1;
#X connect 11 0 12 0;
#X connect 12 0 21 0;
#X connect 13 0 4 0;
#X connect 14 0 16 0;
#X connect 14 0 17 0;
#X connect 15 0 1 0;
#X connect 17 0 4 0;
#X connect 19 0 0 0;
#X connect 19 0 3 0;
#X connect 20 0 18 0;
#X restore 325 473 pd comb;
#X obj 201 482 crossfade~;
#X obj 388 408 hsl 128 15 0 1 0 0 empty empty empty -2 -8 0 10 -262144
-1 -1 0 1;
#X obj 408 439 hsl 128 15 0 1 0 0 empty empty empty -2 -8 0 10 -262144
-1 -1 0 1;
#X obj 269 -12 tgl 15 0 empty empty empty 17 7 0 10 -262144 -1 -1 1
1;
#X obj 306 548 hsl 128 15 0 1 0 0 empty empty empty -2 -8 0 10 -262144
-1 -1 12700 1;
#X obj 77 469 lpg~ 10000;
#X obj 297 30 metro 150;
#X obj 309 57 random 50;
#X obj 241 57 + 10;
#X floatatom 181 9 5 0 0 0 - - -;
#X floatatom 377 9 5 0 0 0 - - -;
#X floatatom -23 519 5 0 0 0 - - -;
#X floatatom 21 527 5 0 1 0 - - -;
#X floatatom 65 529 5 0 1 0 - - -;
#N canvas 221 63 803 648 bbd 0;
#X obj 461 373 *~ 0;
#X obj 553 224 vsl 15 128 0.01 1 1 0 empty empty empty 0 -9 0 10 -262144
-1 -1 0 1;
#X obj 395 230 line~;
#X floatatom 534 458 5 0 0 0 - - -;
#X obj 145 57 inlet~;
#X obj 262 768 outlet~;
#X obj 397 168 nbx 5 14 -1e+37 1e+37 0 0 empty empty empty 0 -8 0 10
-262144 -1 -1 15 256;
#X floatatom 490 451 5 0 0 0 - - -;
#X obj 451 564 s~ \$0-fdbk;
#X obj 206 84 r~ \$0-fdbk;
#X obj 516 377 expr (1 - $f1);
#X obj 396 56 inlet;
#X obj 153 114 delwrite~ \$0-b1 500;
#X obj 255 151 vd~ \$0-b1;
#X obj 157 183 delwrite~ \$0-b2 500;
#X obj 257 209 vd~ \$0-b2;
#X obj 260 732 vd~ \$0-b10;
#X obj 161 694 delwrite~ \$0-b10 500;
#X obj 157 241 delwrite~ \$0-b3 500;
#X obj 258 272 vd~ \$0-b3;
#X obj 158 304 delwrite~ \$0-b4 500;
#X obj 262 334 vd~ \$0-b4;
#X obj 162 367 delwrite~ \$0-b5 500;
#X obj 261 405 vd~ \$0-b5;
#X obj 152 441 delwrite~ \$0-b6 500;
#X obj 254 478 vd~ \$0-b6;
#X obj 156 510 delwrite~ \$0-b7 500;
#X obj 256 536 vd~ \$0-b7;
#X obj 156 568 delwrite~ \$0-b8 500;
#X obj 257 599 vd~ \$0-b8;
#X obj 157 631 delwrite~ \$0-b9 500;
#X obj 261 661 vd~ \$0-b9;
#X obj 538 52 inlet;
#X obj 538 89 * 20000;
#X obj 621 76 inlet;
#X text 621 36 feedback;
#X text 536 35 decay;
#X text 146 39 input;
#X text 395 37 freq;
#X floatatom 643 120 5 0 0 0 - - -;
#X obj 453 497 lop~;
#X obj 488 763 outlet~;
#X obj 395 201 pack 0 200;
#X obj 453 537 hip~ 100;
#X connect 0 0 40 0;
#X connect 1 0 7 0;
#X connect 1 0 10 0;
#X connect 2 0 13 0;
#X connect 2 0 15 0;
#X connect 2 0 16 0;
#X connect 2 0 19 0;
#X connect 2 0 21 0;
#X connect 2 0 23 0;
#X connect 2 0 25 0;
#X connect 2 0 27 0;
#X connect 2 0 29 0;
#X connect 2 0 31 0;
#X connect 3 0 40 1;
#X connect 4 0 12 0;
#X connect 6 0 42 0;
#X connect 9 0 12 0;
#X connect 10 0 0 1;
#X connect 11 0 6 0;
#X connect 13 0 14 0;
#X connect 15 0 18 0;
#X connect 16 0 0 0;
#X connect 16 0 5 0;
#X connect 19 0 20 0;
#X connect 21 0 22 0;
#X connect 23 0 24 0;
#X connect 25 0 26 0;
#X connect 25 0 41 0;
#X connect 27 0 28 0;
#X connect 29 0 30 0;
#X connect 31 0 17 0;
#X connect 32 0 33 0;
#X connect 33 0 3 0;
#X connect 34 0 39 0;
#X connect 34 0 0 1;
#X connect 40 0 43 0;
#X connect 42 0 2 0;
#X connect 43 0 8 0;
#X restore 68 585 pd bbd;
#X obj -45 597 *~ 1;
#N canvas 813 96 491 468 tape~ 0;
#X obj 170 141 *~;
#X obj 169 165 tanh~;
#X floatatom 217 170 5 0 0 0 - - -;
#X obj 150 192 hip~ 100;
#X obj 161 21 inlet~;
#X obj 153 407 outlet~;
#N canvas 385 297 450 300 tapenoise~ 0;
#X obj 65 36 pink~;
#X obj 104 193 outlet~;
#X floatatom 153 75 5 0 0 0 - - -;
#X floatatom 182 99 5 0 0 0 - - -;
#X obj 97 132 bp2~ 14000 30 100;
#X obj 100 168 *~ 0.2;
#X connect 0 0 4 0;
#X connect 2 0 4 1;
#X connect 3 0 4 2;
#X connect 4 0 5 0;
#X connect 5 0 1 0;
#X restore 3 90 pd tapenoise~;
#X obj 244 139 nbx 5 14 -1e+37 1e+37 0 1 empty empty empty 0 -8 0 10
-262144 -1 -1 1.5 256;
#X obj 227 85 nbx 5 14 -1e+37 1e+37 0 1 empty empty empty 0 -8 0 10
-262144 -1 -1 9000 256;
#X obj 172 113 lp2~ 8000 0.1 100;
#X obj 163 70 compressor~;
#X obj 278 7 nbx 5 14 -1e+37 1e+37 0 1 empty empty empty 0 -8 0 10
-262144 -1 -1 197 256;
#X obj 243 46 / 100;
#X obj 275 241 sigtof~;
#X floatatom 285 267 5 0 0 0 - - -;
#X obj 147 284 e_freqshift;
#X obj 282 185 osc~ 0.1;
#X obj 149 339 e_freqshift;
#X obj 350 284 osc~ 3;
#X obj 338 359 sigtof~;
#X obj 346 323 *~ 0.8;
#X obj 100 53 *~;
#X obj 27 15 hsl 128 15 0.01 1 1 1 empty empty empty -2 -8 0 10 -262144
-1 -1 7600 1;
#X obj 280 215 *~ 2;
#X floatatom 306 75 5 0 0 0 - - -;
#X connect 0 0 1 0;
#X connect 1 0 3 0;
#X connect 2 0 3 1;
#X connect 3 0 15 0;
#X connect 4 0 21 0;
#X connect 6 0 5 0;
#X connect 7 0 0 1;
#X connect 8 0 9 1;
#X connect 9 0 0 0;
#X connect 10 0 9 0;
#X connect 11 0 12 0;
#X connect 12 0 10 1;
#X connect 13 0 14 0;
#X connect 14 0 15 1;
#X connect 15 0 17 0;
#X connect 16 0 23 0;
#X connect 17 0 5 0;
#X connect 18 0 20 0;
#X connect 19 0 17 1;
#X connect 20 0 19 0;
#X connect 21 0 10 0;
#X connect 22 0 21 1;
#X connect 23 0 13 0;
#X connect 24 0 9 2;
#X restore -2 650 pd tape~;
#N canvas 61 222 450 300 filterbank~ 0;
#X obj 37 37 inlet~;
#X obj 173 131 bp2~ 2000 13 100;
#X obj -75 136 bp2~ 250 12 100;
#X obj 32 229 outlet~;
#X obj 37 134 bp2~ 1000 10 100;
#X floatatom 129 30 5 0 0 0 - - -;
#X floatatom 245 30 5 0 0 0 - - -;
#X floatatom -32 37 5 0 0 0 - - -;
#X connect 0 0 2 0;
#X connect 0 0 1 0;
#X connect 0 0 4 0;
#X connect 1 0 3 0;
#X connect 2 0 3 0;
#X connect 4 0 3 0;
#X connect 5 0 4 2;
#X connect 6 0 1 2;
#X connect 7 0 2 2;
#X restore -85 558 pd filterbank~;
#X obj 140 545 vu~;
#X obj 288 504 *~;
#X obj 10 616 *~;
#X floatatom -10 428 5 0 0 0 - - -;
#X obj 157 227 *;
#X floatatom 170 135 5 0 0 0 - - -;
#X obj 300 307 * 5;
#X floatatom -67 421 5 0 0 0 - - -;
#X obj 69 426 *~ 1;
#X obj 411 500 ead~ 10 300;
#X obj 114 417 *~ 0.4;
#X obj 349 127 frv;
#X obj 371 243 *;
#X obj 436 219 nbx 5 14 -1e+37 1e+37 0 1 empty empty empty 0 -8 0 10
-262144 -1 -1 3 256;
#X obj 299 590 e_freqshift;
#X floatatom 385 567 5 0 0 0 - - -;
#X obj 236 353 nbx 5 14 -1e+37 1e+37 0 0 empty empty empty 0 -8 0 10
-262144 -1 -1 16 256;
#X obj 184 410 ead~ 5 20;
#X obj 229 656 *~;
#X floatatom 288 651 5 0 0 0 - - -;
#X obj 497 312 * 1000;
#X obj 358 210 int;
#X obj 410 591 frv;
#X obj 364 182 * 10;
#X obj 506 660 * 0.1;
#X obj -45 262 recorder~;
#X obj 457 652 * 0.7;
#X floatatom 553 624 5 0 0 0 - - -;
#X floatatom 552 538 5 0 0 0 - - -;
#X connect 0 0 1 0;
#X connect 0 0 8 0;
#X connect 1 0 2 0;
#X connect 2 0 3 0;
#X connect 3 0 8 0;
#X connect 4 0 20 0;
#X connect 5 0 6 0;
#X connect 6 0 7 0;
#X connect 7 0 3 1;
#X connect 8 0 19 0;
#X connect 10 0 0 0;
#X connect 10 0 21 0;
#X connect 10 0 45 0;
#X connect 11 0 10 0;
#X connect 12 0 13 0;
#X connect 13 0 47 0;
#X connect 14 0 18 0;
#X connect 15 0 17 1;
#X connect 16 0 17 0;
#X connect 17 0 19 1;
#X connect 18 0 15 0;
#X connect 19 0 49 0;
#X connect 20 0 5 0;
#X connect 22 0 42 0;
#X connect 23 0 37 0;
#X connect 23 0 40 0;
#X connect 23 0 43 0;
#X connect 24 0 22 1;
#X connect 25 0 22 2;
#X connect 26 0 29 0;
#X connect 27 0 23 2;
#X connect 28 0 23 0;
#X connect 28 0 22 0;
#X connect 29 0 30 0;
#X connect 29 0 50 0;
#X connect 29 0 58 0;
#X connect 30 0 31 0;
#X connect 31 0 11 0;
#X connect 32 0 31 1;
#X connect 33 0 30 1;
#X connect 34 0 37 1;
#X connect 35 0 37 2;
#X connect 36 0 37 3;
#X connect 37 0 55 0;
#X connect 38 0 39 0;
#X connect 39 0 9 0;
#X connect 39 0 9 1;
#X connect 39 0 41 0;
#X connect 39 0 66 0;
#X connect 39 0 66 1;
#X connect 40 0 38 0;
#X connect 42 0 23 1;
#X connect 43 0 39 0;
#X connect 44 0 43 1;
#X connect 45 0 16 0;
#X connect 46 0 45 1;
#X connect 47 0 14 0;
#X connect 48 0 38 1;
#X connect 49 0 28 0;
#X connect 50 0 42 1;
#X connect 51 0 28 1;
#X connect 52 0 64 0;
#X connect 52 1 53 0;
#X connect 52 1 61 0;
#X connect 53 0 14 0;
#X connect 54 0 53 1;
#X connect 55 0 59 0;
#X connect 56 0 55 1;
#X connect 57 0 58 2;
#X connect 58 0 28 2;
#X connect 58 0 51 0;
#X connect 59 0 39 0;
#X connect 60 0 59 1;
#X connect 61 0 56 0;
#X connect 62 0 46 0;
#X connect 63 0 67 0;
#X connect 63 1 65 0;
#X connect 64 0 62 0;
#X connect 65 0 60 0;
#X connect 67 0 36 0;
#X connect 68 0 65 1;
#X connect 69 0 67 1;
