#N canvas 256 178 1082 865 10;
#X obj 414 31 adc~;
#X obj 415 149 s~ dryCh1;
#N canvas 74 163 936 807 midicontrol 1;
#X floatatom 774 742 5 0 0 0 - - -;
#X floatatom 827 746 5 0 0 0 - - -;
#X obj 788 709 ctlin;
#X floatatom 867 740 5 0 0 0 - - -;
#X obj 29 38 ctlin 0 2;
#X obj 29 109 s volCh1;
#X obj 110 37 ctlin 16 2;
#X obj 110 63 / 127;
#X obj 111 93 s dryCh1Pan;
#X obj 205 37 ctlin 1 2;
#X obj 205 92 * 1000;
#X obj 203 118 s dlyTime;
#X obj 277 40 ctlin 17 2;
#X obj 204 64 / 127;
#X obj 275 68 / 127;
#X obj 274 98 s dlyFbk;
#X obj 356 43 ctlin 2 2;
#X obj 355 115 s dlyWetVol;
#X obj 444 71 / 127;
#X obj 446 43 ctlin 18 2;
#X obj 443 101 s dlyWetPan;
#X obj 681 295 s verbInputGain;
#X obj 801 252 / 127;
#X obj 800 282 s verbDecay;
#X floatatom 477 144 5 0 0 0 - - -;
#X obj 33 293 ctlin 66 2;
#X obj 33 328 sel 127;
#X obj 33 360 tgl 15 0 empty empty empty 17 7 0 10 -262144 -1 -1 0
1;
#X obj 124 439 ctlout 66 2;
#X obj 19 439 s dlySendVerb;
#X text 6 271 send delay to reverb;
#X obj 137 378 sel 1;
#X msg 119 412 127;
#X msg 151 413 0;
#X floatatom 46 389 5 0 0 0 - - -;
#X obj 684 215 ctlin 7 2;
#X obj 803 224 ctlin 23 2;
#X obj 684 242 / 127;
#X obj 682 270 * 105;
#X obj 645 70 / 127;
#X obj 554 64 / 127;
#X obj 554 37 ctlin 3 2;
#X obj 551 117 s looperVol;
#X obj 644 100 s looperPan;
#X obj 647 42 ctlin 19 2;
#X obj 29 64 / 127;
#X obj 30 87 * 105;
#X obj 356 65 / 127;
#X obj 357 88 * 105;
#X obj 682 337 ctlin 71 2;
#X obj 682 376 sel 127;
#X obj 682 408 tgl 15 0 empty empty empty 17 7 0 10 -262144 -1 -1 0
1;
#X obj 786 426 sel 1;
#X msg 768 460 127;
#X msg 800 461 0;
#X floatatom 695 437 5 0 0 0 - - -;
#X obj 773 487 ctlout 71 2;
#X obj 668 487 s verbFreeze;
#X obj 552 92 * 105;
#X obj 245 330 sel 127;
#X obj 245 362 tgl 15 0 empty empty empty 17 7 0 10 -262144 -1 -1 0
1;
#X obj 349 380 sel 1;
#X msg 331 414 127;
#X msg 363 415 0;
#X floatatom 258 391 5 0 0 0 - - -;
#X text 218 273 send loop to reverb;
#X obj 245 295 ctlin 67 2;
#X obj 336 441 ctlout 67 2;
#X obj 231 441 s loopSendVerb;
#X obj 42 548 sel 127;
#X obj 42 580 tgl 15 0 empty empty empty 17 7 0 10 -262144 -1 -1 0
1;
#X obj 146 598 sel 1;
#X msg 128 632 127;
#X msg 160 633 0;
#X floatatom 55 609 5 0 0 0 - - -;
#X text 15 491 send input to reverb;
#X obj 42 513 ctlin 64 2;
#X obj 133 659 ctlout 64 2;
#X obj 28 659 s ch1SendVerb;
#X connect 2 0 0 0;
#X connect 2 1 1 0;
#X connect 2 2 3 0;
#X connect 4 0 45 0;
#X connect 6 0 7 0;
#X connect 7 0 8 0;
#X connect 9 0 13 0;
#X connect 10 0 11 0;
#X connect 12 0 14 0;
#X connect 13 0 10 0;
#X connect 14 0 15 0;
#X connect 16 0 47 0;
#X connect 18 0 20 0;
#X connect 18 0 24 0;
#X connect 19 0 18 0;
#X connect 22 0 23 0;
#X connect 25 0 26 0;
#X connect 26 0 27 0;
#X connect 27 0 29 0;
#X connect 27 0 31 0;
#X connect 27 0 34 0;
#X connect 31 0 32 0;
#X connect 31 1 33 0;
#X connect 32 0 28 0;
#X connect 33 0 28 0;
#X connect 35 0 37 0;
#X connect 36 0 22 0;
#X connect 37 0 38 0;
#X connect 38 0 21 0;
#X connect 39 0 43 0;
#X connect 40 0 58 0;
#X connect 41 0 40 0;
#X connect 44 0 39 0;
#X connect 45 0 46 0;
#X connect 46 0 5 0;
#X connect 47 0 48 0;
#X connect 48 0 17 0;
#X connect 49 0 50 0;
#X connect 50 0 51 0;
#X connect 51 0 52 0;
#X connect 51 0 55 0;
#X connect 51 0 57 0;
#X connect 52 0 53 0;
#X connect 52 1 54 0;
#X connect 53 0 56 0;
#X connect 54 0 56 0;
#X connect 58 0 42 0;
#X connect 59 0 60 0;
#X connect 60 0 61 0;
#X connect 60 0 64 0;
#X connect 60 0 68 0;
#X connect 61 0 62 0;
#X connect 61 1 63 0;
#X connect 62 0 67 0;
#X connect 63 0 67 0;
#X connect 66 0 59 0;
#X connect 69 0 70 0;
#X connect 70 0 71 0;
#X connect 70 0 74 0;
#X connect 70 0 78 0;
#X connect 71 0 72 0;
#X connect 71 1 73 0;
#X connect 72 0 77 0;
#X connect 73 0 77 0;
#X connect 76 0 69 0;
#X restore 50 167 pd midicontrol;
#N canvas 943 102 833 575 audiotest 0;
#X obj 410 150 tgl 15 0 empty empty empty 17 7 0 10 -262144 -1 -1 0
1;
#X obj 330 340 *~;
#X obj 410 170 metro 500;
#X floatatom 464 134 5 0 0 0 - - -;
#X obj 407 230 adenv~ 10 100;
#X floatatom 387 111 5 0 0 0 - - -;
#X obj 536 135 mtof;
#X obj 535 113 + 50;
#X obj 535 74 random 50;
#X floatatom 495 193 5 0 0 0 - - -;
#X obj 326 386 s~ \$0-testsig;
#X obj 332 138 phasor~ 440;
#X obj 438 257 *~ 15000;
#X floatatom 507 230 5 0 0 0 - - -;
#X floatatom 440 193 5 0 0 0 - - -;
#X obj 336 287 svf~ 200 0.8;
#X obj 550 249 hsl 128 15 200 20000 1 1 empty empty empty -2 -8 0 10
-262144 -1 -1 8300 1;
#X floatatom 621 62 5 0 0 0 - - -;
#X floatatom 583 97 5 0 0 0 - - -;
#X obj 321 233 osc~;
#X floatatom 466 292 5 0 0 0 - - -;
#X obj 295 190 +~;
#X obj 269 161 *~;
#X floatatom 280 123 5 0 20000 0 - - -;
#X obj 232 124 osc~;
#X floatatom 239 90 5 0 0 0 - - -;
#X obj 449 53 numberseq;
#X msg 464 11 0 2 6 9;
#X floatatom 576 134 5 0 0 0 - - -;
#X obj 297 84 *~;
#X floatatom 315 51 5 0 0 0 - - -;
#X connect 0 0 2 0;
#X connect 1 0 10 0;
#X connect 2 0 4 0;
#X connect 2 0 26 0;
#X connect 3 0 2 1;
#X connect 4 0 1 1;
#X connect 4 0 12 0;
#X connect 5 0 11 0;
#X connect 6 0 21 1;
#X connect 6 0 29 0;
#X connect 7 0 6 0;
#X connect 7 0 28 0;
#X connect 8 0 7 0;
#X connect 9 0 4 2;
#X connect 12 0 15 1;
#X connect 13 0 12 1;
#X connect 14 0 4 1;
#X connect 15 0 1 0;
#X connect 16 0 12 1;
#X connect 17 0 8 1;
#X connect 18 0 7 1;
#X connect 19 0 1 0;
#X connect 20 0 15 2;
#X connect 21 0 19 0;
#X connect 22 0 21 0;
#X connect 23 0 22 1;
#X connect 24 0 22 0;
#X connect 25 0 24 0;
#X connect 26 0 7 0;
#X connect 27 0 26 1;
#X connect 29 0 24 0;
#X connect 30 0 29 1;
#X restore 69 115 pd audiotest;
#X obj 309 35 r~ \$0-testsig;
#N canvas 744 91 1003 656 mixing 0;
#X obj 102 484 outlet~;
#X obj 422 483 outlet~;
#X obj 57 292 equal_power_pan~;
#X obj 46 248 r~ dryCh1;
#X obj 139 247 r dryCh1Pan;
#X obj 248 238 r~ delayWetL;
#X obj 248 263 r~ delayWetR;
#X obj 294 300 r~ verbWetL;
#X obj 292 325 r~ verbWetR;
#X obj 65 336 vols~;
#X obj 127 320 r volCh1;
#X floatatom 143 352 5 0 0 0 - - -;
#X obj 402 344 r~ looperWetL;
#X obj 400 371 r~ looperWetR;
#X obj 168 409 *~ 0.4;
#X obj 297 407 *~ 0.4;
#X connect 2 0 9 0;
#X connect 2 1 9 1;
#X connect 3 0 2 0;
#X connect 4 0 2 1;
#X connect 5 0 14 0;
#X connect 6 0 15 0;
#X connect 7 0 14 0;
#X connect 8 0 15 0;
#X connect 9 0 14 0;
#X connect 9 1 15 0;
#X connect 10 0 9 2;
#X connect 10 0 11 0;
#X connect 12 0 14 0;
#X connect 13 0 15 0;
#X connect 14 0 0 0;
#X connect 15 0 1 0;
#X restore 430 716 pd mixing;
#X obj 426 815 dac~ 1 2;
#X obj 485 774 clip~ -1 1;
#X obj 389 775 clip~ -1 1;
#N canvas 970 389 727 570 reverb 0;
#X obj 125 164 r~ dryCh1;
#X obj 266 276 vols~;
#X obj 309 250 r verbInputGain;
#X obj 293 303 r verbDecay;
#X obj 260 380 s~ verbWetL;
#X obj 342 378 s~ verbWetR;
#X obj 237 216 spigot~;
#X obj 277 189 r dlySendVerb;
#X obj 234 164 r~ dlyWet;
#X obj 381 303 r verbFreeze;
#X obj 263 343 griesinger~;
#X obj 363 209 spigot~;
#X obj 360 157 r~ looperWet;
#X obj 403 182 r loopSendVerb;
#X obj 132 219 spigot~;
#X obj 172 193 r ch1SendVerb;
#X connect 0 0 14 0;
#X connect 1 0 10 0;
#X connect 2 0 1 2;
#X connect 3 0 10 1;
#X connect 6 1 1 0;
#X connect 7 0 6 1;
#X connect 8 0 6 0;
#X connect 10 0 4 0;
#X connect 10 1 5 0;
#X connect 11 1 1 0;
#X connect 12 0 11 0;
#X connect 13 0 11 1;
#X connect 14 1 1 0;
#X connect 15 0 14 1;
#X restore 663 275 pd reverb;
#N canvas 635 434 450 300 delay 0;
#X obj 141 36 r~ dryCh1;
#X obj 141 85 tapedelay~;
#X obj 167 58 r dlyTime;
#X obj 231 60 r dlyFbk;
#X obj 140 152 vols~;
#X obj 140 115 equal_power_pan~;
#X obj 225 135 r dlyWetVol;
#X obj 81 182 s~ delayWetL;
#X obj 184 184 s~ delayWetR;
#X obj 231 89 r dlyWetPan;
#X obj 64 119 s~ dlyWet;
#X connect 0 0 1 0;
#X connect 1 0 5 0;
#X connect 1 0 10 0;
#X connect 2 0 1 1;
#X connect 3 0 1 2;
#X connect 4 0 7 0;
#X connect 4 1 8 0;
#X connect 5 0 4 0;
#X connect 5 1 4 1;
#X connect 6 0 4 2;
#X connect 9 0 5 1;
#X restore 530 272 pd delay;
#N canvas 687 433 450 300 looper 0;
#X obj 119 -904 looper~;
#X obj 118 -941 r~ dryCh1;
#X obj 117 -788 vols~;
#X obj 165 -803 r looperVol;
#X obj 192 -876 r looperPan;
#X obj 103 -844 equal_power_pan~;
#X obj 54 -744 s~ looperWetL;
#X obj 150 -745 s~ looperWetR;
#X obj 77 -872 s~ looperWet;
#X connect 0 0 5 0;
#X connect 0 0 8 0;
#X connect 1 0 0 0;
#X connect 2 0 6 0;
#X connect 2 1 7 0;
#X connect 3 0 2 2;
#X connect 4 0 5 1;
#X connect 5 0 2 0;
#X connect 5 1 2 1;
#X restore 389 274 pd looper;
#X connect 0 0 1 0;
#X connect 4 0 1 0;
#X connect 5 0 8 0;
#X connect 5 1 7 0;
#X connect 7 0 6 1;
#X connect 8 0 6 0;
