#N canvas 56 123 754 475 10;
#X obj 201 295 osc~;
#X obj 199 137 pow;
#X msg 193 55 1.61803;
#X floatatom 241 78 5 0 0 0 - - -;
#X obj 226 108 t b f;
#X obj 198 167 * 1000;
#X floatatom 139 175 5 0 0 0 - - -;
#X obj 200 427 dac~;
#X obj 201 346 gain~;
#X obj 201 264 +~;
#X obj 314 173 osc~;
#X obj 308 215 *~;
#X obj 366 89 pow;
#X msg 338 14 1.61803;
#X floatatom 408 30 5 0 0 0 - - -;
#X obj 393 60 t b f;
#X obj 365 119 * 1000;
#X floatatom 306 127 5 0 0 0 - - -;
#X obj 425 184 osc~;
#X obj 418 231 *~;
#X obj 455 99 pow;
#X msg 454 36 1.61803;
#X floatatom 535 21 5 0 0 0 - - -;
#X obj 502 64 t b f;
#X obj 430 129 * 1000;
#X floatatom 447 157 5 0 0 0 - - -;
#X obj 516 119 osc~ 0.1;
#X obj 611 118 * 10;
#X floatatom 615 90 5 0 0 0 - - -;
#X floatatom 549 84 5 0 0 0 - - -;
#X obj 507 229 *~;
#X floatatom 566 206 5 0 0 0 - - -;
#X obj 512 164 *~ 800;
#X obj 511 195 +~ 1000;
#X connect 0 0 8 0;
#X connect 1 0 5 0;
#X connect 2 0 1 0;
#X connect 3 0 4 0;
#X connect 4 0 2 0;
#X connect 4 1 1 1;
#X connect 5 0 6 0;
#X connect 5 0 9 0;
#X connect 8 0 7 0;
#X connect 8 0 7 1;
#X connect 9 0 0 0;
#X connect 10 0 11 0;
#X connect 11 0 9 1;
#X connect 12 0 16 0;
#X connect 13 0 12 0;
#X connect 14 0 15 0;
#X connect 15 0 13 0;
#X connect 15 1 12 1;
#X connect 16 0 17 0;
#X connect 16 0 10 0;
#X connect 16 0 18 0;
#X connect 18 0 19 0;
#X connect 19 0 9 1;
#X connect 20 0 24 0;
#X connect 21 0 20 0;
#X connect 22 0 23 0;
#X connect 23 0 21 0;
#X connect 23 1 20 1;
#X connect 24 0 25 0;
#X connect 26 0 32 0;
#X connect 27 0 32 1;
#X connect 27 0 33 1;
#X connect 28 0 27 0;
#X connect 29 0 26 0;
#X connect 30 0 19 1;
#X connect 31 0 30 1;
#X connect 32 0 33 0;
#X connect 33 0 11 1;
#X connect 33 0 30 0;
