#N canvas 435 261 1003 755 10;
#X obj 103 29 tgl 15 0 empty empty empty 17 7 0 10 -262144 -1 -1 1
1;
#X obj 93 111 adenv~ 10 20;
#X obj 47 147 *~;
#X obj 103 49 metro 500;
#X floatatom 161 13 5 0 0 0 - - -;
#X obj 751 721 dac~;
#X obj 833 553 gain~;
#X obj 745 508 gain~;
#X obj 252 29 tgl 15 0 empty empty empty 17 7 0 10 -262144 -1 -1 0
1;
#X obj 196 147 *~;
#X obj 259 64 metro 500;
#X floatatom 310 13 5 0 0 0 - - -;
#X obj 178 106 phasor~ 500;
#X obj 148 188 s~ \$0-input;
#X obj 464 174 r~ \$0-input;
#X obj 28 182 s~ \$0-dry;
#X obj 743 475 r~ \$0-dry;
#X text 591 68 bandwidth;
#X floatatom 596 85 7 0 0 0 - - -;
#X obj 596 104 s \$0-bw;
#X text 600 145 decay;
#X floatatom 605 164 5 0 0.95 0 - - -;
#X obj 605 183 s \$0-decay;
#N canvas 31 115 944 928 \$0-main-tank~ 0;
#X obj 277 241 +~;
#X obj 277 241 +~;
#X obj 595 246 +~;
#X obj 595 246 +~;
#X obj 248 746 s~ \$0-fb1;
#X obj 584 752 s~ \$0-fb2;
#X obj 584 719 *~ 0.9;
#X obj 245 702 *~ 0.9;
#X obj 626 689 r \$0-decay;
#X obj 292 682 r \$0-decay;
#X obj 297 214 r~ \$0-fb2;
#X obj 610 220 r~ \$0-fb1;
#X obj 458 102 inlet~;
#X obj 619 522 s~ \$0-tap2;
#X obj 274 588 s~ \$0-tap6;
#X obj 266 514 s~ \$0-tap5;
#X obj 258 82 cos~;
#X obj 155 80 *~ 0.01;
#X obj 155 108 s~ \$0-quadcos;
#X obj 312 253 r~ \$0-quadcos;
#X obj 630 256 r~ \$0-quadsine;
#X obj 254 132 s~ \$0-quadsine;
#X floatatom 298 31 5 0 0 0 - - -;
#X floatatom 208 12 5 0 0 0 - - -;
#X obj 156 48 osc~ 0.01;
#X obj 257 109 *~ 0.036;
#N canvas 592 525 450 300 damping1~ 0;
#X obj 116 25 inlet~;
#X obj 111 254 outlet~;
#X obj 115 136 +~;
#X obj 290 19 r \$0-damping;
#X obj 188 47 expr 1 - $f1;
#X obj 116 67 *~;
#X obj 157 118 *~;
#X obj 143 200 s~ \$0-damp1fb;
#X obj 135 168 z~ 1;
#X obj 158 90 r~ \$0-damp1fb;
#X floatatom 268 76 5 0 0 0 - - -;
#X connect 0 0 5 0;
#X connect 2 0 1 0;
#X connect 2 0 8 0;
#X connect 3 0 4 0;
#X connect 3 0 6 1;
#X connect 4 0 5 1;
#X connect 4 0 10 0;
#X connect 5 0 2 0;
#X connect 6 0 2 1;
#X connect 8 0 7 0;
#X connect 9 0 6 0;
#X restore 239 443 pd damping1~;
#N canvas 592 525 450 300 damping2~ 0;
#X obj 116 25 inlet~;
#X obj 111 254 outlet~;
#X obj 115 136 +~;
#X obj 290 19 r \$0-damping;
#X obj 188 47 expr 1 - $f1;
#X obj 116 67 *~;
#X obj 157 118 *~;
#X obj 135 168 z~ 1;
#X floatatom 268 76 5 0 0 0 - - -;
#X obj 158 90 r~ \$0-damp2fb;
#X obj 143 200 s~ \$0-damp2fb;
#X connect 0 0 5 0;
#X connect 2 0 1 0;
#X connect 2 0 7 0;
#X connect 3 0 4 0;
#X connect 3 0 6 1;
#X connect 4 0 5 1;
#X connect 4 0 8 0;
#X connect 5 0 2 0;
#X connect 6 0 2 1;
#X connect 7 0 10 0;
#X connect 9 0 6 0;
#X restore 585 426 pd damping2~;
#X obj 250 384 z~ 4453;
#X obj 245 490 *~ 0.9;
#X obj 302 472 r \$0-decay;
#X obj 598 486 *~ 0.9;
#X obj 644 463 r \$0-decay;
#X obj 648 345 s~ \$0-tap1;
#X obj 634 594 s~ \$0-tap3;
#X obj 288 333 s~ \$0-tap4;
#X obj 583 369 z~ 4217;
#X obj 594 651 z~ 3163;
#X obj 243 646 z~ 3720;
#X obj 267 307 allpass~ 17 15.2381 0.7;
#X obj 589 311 allpass~ 25 20.5896 0.7;
#X obj 630 280 +~ 20.5896;
#X obj 311 279 +~ 15.2381;
#X obj 244 559 allpass~ 50 40.8163 0.5;
#X obj 598 567 allpass~ 65 60.2268 0.5;
#X obj 721 90 s \$0-damping;
#X msg 722 58 0.0005;
#X obj 723 26 loadbang;
#X connect 0 0 39 0;
#X connect 2 0 40 0;
#X connect 6 0 5 0;
#X connect 7 0 4 0;
#X connect 8 0 6 1;
#X connect 9 0 7 1;
#X connect 10 0 0 1;
#X connect 11 0 2 1;
#X connect 12 0 0 0;
#X connect 12 0 2 0;
#X connect 16 0 25 0;
#X connect 17 0 18 0;
#X connect 19 0 42 0;
#X connect 20 0 41 0;
#X connect 22 0 17 1;
#X connect 22 0 25 1;
#X connect 23 0 24 1;
#X connect 24 0 16 0;
#X connect 24 0 17 0;
#X connect 25 0 21 0;
#X connect 26 0 29 0;
#X connect 27 0 31 0;
#X connect 28 0 26 0;
#X connect 29 0 15 0;
#X connect 29 0 43 0;
#X connect 30 0 29 1;
#X connect 31 0 13 0;
#X connect 31 0 44 0;
#X connect 32 0 31 1;
#X connect 36 0 27 0;
#X connect 37 0 6 0;
#X connect 38 0 7 0;
#X connect 39 0 28 0;
#X connect 39 0 35 0;
#X connect 40 0 33 0;
#X connect 40 0 36 0;
#X connect 41 0 40 1;
#X connect 42 0 39 1;
#X connect 43 0 14 0;
#X connect 43 0 38 0;
#X connect 44 0 34 0;
#X connect 44 0 37 0;
#X connect 46 0 45 0;
#X connect 47 0 46 0;
#X restore 430 373 pd \$0-main-tank~;
#N canvas 0 22 935 646 \$0-input_diffusers~ 0;
#X obj 300 212 inlet~;
#X obj 487 498 outlet~;
#X obj 300 271 allpass~ 5 3.22 0.75;
#X obj 300 349 allpass~ 5 2.43 0.75;
#X obj 494 273 allpass~ 10 8.59 0.625;
#X obj 493 347 allpass~ 10 6.28 0.625;
#X connect 0 0 2 0;
#X connect 2 0 3 0;
#X connect 3 0 4 0;
#X connect 4 0 5 0;
#X connect 5 0 1 0;
#X restore 430 314 pd \$0-input_diffusers~;
#N canvas 107 570 752 519 \$0-left-taps 0;
#X obj 264 426 outlet~;
#X obj 41 92 r~ \$0-tap1;
#X obj 41 159 *~ 0.6;
#X obj 191 92 r~ \$0-tap2;
#X obj 259 91 r~ \$0-tap3;
#X obj 251 158 *~ 0.6;
#X obj 338 94 r~ \$0-tap4;
#X obj 339 157 *~ -0.6;
#X obj 234 305 +~;
#X obj 186 159 *~ -0.6;
#X obj 422 159 *~ -0.6;
#X obj 423 94 r~ \$0-tap5;
#X obj 114 158 *~ 0.6;
#X obj 506 161 *~ -0.6;
#X obj 514 92 r~ \$0-tap6;
#X obj 37 126 z~ 266;
#X obj 115 94 r~ \$0-tap1;
#X obj 116 122 z~ 2974;
#X obj 185 124 z~ 1913;
#X obj 252 123 z~ 1996;
#X obj 338 123 z~ 1990;
#X obj 426 125 z~ 187;
#X obj 506 124 z~ 1066;
#X text 40 64 48_54;
#X text 118 65 48_54;
#X text 202 66 55_59;
#X text 268 67 59_63;
#X text 347 72 24_30;
#X text 429 70 31_33;
#X text 525 68 33_39;
#X connect 1 0 15 0;
#X connect 2 0 8 0;
#X connect 3 0 18 0;
#X connect 4 0 19 0;
#X connect 5 0 8 1;
#X connect 6 0 20 0;
#X connect 7 0 8 1;
#X connect 8 0 0 0;
#X connect 9 0 8 0;
#X connect 10 0 8 1;
#X connect 11 0 21 0;
#X connect 12 0 8 0;
#X connect 13 0 8 1;
#X connect 14 0 22 0;
#X connect 15 0 2 0;
#X connect 16 0 17 0;
#X connect 17 0 12 0;
#X connect 18 0 9 0;
#X connect 19 0 5 0;
#X connect 20 0 7 0;
#X connect 21 0 10 0;
#X connect 22 0 13 0;
#X restore 621 442 pd \$0-left-taps;
#X obj 628 543 gain~;
#X obj 257 109 adenv~ 10 10;
#X msg 667 151 0.8;
#N canvas 619 137 815 703 \$0-right-taps 0;
#X obj 302 396 outlet~;
#X obj 303 325 +~;
#X obj 395 90 r~ \$0-tap1;
#X obj 480 96 r~ \$0-tap2;
#X obj 579 84 r~ \$0-tap3;
#X obj 46 84 r~ \$0-tap4;
#X obj 475 163 *~ -0.6;
#X obj 229 149 *~ -0.6;
#X obj 230 84 r~ \$0-tap5;
#X obj 324 85 r~ \$0-tap6;
#X text 394 62 48_54;
#X text 491 70 55_59;
#X text 588 60 59_63;
#X text 55 62 24_30;
#X text 236 60 31_33;
#X text 335 61 33_39;
#X obj 46 113 z~ 353;
#X obj 150 82 r~ \$0-tap4;
#X text 159 60 24_30;
#X obj 150 111 z~ 3627;
#X obj 47 147 *~ 0.6;
#X obj 151 145 *~ +0.6;
#X obj 233 115 z~ 1228;
#X obj 316 117 z~ 2673;
#X obj 316 154 *~ +0.6;
#X obj 395 157 *~ -0.6;
#X obj 391 124 z~ 2111;
#X obj 474 128 z~ 335;
#X obj 572 116 z~ 121;
#X obj 571 151 *~ -0.6;
#X connect 1 0 0 0;
#X connect 2 0 26 0;
#X connect 3 0 27 0;
#X connect 4 0 28 0;
#X connect 5 0 16 0;
#X connect 6 0 1 1;
#X connect 7 0 1 0;
#X connect 8 0 22 0;
#X connect 9 0 23 0;
#X connect 16 0 20 0;
#X connect 17 0 19 0;
#X connect 19 0 21 0;
#X connect 20 0 1 0;
#X connect 21 0 1 0;
#X connect 22 0 7 0;
#X connect 23 0 24 0;
#X connect 24 0 1 1;
#X connect 25 0 1 1;
#X connect 26 0 25 0;
#X connect 27 0 6 0;
#X connect 28 0 29 0;
#X connect 29 0 1 1;
#X restore 833 441 pd \$0-right-taps;
#X obj 42 66 pink~;
#X obj 421 70 adc~;
#X obj 423 160 *~ 2;
#X msg 703 159 0.9;
#X msg 749 162 0.5;
#X msg 711 183 0.95;
#N canvas 346 732 450 300 bandwidth~ 0;
#X obj 73 20 inlet~;
#X obj 78 225 outlet~;
#X obj 75 108 +~;
#X obj 74 62 *~ 0.9995;
#X obj 145 83 *~ 0.0005;
#X obj 133 150 z~ 1;
#X obj 137 176 s~ \$0-bw;
#X obj 151 51 r~ \$0-bw;
#X connect 0 0 3 0;
#X connect 2 0 1 0;
#X connect 2 0 5 0;
#X connect 3 0 2 0;
#X connect 4 0 2 1;
#X connect 5 0 6 0;
#X connect 7 0 4 0;
#X restore 429 257 pd bandwidth~;
#X connect 0 0 3 0;
#X connect 1 0 2 1;
#X connect 2 0 13 0;
#X connect 2 0 15 0;
#X connect 3 0 1 0;
#X connect 4 0 3 1;
#X connect 6 0 5 1;
#X connect 7 0 5 0;
#X connect 7 0 5 1;
#X connect 8 0 10 0;
#X connect 9 0 13 0;
#X connect 9 0 15 0;
#X connect 10 0 27 0;
#X connect 11 0 10 1;
#X connect 12 0 9 0;
#X connect 14 0 36 0;
#X connect 16 0 7 0;
#X connect 18 0 19 0;
#X connect 21 0 22 0;
#X connect 24 0 23 0;
#X connect 25 0 26 0;
#X connect 26 0 5 0;
#X connect 27 0 9 1;
#X connect 28 0 21 0;
#X connect 29 0 6 0;
#X connect 30 0 2 0;
#X connect 31 0 32 0;
#X connect 32 0 15 0;
#X connect 32 0 36 0;
#X connect 33 0 21 0;
#X connect 34 0 21 0;
#X connect 35 0 21 0;
#X connect 36 0 24 0;
