#N canvas 435 261 1003 755 10;
#X obj 103 29 tgl 15 0 empty empty empty 17 7 0 10 -262144 -1 -1 0
1;
#X obj 13 102 noise~;
#X obj 93 111 adenv~ 10 20;
#X obj 47 147 *~;
#X obj 103 49 metro 500;
#X floatatom 161 13 5 0 0 0 - - -, f 5;
#X obj 751 721 dac~;
#X obj 833 553 gain~;
#X obj 745 501 gain~;
#X obj 252 29 tgl 15 0 empty empty empty 17 7 0 10 -262144 -1 -1 0
1;
#X obj 196 147 *~;
#X obj 259 64 metro 500;
#X floatatom 310 13 5 0 0 0 - - -, f 5;
#X obj 178 106 phasor~ 500;
#X obj 148 188 s~ \$0-input;
#X obj 452 195 r~ \$0-input;
#X obj 28 182 s~ \$0-dry;
#X obj 743 475 r~ \$0-dry;
#X floatatom 672 94 5 0 1 0 - - -, f 5;
#X text 669 67 diffusion coeff;
#X obj 674 115 s \$0-g-c;
#X floatatom 787 92 5 0 1 0 - - -, f 5;
#X text 780 70 excursion;
#X obj 785 118 s \$0-exc;
#X text 880 69 damping;
#X floatatom 883 90 7 0 20000 0 - - -, f 7;
#X obj 882 122 s \$0-damping;
#X text 591 68 bandwidth;
#X obj 429 257 lop~ 18000;
#X floatatom 596 85 7 0 0 0 - - -, f 7;
#X obj 596 104 s \$0-bw;
#X obj 484 230 r \$0-bw;
#X text 600 145 decay;
#X floatatom 605 164 5 0 0.95 0 - - -, f 5;
#X obj 605 183 s \$0-decay;
#X msg 827 92 0.036;
#N canvas 116 114 886 803 \$0-main-tank~ 0;
#X obj 375 277 r \$0-g-c;
#X obj 311 257 r \$0-exc;
#X obj 646 277 r \$0-g-c;
#X obj 556 256 r \$0-exc;
#X obj 277 241 +~;
#X obj 277 241 +~;
#X obj 518 242 +~;
#X obj 518 242 +~;
#X obj 314 422 r \$0-damping;
#X obj 564 414 r \$0-damping;
#X obj 364 523 r \$0-g-c;
#X obj 615 518 r \$0-g-c;
#X obj 260 749 s~ \$0-fb1;
#X obj 507 748 s~ \$0-fb2;
#X obj 261 446 lop~ 20000;
#X obj 506 441 lop~ 20000;
#X obj 507 715 *~ 0.9;
#X obj 258 723 *~ 0.9;
#X obj 549 685 r \$0-decay;
#X obj 305 703 r \$0-decay;
#X obj 297 214 r~ \$0-fb2;
#X obj 533 216 r~ \$0-fb1;
#X obj 311 279 + 15.24;
#X obj 556 278 + 20.59;
#X obj 235 472 delwrite~ \$0-fbd1 90;
#X obj 511 468 delwrite~ \$0-fbd2 80;
#X obj 255 358 delwrite~ \$0-fbd3 110;
#X obj 512 307 allpass~ 25 20.59 0.6 0.6;
#X obj 244 554 allpass~ 50 40.82 0.6 0.6;
#X obj 458 102 inlet~;
#X obj 520 392 s~ \$0-tap1;
#X obj 685 514 s~ \$0-tap2;
#X obj 530 567 s~ \$0-tap3;
#X obj 272 329 s~ \$0-tap4;
#X obj 264 680 s~ \$0-tap6;
#X obj 255 576 s~ \$0-tap5;
#X obj 248 624 delwrite~ \$0-fbd5 90;
#X obj 235 507 vd~ \$0-fbd1 84.35;
#X floatatom 197 487 5 0 0 0 - - -, f 5;
#X obj 254 388 vd~ \$0-fbd3 100.98;
#X floatatom 201 369 5 0 0 0 - - -, f 5;
#X obj 508 369 vd~ \$0-fbd4 95.62;
#X obj 508 342 delwrite~ \$0-fbd4 100;
#X floatatom 470 351 5 0 0 0 - - -, f 5;
#X obj 509 497 vd~ \$0-fbd2 71.72;
#X floatatom 459 481 5 0 0 0 - - -, f 5;
#X obj 248 658 vd~ \$0-fbd1 84.35;
#X floatatom 200 639 5 0 0 0 - - -, f 5;
#X obj 519 603 delwrite~ \$0-fbd6 100;
#X obj 520 638 vd~ \$0-fbd6;
#X floatatom 479 620 5 0 0 0 - - -, f 5;
#X floatatom 567 522 5 0 0 0 - - -, f 5;
#X floatatom 622 252 5 0 0 0 - - -, f 5;
#X floatatom 378 248 5 0 0 0 - - -, f 5;
#X floatatom 326 532 5 0 0 0 - - -, f 5;
#X floatatom 439 532 5 0 0 0 - - -, f 5;
#X floatatom 754 526 5 0 0 0 - - -, f 5;
#X floatatom 714 282 5 0 0 0 - - -, f 5;
#X floatatom 432 278 5 0 0 0 - - -, f 5;
#X msg 173 459 30;
#X msg 179 611 32;
#X msg 173 334 27;
#X msg 467 314 20;
#X msg 456 447 23;
#X msg 476 594 25;
#X obj 267 307 allpass~ 17 15.24 0.6 0.45;
#X obj 521 542 allpass~ 65 60.23 0.6 0.45;
#X connect 0 0 65 2;
#X connect 1 0 22 0;
#X connect 2 0 27 2;
#X connect 3 0 23 0;
#X connect 4 0 65 0;
#X connect 6 0 27 0;
#X connect 8 0 14 1;
#X connect 9 0 15 1;
#X connect 10 0 28 2;
#X connect 11 0 66 2;
#X connect 14 0 24 0;
#X connect 15 0 25 0;
#X connect 16 0 13 0;
#X connect 17 0 12 0;
#X connect 18 0 16 1;
#X connect 19 0 17 1;
#X connect 20 0 4 1;
#X connect 21 0 6 1;
#X connect 22 0 65 1;
#X connect 23 0 27 1;
#X connect 27 0 42 0;
#X connect 28 0 36 0;
#X connect 28 0 35 0;
#X connect 29 0 4 0;
#X connect 29 0 6 0;
#X connect 37 0 28 0;
#X connect 38 0 37 0;
#X connect 39 0 14 0;
#X connect 40 0 39 0;
#X connect 41 0 15 0;
#X connect 41 0 30 0;
#X connect 43 0 41 0;
#X connect 44 0 31 0;
#X connect 44 0 66 0;
#X connect 45 0 44 0;
#X connect 46 0 17 0;
#X connect 46 0 34 0;
#X connect 47 0 46 0;
#X connect 49 0 16 0;
#X connect 50 0 49 0;
#X connect 51 0 66 1;
#X connect 52 0 27 1;
#X connect 53 0 65 1;
#X connect 54 0 28 1;
#X connect 55 0 28 2;
#X connect 56 0 66 2;
#X connect 57 0 27 2;
#X connect 58 0 65 2;
#X connect 59 0 37 0;
#X connect 60 0 46 0;
#X connect 61 0 39 0;
#X connect 62 0 41 0;
#X connect 63 0 44 0;
#X connect 64 0 49 0;
#X connect 65 0 26 0;
#X connect 65 0 33 0;
#X connect 66 0 32 0;
#X connect 66 0 48 0;
#X restore 430 373 pd \$0-main-tank~;
#N canvas 0 22 817 643 \$0-input_diffusers~ 0;
#X obj 393 247 r \$0-g-c;
#X obj 392 323 r \$0-g-c;
#X obj 586 247 r \$0-g-c;
#X obj 585 321 r \$0-g-c;
#X obj 300 212 inlet~;
#X obj 487 498 outlet~;
#X obj 300 271 allpass~ 5 3.22 0.6 0.6;
#X obj 300 349 allpass~ 5 2.43 0.6 0.6;
#X obj 494 273 allpass~ 10 8.59 0.6 0.6;
#X obj 493 347 allpass~ 10 6.28 0.6 0.6;
#X connect 0 0 6 2;
#X connect 1 0 7 2;
#X connect 2 0 8 2;
#X connect 3 0 9 2;
#X connect 4 0 6 0;
#X connect 6 0 7 0;
#X connect 7 0 8 0;
#X connect 8 0 9 0;
#X connect 9 0 5 0;
#X restore 430 314 pd \$0-input_diffusers~;
#N canvas 372 345 752 519 \$0-left-taps 0;
#X obj 264 426 outlet~;
#X obj 41 92 r~ \$0-tap1;
#X obj 41 134 *~ 0.6;
#X obj 181 93 r~ \$0-tap2;
#X obj 259 91 r~ \$0-tap3;
#X obj 250 134 *~ 0.6;
#X obj 349 91 r~ \$0-tap4;
#X obj 346 130 *~ -0.6;
#X obj 234 305 +~;
#X obj 179 134 *~ -0.6;
#X obj 430 131 *~ -0.6;
#X obj 433 92 r~ \$0-tap5;
#X obj 115 93 r~ \$0-tap1;
#X obj 115 135 *~ 0.6;
#X obj 511 131 *~ -0.6;
#X obj 514 92 r~ \$0-tap6;
#X obj 593 139 *~ -0.6;
#X obj 596 100 r~ \$0-tap1;
#X connect 1 0 2 0;
#X connect 2 0 8 0;
#X connect 3 0 9 0;
#X connect 4 0 5 0;
#X connect 5 0 8 1;
#X connect 6 0 7 0;
#X connect 7 0 8 1;
#X connect 8 0 0 0;
#X connect 9 0 8 0;
#X connect 10 0 8 1;
#X connect 11 0 10 0;
#X connect 12 0 13 0;
#X connect 13 0 8 0;
#X connect 14 0 8 1;
#X connect 15 0 14 0;
#X connect 16 0 8 1;
#X connect 17 0 16 0;
#X restore 620 449 pd \$0-left-taps;
#X obj 628 543 gain~;
#X obj 257 109 adenv~ 10 10;
#X msg 727 83 0.6;
#X msg 667 151 0.8;
#N canvas 20 177 658 504 \$0-right-taps 1;
#X obj 302 396 outlet~;
#X obj 94 137 r~ \$0-tap4;
#X obj 94 166 *~ 0.6;
#X obj 193 137 r~ \$0-tap4;
#X obj 193 166 *~ 0.6;
#X obj 303 325 +~;
#X obj 284 139 r~ \$0-tap5;
#X obj 284 168 *~ -0.6;
#X obj 378 171 *~ 0.6;
#X obj 378 141 r~ \$0-tap6;
#X obj 458 180 *~ -0.6;
#X obj 538 179 *~ 0.6;
#X obj 458 150 r~ \$0-tap2;
#X obj 538 150 r~ \$0-tap3;
#X connect 1 0 2 0;
#X connect 2 0 5 0;
#X connect 3 0 4 0;
#X connect 4 0 5 0;
#X connect 5 0 0 0;
#X connect 6 0 7 0;
#X connect 7 0 5 0;
#X connect 8 0 5 1;
#X connect 9 0 8 0;
#X connect 10 0 5 1;
#X connect 11 0 5 1;
#X connect 12 0 10 0;
#X connect 13 0 11 0;
#X restore 833 441 pd \$0-right-taps;
#X obj 42 66 pink~;
#X obj 421 70 adc~;
#X obj 423 160 *~ 2;
#X msg 703 159 0.9;
#X msg 749 162 0.5;
#X connect 0 0 4 0;
#X connect 2 0 3 1;
#X connect 3 0 14 0;
#X connect 3 0 16 0;
#X connect 4 0 2 0;
#X connect 5 0 4 1;
#X connect 7 0 6 1;
#X connect 8 0 6 0;
#X connect 8 0 6 1;
#X connect 9 0 11 0;
#X connect 10 0 14 0;
#X connect 10 0 16 0;
#X connect 11 0 40 0;
#X connect 12 0 11 1;
#X connect 13 0 10 0;
#X connect 15 0 28 0;
#X connect 17 0 8 0;
#X connect 18 0 20 0;
#X connect 21 0 23 0;
#X connect 25 0 26 0;
#X connect 28 0 37 0;
#X connect 29 0 30 0;
#X connect 31 0 28 1;
#X connect 33 0 34 0;
#X connect 35 0 21 0;
#X connect 37 0 36 0;
#X connect 38 0 39 0;
#X connect 39 0 6 0;
#X connect 40 0 10 1;
#X connect 41 0 18 0;
#X connect 42 0 33 0;
#X connect 43 0 7 0;
#X connect 44 0 3 0;
#X connect 45 0 46 0;
#X connect 46 0 28 0;
#X connect 46 0 16 0;
#X connect 47 0 33 0;
#X connect 48 0 33 0;
