#N canvas 435 261 1003 755 10;
#X obj 103 29 tgl 15 0 empty empty empty 17 7 0 10 -262144 -1 -1 0
1;
#X obj 13 102 noise~;
#X obj 93 111 adenv~ 10 20;
#X obj 47 147 *~;
#X obj 103 49 metro 500;
#X floatatom 161 13 5 0 0 0 - - -, f 5;
#X obj 751 721 dac~;
#X obj 833 553 gain~;
#X obj 745 508 gain~;
#X obj 252 29 tgl 15 0 empty empty empty 17 7 0 10 -262144 -1 -1 0
1;
#X obj 196 147 *~;
#X obj 259 64 metro 500;
#X floatatom 310 13 5 0 0 0 - - -, f 5;
#X obj 178 106 phasor~ 500;
#X obj 148 188 s~ \$0-input;
#X obj 452 195 r~ \$0-input;
#X obj 28 182 s~ \$0-dry;
#X obj 743 475 r~ \$0-dry;
#X text 880 69 damping;
#X floatatom 883 90 7 0 20000 0 - - -, f 7;
#X obj 882 122 s \$0-damping;
#X text 591 68 bandwidth;
#X obj 429 257 lop~ 18000;
#X floatatom 596 85 7 0 0 0 - - -, f 7;
#X obj 596 104 s \$0-bw;
#X obj 484 230 r \$0-bw;
#X text 600 145 decay;
#X floatatom 605 164 5 0 0.95 0 - - -, f 5;
#X obj 605 183 s \$0-decay;
#N canvas 116 114 1125 814 \$0-main-tank~ 0;
#X obj 277 241 +~;
#X obj 277 241 +~;
#X obj 518 242 +~;
#X obj 518 242 +~;
#X obj 314 422 r \$0-damping;
#X obj 564 414 r \$0-damping;
#X obj 260 749 s~ \$0-fb1;
#X obj 507 769 s~ \$0-fb2;
#X obj 261 446 lop~ 20000;
#X obj 506 441 lop~ 20000;
#X obj 507 736 *~ 0.9;
#X obj 258 723 *~ 0.9;
#X obj 549 706 r \$0-decay;
#X obj 305 703 r \$0-decay;
#X obj 297 214 r~ \$0-fb2;
#X obj 533 216 r~ \$0-fb1;
#X obj 255 358 delwrite~ \$0-fbd3 110;
#X obj 458 102 inlet~;
#X obj 661 372 s~ \$0-tap1;
#X obj 707 555 s~ \$0-tap2;
#X obj 694 656 s~ \$0-tap3;
#X obj 26 368 s~ \$0-tap4;
#X obj 378 657 s~ \$0-tap6;
#X obj 60 645 s~ \$0-tap5;
#X obj 246 591 delwrite~ \$0-fbd5 90;
#X floatatom 197 487 5 0 0 0 - - -, f 5;
#X obj 254 388 vd~ \$0-fbd3 100.98;
#X floatatom 201 369 5 0 0 0 - - -, f 5;
#X obj 508 369 vd~ \$0-fbd4 95.62;
#X obj 508 342 delwrite~ \$0-fbd4 100;
#X floatatom 471 401 5 0 0 0 - - -, f 5;
#X floatatom 459 481 5 0 0 0 - - -, f 5;
#X obj 248 658 vd~ \$0-fbd1 84.35;
#X floatatom 200 639 5 0 0 0 - - -, f 5;
#X obj 522 622 delwrite~ \$0-fbd6 100;
#X obj 520 659 vd~ \$0-fbd6;
#X floatatom 477 634 5 0 0 0 - - -, f 5;
#X floatatom 637 543 5 0 0 0 - - -, f 5;
#X floatatom 632 281 5 0 0 0 - - -, f 5;
#X floatatom 326 532 5 0 0 0 - - -, f 5;
#X floatatom 734 419 5 0 0 0 - - -, f 5;
#X floatatom 737 240 5 0 0 0 - - -, f 5;
#X msg 173 334 27;
#X msg 467 314 20;
#X msg 456 447 23;
#X floatatom 423 258 5 0 0 0 - - -, f 5;
#X text 736 207 decay diffusion 1;
#X text 729 398 decay diffusion 2;
#X obj 737 268 hsl 128 15 0 1 0 0 empty empty empty -2 -8 0 10 -262144
-1 -1 0 1;
#X obj 736 449 hsl 128 15 0 1 0 0 empty empty empty -2 -8 0 10 -262144
-1 -1 0 1;
#X obj 258 82 cos~;
#X obj 155 80 *~ 0.01;
#X obj 155 108 s~ \$0-quadcos;
#X obj 312 253 r~ \$0-quadcos;
#X obj 311 279 +~ 15.24;
#X obj 556 278 +~ 20.59;
#X obj 553 252 r~ \$0-quadsine;
#X obj 254 132 s~ \$0-quadsine;
#X floatatom 298 31 5 0 0 0 - - -, f 5;
#X floatatom 208 12 5 0 0 0 - - -, f 5;
#X obj 235 472 delwrite~ \$0-fbd1 110;
#X obj 235 507 vd~ \$0-fbd1 100.97;
#X obj 511 468 delwrite~ \$0-fbd2 100;
#X obj 516 498 vd~ \$0-fbd2 95.62;
#X obj 660 345 delread~ \$0-fbd4 6.031;
#X obj 816 373 s~ \$0-tap1a;
#X obj 815 346 delread~ \$0-fbd4 67.43;
#X obj 553 595 delwrite~ \$0-deltap3 50;
#X obj 706 522 delread~ \$0-deltap3 43.37;
#X obj 692 620 delread~ \$0-fbd6 45.26;
#X obj 23 335 delread~ \$0-fbd3 45.12;
#X obj 58 608 delread~ \$0-deltap5 4.24;
#X obj 67 552 delwrite~ \$0-deltap5 10;
#X obj 331 620 delread~ \$0-fbd5 24.18;
#X msg 474 608 71.72;
#X msg 244 617 84.35;
#X msg 173 459 100.97;
#X obj 156 48 osc~ 0.01;
#X obj 257 109 *~ 0.036;
#X obj 267 307 allpass~ 17 15.24 0.45;
#X obj 244 554 allpass~ 50 40.82 0.6;
#X obj 521 563 allpass~ 65 60.23 0.45;
#X obj 512 307 allpass~ 25 20.59 0.6;
#X connect 0 0 79 0;
#X connect 2 0 82 0;
#X connect 4 0 8 1;
#X connect 5 0 9 1;
#X connect 8 0 60 0;
#X connect 9 0 62 0;
#X connect 10 0 7 0;
#X connect 11 0 6 0;
#X connect 12 0 10 1;
#X connect 13 0 11 1;
#X connect 14 0 0 1;
#X connect 15 0 2 1;
#X connect 17 0 0 0;
#X connect 17 0 2 0;
#X connect 25 0 61 0;
#X connect 26 0 8 0;
#X connect 27 0 26 0;
#X connect 28 0 9 0;
#X connect 30 0 28 0;
#X connect 31 0 63 0;
#X connect 32 0 11 0;
#X connect 33 0 32 0;
#X connect 35 0 10 0;
#X connect 36 0 35 0;
#X connect 37 0 81 1;
#X connect 38 0 82 1;
#X connect 39 0 80 1;
#X connect 40 0 80 2;
#X connect 40 0 81 2;
#X connect 41 0 79 2;
#X connect 41 0 82 2;
#X connect 42 0 26 0;
#X connect 43 0 28 0;
#X connect 44 0 63 0;
#X connect 45 0 79 1;
#X connect 48 0 41 0;
#X connect 49 0 40 0;
#X connect 50 0 78 0;
#X connect 51 0 52 0;
#X connect 53 0 54 0;
#X connect 54 0 79 1;
#X connect 55 0 82 1;
#X connect 56 0 55 0;
#X connect 58 0 51 1;
#X connect 58 0 78 1;
#X connect 59 0 77 1;
#X connect 61 0 72 0;
#X connect 61 0 80 0;
#X connect 63 0 81 0;
#X connect 64 0 18 0;
#X connect 66 0 65 0;
#X connect 68 0 19 0;
#X connect 69 0 20 0;
#X connect 70 0 21 0;
#X connect 71 0 23 0;
#X connect 73 0 22 0;
#X connect 74 0 35 0;
#X connect 75 0 32 0;
#X connect 76 0 61 0;
#X connect 77 0 50 0;
#X connect 77 0 51 0;
#X connect 78 0 57 0;
#X connect 79 0 16 0;
#X connect 80 0 24 0;
#X connect 81 0 34 0;
#X connect 81 0 67 0;
#X connect 82 0 29 0;
#X restore 430 373 pd \$0-main-tank~;
#N canvas 0 22 817 643 \$0-input_diffusers~ 0;
#X obj 300 212 inlet~;
#X obj 487 498 outlet~;
#X floatatom 651 152 5 0 0 0 - - -, f 5;
#X floatatom 680 298 5 0 0 0 - - -, f 5;
#X text 650 135 input diffusion 1;
#X text 677 275 input diffusion 2;
#X obj 655 198 hsl 128 15 0 1 0 0 empty empty empty -2 -8 0 10 -262144
-1 -1 0 1;
#X obj 671 333 hsl 128 15 0 1 0 0 empty empty empty -2 -8 0 10 -262144
-1 -1 0 1;
#X obj 300 271 allpass~ 5 3.22 0.6;
#X obj 300 349 allpass~ 5 2.43 0.6;
#X obj 494 273 allpass~ 10 8.59 0.6;
#X obj 493 347 allpass~ 10 6.28 0.6;
#X connect 0 0 8 0;
#X connect 2 0 8 2;
#X connect 2 0 9 2;
#X connect 3 0 10 2;
#X connect 3 0 11 2;
#X connect 6 0 2 0;
#X connect 7 0 3 0;
#X connect 8 0 9 0;
#X connect 9 0 10 0;
#X connect 10 0 11 0;
#X connect 11 0 1 0;
#X restore 430 314 pd \$0-input_diffusers~;
#N canvas 79 406 752 519 \$0-left-taps 0;
#X obj 264 426 outlet~;
#X obj 41 92 r~ \$0-tap1;
#X obj 41 134 *~ 0.6;
#X obj 191 92 r~ \$0-tap2;
#X obj 259 91 r~ \$0-tap3;
#X obj 250 134 *~ 0.6;
#X obj 349 91 r~ \$0-tap4;
#X obj 346 130 *~ -0.6;
#X obj 234 305 +~;
#X obj 186 134 *~ -0.6;
#X obj 430 131 *~ -0.6;
#X obj 433 92 r~ \$0-tap5;
#X obj 115 135 *~ 0.6;
#X obj 511 131 *~ -0.6;
#X obj 514 92 r~ \$0-tap6;
#X obj 593 139 *~ -0.6;
#X obj 596 100 r~ \$0-tap1;
#X obj 115 94 r~ \$0-tap1a;
#X connect 1 0 2 0;
#X connect 2 0 8 0;
#X connect 3 0 9 0;
#X connect 4 0 5 0;
#X connect 5 0 8 1;
#X connect 6 0 7 0;
#X connect 7 0 8 1;
#X connect 8 0 0 0;
#X connect 9 0 8 0;
#X connect 10 0 8 1;
#X connect 11 0 10 0;
#X connect 12 0 8 0;
#X connect 14 0 13 0;
#X connect 16 0 15 0;
#X connect 17 0 12 0;
#X restore 621 442 pd \$0-left-taps;
#X obj 628 543 gain~;
#X obj 257 109 adenv~ 10 10;
#X msg 667 151 0.8;
#N canvas 619 137 658 504 \$0-right-taps 0;
#X obj 302 396 outlet~;
#X obj 94 137 r~ \$0-tap4;
#X obj 94 166 *~ 0.6;
#X obj 193 137 r~ \$0-tap4;
#X obj 193 166 *~ 0.6;
#X obj 303 325 +~;
#X obj 284 139 r~ \$0-tap5;
#X obj 284 168 *~ -0.6;
#X obj 378 171 *~ 0.6;
#X obj 378 141 r~ \$0-tap6;
#X obj 458 180 *~ -0.6;
#X obj 538 179 *~ 0.6;
#X obj 458 150 r~ \$0-tap2;
#X obj 538 150 r~ \$0-tap3;
#X connect 1 0 2 0;
#X connect 2 0 5 0;
#X connect 3 0 4 0;
#X connect 4 0 5 0;
#X connect 5 0 0 0;
#X connect 6 0 7 0;
#X connect 7 0 5 0;
#X connect 8 0 5 1;
#X connect 9 0 8 0;
#X connect 10 0 5 1;
#X connect 11 0 5 1;
#X connect 12 0 10 0;
#X connect 13 0 11 0;
#X restore 833 441 pd \$0-right-taps;
#X obj 42 66 pink~;
#X obj 421 70 adc~;
#X obj 423 160 *~ 2;
#X msg 703 159 0.9;
#X msg 749 162 0.5;
#X msg 711 183 0.95;
#N canvas 0 22 693 404 \$0-alt-left-tap 0;
#X obj 191 298 outlet~;
#X obj 41 92 r~ \$0-tap1;
#X obj 191 92 r~ \$0-tap2;
#X obj 259 91 r~ \$0-tap3;
#X obj 349 91 r~ \$0-tap4;
#X obj 433 92 r~ \$0-tap5;
#X obj 514 92 r~ \$0-tap6;
#X obj 596 100 r~ \$0-tap1;
#X obj 115 94 r~ \$0-tap1a;
#X connect 4 0 0 0;
#X connect 8 0 0 0;
#X restore 532 497 pd \$0-alt-left-tap;
#N canvas 0 22 693 404 \$0-alt-right-tap 0;
#X obj 183 211 outlet~;
#X obj 41 92 r~ \$0-tap1;
#X obj 191 92 r~ \$0-tap2;
#X obj 259 91 r~ \$0-tap3;
#X obj 349 91 r~ \$0-tap4;
#X obj 433 92 r~ \$0-tap5;
#X obj 514 92 r~ \$0-tap6;
#X obj 596 100 r~ \$0-tap1;
#X obj 115 94 r~ \$0-tap1a;
#X connect 2 0 0 0;
#X connect 7 0 0 0;
#X restore 849 492 pd \$0-alt-right-tap;
#X connect 0 0 4 0;
#X connect 2 0 3 1;
#X connect 3 0 14 0;
#X connect 3 0 16 0;
#X connect 4 0 2 0;
#X connect 5 0 4 1;
#X connect 7 0 6 1;
#X connect 8 0 6 0;
#X connect 8 0 6 1;
#X connect 9 0 11 0;
#X connect 10 0 14 0;
#X connect 10 0 16 0;
#X connect 11 0 33 0;
#X connect 12 0 11 1;
#X connect 13 0 10 0;
#X connect 15 0 22 0;
#X connect 17 0 8 0;
#X connect 19 0 20 0;
#X connect 22 0 30 0;
#X connect 23 0 24 0;
#X connect 25 0 22 1;
#X connect 27 0 28 0;
#X connect 30 0 29 0;
#X connect 31 0 32 0;
#X connect 32 0 6 0;
#X connect 33 0 10 1;
#X connect 34 0 27 0;
#X connect 35 0 7 0;
#X connect 36 0 3 0;
#X connect 37 0 38 0;
#X connect 38 0 22 0;
#X connect 38 0 16 0;
#X connect 39 0 27 0;
#X connect 40 0 27 0;
#X connect 41 0 27 0;
