#N canvas 0 22 986 720 10;
#X obj 409 396 bp~;
#X obj 407 451 *~;
#X obj 506 290 inlet;
#X obj 389 523 outlet~;
#X obj 456 273 ii;
#X obj 478 413 ead~ 0 20;
#X obj 442 377 nbx 5 14 -1e+37 1e+37 0 0 empty empty empty 0 -8 0 10
-262144 -1 -1 20 256;
#X obj 422 335 nbx 5 14 -1e+37 1e+37 0 0 empty empty empty 0 -8 0 10
-262144 -1 -1 12000 256;
#X obj 554 343 nbx 5 14 -1e+37 1e+37 0 1 empty empty empty 0 -8 0 10
-262144 -1 -1 43 256;
#X msg 404 306 20000;
#X msg 583 298 45;
#X msg 440 354 45;
#X obj 582 262 inlet;
#X obj 150 119 square~;
#X obj 40 102 nbx 5 14 -1e+37 1e+37 0 1 empty empty empty 0 -8 0 10
-262144 -1 -1 12039 256;
#X obj 214 140 *~;
#X obj 300 122 nbx 5 14 -1e+37 1e+37 0 1 empty empty empty 0 -8 0 10
-262144 -1 -1 0.4 256;
#X obj 149 157 square~;
#X obj 40 144 nbx 5 14 -1e+37 1e+37 0 1 empty empty empty 0 -8 0 10
-262144 -1 -1 9832 256;
#X obj 213 178 *~;
#X obj 300 164 nbx 5 14 -1e+37 1e+37 0 1 empty empty empty 0 -8 0 10
-262144 -1 -1 0.3 256;
#X obj 142 200 square~;
#X obj 40 186 nbx 5 14 -1e+37 1e+37 0 1 empty empty empty 0 -8 0 10
-262144 -1 -1 14552 256;
#X obj 206 221 *~;
#X obj 301 206 nbx 5 14 -1e+37 1e+37 0 1 empty empty empty 0 -8 0 10
-262144 -1 -1 0.3 256;
#X obj 139 241 square~;
#X obj 40 228 nbx 5 14 -1e+37 1e+37 0 1 empty empty empty 0 -8 0 10
-262144 -1 -1 18493 256;
#X obj 203 262 *~;
#X obj 300 248 nbx 5 14 -1e+37 1e+37 0 1 empty empty empty 0 -8 0 10
-262144 -1 -1 0.2 256;
#X obj 134 274 square~;
#X obj 40 270 nbx 5 14 -1e+37 1e+37 0 1 empty empty empty 0 -8 0 10
-262144 -1 -1 24854 256;
#X obj 198 295 *~;
#X obj 151 77 square~;
#X obj 40 60 nbx 5 14 -1e+37 1e+37 0 1 empty empty empty 0 -8 0 10
-262144 -1 -1 17000 256;
#X obj 215 98 *~;
#X obj 300 80 nbx 5 14 -1e+37 1e+37 0 1 empty empty empty 0 -8 0 10
-262144 -1 -1 0.5 256;
#X obj 300 290 nbx 5 14 -1e+37 1e+37 0 1 empty empty empty 0 -8 0 10
-262144 -1 -1 0.1 256;
#X obj 300 359 *~ 0.3;
#X connect 0 0 1 0;
#X connect 1 0 3 0;
#X connect 2 0 5 0;
#X connect 4 0 11 0;
#X connect 4 0 9 0;
#X connect 5 0 1 1;
#X connect 6 0 0 2;
#X connect 7 0 0 1;
#X connect 8 0 5 2;
#X connect 9 0 0 1;
#X connect 10 0 8 0;
#X connect 11 0 0 2;
#X connect 13 0 15 0;
#X connect 14 0 13 0;
#X connect 15 0 37 0;
#X connect 16 0 15 1;
#X connect 17 0 19 0;
#X connect 18 0 17 0;
#X connect 19 0 37 0;
#X connect 20 0 19 1;
#X connect 21 0 23 0;
#X connect 22 0 21 0;
#X connect 23 0 37 0;
#X connect 24 0 23 1;
#X connect 25 0 27 0;
#X connect 26 0 25 0;
#X connect 27 0 37 0;
#X connect 28 0 27 1;
#X connect 29 0 31 0;
#X connect 30 0 29 0;
#X connect 31 0 37 0;
#X connect 32 0 34 0;
#X connect 33 0 32 0;
#X connect 34 0 37 0;
#X connect 35 0 34 1;
#X connect 36 0 31 1;
#X connect 37 0 0 0;
