#N canvas 26 78 1324 635 10;
#X obj 328 591 dac~;
#X obj 208 82 tgl 15 0 empty empty empty 17 7 0 10 -262144 -1 -1 0
1;
#X obj 430 562 hsl 128 15 50 100 0 0 empty empty empty -2 -8 0 10 -262144
-1 -1 6500 1;
#X obj 318 501 vols~;
#X obj 312 184 s \$0-clock;
#X obj 235 216 t b b b b;
#X obj 605 417 vu 15 120 empty empty -1 -8 0 10 -66577 -1 1 0;
#X obj 561 372 prvu~ 50 1000 300 -0.01;
#X obj 160 190 delay;
#X obj 250 163 t b b;
#X obj 178 117 sel 0;
#X obj 179 141 s \$0-reset;
#N canvas 101 185 552 420 kick 0;
#X obj 205 244 bng 15 250 50 0 empty empty empty 17 7 0 10 -262144
-1 -1;
#X floatatom 246 245 5 0 0 0 - - -;
#X floatatom 292 245 5 0 0 0 - - -;
#X obj 284 302 kick~;
#X floatatom 342 245 5 0 0 0 - - -;
#N canvas 120 49 1067 672 kickverb 0;
#X obj 76 234 inlet~;
#X obj 154 230 inlet~;
#X obj 100 525 outlet~;
#X obj 185 525 outlet~;
#X obj 168 424 zrev1~ 10 10 10;
#X obj 497 257 hsl 128 15 0 100 0 1 empty empty time -2 -8 0 10 -262144
-1 -1 9500 1;
#X floatatom 487 330 5 0 0 0 - - -;
#X obj 524 375 hsl 128 15 -1 1 0 1 empty empty mix -2 -8 0 10 -262144
-1 -1 7400 1;
#X floatatom 516 411 5 0 0 0 - - -;
#X obj 447 215 hsl 128 15 0 200 0 1 empty empty room_size -2 -8 0 10
-262144 -1 -1 4300 1;
#X floatatom 408 257 5 0 0 0 - - -;
#X obj 381 171 hsl 128 15 200 20000 1 1 empty empty lpf_hz -2 -8 0
10 -262144 -1 -1 8200 1;
#X floatatom 370 219 5 0 0 0 - - -;
#X obj 355 125 hsl 128 15 -99 18 0 1 empty empty recycle -2 -8 0 10
-262144 -1 -1 9500 1;
#X obj 296 85 hsl 128 15 -99 18 0 1 empty empty 2nd_ref -2 -8 0 10
-262144 -1 -1 10100 1;
#X obj 218 49 hsl 128 15 -99 18 0 1 empty empty 1st_ref -2 -8 0 10
-262144 -1 -1 8100 1;
#X obj 656 154 ctlin 16;
#X obj 655 190 / 127;
#X floatatom 678 293 5 0 0 0 - - -;
#X obj 657 217 * 2;
#X obj 660 253 - 1;
#X connect 0 0 4 0;
#X connect 1 0 4 1;
#X connect 4 0 2 0;
#X connect 4 1 3 0;
#X connect 5 0 6 0;
#X connect 6 0 4 7;
#X connect 7 0 8 0;
#X connect 8 0 4 8;
#X connect 9 0 10 0;
#X connect 10 0 4 6;
#X connect 11 0 12 0;
#X connect 12 0 4 5;
#X connect 13 0 4 4;
#X connect 14 0 4 3;
#X connect 15 0 4 2;
#X connect 16 0 17 0;
#X connect 17 0 19 0;
#X connect 19 0 20 0;
#X connect 20 0 18 0;
#X connect 20 0 7 0;
#X restore 279 365 pd kickverb;
#X obj 174 128 bangseq 32;
#X obj 234 98 r \$0-reset;
#X msg 275 44 1 5 9 13 17 21 25 29 32;
#X msg 285 203 73;
#X msg 321 200 189;
#X obj 296 167 ii;
#X obj 289 18 ii;
#X obj 264 395 outlet~;
#X obj 343 396 outlet~;
#X obj 108 47 inlet;
#X obj 286 330 vols~;
#X obj 372 302 knob 32 32 0 110 0 0 empty empty empty 0 -8 0 8 -262144
-1 -1 2935 1;
#X obj 408 244 ctlin 0;
#X floatatom 444 311 5 0 0 0 - - -;
#X obj 399 273 expr $f1 * 0.82;
#X connect 0 0 3 0;
#X connect 1 0 3 1;
#X connect 2 0 3 2;
#X connect 3 0 16 0;
#X connect 3 0 16 1;
#X connect 4 0 3 3;
#X connect 5 0 13 0;
#X connect 5 1 14 0;
#X connect 6 0 0 0;
#X connect 7 0 6 3;
#X connect 8 0 6 2;
#X connect 9 0 2 0;
#X connect 10 0 4 0;
#X connect 11 0 9 0;
#X connect 11 0 10 0;
#X connect 12 0 8 0;
#X connect 15 0 6 0;
#X connect 16 0 5 0;
#X connect 16 1 5 1;
#X connect 17 0 16 2;
#X connect 18 0 20 0;
#X connect 20 0 17 0;
#X connect 20 0 19 0;
#X restore 238 297 pd kick;
#N canvas 297 93 806 612 hat 0;
#X obj 428 240 bng 15 250 50 0 empty empty empty 17 7 0 10 -262144
-1 -1;
#X obj 416 278 hihat~;
#X obj 430 33 bng 15 250 50 0 empty empty empty 17 7 0 10 -262144 -1
-1;
#X obj 504 105 print gen;
#X obj 521 38 nbx 5 14 -1e+37 1e+37 0 0 empty empty empty 0 -8 0 10
-262144 -1 -1 0 256;
#N canvas 267 59 885 608 hatverb 0;
#X obj 76 234 inlet~;
#X obj 154 230 inlet~;
#X obj 100 525 outlet~;
#X obj 185 525 outlet~;
#X obj 168 424 zrev1~ 10 10 10;
#X obj 497 257 hsl 128 15 0 100 0 1 empty empty time -2 -8 0 10 -262144
-1 -1 10500 1;
#X floatatom 487 330 5 0 0 0 - - -;
#X obj 524 375 hsl 128 15 -1 1 0 1 empty empty mix -2 -8 0 10 -262144
-1 -1 8000 1;
#X floatatom 516 411 5 0 0 0 - - -;
#X obj 447 215 hsl 128 15 0 200 0 1 empty empty room_size -2 -8 0 10
-262144 -1 -1 1800 1;
#X floatatom 408 257 5 0 0 0 - - -;
#X obj 381 171 hsl 128 15 200 20000 1 1 empty empty lpf_hz -2 -8 0
10 -262144 -1 -1 6000 1;
#X floatatom 370 219 5 0 0 0 - - -;
#X obj 355 125 hsl 128 15 -99 18 0 1 empty empty recycle -2 -8 0 10
-262144 -1 -1 10400 1;
#X obj 296 85 hsl 128 15 -99 18 0 1 empty empty 2nd_ref -2 -8 0 10
-262144 -1 -1 8000 1;
#X obj 218 49 hsl 128 15 -99 18 0 1 empty empty 1st_ref -2 -8 0 10
-262144 -1 -1 8500 1;
#X obj 606 295 ctlin 19;
#X obj 705 240 / 127;
#X floatatom 694 343 5 0 0 0 - - -;
#X obj 707 267 * 2;
#X obj 710 303 - 1;
#X obj 706 204 ctlin 19;
#X connect 0 0 4 0;
#X connect 1 0 4 1;
#X connect 4 0 2 0;
#X connect 4 1 3 0;
#X connect 5 0 6 0;
#X connect 6 0 4 7;
#X connect 7 0 8 0;
#X connect 8 0 4 8;
#X connect 9 0 10 0;
#X connect 10 0 4 6;
#X connect 11 0 12 0;
#X connect 12 0 4 5;
#X connect 13 0 4 4;
#X connect 14 0 4 3;
#X connect 15 0 4 2;
#X connect 17 0 19 0;
#X connect 18 0 7 0;
#X connect 19 0 20 0;
#X connect 20 0 18 0;
#X connect 21 0 17 0;
#X restore 386 362 pd hatverb;
#X obj 441 67 genbangseq 15 0.4 0.1 0.5;
#X msg 335 90 3 5 9 10 11;
#X obj 493 182 r \$0-reset;
#X obj 510 125 ii;
#X msg 445 154 10 11 26 27 28 29;
#X obj 226 49 inlet;
#X obj 374 473 outlet~;
#X obj 462 473 outlet~;
#X obj 428 331 *~ 1;
#X obj 507 277 knob 32 32 0 1 0 0 empty empty empty 0 -8 0 8 -262144
-1 -1 3076 1;
#X obj 516 221 ctlin 3;
#X floatatom 523 338 5 0 0 0 - - -;
#X obj 514 247 / 128;
#X obj 392 201 bangseq 8;
#X msg 567 133 3 7;
#X obj 593 192 numberseq;
#X obj 333 21 clockdivider;
#X msg 624 152 60 60;
#X obj 431 301 *~ 1;
#X connect 0 0 1 0;
#X connect 1 0 24 0;
#X connect 2 0 6 0;
#X connect 4 0 6 4;
#X connect 5 0 12 0;
#X connect 5 1 13 0;
#X connect 6 0 3 0;
#X connect 6 0 19 2;
#X connect 7 0 19 2;
#X connect 8 0 19 3;
#X connect 9 0 10 0;
#X connect 10 0 19 2;
#X connect 11 0 19 0;
#X connect 11 0 22 0;
#X connect 14 0 5 0;
#X connect 14 0 5 1;
#X connect 15 0 14 1;
#X connect 15 0 17 0;
#X connect 16 0 18 0;
#X connect 18 0 15 0;
#X connect 19 0 0 0;
#X connect 20 0 19 2;
#X connect 21 0 1 1;
#X connect 22 2 21 0;
#X connect 23 0 21 1;
#X connect 24 0 14 0;
#X restore 304 298 pd hat;
#N canvas 798 121 588 552 clankpart 0;
#X obj 172 141 bng 15 250 50 0 empty empty empty 17 7 0 10 -262144
-1 -1;
#N canvas 579 102 539 586 clank 0;
#X obj 218 246 ead~;
#X obj 263 106 ii;
#X obj 164 -8 inlet;
#X obj 202 538 outlet~;
#X obj 307 298 noise~;
#X obj 184 334 *~;
#X obj 210 505 *~ 0.5;
#X obj 289 276 ead~;
#X obj 268 387 *~;
#X obj 177 418 *~ 0.5;
#X obj 204 464 +~;
#X obj 56 144 osc~;
#X obj 98 313 osc~;
#X floatatom 14 58 5 0 0 0 - - -;
#X obj 87 205 *~;
#X floatatom 137 137 5 0 0 0 - - -;
#X floatatom 20 188 5 0 0 0 - - -;
#X obj 41 241 mtof~;
#X obj 86 270 +~;
#X obj 357 334 bp~;
#X floatatom 414 302 5 0 0 0 - - -;
#X obj 355 268 nbx 5 14 -1e+37 1e+37 0 0 empty empty empty 0 -8 0 10
-262144 -1 -1 950 256;
#X obj 119 163 +;
#X obj 37 94 +;
#X obj 65 63 random 3;
#X obj 112 90 random 50;
#X msg 228 157 6;
#X msg 291 220 3;
#X msg 349 209 500;
#X msg 294 158 200;
#X msg 141 112 550;
#X msg 15 27 130;
#X msg 16 147 45;
#X msg 377 234 950;
#X msg 427 248 17;
#X obj 398 97 ii;
#X obj 64 4 ii;
#X obj 238 423 *~ 0.3;
#X connect 0 0 5 1;
#X connect 1 0 26 0;
#X connect 1 0 29 0;
#X connect 2 0 0 0;
#X connect 2 0 7 0;
#X connect 2 0 24 0;
#X connect 2 0 25 0;
#X connect 4 0 19 0;
#X connect 5 0 9 0;
#X connect 6 0 3 0;
#X connect 7 0 8 0;
#X connect 8 0 37 0;
#X connect 9 0 10 0;
#X connect 10 0 6 0;
#X connect 11 0 14 0;
#X connect 12 0 5 0;
#X connect 13 0 23 1;
#X connect 14 0 18 1;
#X connect 15 0 22 1;
#X connect 16 0 17 0;
#X connect 17 0 18 0;
#X connect 18 0 12 0;
#X connect 19 0 8 1;
#X connect 20 0 19 2;
#X connect 21 0 19 1;
#X connect 22 0 14 1;
#X connect 23 0 11 0;
#X connect 24 0 23 0;
#X connect 25 0 22 0;
#X connect 26 0 0 1;
#X connect 27 0 7 1;
#X connect 28 0 7 2;
#X connect 29 0 0 2;
#X connect 30 0 15 0;
#X connect 31 0 13 0;
#X connect 32 0 16 0;
#X connect 33 0 21 0;
#X connect 34 0 20 0;
#X connect 35 0 27 0;
#X connect 35 0 28 0;
#X connect 35 0 33 0;
#X connect 35 0 34 0;
#X connect 36 0 31 0;
#X connect 36 0 32 0;
#X connect 36 0 30 0;
#X connect 37 0 10 1;
#X restore 53 321 pd clank;
#N canvas 289 105 911 555 clankverb 0;
#X obj 89 224 inlet~;
#X obj 167 220 inlet~;
#X obj 113 515 outlet~;
#X obj 198 515 outlet~;
#X obj 181 414 zrev1~ 10 10 10;
#X obj 510 247 hsl 128 15 0 100 0 1 empty empty time -2 -8 0 10 -262144
-1 -1 10900 1;
#X floatatom 500 320 5 0 0 0 - - -;
#X obj 537 365 hsl 128 15 -1 1 0 1 empty empty mix -2 -8 0 10 -262144
-1 -1 8200 1;
#X floatatom 529 401 5 0 0 0 - - -;
#X obj 460 205 hsl 128 15 0 200 0 1 empty empty room_size -2 -8 0 10
-262144 -1 -1 2800 1;
#X floatatom 421 247 5 0 0 0 - - -;
#X obj 394 161 hsl 128 15 200 20000 1 1 empty empty lpf_hz -2 -8 0
10 -262144 -1 -1 10300 1;
#X floatatom 383 209 5 0 0 0 - - -;
#X obj 368 115 hsl 128 15 -99 18 0 1 empty empty recycle -2 -8 0 10
-262144 -1 -1 9100 1;
#X obj 309 75 hsl 128 15 -99 18 0 1 empty empty 2nd_ref -2 -8 0 10
-262144 -1 -1 9000 1;
#X obj 231 39 hsl 128 15 -99 18 0 1 empty empty 1st_ref -2 -8 0 10
-262144 -1 -1 9100 1;
#X obj 695 230 / 127;
#X floatatom 718 333 5 0 0 0 - - -;
#X obj 697 257 * 2;
#X obj 700 293 - 1;
#X obj 696 194 ctlin 20;
#X connect 0 0 4 0;
#X connect 1 0 4 1;
#X connect 4 0 2 0;
#X connect 4 1 3 0;
#X connect 5 0 6 0;
#X connect 6 0 4 7;
#X connect 7 0 8 0;
#X connect 8 0 4 8;
#X connect 9 0 10 0;
#X connect 10 0 4 6;
#X connect 11 0 12 0;
#X connect 12 0 4 5;
#X connect 13 0 4 4;
#X connect 14 0 4 3;
#X connect 15 0 4 2;
#X connect 16 0 18 0;
#X connect 18 0 19 0;
#X connect 19 0 17 0;
#X connect 19 0 7 0;
#X connect 20 0 16 0;
#X restore 55 408 pd clankverb;
#X obj 149 318 bng 15 250 50 0 empty empty empty 17 7 0 10 -262144
-1 -1;
#X obj 169 180 genbangseq 16 0.1 0.7 0.2;
#X msg 166 235 2 3;
#X obj 224 212 print clank;
#X msg 127 202 2 16;
#N canvas 658 125 658 531 bbd-test 0;
#X obj 123 84 delwrite~ b1 500;
#X obj 225 121 vd~ b1;
#X obj 227 179 vd~ b2;
#X obj 127 153 delwrite~ b2 500;
#X obj 228 242 vd~ b3;
#X obj 127 211 delwrite~ b3 500;
#X obj 128 274 delwrite~ b4 500;
#X obj 232 304 vd~ b4;
#X obj 132 337 delwrite~ b5 500;
#X obj 231 375 vd~ b5;
#X obj 425 341 *~ 0;
#X obj 483 273 vsl 15 128 0.01 1 1 0 empty empty empty 0 -9 0 10 -262144
-1 -1 4751 1;
#X obj 365 200 line~;
#X obj 365 172 pack 0 100;
#X obj 122 411 delwrite~ b6 500;
#X obj 224 448 vd~ b6;
#X obj 126 480 delwrite~ b7 500;
#X obj 226 506 vd~ b7;
#X obj 126 538 delwrite~ b8 500;
#X obj 227 569 vd~ b8;
#X obj 127 601 delwrite~ b9 500;
#X obj 231 631 vd~ b9;
#X obj 131 664 delwrite~ b10 500;
#X obj 230 702 vd~ b10;
#X obj 423 461 lop~ 2000;
#X floatatom 504 428 5 0 0 0 - - -;
#X obj 115 27 inlet~;
#X obj 232 738 outlet~;
#X obj 367 138 nbx 5 14 -1e+37 1e+37 0 0 empty empty empty 0 -8 0 10
-262144 -1 -1 86 256;
#X floatatom 460 421 5 0 0 0 - - -;
#X msg 378 81 86;
#X obj 457 67 ii;
#X obj 423 493 s~ \$0-fdbk;
#X obj 176 54 r~ \$0-fdbk;
#X msg 514 226 0.056;
#X connect 1 0 3 0;
#X connect 2 0 5 0;
#X connect 4 0 6 0;
#X connect 7 0 8 0;
#X connect 9 0 14 0;
#X connect 10 0 24 0;
#X connect 11 0 10 1;
#X connect 11 0 29 0;
#X connect 12 0 1 0;
#X connect 12 0 2 0;
#X connect 12 0 4 0;
#X connect 12 0 7 0;
#X connect 12 0 9 0;
#X connect 12 0 15 0;
#X connect 12 0 17 0;
#X connect 12 0 19 0;
#X connect 12 0 21 0;
#X connect 12 0 23 0;
#X connect 13 0 12 0;
#X connect 15 0 16 0;
#X connect 17 0 18 0;
#X connect 19 0 20 0;
#X connect 21 0 22 0;
#X connect 23 0 10 0;
#X connect 23 0 27 0;
#X connect 24 0 32 0;
#X connect 25 0 24 1;
#X connect 26 0 0 0;
#X connect 28 0 13 0;
#X connect 30 0 28 0;
#X connect 31 0 30 0;
#X connect 31 0 34 0;
#X connect 33 0 0 0;
#X connect 34 0 11 0;
#X restore 78 363 pd bbd-test;
#X obj 81 270 bangseq 16;
#X obj 193 288 r \$0-reset;
#X obj 130 154 ii;
#X obj 115 34 inlet;
#X obj 37 476 outlet~;
#X obj 125 478 outlet~;
#X obj 174 75 clockdivider;
#X obj 260 32 r \$0-reset;
#X obj 240 108 countmeasures 4 4;
#X obj 61 443 vols~;
#X obj 272 380 hsl 150 15 0.02 100 0 0 empty empty empty -2 -8 0 10
-262144 -1 -1 14900 1;
#X floatatom 272 424 5 0 0 0 - - -;
#X obj 280 293 ii;
#X msg 280 340 107;
#X obj 366 254 ctlin 4;
#X floatatom 348 327 5 0 0 0 - - -;
#X obj 354 292 expr $f1;
#X obj 184 423 * 1.1;
#X connect 0 0 4 0;
#X connect 1 0 8 0;
#X connect 1 0 2 0;
#X connect 1 0 2 1;
#X connect 2 0 18 0;
#X connect 2 1 18 1;
#X connect 4 0 6 0;
#X connect 4 0 9 2;
#X connect 5 0 9 2;
#X connect 7 0 9 2;
#X connect 8 0 2 1;
#X connect 8 0 2 0;
#X connect 9 0 1 0;
#X connect 9 0 3 0;
#X connect 10 0 9 3;
#X connect 11 0 7 0;
#X connect 12 0 9 0;
#X connect 12 0 15 0;
#X connect 15 2 17 0;
#X connect 16 0 15 2;
#X connect 18 0 13 0;
#X connect 18 1 14 0;
#X connect 19 0 20 0;
#X connect 19 0 26 0;
#X connect 21 0 22 0;
#X connect 22 0 19 0;
#X connect 23 0 25 0;
#X connect 24 0 19 0;
#X connect 25 0 24 0;
#X connect 26 0 18 2;
#X restore 366 296 pd clankpart;
#N canvas 235 110 855 629 bassvoice 0;
#X obj 237 475 makenote;
#X obj 254 525 noteout;
#X msg 281 449 50;
#X obj 197 271 r \$0-clock;
#X obj 283 413 +;
#X floatatom 234 385 5 0 0 0 - - -;
#X obj 196 348 bng 15 250 50 0 empty empty empty 17 7 0 10 -262144
-1 -1;
#X floatatom 227 442 5 0 0 0 - - -;
#X msg 338 448 100;
#X msg 492 283 1 2 3 4 5 6 7 8;
#X obj 249 81 bng 15 250 50 0 empty empty empty 17 7 0 10 -262144 -1
-1;
#X obj 241 156 genbangseq 16 0.2 0.3 0.7;
#X msg 281 247 8 11;
#X msg 268 201 1 5 9 13;
#X obj 113 320 spring-reverb-not;
#X obj 228 315 bangseq 16;
#X obj 319 257 r \$0-reset;
#X msg 348 208 5 15 16;
#X msg 452 220 1 1;
#X obj 417 349 ii;
#X msg 379 483 1;
#X msg 353 366 35;
#X obj 525 188 ii;
#X msg 466 254 1 1 2 1 3 1;
#X msg 463 237 1 1 1 2 1 1;
#X obj 297 346 tinyseq;
#X obj 432 95 numberseq;
#X obj 341 33 r \$0-clock;
#X obj 345 62 clockdivider;
#X floatatom 459 128 5 0 0 0 - - -;
#X msg 637 300 1 2 4 6 7 9 11;
#X obj 448 12 ii;
#X obj 316 503 nbx 5 14 -1e+37 1e+37 0 0 empty empty empty 0 -8 0 10
-262144 -1 -1 8 256;
#X obj 320 390 nbx 5 14 -1e+37 1e+37 0 0 empty empty empty 0 -8 0 10
-262144 -1 -1 5 256;
#X msg 447 36 0 0 1 0 0 1 2 0;
#X connect 0 0 1 0;
#X connect 0 1 1 1;
#X connect 2 0 0 1;
#X connect 3 0 15 0;
#X connect 4 0 0 0;
#X connect 4 0 7 0;
#X connect 8 0 0 2;
#X connect 9 0 25 2;
#X connect 10 0 11 0;
#X connect 11 0 15 2;
#X connect 12 0 15 2;
#X connect 13 0 15 2;
#X connect 15 0 6 0;
#X connect 15 0 25 0;
#X connect 16 0 15 3;
#X connect 16 0 25 3;
#X connect 17 0 15 2;
#X connect 18 0 25 1;
#X connect 19 0 8 0;
#X connect 19 0 2 0;
#X connect 19 0 20 0;
#X connect 19 0 21 0;
#X connect 20 0 32 0;
#X connect 21 0 33 0;
#X connect 22 0 24 0;
#X connect 22 0 17 0;
#X connect 22 0 30 0;
#X connect 23 0 25 1;
#X connect 24 0 25 1;
#X connect 25 0 4 0;
#X connect 25 0 5 0;
#X connect 26 0 29 0;
#X connect 27 0 28 0;
#X connect 28 4 26 0;
#X connect 29 0 25 4;
#X connect 30 0 25 2;
#X connect 31 0 34 0;
#X connect 32 0 1 2;
#X connect 33 0 4 1;
#X connect 34 0 26 1;
#X restore 607 33 pd bassvoice;
#N canvas 586 62 591 513 bassreturn 0;
#X obj 126 329 *~ 5;
#X obj 337 105 vu 15 120 empty empty -1 -8 0 10 -66577 -1 1 0;
#X obj 166 148 prvu~ 50 1000 300 -0.01;
#N canvas 196 94 890 549 bassverb 0;
#X obj 66 224 inlet~;
#X obj 144 220 inlet~;
#X obj 90 515 outlet~;
#X obj 175 515 outlet~;
#X obj 158 414 zrev1~ 10 10 10;
#X obj 487 247 hsl 128 15 0 100 0 1 empty empty time -2 -8 0 10 -262144
-1 -1 11300 1;
#X floatatom 477 320 5 0 0 0 - - -;
#X obj 514 365 hsl 128 15 -1 1 0 1 empty empty mix -2 -8 0 10 -262144
-1 -1 6000 1;
#X floatatom 506 401 5 0 0 0 - - -;
#X obj 437 205 hsl 128 15 0 200 0 1 empty empty room_size -2 -8 0 10
-262144 -1 -1 3300 1;
#X floatatom 398 247 5 0 0 0 - - -;
#X obj 371 161 hsl 128 15 200 20000 1 1 empty empty lpf_hz -2 -8 0
10 -262144 -1 -1 5800 1;
#X floatatom 360 209 5 0 0 0 - - -;
#X obj 345 115 hsl 128 15 -99 18 0 1 empty empty recycle -2 -8 0 10
-262144 -1 -1 10500 1;
#X obj 286 75 hsl 128 15 -99 18 0 1 empty empty 2nd_ref -2 -8 0 10
-262144 -1 -1 9100 1;
#X obj 208 39 hsl 128 15 -99 18 0 1 empty empty 1st_ref -2 -8 0 10
-262144 -1 -1 3300 1;
#X obj 664 201 / 127;
#X floatatom 687 304 5 0 0 0 - - -;
#X obj 666 228 * 2;
#X obj 669 264 - 1;
#X obj 665 165 ctlin 17;
#X connect 0 0 4 0;
#X connect 1 0 4 1;
#X connect 4 0 2 0;
#X connect 4 1 3 0;
#X connect 5 0 6 0;
#X connect 6 0 4 7;
#X connect 7 0 8 0;
#X connect 8 0 4 8;
#X connect 9 0 10 0;
#X connect 10 0 4 6;
#X connect 11 0 12 0;
#X connect 12 0 4 5;
#X connect 13 0 4 4;
#X connect 14 0 4 3;
#X connect 15 0 4 2;
#X connect 16 0 18 0;
#X connect 17 0 7 0;
#X connect 18 0 19 0;
#X connect 19 0 17 0;
#X connect 20 0 16 0;
#X restore 240 365 pd bassverb;
#N canvas 338 270 775 429 eq~ 0;
#X obj 248 132 lop~ 500;
#X obj 104 114 knob 32 32 0.01 3 1 0 empty empty empty 0 -8 0 8 -262144
-1 -1 3100 1;
#X obj 145 114 knob 32 32 0.01 2 1 0 empty empty empty 0 -8 0 8 -262144
-1 -1 1600 1;
#X obj 185 114 knob 32 32 0.01 10 1 0 empty empty empty 0 -8 0 8 -262144
-1 -1 3100 1;
#X obj 317 268 *~;
#X obj 428 310 outlet~;
#X obj 347 57 inlet~;
#X obj 428 268 *~;
#X obj 513 268 *~;
#X obj 458 132 hip~ 2000;
#X obj 321 132 bp~ 500 2000;
#X connect 0 0 4 0;
#X connect 1 0 4 1;
#X connect 2 0 7 1;
#X connect 3 0 8 1;
#X connect 4 0 5 0;
#X connect 6 0 0 0;
#X connect 6 0 9 0;
#X connect 6 0 10 0;
#X connect 7 0 5 0;
#X connect 8 0 5 0;
#X connect 9 0 8 0;
#X connect 10 0 7 0;
#X coords 0 -1 1 1 120 60 1 100 100;
#X restore 131 211 pd eq~;
#X obj 180 291 knob 32 32 0.01 1.5 0 0 empty empty empty 0 -8 0 8 -262144
-1 -1 2903 1;
#X obj 212 409 outlet~;
#X obj 307 410 outlet~;
#X obj 104 97 inlet~;
#X floatatom 200 329 5 0 0 0 - - -;
#X msg 44 258 0.4;
#X obj 264 68 ctlin 1;
#X obj 279 242 ctlin 1;
#X obj 276 270 / 127;
#X obj 233 287 * 1.5;
#X connect 0 0 2 0;
#X connect 0 0 3 0;
#X connect 0 0 3 1;
#X connect 2 0 1 0;
#X connect 3 0 6 0;
#X connect 3 1 7 0;
#X connect 4 0 0 0;
#X connect 5 0 0 1;
#X connect 5 0 9 0;
#X connect 8 0 4 0;
#X connect 8 0 0 0;
#X connect 10 0 5 0;
#X connect 12 0 13 0;
#X connect 13 0 14 0;
#X connect 14 0 5 0;
#X restore 136 296 pd bassreturn;
#X obj 214 585 recorder~;
#X msg 134 114 44;
#X obj 240 105 pulse 120 1 16;
#X obj 393 163 bng 15 250 50 0 empty empty empty 17 7 0 10 -262144
-1 -1;
#X obj 268 132 clockdivider;
#N canvas 562 74 687 590 303voice 0;
#X obj 172 486 makenote;
#X obj 181 522 noteout;
#X msg 208 446 50;
#X obj 124 268 r \$0-clock;
#X obj 210 410 +;
#X floatatom 161 382 5 0 0 0 - - -;
#X obj 123 345 bng 15 250 50 0 empty empty empty 17 7 0 10 -262144
-1 -1;
#X floatatom 154 439 5 0 0 0 - - -;
#X msg 265 445 100;
#X obj 165 47 bng 15 250 50 0 empty empty empty 17 7 0 10 -262144 -1
-1;
#X obj 155 312 bangseq 16;
#X obj 249 281 r \$0-reset;
#X obj 344 346 ii;
#X obj 224 343 tinyseq;
#X msg 463 205 1 2 4 6 7 9 11;
#X obj 167 153 genbangseq 16 0.6 0.6 0.3;
#X obj 194 179 print 303seq;
#X msg 239 230 1 1 4 4 3 2 6 6 4;
#X obj 247 499 nbx 5 14 -1e+37 1e+37 0 0 empty empty empty 0 -8 0 10
-262144 -1 -1 9 256;
#X msg 306 480 9;
#X msg 280 363 29;
#X obj 248 390 nbx 5 14 -1e+37 1e+37 0 0 empty empty empty 0 -8 0 10
-262144 -1 -1 11 256;
#X obj 357 515 noteout;
#X obj 418 481 nbx 5 14 -1e+37 1e+37 0 0 empty empty empty 0 -8 0 10
-262144 -1 -1 9 256;
#X obj 381 451 nbx 5 14 -1e+37 1e+37 0 0 empty empty empty 0 -8 0 10
-262144 -1 -1 40 256;
#X obj 412 338 nbx 5 14 -1e+37 1e+37 0 0 empty empty empty 0 -8 0 10
-262144 -1 -1 116 256;
#X connect 0 0 1 0;
#X connect 0 1 1 1;
#X connect 2 0 0 1;
#X connect 3 0 10 0;
#X connect 4 0 7 0;
#X connect 4 0 0 0;
#X connect 8 0 0 2;
#X connect 9 0 15 0;
#X connect 10 0 6 0;
#X connect 10 0 13 0;
#X connect 11 0 10 3;
#X connect 11 0 13 3;
#X connect 12 0 8 0;
#X connect 12 0 2 0;
#X connect 12 0 19 0;
#X connect 12 0 20 0;
#X connect 13 0 4 0;
#X connect 13 0 5 0;
#X connect 14 0 13 2;
#X connect 15 0 10 2;
#X connect 15 0 16 0;
#X connect 17 0 13 1;
#X connect 18 0 1 2;
#X connect 19 0 18 0;
#X connect 20 0 21 0;
#X connect 21 0 4 1;
#X connect 23 0 22 2;
#X connect 24 0 22 1;
#X connect 25 0 0 2;
#X restore 515 33 pd 303voice;
#N canvas 643 189 591 513 303return 0;
#X obj 126 329 *~ 5;
#X obj 280 199 vu 15 120 empty empty -1 -8 0 10 -66577 -1 1 0;
#X obj 166 148 prvu~ 50 1000 300 -0.01;
#N canvas 338 270 775 429 eq~ 0;
#X obj 248 132 lop~ 500;
#X obj 104 114 knob 32 32 0.01 3 1 0 empty empty empty 0 -8 0 8 -262144
-1 -1 2900 1;
#X obj 145 114 knob 32 32 0.01 2 1 0 empty empty empty 0 -8 0 8 -262144
-1 -1 3100 1;
#X obj 185 114 knob 32 32 0.01 10 1 0 empty empty empty 0 -8 0 8 -262144
-1 -1 3000 1;
#X obj 317 268 *~;
#X obj 428 310 outlet~;
#X obj 347 57 inlet~;
#X obj 428 268 *~;
#X obj 513 268 *~;
#X obj 458 132 hip~ 2000;
#X obj 321 132 bp~ 500 2000;
#X connect 0 0 4 0;
#X connect 1 0 4 1;
#X connect 2 0 7 1;
#X connect 3 0 8 1;
#X connect 4 0 5 0;
#X connect 6 0 0 0;
#X connect 6 0 9 0;
#X connect 6 0 10 0;
#X connect 7 0 5 0;
#X connect 8 0 5 0;
#X connect 9 0 8 0;
#X connect 10 0 7 0;
#X coords 0 -1 1 1 120 60 1 100 100;
#X restore 131 211 pd eq~;
#X obj 180 291 knob 32 32 0.01 1 1 0 empty empty empty 0 -8 0 8 -262144
-1 -1 2979 1;
#X obj 212 409 outlet~;
#X obj 307 410 outlet~;
#X obj 104 97 inlet~;
#X floatatom 200 329 5 0 0 0 - - -;
#X msg 44 258 0.4;
#N canvas 196 94 890 549 303verb 0;
#X obj 66 224 inlet~;
#X obj 144 220 inlet~;
#X obj 90 515 outlet~;
#X obj 175 515 outlet~;
#X obj 158 414 zrev1~ 10 10 10;
#X obj 487 247 hsl 128 15 0 100 0 0 empty empty time -2 -8 0 10 -262144
-1 -1 9300 1;
#X floatatom 477 320 5 0 0 0 - - -;
#X obj 514 365 hsl 128 15 -1 1 0 0 empty empty mix -2 -8 0 10 -262144
-1 -1 7000 1;
#X floatatom 506 401 5 0 0 0 - - -;
#X obj 437 205 hsl 128 15 0 200 0 0 empty empty room_size -2 -8 0 10
-262144 -1 -1 2500 1;
#X floatatom 398 247 5 0 0 0 - - -;
#X obj 371 161 hsl 128 15 200 20000 1 0 empty empty lpf_hz -2 -8 0
10 -262144 -1 -1 7800 1;
#X floatatom 360 209 5 0 0 0 - - -;
#X obj 345 115 hsl 128 15 -99 18 0 0 empty empty recycle -2 -8 0 10
-262144 -1 -1 9600 1;
#X obj 286 75 hsl 128 15 -99 18 0 0 empty empty 2nd_ref -2 -8 0 10
-262144 -1 -1 9300 1;
#X obj 208 39 hsl 128 15 -99 18 0 0 empty empty 1st_ref -2 -8 0 10
-262144 -1 -1 7900 1;
#X obj 685 220 / 127;
#X floatatom 708 323 5 0 0 0 - - -;
#X obj 687 247 * 2;
#X obj 690 283 - 1;
#X obj 686 184 ctlin 18;
#X connect 0 0 4 0;
#X connect 1 0 4 1;
#X connect 4 0 2 0;
#X connect 4 1 3 0;
#X connect 5 0 6 0;
#X connect 6 0 4 7;
#X connect 7 0 8 0;
#X connect 8 0 4 8;
#X connect 9 0 10 0;
#X connect 10 0 4 6;
#X connect 11 0 12 0;
#X connect 12 0 4 5;
#X connect 13 0 4 4;
#X connect 14 0 4 3;
#X connect 15 0 4 2;
#X connect 16 0 18 0;
#X connect 18 0 19 0;
#X connect 19 0 17 0;
#X connect 19 0 7 0;
#X connect 20 0 16 0;
#X restore 240 365 pd 303verb;
#X obj 27 201 ctlin 2;
#X obj 26 229 / 128;
#X connect 0 0 2 0;
#X connect 0 0 10 0;
#X connect 0 0 10 1;
#X connect 2 0 1 0;
#X connect 3 0 0 0;
#X connect 4 0 0 1;
#X connect 4 0 8 0;
#X connect 7 0 3 0;
#X connect 7 0 0 0;
#X connect 9 0 4 0;
#X connect 10 0 5 0;
#X connect 10 1 6 0;
#X connect 11 0 12 0;
#X connect 12 0 4 0;
#X restore 40 299 pd 303return;
#X obj 122 250 adc~ 1;
#X obj 137 91 ii;
#X obj 37 259 adc~ 2;
#X msg 176 60 0;
#X obj 958 140 ctlin;
#X floatatom 939 186 5 0 0 0 - - -;
#X floatatom 1008 191 5 0 0 0 - - -;
#X floatatom 1066 189 5 0 0 0 - - -;
#X obj 129 11 ctlin 42;
#X obj 141 36 sel 127;
#X obj 231 13 ctlin 41;
#X msg 241 45 1;
#X obj 121 155 nbx 5 14 -1e+37 1e+37 0 0 empty empty empty 0 -8 0 10
-262144 -1 -1 44 256;
#X obj 490 471 ctlin 7;
#X obj 488 503 / 127;
#X obj 480 532 * 100;
#X floatatom 448 594 5 0 0 0 - - -;
#X obj 813 259 realtime;
#X obj 812 291 / 1000;
#X obj 830 326 / 60;
#X obj 782 325 mod 60;
#X obj 787 473 pack;
#X floatatom 839 400 5 0 0 0 - - -;
#X floatatom 797 399 5 0 0 0 - - -;
#X obj 794 185 bng 15 250 50 0 empty empty empty 17 7 0 10 -262144
-1 -1;
#X obj 834 353 int;
#X obj 837 216 metro 1000;
#X text 830 399 :;
#X obj 371 93 stopwatch;
#X connect 1 0 10 0;
#X connect 1 0 19 0;
#X connect 1 0 52 0;
#X connect 2 0 3 2;
#X connect 2 0 40 0;
#X connect 3 0 0 0;
#X connect 3 0 17 0;
#X connect 3 1 0 1;
#X connect 3 1 7 0;
#X connect 3 1 17 1;
#X connect 5 0 12 0;
#X connect 5 2 13 0;
#X connect 5 3 14 0;
#X connect 7 0 6 0;
#X connect 8 0 5 0;
#X connect 9 0 8 0;
#X connect 9 1 4 0;
#X connect 10 0 11 0;
#X connect 12 0 3 0;
#X connect 12 1 3 1;
#X connect 13 0 3 0;
#X connect 13 1 3 1;
#X connect 14 0 3 0;
#X connect 14 1 3 1;
#X connect 16 0 3 0;
#X connect 16 1 3 1;
#X connect 18 0 36 0;
#X connect 19 0 9 0;
#X connect 19 0 21 0;
#X connect 21 2 20 0;
#X connect 23 0 3 0;
#X connect 23 1 3 1;
#X connect 24 0 16 0;
#X connect 25 0 18 0;
#X connect 26 0 23 0;
#X connect 27 0 1 0;
#X connect 27 0 10 0;
#X connect 28 0 29 0;
#X connect 28 1 30 0;
#X connect 28 2 31 0;
#X connect 32 0 33 0;
#X connect 33 0 27 0;
#X connect 34 0 35 0;
#X connect 35 0 1 0;
#X connect 36 0 8 0;
#X connect 37 0 38 0;
#X connect 38 0 39 0;
#X connect 39 0 2 0;
#X connect 41 0 42 0;
#X connect 42 0 43 0;
#X connect 42 0 44 0;
#X connect 43 0 49 0;
#X connect 44 0 46 0;
#X connect 48 0 50 0;
#X connect 48 0 41 0;
#X connect 49 0 47 0;
#X connect 50 0 41 1;
