#N canvas 83 22 1155 719 12;
#X obj 458 600 output~;
#X obj 455 562 hip~ 1;
#N canvas 143 298 450 300 envelope 0;
#X obj 33 161 adenv~;
#X obj 58 250 outlet~;
#X obj 90 28 inlet;
#X obj 148 27 inlet;
#X obj 201 28 inlet;
#X obj 105 150 knob 32 32 0.01 1 1 0 empty empty cv_scale 0 -8 1 10
-262144 -1 -1 3100 1;
#X obj 151 150 knob 32 32 0.01 1 1 0 empty empty cv_scale 0 -8 1 10
-262144 -1 -1 3100 1;
#X obj 143 61 * 5000;
#X obj 202 61 * 5000;
#X obj 203 240 *;
#X obj 254 240 *;
#X obj 105 203 hsl 90 15 0.01 1 1 1 empty empty level -2 -8 1 10 -262144
-1 -1 7000 1;
#X obj 42 214 *~;
#X obj 256 117 ii;
#X msg 254 161 1;
#X obj 153 117 nbx 4 14 0.1 10000 1 0 empty empty decay 0 -8 1 10 -262144
-1 -1 2154.14 256;
#X obj 106 117 nbx 4 14 0.1 10000 1 0 empty empty attack 0 -8 1 10
-262144 -1 -1 2847.92 256;
#X connect 0 0 12 0;
#X connect 2 0 0 0;
#X connect 3 0 7 0;
#X connect 4 0 8 0;
#X connect 5 0 9 1;
#X connect 6 0 10 1;
#X connect 7 0 9 0;
#X connect 8 0 10 0;
#X connect 9 0 16 0;
#X connect 10 0 15 0;
#X connect 11 0 12 1;
#X connect 12 0 1 0;
#X connect 13 0 14 0;
#X connect 14 0 11 0;
#X connect 15 0 0 2;
#X connect 16 0 0 1;
#X coords 0 -1 1 1 100 120 2 100 100;
#X restore 124 148 pd envelope;
#N canvas 280 43 770 633 verb 0;
#X obj 42 216 inlet~;
#X obj 120 212 inlet~;
#X obj 110 535 outlet~;
#X obj 195 535 outlet~;
#X obj 178 434 zrev1~ 10 10 10;
#X obj 484 269 hsl 128 15 0 100 0 1 empty empty reverb_time -2 -8 0
10 -262144 -1 -1 11600 1;
#X floatatom 497 340 5 0 0 0 - - -;
#X obj 534 385 hsl 128 15 -1 1 0 1 empty empty mix -2 -8 0 10 -262144
-1 -1 6700 1;
#X floatatom 526 421 5 0 0 0 - - -;
#X obj 457 225 hsl 128 15 0 200 0 1 empty empty room_size -2 -8 0 10
-262144 -1 -1 12000 1;
#X floatatom 418 267 5 0 0 0 - - -;
#X obj 391 181 hsl 128 15 200 20000 1 1 empty empty lpf_cutoff -2 -8
0 10 -262144 -1 -1 11000 1;
#X floatatom 380 229 5 0 0 0 - - -;
#X obj 365 135 hsl 128 15 -99 18 0 1 empty empty recycle -2 -8 0 10
-262144 -1 -1 9200 1;
#X obj 306 95 hsl 128 15 -99 18 0 1 empty empty 2nd_reflection_(db)
-2 -8 0 10 -262144 -1 -1 5800 1;
#X obj 228 59 hsl 128 15 -99 18 0 1 empty empty 1st_reflection_(db)
-2 -8 0 10 -262144 -1 -1 9700 1;
#X connect 0 0 4 0;
#X connect 1 0 4 1;
#X connect 4 0 2 0;
#X connect 4 0 3 0;
#X connect 4 2 3 0;
#X connect 4 3 2 0;
#X connect 5 0 6 0;
#X connect 6 0 4 7;
#X connect 7 0 8 0;
#X connect 8 0 4 8;
#X connect 9 0 10 0;
#X connect 10 0 4 6;
#X connect 11 0 12 0;
#X connect 12 0 4 5;
#X connect 13 0 4 4;
#X connect 14 0 4 3;
#X connect 15 0 4 2;
#X restore 472 524 pd verb;
#X obj 514 562 hip~ 1;
#N canvas 74 105 840 601 waveguide 0;
#N canvas 89 59 858 658 bbd 0;
#X obj 441 353 *~ 0;
#X obj 533 204 vsl 15 128 0.01 1 1 0 empty empty empty 0 -9 0 10 -262144
-1 -1 0 1;
#X obj 375 210 line~;
#X floatatom 514 438 5 0 0 0 - - -;
#X obj 125 37 inlet~;
#X obj 242 748 outlet~;
#X obj 377 148 nbx 5 14 -1e+37 1e+37 0 0 empty empty empty 0 -8 0 10
-262144 -1 -1 3.10657 256;
#X floatatom 470 431 5 0 0 0 - - -;
#X obj 431 544 s~ \$0-fdbk;
#X obj 186 64 r~ \$0-fdbk;
#X obj 496 357 expr (1 - $f1);
#X obj 376 36 inlet;
#X obj 133 94 delwrite~ \$0-b1 500;
#X obj 235 131 vd~ \$0-b1;
#X obj 137 163 delwrite~ \$0-b2 500;
#X obj 237 189 vd~ \$0-b2;
#X obj 240 712 vd~ \$0-b10;
#X obj 141 674 delwrite~ \$0-b10 500;
#X obj 137 221 delwrite~ \$0-b3 500;
#X obj 238 252 vd~ \$0-b3;
#X obj 138 284 delwrite~ \$0-b4 500;
#X obj 242 314 vd~ \$0-b4;
#X obj 142 347 delwrite~ \$0-b5 500;
#X obj 241 385 vd~ \$0-b5;
#X obj 132 421 delwrite~ \$0-b6 500;
#X obj 234 458 vd~ \$0-b6;
#X obj 136 490 delwrite~ \$0-b7 500;
#X obj 236 516 vd~ \$0-b7;
#X obj 136 548 delwrite~ \$0-b8 500;
#X obj 237 579 vd~ \$0-b8;
#X obj 137 611 delwrite~ \$0-b9 500;
#X obj 241 641 vd~ \$0-b9;
#X obj 518 32 inlet;
#X obj 518 69 * 20000;
#X obj 601 56 inlet;
#X text 601 16 feedback;
#X text 516 15 decay;
#X text 126 19 input;
#X text 375 17 freq;
#X floatatom 623 100 5 0 0 0 - - -;
#X obj 609 489 lp2~;
#X obj 433 477 lop~;
#X obj 375 181 pack 0 100;
#X connect 0 0 41 0;
#X connect 1 0 7 0;
#X connect 1 0 10 0;
#X connect 2 0 13 0;
#X connect 2 0 15 0;
#X connect 2 0 16 0;
#X connect 2 0 19 0;
#X connect 2 0 21 0;
#X connect 2 0 23 0;
#X connect 2 0 25 0;
#X connect 2 0 27 0;
#X connect 2 0 29 0;
#X connect 2 0 31 0;
#X connect 3 0 41 1;
#X connect 4 0 12 0;
#X connect 6 0 42 0;
#X connect 9 0 12 0;
#X connect 10 0 0 1;
#X connect 11 0 6 0;
#X connect 13 0 14 0;
#X connect 15 0 18 0;
#X connect 16 0 0 0;
#X connect 16 0 5 0;
#X connect 19 0 20 0;
#X connect 21 0 22 0;
#X connect 23 0 24 0;
#X connect 25 0 26 0;
#X connect 27 0 28 0;
#X connect 29 0 30 0;
#X connect 31 0 17 0;
#X connect 32 0 33 0;
#X connect 33 0 3 0;
#X connect 34 0 39 0;
#X connect 34 0 0 1;
#X connect 41 0 8 0;
#X connect 42 0 2 0;
#X restore 145 231 pd bbd;
#X obj 90 51 inlet~;
#X obj 149 558 outlet~;
#X obj 162 124 expr 1000 / $f1;
#X obj 609 313 hsl 128 15 1 0.01 1 0 empty empty feedback -2 -8 1 10
-262144 -1 -1 3953 1;
#X obj 609 281 hsl 128 15 0.01 1 1 0 empty empty decay -2 -8 1 10 -262144
-1 -1 3521 1;
#X obj 328 241 expr 1 - $f1;
#X obj 201 51 inlet;
#X obj 147 294 hip~ 1;
#X obj 328 291 line;
#X obj 327 265 pack 0 50;
#X obj 150 330 lop~ 10000;
#X floatatom 208 303 5 0 0 0 - - -;
#X obj 609 344 hsl 128 15 0 20000 0 1 empty empty lowpass -2 -8 1 10
-262144 -1 -1 8000 1;
#X obj 113 162 overdrive~;
#X obj 609 249 hsl 128 15 0.01 1 1 0 empty empty drive -2 -8 1 10 -262144
-1 -1 988 1;
#X obj 322 182 pack 0 50;
#X obj 319 206 line;
#X obj 177 437 *~ 1;
#X obj 606 218 nbx 5 14 1 2000 1 0 empty empty delay_ms 0 -8 1 10 -262144
-1 -1 1 256;
#X obj 669 218 nbx 5 14 0 20000 0 1 empty empty delay_hz 0 -8 1 10
-262144 -1 -1 321.898 256;
#X obj 610 375 hsl 128 15 0 1 0 1 empty empty dry/wet_mix -2 -8 1 10
-262144 -1 -1 7800 1;
#X obj 140 514 crossfade~;
#X text 93 27 input;
#X text 194 28 delay hz;
#X text 276 28 drive cv;
#X obj 285 51 inlet;
#X obj 395 190 * 11;
#X obj 392 214 + 1;
#X obj 346 52 inlet;
#X text 338 28 decay cv;
#X text 405 30 feedback cv;
#X obj 423 56 inlet;
#X connect 0 0 8 0;
#X connect 1 0 14 0;
#X connect 1 0 22 0;
#X connect 3 0 0 1;
#X connect 4 0 6 0;
#X connect 5 0 0 2;
#X connect 6 0 10 0;
#X connect 7 0 20 0;
#X connect 8 0 11 0;
#X connect 9 0 0 3;
#X connect 10 0 9 0;
#X connect 11 0 18 0;
#X connect 12 0 11 1;
#X connect 13 0 11 1;
#X connect 14 0 0 0;
#X connect 15 0 27 0;
#X connect 16 0 17 0;
#X connect 17 0 14 1;
#X connect 18 0 22 1;
#X connect 19 0 0 1;
#X connect 20 0 3 0;
#X connect 21 0 22 2;
#X connect 22 0 2 0;
#X connect 26 0 15 0;
#X connect 27 0 28 0;
#X connect 28 0 16 0;
#X connect 29 0 5 0;
#X connect 32 0 4 0;
#X coords 0 -1 1 1 150 195 2 600 200;
#X restore 728 450 pd waveguide;
#X obj 479 437 eq~;
#X floatatom 520 273 5 0 0 0 - - -;
#X obj 304 618 recorder~;
#X obj 471 581 vols~;
#X obj 391 520 vu~;
#X obj 577 520 vsl 15 128 0 127 0 0 empty empty empty 0 -9 0 10 -262144
-1 -1 8300 1;
#X floatatom 611 429 5 0 0 0 - - -;
#X obj 126 320 sigtof~;
#X obj 126 345 s \$0-env;
#X obj 352 25 cvscale;
#X obj 619 198 complexosc~;
#X obj 234 53 tgl 15 0 empty empty empty 17 7 0 10 -262144 -1 -1 0
1;
#X obj 230 112 metro 285;
#X obj 489 311 lpg~ 10000;
#X obj 599 56 cvscale;
#X obj 606 149 * 2000;
#X obj 677 53 cvscale;
#X obj 740 54 cvscale;
#X obj 816 60 cvscale;
#X obj 101 21 cvscale;
#X obj 334 108 * 5000;
#X obj 498 147 cvscale;
#X obj 392 392 lpg~ 10000;
#X obj 367 268 cvscale;
#X obj 512 225 * 7500;
#X obj 377 337 * 7500;
#X floatatom 513 62 5 0 0 0 - - -;
#X obj 477 5 208random;
#X obj 787 353 cvscale;
#X obj 859 356 cvscale;
#X obj 447 84 208random;
#X floatatom 345 140 5 0 0 0 - - -;
#X obj 934 353 cvscale;
#X obj 878 49 frv;
#X obj 419 211 208random;
#X obj 719 398 * 1000;
#X obj 666 327 cvscale;
#X obj 172 27 cvscale;
#X obj 678 144 * 3000;
#N canvas 376 22 621 692 reson-bank 0;
#X obj 46 24 reson1;
#X obj 46 44 reson1;
#X obj 46 64 reson1;
#X obj 46 84 reson1;
#X obj 46 104 reson1;
#X obj 46 124 reson1;
#X obj 46 144 reson1;
#X obj 46 164 reson1;
#X obj 46 184 reson1;
#X obj 46 204 reson1;
#X obj 102 24 reson1;
#X obj 102 44 reson1;
#X obj 102 64 reson1;
#X obj 102 84 reson1;
#X obj 102 104 reson1;
#X obj 102 124 reson1;
#X obj 102 144 reson1;
#X obj 102 164 reson1;
#X obj 102 184 reson1;
#X obj 102 204 reson1;
#X obj 157 24 reson1;
#X obj 157 44 reson1;
#X obj 157 64 reson1;
#X obj 157 84 reson1;
#X obj 157 104 reson1;
#X obj 157 124 reson1;
#X obj 157 144 reson1;
#X obj 157 164 reson1;
#X obj 157 184 reson1;
#X obj 157 204 reson1;
#X obj 213 24 reson1;
#X obj 213 44 reson1;
#X obj 213 64 reson1;
#X obj 213 84 reson1;
#X obj 213 104 reson1;
#X obj 213 124 reson1;
#X obj 213 144 reson1;
#X obj 213 164 reson1;
#X obj 213 184 reson1;
#X obj 213 204 reson1;
#X obj 265 23 reson1;
#X obj 265 43 reson1;
#X obj 265 63 reson1;
#X obj 265 83 reson1;
#X obj 265 103 reson1;
#X obj 265 123 reson1;
#X obj 265 143 reson1;
#X obj 265 163 reson1;
#X obj 265 183 reson1;
#X obj 265 203 reson1;
#X obj 316 24 reson1;
#X obj 316 44 reson1;
#X obj 316 64 reson1;
#X obj 316 84 reson1;
#X obj 316 104 reson1;
#X obj 316 124 reson1;
#X obj 316 144 reson1;
#X obj 316 164 reson1;
#X obj 316 184 reson1;
#X obj 316 204 reson1;
#X obj 372 24 reson1;
#X obj 372 44 reson1;
#X obj 372 64 reson1;
#X obj 372 84 reson1;
#X obj 372 104 reson1;
#X obj 372 124 reson1;
#X obj 372 144 reson1;
#X obj 372 164 reson1;
#X obj 372 184 reson1;
#X obj 372 204 reson1;
#X obj 427 24 reson1;
#X obj 427 44 reson1;
#X obj 427 64 reson1;
#X obj 427 84 reson1;
#X obj 427 104 reson1;
#X obj 427 124 reson1;
#X obj 427 144 reson1;
#X obj 427 164 reson1;
#X obj 427 184 reson1;
#X obj 427 204 reson1;
#X obj 483 24 reson1;
#X obj 483 44 reson1;
#X obj 483 64 reson1;
#X obj 483 84 reson1;
#X obj 483 104 reson1;
#X obj 483 124 reson1;
#X obj 483 144 reson1;
#X obj 483 164 reson1;
#X obj 483 184 reson1;
#X obj 483 204 reson1;
#X obj 535 23 reson1;
#X obj 535 43 reson1;
#X obj 535 63 reson1;
#X obj 535 83 reson1;
#X obj 535 103 reson1;
#X obj 535 123 reson1;
#X obj 535 143 reson1;
#X obj 535 163 reson1;
#X obj 535 183 reson1;
#X obj 535 203 reson1;
#X obj 46 241 reson1;
#X obj 46 261 reson1;
#X obj 46 281 reson1;
#X obj 46 301 reson1;
#X obj 46 321 reson1;
#X obj 46 341 reson1;
#X obj 46 361 reson1;
#X obj 46 381 reson1;
#X obj 46 401 reson1;
#X obj 46 421 reson1;
#X obj 102 241 reson1;
#X obj 102 261 reson1;
#X obj 102 281 reson1;
#X obj 102 301 reson1;
#X obj 102 321 reson1;
#X obj 102 341 reson1;
#X obj 102 361 reson1;
#X obj 102 381 reson1;
#X obj 102 401 reson1;
#X obj 102 421 reson1;
#X obj 157 241 reson1;
#X obj 157 261 reson1;
#X obj 157 281 reson1;
#X obj 157 301 reson1;
#X obj 157 321 reson1;
#X obj 157 341 reson1;
#X obj 157 361 reson1;
#X obj 157 381 reson1;
#X obj 157 401 reson1;
#X obj 157 421 reson1;
#X obj 213 241 reson1;
#X obj 213 261 reson1;
#X obj 213 281 reson1;
#X obj 213 301 reson1;
#X obj 213 321 reson1;
#X obj 213 341 reson1;
#X obj 213 361 reson1;
#X obj 213 381 reson1;
#X obj 213 401 reson1;
#X obj 213 421 reson1;
#X obj 265 240 reson1;
#X obj 265 260 reson1;
#X obj 265 280 reson1;
#X obj 265 300 reson1;
#X obj 265 320 reson1;
#X obj 265 340 reson1;
#X obj 265 360 reson1;
#X obj 265 380 reson1;
#X obj 265 400 reson1;
#X obj 265 420 reson1;
#X obj 316 241 reson1;
#X obj 316 261 reson1;
#X obj 316 281 reson1;
#X obj 316 301 reson1;
#X obj 316 321 reson1;
#X obj 316 341 reson1;
#X obj 316 361 reson1;
#X obj 316 381 reson1;
#X obj 316 401 reson1;
#X obj 316 421 reson1;
#X obj 372 241 reson1;
#X obj 372 261 reson1;
#X obj 372 281 reson1;
#X obj 372 301 reson1;
#X obj 372 321 reson1;
#X obj 372 341 reson1;
#X obj 372 361 reson1;
#X obj 372 381 reson1;
#X obj 372 401 reson1;
#X obj 372 421 reson1;
#X obj 427 241 reson1;
#X obj 427 261 reson1;
#X obj 427 281 reson1;
#X obj 427 301 reson1;
#X obj 427 321 reson1;
#X obj 427 341 reson1;
#X obj 427 361 reson1;
#X obj 427 381 reson1;
#X obj 427 401 reson1;
#X obj 427 421 reson1;
#X obj 483 241 reson1;
#X obj 483 261 reson1;
#X obj 483 281 reson1;
#X obj 483 301 reson1;
#X obj 483 321 reson1;
#X obj 483 341 reson1;
#X obj 483 361 reson1;
#X obj 483 381 reson1;
#X obj 483 401 reson1;
#X obj 483 421 reson1;
#X obj 535 240 reson1;
#X obj 535 260 reson1;
#X obj 535 280 reson1;
#X obj 535 300 reson1;
#X obj 535 320 reson1;
#X obj 535 340 reson1;
#X obj 535 360 reson1;
#X obj 535 380 reson1;
#X obj 535 400 reson1;
#X obj 535 420 reson1;
#X obj 49 452 reson1;
#X obj 49 472 reson1;
#X obj 49 492 reson1;
#X obj 49 512 reson1;
#X obj 49 532 reson1;
#X obj 49 552 reson1;
#X obj 49 572 reson1;
#X obj 49 592 reson1;
#X obj 49 612 reson1;
#X obj 49 632 reson1;
#X obj 105 452 reson1;
#X obj 105 472 reson1;
#X obj 105 492 reson1;
#X obj 105 512 reson1;
#X obj 105 532 reson1;
#X obj 105 552 reson1;
#X obj 105 572 reson1;
#X obj 105 592 reson1;
#X obj 105 612 reson1;
#X obj 105 632 reson1;
#X obj 160 452 reson1;
#X obj 160 472 reson1;
#X obj 160 492 reson1;
#X obj 160 512 reson1;
#X obj 160 532 reson1;
#X obj 160 552 reson1;
#X obj 160 572 reson1;
#X obj 160 592 reson1;
#X obj 160 612 reson1;
#X obj 160 632 reson1;
#X obj 216 452 reson1;
#X obj 216 472 reson1;
#X obj 216 492 reson1;
#X obj 216 512 reson1;
#X obj 216 532 reson1;
#X obj 216 552 reson1;
#X obj 216 572 reson1;
#X obj 216 592 reson1;
#X obj 216 612 reson1;
#X obj 216 632 reson1;
#X obj 268 451 reson1;
#X obj 268 471 reson1;
#X obj 268 491 reson1;
#X obj 268 511 reson1;
#X obj 268 531 reson1;
#X obj 268 551 reson1;
#X obj 268 571 reson1;
#X obj 268 591 reson1;
#X obj 268 611 reson1;
#X obj 268 631 reson1;
#X obj 319 452 reson1;
#X obj 319 472 reson1;
#X obj 319 492 reson1;
#X obj 319 512 reson1;
#X obj 319 532 reson1;
#X obj 319 552 reson1;
#X obj 319 572 reson1;
#X obj 319 592 reson1;
#X obj 319 612 reson1;
#X obj 319 632 reson1;
#X obj 375 452 reson1;
#X obj 375 472 reson1;
#X obj 375 492 reson1;
#X obj 375 512 reson1;
#X obj 375 532 reson1;
#X obj 375 552 reson1;
#X obj 375 572 reson1;
#X obj 375 592 reson1;
#X obj 375 612 reson1;
#X obj 375 632 reson1;
#X obj 430 452 reson1;
#X obj 430 472 reson1;
#X obj 430 492 reson1;
#X obj 430 512 reson1;
#X obj 430 532 reson1;
#X obj 430 552 reson1;
#X obj 430 572 reson1;
#X obj 430 592 reson1;
#X obj 430 612 reson1;
#X obj 430 632 reson1;
#X obj 486 452 reson1;
#X obj 486 472 reson1;
#X obj 486 492 reson1;
#X obj 486 512 reson1;
#X obj 486 532 reson1;
#X obj 486 552 reson1;
#X obj 486 572 reson1;
#X obj 486 592 reson1;
#X obj 486 612 reson1;
#X obj 486 632 reson1;
#X obj 538 451 reson1;
#X obj 538 471 reson1;
#X obj 538 491 reson1;
#X obj 538 511 reson1;
#X obj 538 531 reson1;
#X obj 538 551 reson1;
#X obj 538 571 reson1;
#X obj 538 591 reson1;
#X obj 538 611 reson1;
#X obj 538 631 reson1;
#X restore 32 502 pd reson-bank;
#N canvas 423 74 499 530 stuff 0;
#X obj 251 170 setctl base-freq;
#X obj 253 197 setctl freq-spread;
#X obj 253 217 setctl freq-random;
#X obj 253 245 setctl decay;
#X obj 249 267 setctl decay-random;
#X obj 94 360 t b f;
#X obj 52 301 r base-freq;
#X obj 73 400 pack 0 0 0 0 0;
#X obj 226 303 r freq-spread;
#X obj 137 303 r freq-random;
#X obj 140 361 t b f;
#X obj 184 363 t b f;
#X obj 231 364 t b f;
#X obj 315 302 r decay;
#X obj 371 303 r decay-random;
#X obj 75 423 t l b;
#X obj 75 443 s params;
#X obj 158 430 0;
#X obj 158 450 v count;
#X obj 68 482 print params;
#X connect 5 0 7 0;
#X connect 5 1 7 1;
#X connect 6 0 7 0;
#X connect 7 0 15 0;
#X connect 8 0 10 0;
#X connect 9 0 5 0;
#X connect 10 0 7 0;
#X connect 10 1 7 2;
#X connect 11 0 7 0;
#X connect 11 1 7 3;
#X connect 12 0 7 0;
#X connect 12 1 7 4;
#X connect 13 0 11 0;
#X connect 14 0 12 0;
#X connect 15 0 16 0;
#X connect 15 0 19 0;
#X connect 15 1 17 0;
#X connect 17 0 18 0;
#X restore 37 527 pd stuff;
#X floatatom 90 559 5 0 0 0 base-freq base-freq-set base-freq;
#X floatatom 90 578 5 0 0 0 freq-spread freq-spread-set freq-spread
;
#X floatatom 91 594 5 0 0 0 freq-random freq-random-set freq-random
;
#X floatatom 91 616 5 0 9999 0 decay decay-set decay;
#X floatatom 93 635 5 0 9999 0 decay-random decay-random-set decay-random
;
#X obj 616 692 s~ spring-in;
#X obj 227 449 catch~ spring-out;
#X obj 651 623 *~;
#X floatatom 665 534 5 0 1 0 - - -;
#X floatatom 563 674 5 0 0 0 - - -;
#X obj 240 494 crossfade~;
#X obj 336 477 hsl 128 15 0 1 0 0 empty empty empty -2 -8 0 10 -262144
-1 -1 8800 1;
#X obj 508 411 clip~ -3 3;
#X obj 228 543 hip~ 1;
#X obj 534 384 *~ 0.2;
#X connect 1 0 9 0;
#X connect 2 0 13 0;
#X connect 2 0 19 2;
#X connect 2 0 28 2;
#X connect 3 0 1 0;
#X connect 3 1 4 0;
#X connect 4 0 9 1;
#X connect 5 0 54 0;
#X connect 5 0 57 1;
#X connect 6 0 3 0;
#X connect 6 0 3 1;
#X connect 7 0 19 1;
#X connect 9 0 0 0;
#X connect 9 0 10 0;
#X connect 9 0 8 0;
#X connect 9 1 0 1;
#X connect 9 1 8 1;
#X connect 11 0 9 2;
#X connect 11 0 56 0;
#X connect 12 0 61 1;
#X connect 13 0 14 0;
#X connect 15 0 26 0;
#X connect 16 0 19 0;
#X connect 16 1 28 0;
#X connect 16 1 19 0;
#X connect 17 0 18 0;
#X connect 18 0 2 0;
#X connect 18 0 33 0;
#X connect 18 0 36 0;
#X connect 18 0 40 0;
#X connect 19 0 5 0;
#X connect 20 0 21 0;
#X connect 21 0 16 0;
#X connect 22 0 44 0;
#X connect 23 0 16 2;
#X connect 24 0 16 3;
#X connect 25 0 2 1;
#X connect 26 0 18 1;
#X connect 26 0 37 0;
#X connect 27 0 30 0;
#X connect 28 0 5 0;
#X connect 29 0 31 0;
#X connect 30 0 7 0;
#X connect 31 0 28 1;
#X connect 33 0 27 0;
#X connect 33 1 25 0;
#X connect 33 1 32 0;
#X connect 33 2 20 0;
#X connect 33 2 23 0;
#X connect 33 3 22 0;
#X connect 33 3 24 0;
#X connect 34 0 5 2;
#X connect 35 0 5 3;
#X connect 36 0 16 4;
#X connect 36 1 38 0;
#X connect 36 2 34 0;
#X connect 36 3 35 0;
#X connect 38 0 5 4;
#X connect 39 1 15 0;
#X connect 40 0 29 0;
#X connect 40 1 43 0;
#X connect 40 3 42 0;
#X connect 41 0 5 1;
#X connect 42 0 41 0;
#X connect 43 0 2 2;
#X connect 44 0 16 1;
#X connect 53 0 57 0;
#X connect 54 0 52 0;
#X connect 55 0 54 1;
#X connect 57 0 60 0;
#X connect 58 0 57 2;
#X connect 59 0 6 0;
#X connect 60 0 61 0;
#X connect 61 0 59 0;
