#N canvas 149 120 1350 949 10;
#X obj 115 91 tgl 15 0 empty empty empty 17 7 0 10 -262144 -1 -1 1
1;
#X obj 39 281 *~;
#X obj 115 111 metro 500;
#X floatatom 173 75 5 0 0 0 - - -;
#X obj 54 128 pink~;
#X obj 105 173 adenv~ 10 100;
#X floatatom 92 52 5 0 0 0 - - -;
#X obj 245 76 mtof;
#X obj 244 54 + 50;
#X obj 244 15 random 50;
#X floatatom 204 134 5 0 0 0 - - -;
#X obj 35 327 s~ \$0-testsig;
#X obj 37 79 phasor~ 440;
#X obj 143 198 *~ 15000;
#X floatatom 216 171 5 0 0 0 - - -;
#X floatatom 149 134 5 0 0 0 - - -;
#X obj 41 228 svf~ 200 0.8;
#X obj 233 229 hsl 128 15 200 20000 1 1 empty empty empty -2 -8 0 10
-262144 -1 -1 4700 1;
#X floatatom 330 3 5 0 0 0 - - -;
#X floatatom 292 38 5 0 0 0 - - -;
#N canvas 0 22 450 278 (subpatch) 0;
#X array \$0-buffer 705600 float 0;
#X coords 0 1 705599 -1 200 140 1 0 0;
#X restore 1108 783 graph;
#X obj 390 359 r~ \$0-testsig;
#X obj 1226 10 xsample;
#X obj 408 420 xrecord~ \$0-buffer;
#X obj 425 486 snapshot~;
#X obj 528 392 r \$0-bufferend;
#X obj 853 598 xgroove~ \$0-buffer;
#X obj 721 891 dac~;
#X obj 848 776 gain~;
#X obj 594 739 r~ \$0-testsig;
#X obj 593 776 gain~;
#X obj 40 105 osc~;
#X floatatom 377 548 6 0 0 0 - - -;
#X obj 965 563 r \$0-bufferend;
#X msg 961 505 loop 1;
#X obj 809 404 tgl 15 0 empty empty empty 17 7 0 10 -262144 -1 -1 0
1;
#X obj 817 435 sel 1;
#X msg 870 521 stop;
#X obj 963 455 loadbang;
#X obj 802 516 bng 15 250 50 0 empty empty empty 17 7 0 10 -262144
-1 -1;
#X obj 952 654 bng 15 250 50 0 empty empty empty 17 7 0 10 -262144
-1 -1;
#X msg 972 478 1;
#X obj 806 478 t b b;
#X obj 424 512 s \$0-bufferend;
#X obj 1245 268 dsp 1;
#X floatatom 1248 318 5 0 0 0 - - -;
#X obj 814 366 r \$0-playctl;
#X obj 519 448 bng 15 250 50 0 empty empty empty 17 7 0 10 -262144
-1 -1;
#X msg 524 538 1;
#X obj 528 472 t b b b;
#X msg 912 480 -1;
#X obj 550 515 s \$0-autostop;
#X obj 412 388 r \$0-bufferctl;
#X obj 429 458 r \$0-buffsnap;
#X obj 526 572 s \$0-playctl;
#X obj 852 628 s~ \$0-playback;
#X obj 847 733 r~ \$0-playback;
#X floatatom 985 597 8 0 0 0 - - -;
#X obj 982 646 s \$0-loopstop;
#X msg 829 518 pos 0;
#N canvas 832 496 580 436 midifeedback 1;
#X obj 82 285 ctlout 45 2;
#X msg 111 230 0;
#X obj 84 190 sel 1;
#X obj 84 150 r \$0-recled;
#X msg 167 232 127;
#X msg 209 233 0;
#X obj 182 193 sel 1;
#X obj 182 153 r \$0-playled;
#X obj 180 288 ctlout 41 2;
#X msg 69 229 127;
#X floatatom 45 174 5 0 0 0 - - -;
#X obj 297 154 r \$0-recflash;
#X msg 296 189 127;
#X obj 295 289 ctlout 45 2;
#X msg 315 243 0;
#X msg 178 363 0;
#X obj 314 215 delay 7;
#X obj 178 334 loadbang;
#X connect 1 0 0 0;
#X connect 2 0 9 0;
#X connect 2 1 1 0;
#X connect 3 0 2 0;
#X connect 3 0 10 0;
#X connect 4 0 8 0;
#X connect 5 0 8 0;
#X connect 6 0 4 0;
#X connect 6 1 5 0;
#X connect 7 0 6 0;
#X connect 9 0 0 0;
#X connect 11 0 12 0;
#X connect 12 0 13 0;
#X connect 12 0 16 0;
#X connect 14 0 13 0;
#X connect 15 0 13 0;
#X connect 15 0 8 0;
#X connect 15 0 0 0;
#X connect 16 0 14 0;
#X connect 17 0 15 0;
#X restore 779 121 pd midifeedback;
#X obj 714 441 s \$0-playled;
#X floatatom 847 391 5 0 0 0 - - -;
#N canvas 28 403 780 514 midicontrol 0;
#X obj 51 36 ctlin 41 2;
#X obj 52 74 sel 127;
#X obj 14 104 bng 15 250 50 0 empty empty empty 17 7 0 10 -262144 -1
-1;
#X obj 38 197 s \$0-playbutton;
#X obj 182 71 sel 127;
#X obj 144 111 bng 15 250 50 0 empty empty empty 17 7 0 10 -262144
-1 -1;
#X obj 168 264 s \$0-recbutton;
#X obj 181 43 ctlin 45 2;
#X obj 315 83 sel 127;
#X msg 308 122 1;
#X obj 287 128 bng 15 250 50 0 empty empty empty 17 7 0 10 -262144
-1 -1;
#X obj 314 45 ctlin 42 2;
#X obj 308 162 s \$0-stopbutton;
#X floatatom 132 63 5 0 0 0 - - -;
#X obj 441 88 sel 127;
#X msg 434 127 1;
#X obj 403 118 bng 15 250 50 0 empty empty empty 17 7 0 10 -262144
-1 -1;
#X obj 440 50 ctlin 46 2;
#X obj 434 167 s \$0-clearbutton;
#X obj 27 236 bng 15 250 50 0 empty empty empty 17 7 0 10 -262144 -1
-1;
#X msg 426 334 1;
#X obj 409 307 t b b;
#X obj 405 359 spigot 1;
#X msg 390 333 0;
#X msg 458 314 1;
#X msg 43 124 1;
#X msg 172 120 1;
#X connect 0 0 1 0;
#X connect 1 0 2 0;
#X connect 1 0 25 0;
#X connect 4 0 5 0;
#X connect 4 0 26 0;
#X connect 7 0 4 0;
#X connect 7 0 13 0;
#X connect 8 0 9 0;
#X connect 8 0 10 0;
#X connect 9 0 12 0;
#X connect 11 0 8 0;
#X connect 14 0 15 0;
#X connect 14 0 16 0;
#X connect 15 0 18 0;
#X connect 17 0 14 0;
#X connect 20 0 22 0;
#X connect 21 0 23 0;
#X connect 21 1 20 0;
#X connect 23 0 22 1;
#X connect 24 0 22 1;
#X connect 25 0 3 0;
#X connect 26 0 6 0;
#X restore 782 64 pd midicontrol;
#N canvas 476 88 1248 750 loopercontrols 0;
#X msg 225 409 reset;
#X msg 270 409 stop;
#X msg 18 299 loop 1;
#X obj 18 273 loadbang;
#X obj 212 306 t b b b;
#X msg 182 465 1;
#X obj 182 488 s \$0-playctl;
#X obj 374 359 arraysize \$0-buffer;
#X obj 332 334 t b b b;
#X obj 371 384 s \$0-bufferend;
#X obj 84 292 t b b;
#X msg 333 298 autostop;
#X obj 332 268 r \$0-autostop;
#X obj 228 441 s \$0-bufferctl;
#X obj 80 377 s \$0-bufferctl;
#X obj 244 353 s \$0-buffsnap;
#X text 146 48 record controls;
#X obj 274 297 t b b;
#X obj 271 215 r \$0-loopstop;
#X obj 132 340 s \$0-recled;
#X msg 131 315 1;
#X msg 171 316 0;
#X obj 77 69 r \$0-recbutton;
#X obj 443 45 r \$0-stopbutton;
#X obj 444 77 sel 1;
#X msg 442 111 0;
#X obj 443 143 s \$0-playctl;
#X msg 741 145 const 0;
#X obj 742 172 s \$0-buffer;
#X obj 682 114 t b b;
#X msg 663 142 0;
#X obj 657 174 s \$0-playctl;
#X obj 681 85 bng 15 250 50 0 empty empty empty 17 7 0 10 -262144 -1
-1;
#X text 659 61 clear buffer;
#X obj 867 73 loadbang;
#X obj 864 135 s \$0-bufferctl;
#X text 873 46 overdub;
#X obj 621 39 r \$0-clearbutton;
#X obj 334 50 r \$0-playbutton;
#X msg 128 490 0;
#X obj 128 515 s \$0-canrec;
#X obj 1011 81 s \$0-playctl;
#X msg 1010 52 0;
#X obj 1009 30 loadbang;
#N canvas 669 222 450 300 reclogic 0;
#X obj 82 30 inlet;
#X obj 78 244 outlet;
#X obj 188 240 outlet;
#X obj 138 25 loadbang;
#X obj 83 121 sel rec play overdub;
#X msg 137 55 rec;
#X obj 78 153 t b b;
#X msg 102 180 play;
#X obj 114 208 s \$0-bmode;
#X obj 128 -1 r \$0-bmode;
#X obj 148 154 t b b;
#X msg 176 179 overdub;
#X obj 219 157 t b b;
#X msg 253 184 play;
#X text 77 266 rec;
#X text 187 259 play;
#X text 273 261 overdub;
#X obj 271 236 outlet;
#X obj 48 68 bng 15 250 50 0 empty empty empty 17 7 0 10 -262144 -1
-1;
#X obj 46 198 bng 15 250 50 0 empty empty empty 17 7 0 10 -262144 -1
-1;
#X obj 143 187 bng 15 250 50 0 empty empty empty 17 7 0 10 -262144
-1 -1;
#X obj 222 212 bng 15 250 50 0 empty empty empty 17 7 0 10 -262144
-1 -1;
#X obj 80 87 list;
#X obj 235 24 inlet;
#X obj 81 59 t b;
#X connect 0 0 24 0;
#X connect 3 0 5 0;
#X connect 4 0 6 0;
#X connect 4 1 10 0;
#X connect 4 2 12 0;
#X connect 5 0 22 1;
#X connect 6 0 1 0;
#X connect 6 0 19 0;
#X connect 6 1 7 0;
#X connect 7 0 8 0;
#X connect 9 0 22 1;
#X connect 10 0 2 0;
#X connect 10 0 20 0;
#X connect 10 1 11 0;
#X connect 11 0 8 0;
#X connect 12 0 17 0;
#X connect 12 0 21 0;
#X connect 12 1 13 0;
#X connect 13 0 8 0;
#X connect 18 0 22 0;
#X connect 22 0 4 0;
#X connect 23 0 22 1;
#X connect 24 0 22 0;
#X restore 75 122 pd reclogic;
#X msg 81 234 rec;
#X msg 208 239 play;
#X obj 159 96 r \$0-recmode;
#X msg 534 111 rec;
#X obj 533 138 s \$0-recmode;
#X msg 433 238 overdub;
#X obj 434 264 s \$0-recmode;
#X msg 867 106 mixmode 2;
#X obj 787 328 s \$0-groovectl;
#X msg 856 230 units 0;
#X msg 851 279 xfade 1;
#X msg 776 279 xshape 1;
#X msg 780 229 xzone 0;
#X obj 831 195 loadbang;
#X connect 0 0 13 0;
#X connect 1 0 13 0;
#X connect 2 0 14 0;
#X connect 3 0 2 0;
#X connect 4 0 5 0;
#X connect 4 1 15 0;
#X connect 4 1 0 0;
#X connect 4 2 1 0;
#X connect 5 0 6 0;
#X connect 5 0 39 0;
#X connect 7 0 9 0;
#X connect 8 0 0 0;
#X connect 8 1 1 0;
#X connect 8 2 7 0;
#X connect 10 0 14 0;
#X connect 10 1 20 0;
#X connect 11 0 8 0;
#X connect 12 0 11 0;
#X connect 17 0 0 0;
#X connect 17 0 5 0;
#X connect 17 1 1 0;
#X connect 18 0 17 0;
#X connect 18 0 21 0;
#X connect 18 0 50 0;
#X connect 20 0 19 0;
#X connect 21 0 19 0;
#X connect 22 0 44 0;
#X connect 23 0 24 0;
#X connect 24 0 25 0;
#X connect 24 0 48 0;
#X connect 25 0 26 0;
#X connect 27 0 28 0;
#X connect 29 0 30 0;
#X connect 29 1 27 0;
#X connect 30 0 31 0;
#X connect 32 0 29 0;
#X connect 34 0 52 0;
#X connect 37 0 32 0;
#X connect 38 0 26 0;
#X connect 39 0 40 0;
#X connect 42 0 41 0;
#X connect 43 0 42 0;
#X connect 44 0 45 0;
#X connect 44 1 46 0;
#X connect 44 2 45 0;
#X connect 45 0 10 0;
#X connect 46 0 4 0;
#X connect 46 0 21 0;
#X connect 47 0 44 1;
#X connect 48 0 49 0;
#X connect 50 0 51 0;
#X connect 52 0 35 0;
#X connect 54 0 53 0;
#X connect 55 0 53 0;
#X connect 56 0 53 0;
#X connect 57 0 53 0;
#X connect 58 0 54 0;
#X connect 58 0 57 0;
#X connect 58 0 56 0;
#X connect 58 0 55 0;
#X restore 636 75 pd loopercontrols;
#X obj 978 673 s \$0-recflash;
#X obj 755 598 r \$0-groovectl;
#X connect 0 0 2 0;
#X connect 1 0 11 0;
#X connect 2 0 5 0;
#X connect 2 0 9 0;
#X connect 3 0 2 1;
#X connect 5 0 1 1;
#X connect 5 0 13 0;
#X connect 6 0 12 0;
#X connect 7 0 12 0;
#X connect 7 0 31 0;
#X connect 8 0 7 0;
#X connect 9 0 8 0;
#X connect 10 0 5 2;
#X connect 13 0 16 1;
#X connect 14 0 13 1;
#X connect 15 0 5 1;
#X connect 16 0 1 0;
#X connect 17 0 13 1;
#X connect 18 0 9 1;
#X connect 19 0 8 1;
#X connect 21 0 23 0;
#X connect 23 0 24 0;
#X connect 23 3 47 0;
#X connect 24 0 32 0;
#X connect 24 0 43 0;
#X connect 25 0 23 3;
#X connect 26 0 55 0;
#X connect 26 4 40 0;
#X connect 26 4 58 0;
#X connect 26 4 65 0;
#X connect 28 0 27 1;
#X connect 29 0 30 0;
#X connect 30 0 27 0;
#X connect 31 0 1 0;
#X connect 33 0 26 2;
#X connect 33 0 57 0;
#X connect 34 0 26 0;
#X connect 35 0 36 0;
#X connect 35 0 61 0;
#X connect 36 0 42 0;
#X connect 36 1 37 0;
#X connect 37 0 26 0;
#X connect 38 0 34 0;
#X connect 38 0 41 0;
#X connect 39 0 26 0;
#X connect 41 0 26 0;
#X connect 42 0 39 0;
#X connect 42 1 59 0;
#X connect 44 0 45 0;
#X connect 46 0 35 0;
#X connect 46 0 62 0;
#X connect 47 0 49 0;
#X connect 48 0 54 0;
#X connect 49 0 48 0;
#X connect 49 1 51 0;
#X connect 50 0 26 0;
#X connect 52 0 23 0;
#X connect 53 0 24 0;
#X connect 56 0 28 0;
#X connect 59 0 26 0;
#X connect 66 0 26 0;
