#N canvas 149 120 1350 949 10;
#X obj 115 91 tgl 15 0 empty empty empty 17 7 0 10 -262144 -1 -1 1
1;
#X obj 39 281 *~;
#X obj 115 111 metro 500;
#X floatatom 173 75 5 0 0 0 - - -;
#X obj 54 128 pink~;
#X obj 105 173 adenv~ 10 100;
#X floatatom 92 52 5 0 0 0 - - -;
#X obj 245 76 mtof;
#X obj 244 54 + 50;
#X obj 244 15 random 50;
#X floatatom 204 134 5 0 0 0 - - -;
#X obj 35 327 s~ \$0-testsig;
#X obj 37 79 phasor~ 440;
#X obj 143 198 *~ 15000;
#X floatatom 216 171 5 0 0 0 - - -;
#X floatatom 149 134 5 0 0 0 - - -;
#X obj 41 228 svf~ 200 0.8;
#X obj 233 229 hsl 128 15 200 20000 1 1 empty empty empty -2 -8 0 10
-262144 -1 -1 4700 1;
#X floatatom 330 3 5 0 0 0 - - -;
#X floatatom 292 38 5 0 0 0 - - -;
#X obj 679 335 r~ \$0-testsig;
#X obj 721 891 dac~;
#X obj 848 776 gain~;
#X obj 594 739 r~ \$0-testsig;
#X obj 593 776 gain~;
#X obj 40 105 osc~;
#X obj 847 733 r~ \$0-playback;
#X obj 674 382 looper~;
#X obj 675 429 s~ \$0-playback;
#X connect 0 0 2 0;
#X connect 1 0 11 0;
#X connect 2 0 5 0;
#X connect 2 0 9 0;
#X connect 3 0 2 1;
#X connect 5 0 1 1;
#X connect 5 0 13 0;
#X connect 6 0 12 0;
#X connect 7 0 12 0;
#X connect 7 0 25 0;
#X connect 8 0 7 0;
#X connect 9 0 8 0;
#X connect 10 0 5 2;
#X connect 13 0 16 1;
#X connect 14 0 13 1;
#X connect 15 0 5 1;
#X connect 16 0 1 0;
#X connect 17 0 13 1;
#X connect 18 0 9 1;
#X connect 19 0 8 1;
#X connect 20 0 27 0;
#X connect 22 0 21 1;
#X connect 23 0 24 0;
#X connect 24 0 21 0;
#X connect 25 0 1 0;
#X connect 26 0 22 0;
#X connect 27 0 28 0;
