#N canvas 168 53 1350 949 10;
#X obj 115 91 tgl 15 0 empty empty empty 17 7 0 10 -262144 -1 -1 1
1;
#X obj 39 281 *~;
#X obj 115 111 metro 500;
#X floatatom 173 75 5 0 0 0 - - -;
#X obj 54 128 pink~;
#X obj 105 173 adenv~ 10 100;
#X floatatom 92 52 5 0 0 0 - - -;
#X obj 245 76 mtof;
#X obj 244 54 + 50;
#X obj 244 15 random 50;
#X floatatom 204 134 5 0 0 0 - - -;
#X obj 35 327 s~ \$0-testsig;
#X obj 37 79 phasor~ 440;
#X obj 143 198 *~ 15000;
#X floatatom 216 171 5 0 0 0 - - -;
#X floatatom 149 134 5 0 0 0 - - -;
#X obj 41 228 svf~ 200 0.8;
#X obj 273 190 hsl 128 15 200 20000 1 1 empty empty empty -2 -8 0 10
-262144 -1 -1 4700 1;
#X floatatom 330 3 5 0 0 0 - - -;
#X floatatom 292 38 5 0 0 0 - - -;
#N canvas 0 22 450 278 (subpatch) 0;
#X array \$0-buffer 220500 float 0;
#X coords 0 1 220499 -1 200 140 1 0 0;
#X restore 1108 783 graph;
#X obj 390 359 r~ \$0-testsig;
#X obj 1226 10 xsample;
#X obj 408 420 xrecord~ \$0-buffer;
#X msg 597 138 reset;
#X msg 642 138 stop;
#X msg 397 82 loop 1;
#X obj 396 55 loadbang;
#X obj 425 486 snapshot~;
#X obj 592 78 t b b b;
#X obj 528 392 r \$0-bufferend;
#X obj 853 598 xgroove~ \$0-buffer;
#X obj 721 891 dac~;
#X obj 848 776 gain~;
#X obj 594 739 r~ \$0-testsig;
#X obj 593 776 gain~;
#X obj 40 105 osc~;
#X floatatom 377 548 6 0 0 0 - - -;
#X obj 965 563 r \$0-bufferend;
#X msg 961 505 loop 1;
#X obj 809 404 tgl 15 0 empty empty empty 17 7 0 10 -262144 -1 -1 1
1;
#X obj 817 435 sel 1;
#X msg 870 521 stop;
#X obj 963 455 loadbang;
#X obj 802 516 bng 15 250 50 0 empty empty empty 17 7 0 10 -262144
-1 -1;
#X obj 952 654 bng 15 250 50 0 empty empty empty 17 7 0 10 -262144
-1 -1;
#X msg 829 518 reset;
#X msg 972 478 1;
#X obj 806 478 t b b;
#X obj 424 512 s \$0-bufferend;
#X obj 1245 268 dsp 1;
#X floatatom 1248 318 5 0 0 0 - - -;
#X obj 814 366 r \$0-playctl;
#X msg 583 192 1;
#X obj 583 215 s \$0-playctl;
#X obj 519 448 bng 15 250 50 0 empty empty empty 17 7 0 10 -262144
-1 -1;
#X msg 524 538 1;
#X obj 753 142 arraysize \$0-buffer;
#X obj 711 117 t b b b;
#X obj 750 167 s \$0-bufferend;
#X obj 528 472 t b b b;
#X msg 912 480 -1;
#X obj 463 84 t b b;
#X msg 590 46 stop;
#X msg 712 81 autostop;
#X obj 711 51 r \$0-autostop;
#X obj 550 515 s \$0-autostop;
#X msg 978 136 const 0;
#X obj 979 163 s \$0-buffer;
#X obj 919 105 t b b;
#X msg 900 133 0;
#X obj 894 165 s \$0-playctl;
#X obj 918 76 bng 15 250 50 0 empty empty empty 17 7 0 10 -262144 -1
-1;
#X text 896 52 clear buffer;
#X obj 1085 78 tgl 15 0 empty empty empty 17 7 0 10 -262144 -1 -1 1
1;
#X obj 1085 108 sel 1;
#X obj 412 388 r \$0-bufferctl;
#X msg 1073 137 2;
#X msg 1118 137 0;
#X obj 1082 49 loadbang;
#X obj 1087 200 s \$0-bufferctl;
#X msg 1090 171 mixmode \$1;
#X msg 462 50 start;
#X obj 600 170 s \$0-bufferctl;
#X obj 462 108 s \$0-bufferctl;
#X obj 429 458 r \$0-buffsnap;
#X obj 612 100 s \$0-buffsnap;
#X obj 526 572 s \$0-playctl;
#X text 522 20 record controls;
#X text 1109 79 overdub;
#X obj 852 628 s~ \$0-playback;
#X obj 847 733 r~ \$0-playback;
#X connect 0 0 2 0;
#X connect 1 0 11 0;
#X connect 2 0 5 0;
#X connect 2 0 9 0;
#X connect 3 0 2 1;
#X connect 5 0 1 1;
#X connect 5 0 13 0;
#X connect 6 0 12 0;
#X connect 7 0 12 0;
#X connect 7 0 36 0;
#X connect 8 0 7 0;
#X connect 9 0 8 0;
#X connect 10 0 5 2;
#X connect 13 0 16 1;
#X connect 14 0 13 1;
#X connect 15 0 5 1;
#X connect 16 0 1 0;
#X connect 17 0 13 1;
#X connect 18 0 9 1;
#X connect 19 0 8 1;
#X connect 21 0 23 0;
#X connect 23 0 28 0;
#X connect 23 3 55 0;
#X connect 24 0 83 0;
#X connect 25 0 83 0;
#X connect 26 0 84 0;
#X connect 27 0 26 0;
#X connect 28 0 37 0;
#X connect 28 0 49 0;
#X connect 29 0 24 0;
#X connect 29 0 53 0;
#X connect 29 1 86 0;
#X connect 29 2 25 0;
#X connect 30 0 23 3;
#X connect 31 0 90 0;
#X connect 31 4 45 0;
#X connect 33 0 32 1;
#X connect 34 0 35 0;
#X connect 35 0 32 0;
#X connect 36 0 1 0;
#X connect 38 0 31 2;
#X connect 39 0 31 0;
#X connect 40 0 41 0;
#X connect 41 0 48 0;
#X connect 41 1 42 0;
#X connect 42 0 31 0;
#X connect 43 0 39 0;
#X connect 43 0 47 0;
#X connect 44 0 31 0;
#X connect 47 0 31 0;
#X connect 48 0 44 0;
#X connect 48 1 46 0;
#X connect 50 0 51 0;
#X connect 52 0 40 0;
#X connect 53 0 54 0;
#X connect 55 0 60 0;
#X connect 56 0 87 0;
#X connect 57 0 59 0;
#X connect 58 0 24 0;
#X connect 58 1 25 0;
#X connect 58 2 57 0;
#X connect 60 0 56 0;
#X connect 60 1 66 0;
#X connect 61 0 31 0;
#X connect 62 0 84 0;
#X connect 63 0 29 0;
#X connect 64 0 58 0;
#X connect 65 0 64 0;
#X connect 67 0 68 0;
#X connect 69 0 70 0;
#X connect 69 1 67 0;
#X connect 70 0 71 0;
#X connect 72 0 69 0;
#X connect 74 0 75 0;
#X connect 75 0 77 0;
#X connect 75 1 78 0;
#X connect 76 0 23 0;
#X connect 77 0 81 0;
#X connect 78 0 81 0;
#X connect 79 0 74 0;
#X connect 81 0 80 0;
#X connect 82 0 62 0;
#X connect 85 0 28 0;
#X connect 91 0 33 0;
