#N canvas 75 54 1101 629 10;
#X obj 54 36 loadbang;
#X msg 54 113 \; pd dsp 1;
#N canvas 810 202 598 780 midicontrol 0;
#X floatatom 209 400 5 0 0 0 - - -;
#X obj 60 362 expr ($f1 / 127) * 100;
#X obj 60 409 s \$0-reverbvol;
#X floatatom 425 408 5 0 0 0 - - -;
#X obj 275 417 s \$0-revdecay;
#X obj 275 370 expr ($f1 / 127) * 0.993;
#X obj 277 331 ctlin 0 2;
#X obj 61 325 ctlin 16 2;
#X floatatom 209 551 5 0 0 0 - - -;
#X obj 61 474 ctlin 1 2;
#X obj 59 513 expr ($f1 / 127) * 1;
#X obj 59 560 s \$0-inputgain;
#X floatatom 421 551 5 0 0 0 - - -;
#X obj 271 513 expr ($f1 / 127) * 1;
#X obj 273 474 ctlin 2 2;
#X obj 271 560 s \$0-dryvol;
#X connect 1 0 0 0;
#X connect 1 0 2 0;
#X connect 5 0 3 0;
#X connect 5 0 4 0;
#X connect 6 0 5 0;
#X connect 7 0 1 0;
#X connect 9 0 10 0;
#X connect 10 0 8 0;
#X connect 10 0 11 0;
#X connect 13 0 12 0;
#X connect 13 0 15 0;
#X connect 14 0 13 0;
#X restore 144 32 pd midicontrol;
#X obj 496 535 dac~;
#X obj 303 418 vols~;
#X obj 382 399 r \$0-reverbvol;
#X msg 403 245 0.5;
#X obj 398 210 loadbang;
#X floatatom 369 307 5 0 0 0 - - -;
#X obj 370 278 r \$0-revdecay;
#X obj 482 388 *~ 1;
#X obj 545 392 *~ 1;
#X obj 498 308 r \$0-dryvol;
#X obj 342 167 *~;
#X obj 396 143 r \$0-inputgain;
#X obj 53 74 delay 100;
#X obj 493 29 r~ \$0-testsig;
#X obj 495 87 *~ 1;
#X obj 68 263 hsl 128 15 0 100 0 0 empty empty empty -2 -8 0 10 -262144
-1 -1 12100 1;
#X obj 67 292 s \$0-reverbvol;
#X obj 61 352 hsl 128 15 0 2 0 0 empty empty empty -2 -8 0 10 -262144
-1 -1 9500 1;
#X obj 58 383 s \$0-inputgain;
#X obj 59 422 hsl 128 15 0 1 0 0 empty empty empty -2 -8 0 10 -262144
-1 -1 11200 1;
#X obj 56 454 s \$0-revdecay;
#X obj 955 396 dsp 1;
#X floatatom 956 431 5 0 0 0 - - -;
#X obj 53 486 hsl 128 15 0 1 0 0 empty empty empty -2 -8 0 10 -262144
-1 -1 11000 1;
#X obj 50 518 s \$0-dryvol;
#X floatatom 12 445 5 0 0 0 - - -;
#X obj 362 348 r \$0-damp;
#X obj 469 501 +~;
#X obj 527 500 +~;
#X obj 599 563 recorder~;
#X floatatom 10 389 5 0 0 0 - - -;
#X obj 294 381 microverb~;
#N canvas 943 102 833 575 audiotest 0;
#X obj 410 150 tgl 15 0 empty empty empty 17 7 0 10 -262144 -1 -1 1
1;
#X obj 330 340 *~;
#X obj 410 170 metro 500;
#X floatatom 464 134 5 0 0 0 - - -;
#X obj 400 232 adenv~ 10 100;
#X floatatom 387 111 5 0 0 0 - - -;
#X obj 536 135 mtof;
#X obj 535 113 + 50;
#X obj 535 74 random 50;
#X floatatom 495 193 5 0 0 0 - - -;
#X obj 326 386 s~ \$0-testsig;
#X obj 332 138 phasor~ 440;
#X obj 438 257 *~ 15000;
#X floatatom 507 230 5 0 0 0 - - -;
#X floatatom 440 193 5 0 0 0 - - -;
#X obj 336 287 svf~ 200 0.8;
#X obj 550 249 hsl 128 15 200 20000 1 1 empty empty empty -2 -8 0 10
-262144 -1 -1 8300 1;
#X floatatom 621 62 5 0 0 0 - - -;
#X floatatom 583 97 5 0 0 0 - - -;
#X obj 321 233 osc~;
#X floatatom 466 292 5 0 0 0 - - -;
#X obj 295 190 +~;
#X obj 269 161 *~;
#X floatatom 280 123 5 0 20000 0 - - -;
#X obj 232 124 osc~;
#X floatatom 239 90 5 0 0 0 - - -;
#X connect 0 0 2 0;
#X connect 1 0 10 0;
#X connect 2 0 4 0;
#X connect 2 0 8 0;
#X connect 3 0 2 1;
#X connect 4 0 1 1;
#X connect 4 0 12 0;
#X connect 5 0 11 0;
#X connect 6 0 11 0;
#X connect 6 0 21 1;
#X connect 7 0 6 0;
#X connect 8 0 7 0;
#X connect 9 0 4 2;
#X connect 12 0 15 1;
#X connect 13 0 12 1;
#X connect 14 0 4 1;
#X connect 15 0 1 0;
#X connect 16 0 12 1;
#X connect 17 0 8 1;
#X connect 18 0 7 1;
#X connect 19 0 1 0;
#X connect 20 0 15 2;
#X connect 21 0 19 0;
#X connect 22 0 21 0;
#X connect 23 0 22 1;
#X connect 24 0 22 0;
#X connect 25 0 24 0;
#X restore 780 91 pd audiotest;
#X connect 0 0 15 0;
#X connect 4 0 30 0;
#X connect 4 1 31 0;
#X connect 5 0 4 2;
#X connect 6 0 34 1;
#X connect 7 0 6 0;
#X connect 9 0 8 0;
#X connect 9 0 34 1;
#X connect 10 0 30 1;
#X connect 11 0 31 1;
#X connect 12 0 11 1;
#X connect 12 0 10 1;
#X connect 13 0 34 0;
#X connect 14 0 13 1;
#X connect 15 0 1 0;
#X connect 16 0 17 0;
#X connect 17 0 13 0;
#X connect 17 0 10 0;
#X connect 17 0 11 0;
#X connect 18 0 19 0;
#X connect 20 0 21 0;
#X connect 20 0 33 0;
#X connect 22 0 23 0;
#X connect 22 0 28 0;
#X connect 24 0 25 0;
#X connect 26 0 27 0;
#X connect 30 0 3 0;
#X connect 31 0 3 1;
#X connect 34 0 4 0;
#X connect 34 1 4 1;
