#N canvas 36 181 1101 629 10;
#X obj 54 36 loadbang;
#X msg 54 113 \; pd dsp 1;
#N canvas 810 202 598 780 midicontrol 1;
#X floatatom 209 400 5 0 0 0 - - -;
#X obj 60 362 expr ($f1 / 127) * 100;
#X obj 60 409 s \$0-reverbvol;
#X floatatom 425 408 5 0 0 0 - - -;
#X obj 275 417 s \$0-revdecay;
#X obj 275 370 expr ($f1 / 127) * 0.993;
#X floatatom 209 551 5 0 0 0 - - -;
#X obj 59 513 expr ($f1 / 127) * 1;
#X obj 59 560 s \$0-inputgain;
#X floatatom 421 551 5 0 0 0 - - -;
#X obj 271 513 expr ($f1 / 127) * 1;
#X obj 271 560 s \$0-dryvol;
#X obj 61 325 ctlin 0 1;
#X obj 61 474 ctlin 1 1;
#X obj 278 331 ctlin 3 1;
#X obj 273 474 ctlin 2 1;
#X connect 1 0 0 0;
#X connect 1 0 2 0;
#X connect 5 0 3 0;
#X connect 5 0 4 0;
#X connect 7 0 6 0;
#X connect 7 0 8 0;
#X connect 10 0 9 0;
#X connect 10 0 11 0;
#X connect 12 0 1 0;
#X connect 13 0 7 0;
#X connect 14 0 5 0;
#X connect 15 0 10 0;
#X restore 144 32 pd midicontrol;
#X obj 496 535 dac~;
#X obj 303 418 vols~;
#X obj 382 399 r \$0-reverbvol;
#X msg 403 245 0.5;
#X obj 398 210 loadbang;
#X floatatom 369 307 5 0 0 0 - - -;
#X obj 370 278 r \$0-revdecay;
#X obj 482 388 *~ 1;
#X obj 545 392 *~ 1;
#X obj 587 304 r \$0-dryvol;
#X obj 342 167 *~;
#X obj 396 143 r \$0-inputgain;
#X obj 53 74 delay 100;
#X obj 778 111 tgl 15 0 empty empty empty 17 7 0 10 -262144 -1 -1 1
1;
#X obj 702 301 *~;
#X obj 778 131 metro 500;
#X floatatom 836 95 5 0 0 0 - - -;
#X obj 768 193 adenv~ 10 100;
#X floatatom 755 72 5 0 0 0 - - -;
#X obj 908 96 mtof;
#X obj 907 74 + 50;
#X obj 907 35 random 50;
#X floatatom 867 154 5 0 0 0 - - -;
#X obj 698 347 s~ \$0-testsig;
#X obj 684 95 phasor~ 440;
#X obj 806 218 *~ 15000;
#X floatatom 879 191 5 0 0 0 - - -;
#X floatatom 812 154 5 0 0 0 - - -;
#X obj 704 248 svf~ 200 0.8;
#X obj 936 210 hsl 128 15 200 20000 1 1 empty empty empty -2 -8 0 10
-262144 -1 -1 3400 1;
#X floatatom 993 23 5 0 0 0 - - -;
#X floatatom 955 58 5 0 0 0 - - -;
#X obj 703 125 osc~;
#X obj 493 29 r~ \$0-testsig;
#X obj 294 381 microverb~;
#X obj 495 87 *~ 1;
#X obj 59 239 hsl 128 15 0 100 0 0 empty empty empty -2 -8 0 10 -262144
-1 -1 0 1;
#X obj 58 268 s \$0-reverbvol;
#X obj 58 329 hsl 128 15 0 1 0 0 empty empty empty -2 -8 0 10 -262144
-1 -1 0 1;
#X obj 55 360 s \$0-inputgain;
#X obj 58 410 hsl 128 15 0 1.05 0 0 empty empty empty -2 -8 0 10 -262144
-1 -1 0 1;
#X obj 55 442 s \$0-revdecay;
#X obj 955 396 dsp 1;
#X floatatom 956 431 5 0 0 0 - - -;
#X floatatom 838 253 5 0 0 0 - - -;
#X obj 53 486 hsl 128 15 0 1 0 0 empty empty empty -2 -8 0 10 -262144
-1 -1 0 1;
#X obj 50 518 s \$0-dryvol;
#X connect 0 0 15 0;
#X connect 4 0 3 0;
#X connect 4 1 3 1;
#X connect 5 0 4 2;
#X connect 6 0 37 1;
#X connect 7 0 6 0;
#X connect 9 0 8 0;
#X connect 9 0 37 1;
#X connect 10 0 3 0;
#X connect 11 0 3 1;
#X connect 12 0 11 1;
#X connect 12 0 10 1;
#X connect 13 0 37 0;
#X connect 14 0 13 1;
#X connect 15 0 1 0;
#X connect 16 0 18 0;
#X connect 17 0 26 0;
#X connect 18 0 20 0;
#X connect 18 0 24 0;
#X connect 19 0 18 1;
#X connect 20 0 17 1;
#X connect 20 0 28 0;
#X connect 21 0 27 0;
#X connect 22 0 27 0;
#X connect 22 0 35 0;
#X connect 23 0 22 0;
#X connect 24 0 23 0;
#X connect 25 0 20 2;
#X connect 28 0 31 1;
#X connect 29 0 28 1;
#X connect 30 0 20 1;
#X connect 31 0 17 0;
#X connect 32 0 28 1;
#X connect 33 0 24 1;
#X connect 34 0 23 1;
#X connect 35 0 17 0;
#X connect 36 0 38 0;
#X connect 37 0 4 0;
#X connect 37 1 4 1;
#X connect 38 0 13 0;
#X connect 38 0 10 0;
#X connect 38 0 11 0;
#X connect 39 0 40 0;
#X connect 41 0 42 0;
#X connect 43 0 44 0;
#X connect 45 0 46 0;
#X connect 47 0 31 2;
#X connect 48 0 49 0;
