#N canvas 163 42 1094 656 10;
#X obj 203 87 mini16seq;
#X obj 448 590 output~;
#X obj 445 552 hip~ 1;
#X obj 241 364 quantize;
#X floatatom 276 320 5 0 127 0 - - -;
#X obj 218 314 t b f;
#N canvas 143 298 450 300 envelope 0;
#X obj 33 161 adenv~;
#X obj 58 250 outlet~;
#X obj 90 28 inlet;
#X obj 148 27 inlet;
#X obj 201 28 inlet;
#X obj 105 150 knob 32 32 0.01 1 1 0 empty empty cv_scale 0 -8 1 10
-262144 -1 -1 0 1;
#X obj 151 150 knob 32 32 0.01 1 1 0 empty empty cv_scale 0 -8 1 10
-262144 -1 -1 1100 1;
#X obj 143 61 * 5000;
#X obj 202 61 * 5000;
#X obj 203 240 *;
#X obj 254 240 *;
#X obj 105 203 hsl 90 15 0.01 1 1 1 empty empty level -2 -8 1 10 -262144
-1 -1 8900 1;
#X obj 42 214 *~;
#X obj 256 117 ii;
#X msg 254 161 1;
#X obj 153 117 nbx 4 14 0.1 10000 1 0 empty empty decay 0 -8 1 10 -262144
-1 -1 39.9466 256;
#X obj 106 117 nbx 4 14 0.1 10000 1 0 empty empty attack 0 -8 1 10
-262144 -1 -1 14.7221 256;
#X connect 0 0 12 0;
#X connect 2 0 0 0;
#X connect 3 0 7 0;
#X connect 4 0 8 0;
#X connect 5 0 9 1;
#X connect 6 0 10 1;
#X connect 7 0 9 0;
#X connect 8 0 10 0;
#X connect 9 0 16 0;
#X connect 10 0 15 0;
#X connect 11 0 12 1;
#X connect 12 0 1 0;
#X connect 13 0 14 0;
#X connect 14 0 11 0;
#X connect 15 0 0 2;
#X connect 16 0 0 1;
#X coords 0 -1 1 1 100 120 2 100 100;
#X restore 128 415 pd envelope;
#X obj 189 14 tgl 15 0 empty empty empty 17 7 0 10 -262144 -1 -1 1
1;
#X msg 339 316 1 3 4 6 7 9 11;
#X obj 245 390 mtof;
#X obj 522 24 frv;
#X obj 680 376 *~ 0.8;
#X obj 604 345 crossfade~;
#X obj 615 325 hsl 128 15 0 1 0 0 empty empty empty -2 -8 0 10 -262144
-1 -1 10000 1;
#N canvas 280 43 770 633 verb 0;
#X obj 42 216 inlet~;
#X obj 120 212 inlet~;
#X obj 110 535 outlet~;
#X obj 195 535 outlet~;
#X obj 178 434 zrev1~ 10 10 10;
#X obj 484 269 hsl 128 15 0 100 0 1 empty empty reverb_time -2 -8 0
10 -262144 -1 -1 11600 1;
#X floatatom 497 340 5 0 0 0 - - -;
#X obj 534 385 hsl 128 15 -1 1 0 1 empty empty mix -2 -8 0 10 -262144
-1 -1 5200 1;
#X floatatom 526 421 5 0 0 0 - - -;
#X obj 457 225 hsl 128 15 0 200 0 1 empty empty room_size -2 -8 0 10
-262144 -1 -1 9700 1;
#X floatatom 418 267 5 0 0 0 - - -;
#X obj 391 181 hsl 128 15 200 20000 1 1 empty empty lpf_cutoff -2 -8
0 10 -262144 -1 -1 9100 1;
#X floatatom 380 229 5 0 0 0 - - -;
#X obj 365 135 hsl 128 15 -99 18 0 1 empty empty recycle -2 -8 0 10
-262144 -1 -1 10500 1;
#X obj 306 95 hsl 128 15 -99 18 0 1 empty empty 2nd_reflection_(db)
-2 -8 0 10 -262144 -1 -1 8200 1;
#X obj 228 59 hsl 128 15 -99 18 0 1 empty empty 1st_reflection_(db)
-2 -8 0 10 -262144 -1 -1 9700 1;
#X connect 0 0 4 0;
#X connect 1 0 4 1;
#X connect 4 0 2 0;
#X connect 4 0 3 0;
#X connect 4 2 3 0;
#X connect 4 3 2 0;
#X connect 5 0 6 0;
#X connect 6 0 4 7;
#X connect 7 0 8 0;
#X connect 8 0 4 8;
#X connect 9 0 10 0;
#X connect 10 0 4 6;
#X connect 11 0 12 0;
#X connect 12 0 4 5;
#X connect 13 0 4 4;
#X connect 14 0 4 3;
#X connect 15 0 4 2;
#X restore 467 532 pd verb;
#X obj 504 552 hip~ 1;
#N canvas 74 105 840 601 waveguide 0;
#N canvas 89 59 858 658 bbd 0;
#X obj 441 353 *~ 0;
#X obj 533 204 vsl 15 128 0.01 1 1 0 empty empty empty 0 -9 0 10 -262144
-1 -1 0 1;
#X obj 375 210 line~;
#X floatatom 514 438 5 0 0 0 - - -;
#X obj 125 37 inlet~;
#X obj 242 748 outlet~;
#X obj 377 148 nbx 5 14 -1e+37 1e+37 0 0 empty empty empty 0 -8 0 10
-262144 -1 -1 32 256;
#X floatatom 470 431 5 0 0 0 - - -;
#X obj 431 544 s~ \$0-fdbk;
#X obj 186 64 r~ \$0-fdbk;
#X obj 496 357 expr (1 - $f1);
#X obj 376 36 inlet;
#X obj 133 94 delwrite~ \$0-b1 500;
#X obj 235 131 vd~ \$0-b1;
#X obj 137 163 delwrite~ \$0-b2 500;
#X obj 237 189 vd~ \$0-b2;
#X obj 240 712 vd~ \$0-b10;
#X obj 141 674 delwrite~ \$0-b10 500;
#X obj 137 221 delwrite~ \$0-b3 500;
#X obj 238 252 vd~ \$0-b3;
#X obj 138 284 delwrite~ \$0-b4 500;
#X obj 242 314 vd~ \$0-b4;
#X obj 142 347 delwrite~ \$0-b5 500;
#X obj 241 385 vd~ \$0-b5;
#X obj 132 421 delwrite~ \$0-b6 500;
#X obj 234 458 vd~ \$0-b6;
#X obj 136 490 delwrite~ \$0-b7 500;
#X obj 236 516 vd~ \$0-b7;
#X obj 136 548 delwrite~ \$0-b8 500;
#X obj 237 579 vd~ \$0-b8;
#X obj 137 611 delwrite~ \$0-b9 500;
#X obj 241 641 vd~ \$0-b9;
#X obj 518 32 inlet;
#X obj 518 69 * 20000;
#X obj 601 56 inlet;
#X text 601 16 feedback;
#X text 516 15 decay;
#X text 126 19 input;
#X text 375 17 freq;
#X floatatom 623 100 5 0 0 0 - - -;
#X obj 609 489 lp2~;
#X obj 433 477 lop~;
#X obj 375 181 pack 0 100;
#X connect 0 0 41 0;
#X connect 1 0 7 0;
#X connect 1 0 10 0;
#X connect 2 0 13 0;
#X connect 2 0 15 0;
#X connect 2 0 16 0;
#X connect 2 0 19 0;
#X connect 2 0 21 0;
#X connect 2 0 23 0;
#X connect 2 0 25 0;
#X connect 2 0 27 0;
#X connect 2 0 29 0;
#X connect 2 0 31 0;
#X connect 3 0 41 1;
#X connect 4 0 12 0;
#X connect 6 0 42 0;
#X connect 9 0 12 0;
#X connect 10 0 0 1;
#X connect 11 0 6 0;
#X connect 13 0 14 0;
#X connect 15 0 18 0;
#X connect 16 0 0 0;
#X connect 16 0 5 0;
#X connect 19 0 20 0;
#X connect 21 0 22 0;
#X connect 23 0 24 0;
#X connect 25 0 26 0;
#X connect 27 0 28 0;
#X connect 29 0 30 0;
#X connect 31 0 17 0;
#X connect 32 0 33 0;
#X connect 33 0 3 0;
#X connect 34 0 39 0;
#X connect 34 0 0 1;
#X connect 41 0 8 0;
#X connect 42 0 2 0;
#X restore 114 231 pd bbd;
#X obj 90 51 inlet~;
#X obj 149 558 outlet~;
#X obj 162 124 expr 1000 / $f1;
#X obj 609 313 hsl 128 15 1 0.01 1 0 empty empty feedback -2 -8 1 10
-262144 -1 -1 12200 1;
#X obj 609 281 hsl 128 15 0.01 1 1 0 empty empty decay -2 -8 1 10 -262144
-1 -1 7900 1;
#X obj 328 241 expr 1 - $f1;
#X obj 201 51 inlet;
#N canvas 0 22 450 300 (subpatch) 0;
#X array E09-spectrum 259 float 0;
#X coords 0 0.51 258 -0.008 259 130 1;
#X restore 545 446 graph;
#X text 575 577 2;
#X text 606 577 4;
#X text 545 577 0;
#X text 639 428 SPECTRUM;
#X text 805 562 0;
#X text 806 444 0.5;
#X text 638 577 6;
#X text 671 577 8;
#X text 699 577 10;
#X text 731 577 12;
#X text 763 577 14;
#N canvas 118 95 558 609 fft 0;
#X obj 19 61 inlet~;
#X obj 208 212 inlet;
#X obj 29 92 rfft~;
#X obj 29 125 *~;
#X obj 60 125 *~;
#X obj 29 155 sqrt~;
#X obj 332 109 block~ 4096 1;
#X obj 29 181 biquad~ 0 0 0 0 1;
#X text 93 93 Fourier series;
#X text 98 146 magnitude;
#X text 96 131 calculate;
#X text 21 3 This subpatch computes the spectrum of the incoming signal
with a (rectangular windowed) FFT. FFTs aren't properly introduced
until much later.;
#X text 83 61 signal to analyze;
#X text 193 164 delay two samples;
#X text 191 182 for better graphing;
#X obj 19 459 samplerate~;
#X obj 19 436 bng 18 250 50 0 empty empty empty 0 -6 0 8 -262144 -1
-1;
#X floatatom 19 506 5 0 0 0 - - -;
#X obj 19 482 / 256;
#X obj 19 412 loadbang;
#X obj 75 528 s fundamental;
#X text 17 359 At load time \, calculate a good choice of fundamental
frequency for showing spectra: the 16th bin in a 4096-point spectrum
\, so SR*16/4096 or SR/256.;
#X obj 231 259 metro 500;
#X obj 231 236 inlet;
#X text 284 234 toggle to graph repeatedly;
#X text 262 212 bang to graph once;
#X obj 231 298 tabwrite~ E09-spectrum;
#X obj 19 528 t b f;
#X msg 19 551 \; cm 6;
#X text 25 585 set carrier multiplier after fundamental;
#X obj 29 205 /~ 4096;
#X msg 209 322 \; pd dsp 1;
#X connect 0 0 2 0;
#X connect 1 0 26 0;
#X connect 1 0 31 0;
#X connect 2 0 3 0;
#X connect 2 0 3 1;
#X connect 2 1 4 0;
#X connect 2 1 4 1;
#X connect 3 0 5 0;
#X connect 4 0 5 0;
#X connect 5 0 7 0;
#X connect 7 0 30 0;
#X connect 15 0 18 0;
#X connect 16 0 15 0;
#X connect 17 0 27 0;
#X connect 18 0 17 0;
#X connect 19 0 16 0;
#X connect 22 0 26 0;
#X connect 23 0 22 0;
#X connect 23 0 31 0;
#X connect 27 0 28 0;
#X connect 27 1 20 0;
#X connect 30 0 26 0;
#X restore 272 466 pd fft;
#X obj 332 445 bng 18 250 50 0 empty empty empty 0 -6 0 8 -262144 -1
-1;
#X obj 332 466 tgl 18 0 empty empty empty 0 -6 0 8 -262144 -1 -1 0
1;
#X text 353 465 <-- repeatedly;
#X text 354 445 <-- graph once;
#X obj 116 294 hip~ 1;
#X obj 328 291 line;
#X obj 327 265 pack 0 50;
#X obj 119 330 lop~ 10000;
#X floatatom 177 303 5 0 0 0 - - -;
#X obj 609 344 hsl 128 15 0 20000 0 1 empty empty lowpass -2 -8 1 10
-262144 -1 -1 12700 1;
#X obj 60 159 overdrive~;
#X obj 609 249 hsl 128 15 0.01 1 1 0 empty empty drive -2 -8 1 10 -262144
-1 -1 0 1;
#X obj 322 182 pack 0 50;
#X obj 319 206 line;
#X obj 146 437 *~ 1;
#X obj 606 218 nbx 5 14 1 2000 1 0 empty empty delay_ms 0 -8 1 10 -262144
-1 -1 32 256;
#X obj 669 218 nbx 5 14 0 20000 0 1 empty empty delay_hz 0 -8 1 10
-262144 -1 -1 440 256;
#X obj 610 375 hsl 128 15 0 1 0 1 empty empty dry/wet_mix -2 -8 1 10
-262144 -1 -1 2900 1;
#X obj 140 514 crossfade~;
#X text 93 27 input;
#X text 194 28 delay hz;
#X text 276 28 drive cv;
#X obj 285 51 inlet;
#X obj 395 190 * 11;
#X obj 392 214 + 1;
#X obj 346 52 inlet;
#X text 338 28 decay cv;
#X text 405 30 feedback cv;
#X obj 423 56 inlet;
#X connect 0 0 25 0;
#X connect 1 0 31 0;
#X connect 3 0 0 1;
#X connect 4 0 6 0;
#X connect 5 0 0 2;
#X connect 6 0 27 0;
#X connect 7 0 37 0;
#X connect 21 0 20 1;
#X connect 22 0 20 2;
#X connect 25 0 28 0;
#X connect 26 0 0 3;
#X connect 27 0 26 0;
#X connect 28 0 35 0;
#X connect 29 0 28 1;
#X connect 30 0 28 1;
#X connect 31 0 0 0;
#X connect 31 0 39 0;
#X connect 32 0 44 0;
#X connect 33 0 34 0;
#X connect 34 0 31 1;
#X connect 35 0 20 0;
#X connect 35 0 39 1;
#X connect 36 0 0 1;
#X connect 37 0 3 0;
#X connect 38 0 39 2;
#X connect 39 0 2 0;
#X connect 43 0 32 0;
#X connect 44 0 45 0;
#X connect 45 0 33 0;
#X connect 46 0 5 0;
#X connect 49 0 4 0;
#X coords 0 -1 1 1 150 195 2 600 200;
#X restore 728 431 pd waveguide;
#X obj 322 31 bpm2ms;
#X floatatom 323 7 5 0 0 0 - - -;
#X obj 469 427 eq~;
#X obj 318 53 / 2;
#X obj 202 50 metro 2000;
#X obj 505 405 clip~ -5 5;
#X obj 922 111 clockdivider;
#X floatatom 875 80 5 0 0 0 - - -;
#X obj 992 168 bng 15 250 50 0 empty empty empty 17 7 0 10 -262144
-1 -1;
#X floatatom 923 251 5 0 0 0 - - -;
#X floatatom 525 283 5 0 0 0 - - -;
#X obj 874 51 mtof;
#X floatatom 872 29 5 0 0 0 - - -;
#X obj 510 122 208random;
#X obj 609 188 complexosc~;
#X obj 294 608 recorder~;
#X obj 461 571 vols~;
#X obj 381 510 vu~;
#X obj 567 510 vsl 15 128 0 127 0 0 empty empty empty 0 -9 0 10 -262144
-1 -1 9200 1;
#X floatatom 464 99 5 0 0 0 - - -;
#X floatatom 601 419 5 0 0 0 - - -;
#X obj 912 311 lpg~ 20000;
#X floatatom 851 373 5 0 2 0 - - -;
#X msg 338 345 1 3 5 6 8 10 12;
#X floatatom 297 391 5 0 0 0 - - -;
#X msg 345 377 0 2 4 5 7 9 11;
#X obj 768 391 *~ 0.1;
#X obj 127 544 sigtof~;
#X obj 127 569 s \$0-env;
#X obj 760 67 r \$0-env;
#X obj 761 107 cvscale;
#X obj 514 152 cvscale;
#X obj 455 2 cvscale;
#X obj 524 374 *~ 0.5;
#X obj 795 353 *~ 0.5;
#X floatatom 831 398 5 0 0 0 - - -;
#X obj 147 327 cvscale;
#X obj 504 336 lpg~ 20000;
#X obj 611 458 cvscale;
#X connect 0 0 5 0;
#X connect 2 0 33 0;
#X connect 3 0 9 0;
#X connect 3 0 41 0;
#X connect 4 0 3 1;
#X connect 5 0 6 0;
#X connect 5 1 3 0;
#X connect 6 0 44 0;
#X connect 6 0 54 2;
#X connect 7 0 21 0;
#X connect 8 0 3 2;
#X connect 9 0 31 0;
#X connect 10 1 53 0;
#X connect 10 1 55 0;
#X connect 11 0 12 1;
#X connect 12 0 50 0;
#X connect 13 0 12 2;
#X connect 14 0 2 0;
#X connect 14 1 15 0;
#X connect 15 0 33 1;
#X connect 16 0 11 0;
#X connect 17 0 20 0;
#X connect 18 0 17 0;
#X connect 19 0 14 0;
#X connect 19 0 14 1;
#X connect 20 0 21 1;
#X connect 21 0 0 0;
#X connect 21 0 30 0;
#X connect 21 0 23 0;
#X connect 22 0 19 0;
#X connect 23 2 25 0;
#X connect 23 2 38 3;
#X connect 24 0 31 1;
#X connect 26 0 38 1;
#X connect 27 0 54 1;
#X connect 28 0 24 0;
#X connect 29 0 28 0;
#X connect 30 1 48 0;
#X connect 30 2 49 0;
#X connect 31 0 54 0;
#X connect 31 1 38 0;
#X connect 33 0 1 0;
#X connect 33 0 34 0;
#X connect 33 0 32 0;
#X connect 33 1 1 1;
#X connect 33 1 32 1;
#X connect 35 0 33 2;
#X connect 37 0 50 1;
#X connect 38 0 51 0;
#X connect 39 0 51 1;
#X connect 40 0 3 2;
#X connect 42 0 3 2;
#X connect 43 0 16 0;
#X connect 44 0 45 0;
#X connect 46 0 47 0;
#X connect 47 0 31 3;
#X connect 48 0 0 3;
#X connect 49 0 36 0;
#X connect 49 0 0 2;
#X connect 50 0 22 0;
#X connect 51 0 43 0;
#X connect 51 0 50 0;
#X connect 52 0 43 1;
#X connect 53 0 6 2;
#X connect 54 0 12 0;
#X connect 54 0 16 0;
