#N canvas 150 38 892 690 10;
#N canvas 376 22 621 692 reson-bank 0;
#X obj 46 24 reson1;
#X obj 46 44 reson1;
#X obj 46 64 reson1;
#X obj 46 84 reson1;
#X obj 46 104 reson1;
#X obj 46 124 reson1;
#X obj 46 144 reson1;
#X obj 46 164 reson1;
#X obj 46 184 reson1;
#X obj 46 204 reson1;
#X obj 102 24 reson1;
#X obj 102 44 reson1;
#X obj 102 64 reson1;
#X obj 102 84 reson1;
#X obj 102 104 reson1;
#X obj 102 124 reson1;
#X obj 102 144 reson1;
#X obj 102 164 reson1;
#X obj 102 184 reson1;
#X obj 102 204 reson1;
#X obj 157 24 reson1;
#X obj 157 44 reson1;
#X obj 157 64 reson1;
#X obj 157 84 reson1;
#X obj 157 104 reson1;
#X obj 157 124 reson1;
#X obj 157 144 reson1;
#X obj 157 164 reson1;
#X obj 157 184 reson1;
#X obj 157 204 reson1;
#X obj 213 24 reson1;
#X obj 213 44 reson1;
#X obj 213 64 reson1;
#X obj 213 84 reson1;
#X obj 213 104 reson1;
#X obj 213 124 reson1;
#X obj 213 144 reson1;
#X obj 213 164 reson1;
#X obj 213 184 reson1;
#X obj 213 204 reson1;
#X obj 265 23 reson1;
#X obj 265 43 reson1;
#X obj 265 63 reson1;
#X obj 265 83 reson1;
#X obj 265 103 reson1;
#X obj 265 123 reson1;
#X obj 265 143 reson1;
#X obj 265 163 reson1;
#X obj 265 183 reson1;
#X obj 265 203 reson1;
#X obj 316 24 reson1;
#X obj 316 44 reson1;
#X obj 316 64 reson1;
#X obj 316 84 reson1;
#X obj 316 104 reson1;
#X obj 316 124 reson1;
#X obj 316 144 reson1;
#X obj 316 164 reson1;
#X obj 316 184 reson1;
#X obj 316 204 reson1;
#X obj 372 24 reson1;
#X obj 372 44 reson1;
#X obj 372 64 reson1;
#X obj 372 84 reson1;
#X obj 372 104 reson1;
#X obj 372 124 reson1;
#X obj 372 144 reson1;
#X obj 372 164 reson1;
#X obj 372 184 reson1;
#X obj 372 204 reson1;
#X obj 427 24 reson1;
#X obj 427 44 reson1;
#X obj 427 64 reson1;
#X obj 427 84 reson1;
#X obj 427 104 reson1;
#X obj 427 124 reson1;
#X obj 427 144 reson1;
#X obj 427 164 reson1;
#X obj 427 184 reson1;
#X obj 427 204 reson1;
#X obj 483 24 reson1;
#X obj 483 44 reson1;
#X obj 483 64 reson1;
#X obj 483 84 reson1;
#X obj 483 104 reson1;
#X obj 483 124 reson1;
#X obj 483 144 reson1;
#X obj 483 164 reson1;
#X obj 483 184 reson1;
#X obj 483 204 reson1;
#X obj 535 23 reson1;
#X obj 535 43 reson1;
#X obj 535 63 reson1;
#X obj 535 83 reson1;
#X obj 535 103 reson1;
#X obj 535 123 reson1;
#X obj 535 143 reson1;
#X obj 535 163 reson1;
#X obj 535 183 reson1;
#X obj 535 203 reson1;
#X obj 46 241 reson1;
#X obj 46 261 reson1;
#X obj 46 281 reson1;
#X obj 46 301 reson1;
#X obj 46 321 reson1;
#X obj 46 341 reson1;
#X obj 46 361 reson1;
#X obj 46 381 reson1;
#X obj 46 401 reson1;
#X obj 46 421 reson1;
#X obj 102 241 reson1;
#X obj 102 261 reson1;
#X obj 102 281 reson1;
#X obj 102 301 reson1;
#X obj 102 321 reson1;
#X obj 102 341 reson1;
#X obj 102 361 reson1;
#X obj 102 381 reson1;
#X obj 102 401 reson1;
#X obj 102 421 reson1;
#X obj 157 241 reson1;
#X obj 157 261 reson1;
#X obj 157 281 reson1;
#X obj 157 301 reson1;
#X obj 157 321 reson1;
#X obj 157 341 reson1;
#X obj 157 361 reson1;
#X obj 157 381 reson1;
#X obj 157 401 reson1;
#X obj 157 421 reson1;
#X obj 213 241 reson1;
#X obj 213 261 reson1;
#X obj 213 281 reson1;
#X obj 213 301 reson1;
#X obj 213 321 reson1;
#X obj 213 341 reson1;
#X obj 213 361 reson1;
#X obj 213 381 reson1;
#X obj 213 401 reson1;
#X obj 213 421 reson1;
#X obj 265 240 reson1;
#X obj 265 260 reson1;
#X obj 265 280 reson1;
#X obj 265 300 reson1;
#X obj 265 320 reson1;
#X obj 265 340 reson1;
#X obj 265 360 reson1;
#X obj 265 380 reson1;
#X obj 265 400 reson1;
#X obj 265 420 reson1;
#X obj 316 241 reson1;
#X obj 316 261 reson1;
#X obj 316 281 reson1;
#X obj 316 301 reson1;
#X obj 316 321 reson1;
#X obj 316 341 reson1;
#X obj 316 361 reson1;
#X obj 316 381 reson1;
#X obj 316 401 reson1;
#X obj 316 421 reson1;
#X obj 372 241 reson1;
#X obj 372 261 reson1;
#X obj 372 281 reson1;
#X obj 372 301 reson1;
#X obj 372 321 reson1;
#X obj 372 341 reson1;
#X obj 372 361 reson1;
#X obj 372 381 reson1;
#X obj 372 401 reson1;
#X obj 372 421 reson1;
#X obj 427 241 reson1;
#X obj 427 261 reson1;
#X obj 427 281 reson1;
#X obj 427 301 reson1;
#X obj 427 321 reson1;
#X obj 427 341 reson1;
#X obj 427 361 reson1;
#X obj 427 381 reson1;
#X obj 427 401 reson1;
#X obj 427 421 reson1;
#X obj 483 241 reson1;
#X obj 483 261 reson1;
#X obj 483 281 reson1;
#X obj 483 301 reson1;
#X obj 483 321 reson1;
#X obj 483 341 reson1;
#X obj 483 361 reson1;
#X obj 483 381 reson1;
#X obj 483 401 reson1;
#X obj 483 421 reson1;
#X obj 535 240 reson1;
#X obj 535 260 reson1;
#X obj 535 280 reson1;
#X obj 535 300 reson1;
#X obj 535 320 reson1;
#X obj 535 340 reson1;
#X obj 535 360 reson1;
#X obj 535 380 reson1;
#X obj 535 400 reson1;
#X obj 535 420 reson1;
#X obj 49 452 reson1;
#X obj 49 472 reson1;
#X obj 49 492 reson1;
#X obj 49 512 reson1;
#X obj 49 532 reson1;
#X obj 49 552 reson1;
#X obj 49 572 reson1;
#X obj 49 592 reson1;
#X obj 49 612 reson1;
#X obj 49 632 reson1;
#X obj 105 452 reson1;
#X obj 105 472 reson1;
#X obj 105 492 reson1;
#X obj 105 512 reson1;
#X obj 105 532 reson1;
#X obj 105 552 reson1;
#X obj 105 572 reson1;
#X obj 105 592 reson1;
#X obj 105 612 reson1;
#X obj 105 632 reson1;
#X obj 160 452 reson1;
#X obj 160 472 reson1;
#X obj 160 492 reson1;
#X obj 160 512 reson1;
#X obj 160 532 reson1;
#X obj 160 552 reson1;
#X obj 160 572 reson1;
#X obj 160 592 reson1;
#X obj 160 612 reson1;
#X obj 160 632 reson1;
#X obj 216 452 reson1;
#X obj 216 472 reson1;
#X obj 216 492 reson1;
#X obj 216 512 reson1;
#X obj 216 532 reson1;
#X obj 216 552 reson1;
#X obj 216 572 reson1;
#X obj 216 592 reson1;
#X obj 216 612 reson1;
#X obj 216 632 reson1;
#X obj 268 451 reson1;
#X obj 268 471 reson1;
#X obj 268 491 reson1;
#X obj 268 511 reson1;
#X obj 268 531 reson1;
#X obj 268 551 reson1;
#X obj 268 571 reson1;
#X obj 268 591 reson1;
#X obj 268 611 reson1;
#X obj 268 631 reson1;
#X obj 319 452 reson1;
#X obj 319 472 reson1;
#X obj 319 492 reson1;
#X obj 319 512 reson1;
#X obj 319 532 reson1;
#X obj 319 552 reson1;
#X obj 319 572 reson1;
#X obj 319 592 reson1;
#X obj 319 612 reson1;
#X obj 319 632 reson1;
#X obj 375 452 reson1;
#X obj 375 472 reson1;
#X obj 375 492 reson1;
#X obj 375 512 reson1;
#X obj 375 532 reson1;
#X obj 375 552 reson1;
#X obj 375 572 reson1;
#X obj 375 592 reson1;
#X obj 375 612 reson1;
#X obj 375 632 reson1;
#X obj 430 452 reson1;
#X obj 430 472 reson1;
#X obj 430 492 reson1;
#X obj 430 512 reson1;
#X obj 430 532 reson1;
#X obj 430 552 reson1;
#X obj 430 572 reson1;
#X obj 430 592 reson1;
#X obj 430 612 reson1;
#X obj 430 632 reson1;
#X obj 486 452 reson1;
#X obj 486 472 reson1;
#X obj 486 492 reson1;
#X obj 486 512 reson1;
#X obj 486 532 reson1;
#X obj 486 552 reson1;
#X obj 486 572 reson1;
#X obj 486 592 reson1;
#X obj 486 612 reson1;
#X obj 486 632 reson1;
#X obj 538 451 reson1;
#X obj 538 471 reson1;
#X obj 538 491 reson1;
#X obj 538 511 reson1;
#X obj 538 531 reson1;
#X obj 538 551 reson1;
#X obj 538 571 reson1;
#X obj 538 591 reson1;
#X obj 538 611 reson1;
#X obj 538 631 reson1;
#X restore 98 274 pd reson-bank;
#N canvas 423 74 499 530 stuff 0;
#X obj 251 170 setctl base-freq;
#X obj 253 197 setctl freq-spread;
#X obj 253 217 setctl freq-random;
#X obj 253 245 setctl decay;
#X obj 249 267 setctl decay-random;
#X obj 94 360 t b f;
#X obj 52 301 r base-freq;
#X obj 73 400 pack 0 0 0 0 0;
#X obj 226 303 r freq-spread;
#X obj 137 303 r freq-random;
#X obj 140 361 t b f;
#X obj 184 363 t b f;
#X obj 231 364 t b f;
#X obj 315 302 r decay;
#X obj 371 303 r decay-random;
#X obj 75 423 t l b;
#X obj 75 443 s params;
#X obj 158 430 0;
#X obj 158 450 v count;
#X obj 68 482 print params;
#X connect 5 0 7 0;
#X connect 5 1 7 1;
#X connect 6 0 7 0;
#X connect 7 0 15 0;
#X connect 8 0 10 0;
#X connect 9 0 5 0;
#X connect 10 0 7 0;
#X connect 10 1 7 2;
#X connect 11 0 7 0;
#X connect 11 1 7 3;
#X connect 12 0 7 0;
#X connect 12 1 7 4;
#X connect 13 0 11 0;
#X connect 14 0 12 0;
#X connect 15 0 16 0;
#X connect 15 0 19 0;
#X connect 15 1 17 0;
#X connect 17 0 18 0;
#X restore 103 299 pd stuff;
#X floatatom 156 331 5 0 0 0 base-freq base-freq-set base-freq;
#X floatatom 156 350 5 0 0 0 freq-spread freq-spread-set freq-spread
;
#X floatatom 157 366 5 0 0 0 freq-random freq-random-set freq-random
;
#X floatatom 157 388 5 0 9999 0 decay decay-set decay;
#X floatatom 159 407 5 0 9999 0 decay-random decay-random-set decay-random
;
#X obj 366 408 catch~ spring-out;
#X obj 371 251 s~ spring-in;
#X obj 379 87 osc~;
#X floatatom 379 30 5 0 0 0 - - -;
#X obj 376 138 *~;
#X obj 483 58 metro;
#X obj 454 32 tgl 15 0 empty empty empty 17 7 0 10 -262144 -1 -1 1
1;
#X floatatom 523 25 5 0 0 0 - - -;
#X obj 350 621 output~;
#X obj 364 554 clip~ -1 1;
#X obj 360 503 hip~ 1;
#X obj 360 470 *~ 0.0001;
#X obj 645 116 random 100;
#X obj 649 168 / 100;
#X obj 441 114 *~;
#X obj 562 71 random 1000;
#X obj 503 104 adenv~ 1 40;
#X text 146 152 10/10/1000/20/500;
#X connect 7 0 18 0;
#X connect 9 0 11 0;
#X connect 10 0 9 0;
#X connect 11 0 8 0;
#X connect 12 0 19 0;
#X connect 12 0 22 0;
#X connect 12 0 23 0;
#X connect 13 0 12 0;
#X connect 14 0 12 1;
#X connect 16 0 15 0;
#X connect 16 0 15 1;
#X connect 17 0 16 0;
#X connect 18 0 17 0;
#X connect 19 0 20 0;
#X connect 20 0 21 1;
#X connect 21 0 11 1;
#X connect 22 0 9 0;
#X connect 23 0 21 0;
