#N canvas 218 22 1024 709 10;
#X obj 48 110 pulse 120 1 8;
#X obj 87 178 clockdivider;
#X obj 227 75 ii;
#X obj 23 429 zl nth;
#X obj 65 336 t b;
#X floatatom 50 452 5 0 0 0 - - -;
#X obj 29 86 tgl 15 0 empty empty empty 17 7 0 10 -262144 -1 -1 1 1
;
#X obj 89 592 makenote;
#X obj 106 642 noteout;
#X obj 72 521 +;
#X floatatom 133 383 5 0 0 0 - - -;
#X obj 421 390 zl nth;
#X obj 482 284 t b;
#X floatatom 418 430 5 0 0 0 - - -;
#X obj 404 569 makenote;
#X obj 421 619 noteout;
#X obj 388 524 +;
#X floatatom 436 498 5 0 0 0 - - -;
#X msg 477 322 1 3 5 6 8 10 11;
#X obj 72 384 list;
#X obj 325 197 onebang;
#X obj 323 231 bng 15 250 50 0 empty empty empty 17 7 0 10 -262144
-1 -1;
#X obj 121 292 bng 15 250 50 0 empty empty empty 17 7 0 10 -262144
-1 -1;
#X msg 224 116 1 3 5 3 2;
#X floatatom 163 625 5 0 0 0 - - -;
#X floatatom 482 599 5 0 0 0 - - -;
#X msg 167 526 150;
#X msg 448 543 50;
#X msg 505 570 100;
#X obj 683 168 frv;
#X obj 813 314 * 50;
#X obj 658 474 frv;
#X obj 764 601 * 150;
#X floatatom 727 640 5 0 0 0 - - -;
#X floatatom 817 365 5 0 0 0 - - -;
#X floatatom 666 569 5 0 0 0 - - -;
#X floatatom 862 284 5 0 0 0 - - -;
#X floatatom 829 587 5 0 0 0 - - -;
#X msg 103 542 20;
#X obj 670 267 * 100;
#X obj 583 531 * 100;
#X obj 294 374 nbx 5 14 -1e+37 1e+37 0 0 empty empty empty 0 -8 0 10
-262144 -1 -1 -2 256;
#X obj 190 396 nbx 5 14 -1e+37 1e+37 0 0 empty empty empty 0 -8 0 10
-262144 -1 -1 -1 256;
#X obj 128 437 12toneoffset;
#X obj 275 429 12toneoffset;
#X obj 419 197 clockdivider;
#X obj 51 263 mutateseq;
#X floatatom 122 516 5 0 0 0 - - -;
#X obj 670 307 s \$0-note1vel;
#X obj 137 542 r \$0-note1vel;
#X obj 780 632 s \$0-note1length;
#X obj 158 563 r \$0-note1length;
#X obj 839 345 s \$0-note2length;
#X obj 490 484 r \$0-note2length;
#X obj 257 300 bng 15 250 50 0 empty empty empty 17 7 0 10 -262144
-1 -1;
#X obj 477 227 bng 15 250 50 0 empty empty empty 17 7 0 10 -262144
-1 -1;
#X obj 83 228 bng 15 250 50 0 empty empty empty 17 7 0 10 -262144 -1
-1;
#X obj 470 256 mutateseq;
#X floatatom 45 633 5 0 0 0 - - -;
#X obj 45 212 bng 15 250 50 0 empty empty empty 17 7 0 10 -262144 -1
-1;
#X obj 119 259 countmeasures 4 4;
#X obj 250 271 countmeasures 7 4;
#X obj 263 323 mutateoctave 0 -2 0;
#X obj 391 151 euclid 5 1 8;
#X msg 439 105 5;
#X msg 491 105 6;
#X obj 448 73 t b b;
#X obj 355 50 sel 0 1;
#X obj 350 83 t b b;
#X msg 333 117 3;
#X msg 373 119 4;
#X obj 297 159 euclid 3 1 8;
#X obj 269 23 random 2;
#X obj 151 49 bng 15 250 50 0 empty empty empty 17 7 0 10 -262144 -1
-1;
#X obj 125 321 mutateoctave -2 -2 -1;
#X obj 129 17 countmeasures 16 4;
#X msg 524 222 1 7 2 4 5;
#X connect 0 0 1 0;
#X connect 0 0 63 0;
#X connect 0 0 71 0;
#X connect 1 0 59 0;
#X connect 1 0 75 0;
#X connect 1 2 61 0;
#X connect 1 3 56 0;
#X connect 1 3 60 0;
#X connect 2 0 23 0;
#X connect 3 0 5 0;
#X connect 4 0 19 0;
#X connect 5 0 9 0;
#X connect 6 0 0 0;
#X connect 7 0 8 0;
#X connect 7 0 58 0;
#X connect 7 1 8 1;
#X connect 9 0 7 0;
#X connect 10 0 43 0;
#X connect 10 0 44 0;
#X connect 11 0 13 0;
#X connect 12 0 18 0;
#X connect 13 0 16 0;
#X connect 14 0 15 0;
#X connect 14 1 15 1;
#X connect 16 0 14 0;
#X connect 17 0 16 1;
#X connect 18 0 11 0;
#X connect 18 0 19 1;
#X connect 18 0 46 3;
#X connect 18 0 57 3;
#X connect 19 0 3 0;
#X connect 20 0 21 0;
#X connect 20 0 45 0;
#X connect 20 0 57 0;
#X connect 22 0 74 0;
#X connect 23 0 46 2;
#X connect 24 0 8 2;
#X connect 25 0 15 2;
#X connect 26 0 7 2;
#X connect 27 0 14 1;
#X connect 28 0 14 2;
#X connect 29 0 39 0;
#X connect 29 1 30 0;
#X connect 30 0 34 0;
#X connect 30 0 52 0;
#X connect 31 0 35 0;
#X connect 31 0 40 0;
#X connect 31 1 32 0;
#X connect 32 0 33 0;
#X connect 32 0 50 0;
#X connect 36 0 30 1;
#X connect 37 0 32 1;
#X connect 38 0 7 1;
#X connect 39 0 48 0;
#X connect 40 0 14 1;
#X connect 41 0 44 1;
#X connect 42 0 43 1;
#X connect 43 0 47 0;
#X connect 43 0 9 1;
#X connect 44 0 17 0;
#X connect 45 2 55 0;
#X connect 46 0 4 0;
#X connect 46 0 3 1;
#X connect 49 0 7 1;
#X connect 51 0 7 2;
#X connect 53 0 14 2;
#X connect 54 0 62 0;
#X connect 55 0 57 1;
#X connect 56 0 46 1;
#X connect 57 0 11 1;
#X connect 57 0 12 0;
#X connect 59 0 46 0;
#X connect 60 0 22 0;
#X connect 61 0 54 0;
#X connect 62 0 41 0;
#X connect 63 0 20 1;
#X connect 64 0 71 1;
#X connect 65 0 63 1;
#X connect 66 0 64 0;
#X connect 66 1 65 0;
#X connect 67 0 68 0;
#X connect 67 1 66 0;
#X connect 68 0 69 0;
#X connect 68 1 70 0;
#X connect 69 0 71 1;
#X connect 70 0 63 1;
#X connect 71 0 20 0;
#X connect 72 0 67 0;
#X connect 74 0 42 0;
#X connect 75 0 72 0;
#X connect 75 0 73 0;
#X connect 76 0 57 2;
