#N canvas 92 26 578 700 10;
#X obj 46 64 inlet;
#X obj 131 63 inlet;
#X text 30 38 clock bang;
#X text 119 38 mutate bang;
#X obj 243 63 inlet;
#X text 224 42 initial notes;
#X floatatom 203 370 5 0 0 0 - - -;
#X obj 165 183 bng 15 250 50 0 empty empty empty 17 7 0 10 -262144
-1 -1;
#X obj 201 337 zl nth;
#X obj 294 224 zl len;
#X obj 155 273 list;
#X floatatom 328 252 5 0 0 0 - - -;
#X obj 290 588 list-replace;
#X obj 244 166 list;
#X msg 270 97 list 1 3 5 3 2;
#X floatatom 328 351 5 0 0 0 - - -;
#X obj 327 320 random 2;
#X text 358 231 get length of list of notes;
#X obj 217 282 random;
#X text 367 428 pick one element and mutate it;
#X obj 347 378 sel 0 1;
#X msg 322 407 -1;
#X msg 354 410 1;
#X obj 329 186 s \$0-listdown;
#X obj 354 551 r \$0-listdown;
#X obj 258 333 t f f;
#X obj 301 661 s \$0-listup;
#X obj 266 134 r \$0-listup;
#X floatatom 362 516 5 0 0 0 - - -;
#X floatatom 268 370 5 0 0 0 - - -;
#X obj 221 248 t b b;
#X obj 316 546 - 1;
#X obj 249 202 t l l l;
#X obj 403 296 t f f f;
#X obj 449 349 s \$0-listlength;
#X obj 118 457 r \$0-listlength;
#X obj 115 232 s \$0-printlist;
#X obj 86 514 r \$0-printlist;
#X obj 41 570 zl nth;
#X obj 48 111 bng 15 250 50 0 empty empty empty 17 7 0 10 -262144 -1
-1;
#X floatatom 45 608 5 0 0 0 - - -;
#X obj 47 651 outlet;
#X floatatom 110 485 5 0 0 0 - - -;
#X floatatom 4 526 5 0 0 0 - - -;
#X obj 42 542 list;
#X obj 39 517 t b;
#X obj 35 492 counter 1 1;
#X obj 400 649 print mutated;
#X text 80 588 output nth in sequence;
#X obj 388 344 t b;
#X obj 342 454 *;
#X obj 401 61 inlet;
#X text 402 40 scale;
#X obj 399 150 s \$0-scalelength;
#X obj 400 98 zl len;
#X obj 420 458 r \$0-scalelength;
#X floatatom 424 123 5 0 0 0 - - -;
#X obj 417 379 random 3;
#X obj 410 409 + 1;
#X obj 327 481 rotateval;
#X msg 479 400 1;
#X obj 487 379 ii;
#X connect 0 0 39 0;
#X connect 1 0 7 0;
#X connect 4 0 13 0;
#X connect 6 0 59 0;
#X connect 7 0 30 0;
#X connect 8 0 6 0;
#X connect 9 0 11 0;
#X connect 10 0 8 0;
#X connect 11 0 33 0;
#X connect 12 0 26 0;
#X connect 12 0 47 0;
#X connect 13 0 9 1;
#X connect 13 0 23 0;
#X connect 13 0 32 0;
#X connect 14 0 13 0;
#X connect 15 0 20 0;
#X connect 16 0 15 0;
#X connect 16 0 49 0;
#X connect 18 0 25 0;
#X connect 20 0 21 0;
#X connect 20 1 22 0;
#X connect 21 0 50 0;
#X connect 22 0 50 0;
#X connect 24 0 12 2;
#X connect 25 0 8 1;
#X connect 25 1 29 0;
#X connect 27 0 13 0;
#X connect 29 0 31 0;
#X connect 30 0 10 0;
#X connect 30 0 18 0;
#X connect 30 1 16 0;
#X connect 31 0 12 1;
#X connect 32 0 36 0;
#X connect 32 1 9 0;
#X connect 32 1 10 1;
#X connect 33 0 18 1;
#X connect 33 2 34 0;
#X connect 35 0 42 0;
#X connect 35 0 46 4;
#X connect 37 0 44 1;
#X connect 38 0 40 0;
#X connect 39 0 46 0;
#X connect 40 0 41 0;
#X connect 44 0 38 0;
#X connect 45 0 44 0;
#X connect 46 0 43 0;
#X connect 46 0 38 1;
#X connect 46 0 45 0;
#X connect 49 0 57 0;
#X connect 50 0 59 1;
#X connect 51 0 54 0;
#X connect 54 0 53 0;
#X connect 54 0 56 0;
#X connect 55 0 59 3;
#X connect 57 0 58 0;
#X connect 58 0 50 1;
#X connect 59 0 12 0;
#X connect 59 0 28 0;
#X connect 60 0 59 2;
#X connect 61 0 60 0;
