#N canvas 298 41 1111 644 10;
#X obj 76 38 bng 15 250 50 0 empty empty empty 17 7 0 10 -262144 -1
-1;
#X obj 208 461 quantize;
#X obj 727 338 ii;
#X floatatom 240 413 5 0 0 0 - - -;
#X obj 219 508 makenote;
#X obj 230 548 noteout;
#X msg 294 533 1;
#X floatatom 139 442 5 0 0 0 - - -;
#X msg 285 470 200;
#X msg 314 499 200;
#X obj 372 469 expr ($f1 * 255) + 100;
#X obj 396 163 208random;
#X obj 538 468 quantize;
#X floatatom 570 420 5 0 0 0 - - -;
#X obj 549 515 makenote;
#X obj 560 555 noteout;
#X msg 624 540 1;
#X msg 644 506 200;
#X obj 702 476 expr ($f1 * 255) + 100;
#X floatatom 496 518 5 0 0 0 - - -;
#X floatatom 595 344 5 0 0 0 - - -;
#X obj 477 143 f;
#X obj 521 143 + 1;
#X obj 477 177 mod 100;
#X msg 615 477 30;
#X msg 684 365 1 3 4 7 8 10 11;
#X obj 391 318 expr ($f1 * 50);
#X floatatom 457 101 5 0 0 0 - - -;
#X obj 92 64 pulse 130 1 8;
#X obj 193 72 clockdivider;
#X obj 501 435 f;
#X obj 385 58 int;
#X obj 384 83 * 2;
#X obj 386 33 expr ($f1 * 2) + 1;
#X obj 176 121 bng 15 250 50 0 empty empty empty 17 7 0 10 -262144
-1 -1;
#X obj 76 126 bng 15 250 50 0 empty empty empty 17 7 0 10 -262144 -1
-1;
#X floatatom 374 390 5 0 0 0 - - -;
#X connect 0 0 28 0;
#X connect 1 0 4 0;
#X connect 2 0 25 0;
#X connect 3 0 1 1;
#X connect 4 0 5 0;
#X connect 4 1 5 1;
#X connect 6 0 5 2;
#X connect 7 0 10 0;
#X connect 8 0 4 1;
#X connect 9 0 4 2;
#X connect 10 0 4 2;
#X connect 11 0 26 0;
#X connect 11 1 20 0;
#X connect 11 1 30 1;
#X connect 11 2 18 0;
#X connect 11 3 33 0;
#X connect 12 0 14 0;
#X connect 12 0 19 0;
#X connect 13 0 12 1;
#X connect 14 0 15 0;
#X connect 14 1 15 1;
#X connect 16 0 15 2;
#X connect 17 0 14 2;
#X connect 18 0 14 2;
#X connect 21 0 22 0;
#X connect 21 0 23 0;
#X connect 22 0 21 1;
#X connect 24 0 14 1;
#X connect 25 0 1 2;
#X connect 25 0 12 2;
#X connect 26 0 4 1;
#X connect 28 0 29 0;
#X connect 28 0 35 0;
#X connect 29 1 34 0;
#X connect 29 4 11 0;
#X connect 30 0 12 0;
#X connect 31 0 32 0;
#X connect 32 0 27 0;
#X connect 33 0 31 0;
