#N canvas 320 28 910 699 10;
#X obj 329 627 output~;
#X obj 28 3 tgl 15 0 empty empty empty 17 7 0 10 -262144 -1 -1 1 1
;
#N canvas 626 128 674 592 perc~ 0;
#X obj 274 79 208random;
#X obj 177 167 bng 15 250 50 0 empty empty empty 17 7 0 10 -262144
-1 -1;
#X floatatom 166 255 5 0 0 0 - - -;
#X obj 420 264 envelope~;
#X obj 322 312 pink~;
#X obj 171 329 metro 1;
#X floatatom 276 279 5 0 0 0 - - -;
#X obj 265 240 + 0;
#X obj 349 429 *~;
#X obj 196 442 kick~;
#X obj 349 494 *~ 1;
#X obj 331 389 cos~;
#X obj 142 155 * 2;
#X obj 323 346 vcf~;
#X obj 89 72 pulse 120 1 1 4;
#X obj 396 106 sig~;
#X floatatom 386 56 5 0 0 0 - - -;
#X obj 342 112 * 5000;
#X obj 263 12 inlet;
#X obj 57 12 inlet;
#X obj 82 317 metro 1;
#X obj 345 525 outlet~;
#X obj 193 371 nbx 5 14 -1e+37 1e+37 0 1 empty empty empty 0 -8 0 10
-262144 -1 -1 0 256;
#X obj 226 391 nbx 5 14 -1e+37 1e+37 0 1 empty empty empty 0 -8 0 10
-262144 -1 -1 300 256;
#X obj 233 412 nbx 5 14 -1e+37 1e+37 0 1 empty empty empty 0 -8 0 10
-262144 -1 -1 300 256;
#X floatatom 278 152 5 0 0 0 - - -;
#X obj 145 117 randrhythm 4 120 2;
#X obj 229 187 randrhythm 4 120 1;
#X obj 346 467 *~;
#X obj 397 432 nbx 5 14 -1e+37 1e+37 0 1 empty empty empty 0 -8 0 10
-262144 -1 -1 0.3 256;
#X connect 0 0 25 0;
#X connect 0 0 27 0;
#X connect 0 1 26 0;
#X connect 0 2 13 2;
#X connect 0 3 17 0;
#X connect 1 0 0 0;
#X connect 2 0 5 1;
#X connect 3 0 8 1;
#X connect 4 0 13 0;
#X connect 5 0 3 0;
#X connect 5 0 1 0;
#X connect 7 0 6 0;
#X connect 7 0 2 0;
#X connect 8 0 28 0;
#X connect 9 0 10 0;
#X connect 10 0 21 0;
#X connect 11 0 8 0;
#X connect 12 0 20 1;
#X connect 13 0 11 0;
#X connect 14 0 9 0;
#X connect 15 0 13 1;
#X connect 16 0 15 0;
#X connect 17 0 16 0;
#X connect 18 0 14 1;
#X connect 18 0 26 2;
#X connect 18 0 27 2;
#X connect 19 0 14 0;
#X connect 19 0 5 0;
#X connect 19 0 20 0;
#X connect 20 0 9 0;
#X connect 22 0 9 1;
#X connect 23 0 9 2;
#X connect 24 0 9 3;
#X connect 26 0 12 0;
#X connect 27 0 7 0;
#X connect 28 0 10 0;
#X connect 29 0 28 1;
#X restore 48 179 pd perc~;
#X obj 352 287 verb~;
#X obj 35 262 vols~;
#X obj 80 217 hsl 75 15 50 100 0 1 empty empty empty -2 -8 0 10 -262144
-1 -1 6200 1;
#X obj 342 512 vols~;
#X obj 387 485 hsl 75 15 50 100 0 1 empty empty empty -2 -8 0 10 -262144
-1 -1 6000 1;
#N canvas 137 113 819 599 voice1~ 1;
#X obj 324 68 frv;
#X obj 370 182 qrv;
#X obj 58 254 quantize;
#X obj 69 219 nbx 5 14 0 1e+37 0 1 empty empty empty 0 -8 0 10 -262144
-1 -1 58 256;
#X floatatom 84 293 5 0 0 0 - - -;
#X obj 312 285 complexosc~;
#X obj 105 360 envelope~;
#X obj 113 317 t b f;
#X obj -1 87 pulse 120 1 8;
#X obj 189 318 mtof;
#X obj 154 112 countmeasures 4 8;
#X obj 197 162 numberseq;
#X msg 217 139 0.2 0.8;
#X obj 275 433 lpg~ 200;
#X obj 380 426 * 10000;
#X obj 557 200 cvscale;
#X obj 262 540 outlet~;
#X obj 1 19 inlet;
#X obj 91 17 inlet;
#X obj 276 76 ii;
#X obj 155 187 ii;
#X obj 49 190 metro 1;
#X floatatom 22 223 5 0 0 0 - - -;
#X obj 178 50 208random;
#X obj 26 159 randrhythm 3 120 2;
#X obj 265 27 * 10;
#X obj 127 186 bng 15 250 50 0 empty empty empty 17 7 0 10 -262144
-1 -1;
#X floatatom 38 309 5 0 0 0 - - -;
#X obj 537 68 frv;
#X obj 388 25 nbx 5 14 -1e+37 1e+37 0 1 empty empty empty 0 -8 0 10
-262144 -1 -1 0.005 256;
#X obj 546 13 nbx 5 14 -1e+37 1e+37 0 1 empty empty empty 0 -8 0 10
-262144 -1 -1 0.001 256;
#X msg 138 215 0 2 3 5 7 8 11 12 14 15 17 19 20 23;
#X obj 639 237 frv;
#X obj 649 194 nbx 7 14 -1e+37 1e+37 0 1 empty empty empty 0 -8 0 10
-262144 -1 -1 0.0005 256;
#X connect 0 0 6 2;
#X connect 0 0 25 0;
#X connect 0 1 1 3;
#X connect 0 1 5 2;
#X connect 1 0 2 0;
#X connect 2 0 4 0;
#X connect 2 0 27 0;
#X connect 3 0 2 1;
#X connect 4 0 7 0;
#X connect 5 0 13 0;
#X connect 6 0 13 2;
#X connect 7 0 6 0;
#X connect 7 1 9 0;
#X connect 8 0 10 0;
#X connect 9 0 5 0;
#X connect 10 0 11 0;
#X connect 11 0 1 2;
#X connect 12 0 11 1;
#X connect 13 0 16 0;
#X connect 14 0 13 1;
#X connect 15 0 5 3;
#X connect 17 0 8 0;
#X connect 17 0 21 0;
#X connect 18 0 8 1;
#X connect 18 0 24 2;
#X connect 19 0 12 0;
#X connect 20 0 31 0;
#X connect 21 0 1 0;
#X connect 21 0 23 0;
#X connect 23 0 24 0;
#X connect 24 0 21 1;
#X connect 24 0 22 0;
#X connect 25 0 24 1;
#X connect 26 0 21 0;
#X connect 28 1 15 0;
#X connect 28 1 14 0;
#X connect 29 0 0 0;
#X connect 30 0 28 0;
#X connect 31 0 2 2;
#X connect 32 1 5 4;
#X connect 33 0 32 0;
#X restore 372 233 pd voice1~;
#X obj 122 17 nbx 5 14 -1e+37 1e+37 0 0 empty empty empty 0 -8 0 10
-262144 -1 -1 120 256;
#X obj 297 543 clip~ -1 1;
#X obj 397 539 clip~ -1 1;
#X obj 299 576 hip~ 1;
#X obj 376 573 hip~ 1;
#X obj 36 312 verb~;
#X obj 347 601 vols~;
#X obj 603 530 vu~;
#X obj 553 529 vsl 15 128 0 120 0 1 empty empty empty 0 -9 0 10 -262144
-1 -1 10700 1;
#X obj 135 634 recorder~;
#X connect 1 0 2 0;
#X connect 1 0 8 0;
#X connect 2 0 4 0;
#X connect 2 0 4 1;
#X connect 3 0 6 0;
#X connect 3 1 6 1;
#X connect 4 0 14 0;
#X connect 4 1 14 1;
#X connect 5 0 4 2;
#X connect 6 0 10 0;
#X connect 6 1 11 0;
#X connect 7 0 6 2;
#X connect 8 0 3 1;
#X connect 8 0 3 0;
#X connect 9 0 2 1;
#X connect 9 0 8 1;
#X connect 10 0 12 0;
#X connect 11 0 13 0;
#X connect 12 0 15 0;
#X connect 13 0 15 1;
#X connect 14 0 10 0;
#X connect 14 1 11 0;
#X connect 15 0 0 0;
#X connect 15 0 18 0;
#X connect 15 1 0 1;
#X connect 15 1 16 0;
#X connect 15 1 18 1;
#X connect 17 0 15 2;
