#N canvas 45 22 1098 700 10;
#X obj 82 80 mini16seq;
#X obj 453 614 output~;
#X obj 441 527 hip~ 1;
#X obj 241 364 quantize;
#X floatatom 270 323 5 0 127 0 - - -;
#X obj 218 314 t b f;
#N canvas 143 298 450 300 envelope 0;
#X obj 58 250 outlet~;
#X obj 90 28 inlet;
#X obj 148 27 inlet;
#X obj 201 28 inlet;
#X obj 105 150 knob 32 32 0.01 1 1 0 empty empty cv_scale 0 -8 1 10
-262144 -1 -1 1900 1;
#X obj 151 150 knob 32 32 0.01 1 1 0 empty empty cv_scale 0 -8 1 10
-262144 -1 -1 3100 1;
#X obj 143 61 * 5000;
#X obj 202 61 * 5000;
#X obj 203 240 *;
#X obj 254 240 *;
#X obj 105 203 hsl 90 15 0.01 1 1 1 empty empty level -2 -8 1 10 -262144
-1 -1 7800 1;
#X obj 42 214 *~;
#X obj 256 117 ii;
#X msg 254 161 1;
#X obj 153 117 nbx 4 14 0.1 10000 1 0 empty empty decay 0 -8 1 10 -262144
-1 -1 1348.87 256;
#X obj 106 117 nbx 4 14 0.1 10000 1 0 empty empty attack 0 -8 1 10
-262144 -1 -1 308.397 256;
#X obj 33 161 ead~;
#X connect 1 0 16 0;
#X connect 2 0 6 0;
#X connect 3 0 7 0;
#X connect 4 0 8 1;
#X connect 5 0 9 1;
#X connect 6 0 8 0;
#X connect 7 0 9 0;
#X connect 8 0 15 0;
#X connect 9 0 14 0;
#X connect 10 0 11 1;
#X connect 11 0 0 0;
#X connect 12 0 13 0;
#X connect 13 0 10 0;
#X connect 14 0 16 2;
#X connect 15 0 16 1;
#X connect 16 0 11 0;
#X coords 0 -1 1 1 100 120 2 100 100;
#X restore 126 453 pd envelope;
#X obj 189 14 tgl 15 0 empty empty empty 17 7 0 10 -262144 -1 -1 1
1;
#X msg 339 316 1 3 4 6 7 9 11;
#X obj 245 390 mtof;
#X obj 637 420 *~ 0.8;
#X obj 543 352 crossfade~;
#X obj 639 352 hsl 128 15 0 1 0 0 empty empty empty -2 -8 0 10 -262144
-1 -1 7900 1;
#X obj 500 527 hip~ 1;
#N canvas 74 105 840 601 waveguide 0;
#N canvas 472 64 858 658 bbd 0;
#X obj 441 353 *~ 0;
#X obj 375 210 line~;
#X floatatom 518 165 7 0 0 0 - - -;
#X obj 125 37 inlet~;
#X obj 242 748 outlet~;
#X obj 377 148 nbx 5 14 -1e+37 1e+37 0 0 empty empty empty 0 -8 0 10
-262144 -1 -1 2.98903 256;
#X obj 423 614 s~ \$0-fdbk;
#X obj 186 64 r~ \$0-fdbk;
#X obj 376 36 inlet;
#X obj 133 94 delwrite~ \$0-b1 500;
#X obj 235 131 vd~ \$0-b1;
#X obj 137 163 delwrite~ \$0-b2 500;
#X obj 237 189 vd~ \$0-b2;
#X obj 240 712 vd~ \$0-b10;
#X obj 141 674 delwrite~ \$0-b10 500;
#X obj 137 221 delwrite~ \$0-b3 500;
#X obj 238 252 vd~ \$0-b3;
#X obj 138 284 delwrite~ \$0-b4 500;
#X obj 242 314 vd~ \$0-b4;
#X obj 142 347 delwrite~ \$0-b5 500;
#X obj 241 385 vd~ \$0-b5;
#X obj 132 421 delwrite~ \$0-b6 500;
#X obj 234 458 vd~ \$0-b6;
#X obj 136 490 delwrite~ \$0-b7 500;
#X obj 236 516 vd~ \$0-b7;
#X obj 136 548 delwrite~ \$0-b8 500;
#X obj 237 579 vd~ \$0-b8;
#X obj 137 611 delwrite~ \$0-b9 500;
#X obj 241 641 vd~ \$0-b9;
#X obj 518 32 inlet;
#X obj 601 56 inlet;
#X text 601 16 feedback;
#X text 516 15 decay;
#X text 126 19 input;
#X text 375 17 freq;
#X floatatom 623 100 5 0 0 0 - - -;
#X obj 518 69 * 20000;
#X obj 375 181 pack 0 50;
#X obj 509 451 nbx 5 14 -1e+37 1e+37 0 1 empty empty empty 0 -8 0 10
-262144 -1 -1 0.4 256;
#X obj 513 136 line;
#X obj 516 104 pack 0 100;
#X obj 433 478 lp2~ 20000 1;
#X connect 0 0 41 0;
#X connect 1 0 10 0;
#X connect 1 0 12 0;
#X connect 1 0 13 0;
#X connect 1 0 16 0;
#X connect 1 0 18 0;
#X connect 1 0 20 0;
#X connect 1 0 22 0;
#X connect 1 0 24 0;
#X connect 1 0 26 0;
#X connect 1 0 28 0;
#X connect 3 0 9 0;
#X connect 5 0 37 0;
#X connect 7 0 9 0;
#X connect 8 0 5 0;
#X connect 10 0 11 0;
#X connect 12 0 15 0;
#X connect 13 0 0 0;
#X connect 13 0 4 0;
#X connect 16 0 17 0;
#X connect 18 0 19 0;
#X connect 20 0 21 0;
#X connect 22 0 23 0;
#X connect 24 0 25 0;
#X connect 26 0 27 0;
#X connect 28 0 14 0;
#X connect 29 0 36 0;
#X connect 30 0 35 0;
#X connect 30 0 0 1;
#X connect 36 0 40 0;
#X connect 37 0 1 0;
#X connect 38 0 41 2;
#X connect 39 0 41 1;
#X connect 39 0 2 0;
#X connect 40 0 39 0;
#X connect 41 0 6 0;
#X restore 124 324 pd bbd;
#X obj 90 51 inlet~;
#X obj 149 558 outlet~;
#X obj 162 124 expr 1000 / $f1;
#X obj 609 313 hsl 128 15 1 0.01 1 0 empty empty feedback -2 -8 1 10
-262144 -1 -1 11384 1;
#X obj 609 281 hsl 128 15 0.01 1 1 0 empty empty decay -2 -8 1 10 -262144
-1 -1 10300 1;
#X obj 328 241 expr 1 - $f1;
#X obj 201 51 inlet;
#X obj 126 352 hip~ 1;
#X obj 328 291 line;
#X obj 327 265 pack 0 50;
#X obj 129 388 lop~ 10000;
#X floatatom 187 361 5 0 0 0 - - -;
#X obj 609 344 hsl 128 15 0 20000 0 1 empty empty lowpass -2 -8 1 10
-262144 -1 -1 8400 1;
#X obj 60 159 overdrive~;
#X obj 609 249 hsl 128 15 0.01 1 1 0 empty empty drive -2 -8 1 10 -262144
-1 -1 5139 1;
#X obj 322 182 pack 0 50;
#X obj 319 206 line;
#X obj 146 437 *~ 1;
#X obj 606 218 nbx 5 14 0.01 2000 1 0 empty empty delay_ms 0 -8 1 10
-262144 -1 -1 1 256;
#X obj 670 218 nbx 5 14 0 20000 0 1 empty empty delay_hz 0 -8 1 10
-262144 -1 -1 334.557 256;
#X obj 610 375 hsl 128 15 0 1 0 1 empty empty dry/wet_mix -2 -8 1 10
-262144 -1 -1 8600 1;
#X obj 140 514 crossfade~;
#X text 93 27 input;
#X text 194 28 delay hz;
#X text 276 28 drive cv;
#X obj 285 51 inlet;
#X obj 395 190 * 11;
#X obj 392 214 + 1;
#X obj 346 52 inlet;
#X text 338 28 decay cv;
#X text 405 30 feedback cv;
#X obj 423 56 inlet;
#X floatatom 530 369 5 0 0 0 - - -;
#X floatatom 514 316 5 0 0 0 - - -;
#X connect 0 0 8 0;
#X connect 1 0 14 0;
#X connect 3 0 0 1;
#X connect 4 0 6 0;
#X connect 4 0 33 0;
#X connect 5 0 0 2;
#X connect 5 0 34 0;
#X connect 6 0 10 0;
#X connect 7 0 20 0;
#X connect 8 0 11 0;
#X connect 9 0 0 3;
#X connect 10 0 9 0;
#X connect 11 0 18 0;
#X connect 12 0 11 1;
#X connect 13 0 12 0;
#X connect 14 0 0 0;
#X connect 14 0 22 0;
#X connect 15 0 27 0;
#X connect 16 0 17 0;
#X connect 17 0 14 1;
#X connect 18 0 22 1;
#X connect 19 0 0 1;
#X connect 20 0 3 0;
#X connect 21 0 22 2;
#X connect 22 0 2 0;
#X connect 26 0 15 0;
#X connect 27 0 28 0;
#X connect 28 0 16 0;
#X connect 29 0 5 0;
#X connect 32 0 4 0;
#X coords 0 -1 1 1 150 195 2 600 200;
#X restore 728 431 pd waveguide;
#X obj 322 31 bpm2ms;
#X obj 318 53 / 2;
#X obj 207 29 metro 2000;
#X floatatom 525 283 5 0 0 0 - - -;
#X obj 620 -23 208random;
#X obj 609 188 complexosc~;
#X obj 294 608 recorder~;
#X obj 461 589 vols~;
#X obj 381 510 vu~;
#X obj 588 510 vsl 15 128 0 127 0 0 empty empty empty 0 -9 0 10 -262144
-1 -1 10600 1;
#X floatatom 461 79 5 0 0 0 - - -;
#X floatatom 601 419 5 0 0 0 - - -;
#X msg 338 345 1 3 5 6 8 10 12;
#X floatatom 297 391 5 0 0 0 - - -;
#X msg 345 377 0 2 4 5 7 9 11;
#X obj 127 593 sigtof~;
#X obj 127 618 s \$0-env;
#X obj 761 107 cvscale;
#X obj 445 9 cvscale;
#X obj 504 336 lpg~ 20000;
#X floatatom 376 64 5 0 0 0 - - -;
#X obj 454 438 eq~;
#X obj 524 374 *~ 0.5;
#X obj 505 404 clip~ -1 1;
#X obj 337 17 nbx 5 14 0 300 0 0 empty empty empty 0 -8 0 10 -262144
-1 -1 59.0519 256;
#X obj 538 91 cvscale;
#X obj 398 38 * 220;
#X obj 618 491 cvscale;
#N canvas 280 43 770 633 verb 0;
#X obj 30 4 inlet~;
#X obj 108 0 inlet~;
#X obj 110 535 outlet~;
#X obj 195 535 outlet~;
#X obj 178 434 zrev1~ 10 10 10;
#X obj 478 308 hsl 128 15 0 100 0 1 empty empty reverb_time -2 -8 0
10 -262144 -1 -1 8397 1;
#X floatatom 497 340 5 0 0 0 - - -;
#X obj 534 385 hsl 128 15 -1 1 0 1 empty empty mix -2 -8 0 10 -262144
-1 -1 9300 1;
#X floatatom 526 421 5 0 0 0 - - -;
#X obj 451 264 hsl 128 15 0 200 0 1 empty empty room_size -2 -8 0 10
-262144 -1 -1 7400 1;
#X floatatom 412 306 5 0 0 0 - - -;
#X obj 385 220 hsl 128 15 200 20000 1 1 empty empty lpf_cutoff -2 -8
0 10 -262144 -1 -1 10900 1;
#X floatatom 374 268 5 0 0 0 - - -;
#X obj 367 174 hsl 128 15 -99 18 0 1 empty empty recycle -2 -8 0 10
-262144 -1 -1 8382 1;
#X obj 300 134 hsl 128 15 -99 18 0 1 empty empty 2nd_reflection_(db)
-2 -8 0 10 -262144 -1 -1 5900 1;
#X obj 222 98 hsl 128 15 -99 18 0 1 empty empty 1st_reflection_(db)
-2 -8 0 10 -262144 -1 -1 3400 1;
#X obj 192 6 inlet;
#X obj 188 41 * 100;
#X text 167 -19 reverb time;
#X obj 334 16 inlet;
#X text 325 -4 recycle;
#X floatatom 315 206 5 0 0 0 - - -;
#X floatatom 404 81 5 0 0 0 - - -;
#X obj 341 53 expr ( $f1 * 117 ) - 100;
#X connect 0 0 4 0;
#X connect 1 0 4 1;
#X connect 4 0 2 0;
#X connect 4 0 3 0;
#X connect 4 2 3 0;
#X connect 4 3 2 0;
#X connect 5 0 6 0;
#X connect 6 0 4 7;
#X connect 7 0 8 0;
#X connect 8 0 4 8;
#X connect 9 0 10 0;
#X connect 10 0 4 6;
#X connect 11 0 12 0;
#X connect 12 0 4 5;
#X connect 13 0 4 4;
#X connect 13 0 21 0;
#X connect 14 0 4 3;
#X connect 15 0 4 2;
#X connect 16 0 17 0;
#X connect 17 0 5 0;
#X connect 19 0 23 0;
#X connect 23 0 13 0;
#X connect 23 0 22 0;
#X restore 463 507 pd verb ------;
#X obj 904 400 frv;
#X obj 673 526 cvscale;
#X obj 631 102 sigtof~;
#X obj 768 31 vactrol~;
#X obj 764 61 sigtof~;
#X floatatom 408 9 5 0 0 0 - - -;
#X obj 627 86 lop~ 0.1;
#X obj 902 323 cvscale;
#X msg 282 410 1 3 4 6 7 9 11 12 15 16 18 19 21;
#X obj 821 362 cvscale;
#X obj 677 118 cvscale;
#X floatatom 62 330 5 0 0 0 - - -;
#X obj 522 24 frv;
#X obj 932 36 expr pow($f1 \, 3);
#X obj 946 67 * 50;
#X obj 997 73 nbx 5 14 -1e+37 1e+37 0 0 empty empty empty 0 -8 0 10
-262144 -1 -1 600 256;
#X obj 854 16 cvscale;
#X obj 698 392 nbx 5 14 -1e+37 1e+37 0 0 empty empty empty 0 -8 0 10
-262144 -1 -1 0.7 256;
#X obj 381 162 208random;
#X obj 333 127 countmeasures 16 4;
#X obj 381 100 clockdivider;
#X obj 414 245 f;
#X obj 72 5 cvscale;
#X obj 194 424 pow 3;
#X obj 102 390 pow 3;
#X obj 501 555 compressor~;
#X obj 499 580 compressor~;
#X obj 629 595 / 100;
#X floatatom 631 569 5 0 0 0 - - -;
#X connect 0 0 5 0;
#X connect 0 0 55 0;
#X connect 2 0 70 0;
#X connect 3 0 9 0;
#X connect 3 0 28 0;
#X connect 4 0 3 1;
#X connect 5 0 6 0;
#X connect 5 1 3 0;
#X connect 6 0 30 0;
#X connect 6 0 34 2;
#X connect 7 0 17 0;
#X connect 8 0 3 2;
#X connect 9 0 20 0;
#X connect 10 0 11 1;
#X connect 11 0 37 0;
#X connect 12 0 11 2;
#X connect 13 0 69 0;
#X connect 14 0 10 0;
#X connect 15 0 16 0;
#X connect 16 0 17 1;
#X connect 16 0 35 0;
#X connect 17 0 19 0;
#X connect 17 0 63 0;
#X connect 17 0 64 0;
#X connect 18 0 34 1;
#X connect 19 0 50 0;
#X connect 19 1 47 0;
#X connect 19 2 33 0;
#X connect 19 3 65 1;
#X connect 20 0 34 0;
#X connect 22 0 1 0;
#X connect 22 0 23 0;
#X connect 22 0 21 0;
#X connect 22 1 1 1;
#X connect 22 1 21 1;
#X connect 24 0 22 2;
#X connect 26 0 37 1;
#X connect 27 0 3 2;
#X connect 29 0 3 2;
#X connect 30 0 31 0;
#X connect 32 0 20 3;
#X connect 33 0 25 0;
#X connect 34 0 11 0;
#X connect 34 0 14 0;
#X connect 36 0 43 0;
#X connect 36 0 43 1;
#X connect 37 0 38 0;
#X connect 38 0 36 0;
#X connect 39 0 15 0;
#X connect 40 0 41 0;
#X connect 41 0 39 0;
#X connect 42 0 43 2;
#X connect 43 0 2 0;
#X connect 43 1 13 0;
#X connect 44 0 45 0;
#X connect 44 1 42 0;
#X connect 44 1 51 0;
#X connect 44 1 53 0;
#X connect 45 0 43 3;
#X connect 46 0 54 0;
#X connect 47 0 48 0;
#X connect 48 0 32 0;
#X connect 49 0 41 1;
#X connect 50 0 46 0;
#X connect 51 0 14 2;
#X connect 52 0 3 2;
#X connect 53 0 14 4;
#X connect 54 0 20 2;
#X connect 56 0 40 0;
#X connect 56 1 20 4;
#X connect 56 1 60 0;
#X connect 56 1 67 0;
#X connect 57 0 58 0;
#X connect 58 0 14 1;
#X connect 59 0 58 1;
#X connect 60 0 57 0;
#X connect 61 0 10 1;
#X connect 62 0 20 5;
#X connect 62 1 66 0;
#X connect 62 3 68 0;
#X connect 63 0 62 0;
#X connect 64 2 65 0;
#X connect 65 0 0 5;
#X connect 66 0 0 2;
#X connect 67 0 6 2;
#X connect 68 0 6 1;
#X connect 69 0 22 1;
#X connect 70 0 22 0;
#X connect 71 0 69 1;
#X connect 71 0 70 1;
#X connect 72 0 71 0;
