#N canvas 683 165 508 491 10;
#X obj 208 77 208random;
#X floatatom 30 258 5 0 0 0 - - -;
#X obj 47 316 +~;
#X obj 44 378 osc~;
#X obj 42 420 dac~;
#X obj 87 261 osc~ 1;
#X obj 65 188 *;
#X floatatom 83 139 5 0 0 0 - - -;
#X floatatom 279 261 5 0 0 0 - - -;
#X obj 90 227 *;
#X floatatom 153 221 5 0 0 0 - - -;
#X obj 168 69 bng 15 250 50 0 empty empty empty 17 7 0 10 -262144 -1
-1;
#X obj 167 285 *;
#X floatatom 199 259 5 0 0 0 - - -;
#X obj 90 295 *~;
#X obj 296 142 metro;
#X obj 293 98 bng 15 250 50 0 empty empty empty 17 7 0 10 -262144 -1
-1;
#X floatatom 414 89 5 0 0 0 - - -;
#X obj 303 38 *;
#X obj 317 1 hsl 128 15 0 5000 0 1 empty empty empty -2 -8 0 10 -262144
-1 -1 3800 1;
#X obj 319 227 vline~ 0;
#X obj 45 351 *~;
#X msg 210 324 300;
#X obj 142 339 adenv;
#X obj 219 289 expr ($f1 * 0.8 * ($f2));
#X connect 0 0 6 0;
#X connect 0 0 24 1;
#X connect 0 1 8 0;
#X connect 0 1 18 0;
#X connect 0 2 9 0;
#X connect 0 3 12 0;
#X connect 1 0 2 0;
#X connect 2 0 21 0;
#X connect 3 0 4 0;
#X connect 3 0 4 1;
#X connect 5 0 14 0;
#X connect 6 0 1 0;
#X connect 7 0 6 1;
#X connect 9 0 5 0;
#X connect 10 0 9 1;
#X connect 11 0 0 0;
#X connect 12 0 14 1;
#X connect 13 0 12 1;
#X connect 14 0 2 1;
#X connect 15 0 11 0;
#X connect 15 0 20 0;
#X connect 15 0 23 0;
#X connect 16 0 15 0;
#X connect 17 0 24 0;
#X connect 18 0 17 0;
#X connect 18 0 15 1;
#X connect 18 0 20 2;
#X connect 19 0 18 1;
#X connect 21 0 3 0;
#X connect 22 0 23 2;
#X connect 23 0 21 1;
#X connect 24 0 23 1;
