#N canvas 416 320 980 795 10;
#X obj 104 364 osc~;
#X obj 184 30 frv;
#X obj 136 271 osc~;
#X obj 136 307 *~;
#X floatatom 178 253 5 0 0 0 - - -, f 5;
#X obj 105 330 +~;
#X obj 161 731 dac~;
#X obj 193 429 gain~;
#X obj 133 240 *~;
#X floatatom 147 202 5 0 100 0 - - -, f 5;
#X floatatom 81 153 5 0 0 0 - - -, f 5;
#X floatatom 33 148 5 0 0 0 - - -, f 5;
#X floatatom 269 130 5 0 0 0 - - -, f 5;
#X floatatom 304 347 5 0 1 0 - - -, f 5;
#X floatatom 380 357 5 0 20000 0 - - -, f 5;
#X obj 375 595 vd~ dright 200;
#X obj 15 603 vd~ dleft 100;
#X floatatom 271 570 5 0 0 0 - - -, f 5;
#X floatatom 61 568 5 0 0 0 - - -, f 5;
#X obj 345 9 frv;
#X obj 677 111 frv;
#X obj 145 404 *~;
#X obj 208 286 metro 150;
#X obj 229 226 tgl 15 0 empty empty empty 17 7 0 10 -262144 -1 -1 0
1;
#X floatatom 276 257 5 0 0 0 - - -, f 5;
#X floatatom 449 257 5 0 0 0 - - -, f 5;
#X obj 372 156 *~ 500;
#X obj 370 75 metro;
#X obj 372 104 random 10;
#X obj 372 130 / 10;
#X obj 491 30 tgl 15 0 empty empty empty 17 7 0 10 -262144 -1 -1 1
1;
#X obj 439 51 * 1000;
#X obj 370 186 +~ 10;
#X obj 213 545 delwrite~ dright 600;
#X obj 33 540 delwrite~ dleft 600;
#X obj 570 291 *~ 500;
#X obj 568 210 metro;
#X obj 570 239 random 10;
#X obj 570 265 / 10;
#X obj 633 190 * 1000;
#X obj 568 321 +~ 10;
#X obj 171 502 *~ 0.8;
#X obj 281 207 random 3000;
#X obj 176 322 adenv~ 10 150;
#X obj 147 676 +~;
#X obj 184 675 +~;
#X obj 291 733 recorder~;
#X obj 567 351 lop~ 1000;
#X obj 369 216 lop~ 1000;
#X obj 196 149 *~ 4000;
#X obj 300 463 lop~ 20000;
#X obj 22 457 lop~ 20000;
#X obj 32 211 *~ 600;
#X obj 301 490 *~ 0.9;
#X obj 47 490 *~ 0.9;
#X connect 0 0 21 0;
#X connect 1 1 49 0;
#X connect 2 0 3 0;
#X connect 3 0 5 1;
#X connect 4 0 3 1;
#X connect 5 0 0 0;
#X connect 7 0 41 0;
#X connect 7 0 44 1;
#X connect 7 0 45 0;
#X connect 8 0 2 0;
#X connect 9 0 8 1;
#X connect 10 0 52 1;
#X connect 11 0 52 0;
#X connect 12 0 49 1;
#X connect 13 0 53 1;
#X connect 13 0 54 1;
#X connect 14 0 50 1;
#X connect 14 0 51 1;
#X connect 15 0 45 1;
#X connect 15 0 50 0;
#X connect 16 0 44 0;
#X connect 16 0 51 0;
#X connect 17 0 15 0;
#X connect 18 0 16 0;
#X connect 19 0 31 0;
#X connect 20 0 39 0;
#X connect 21 0 7 0;
#X connect 22 0 42 0;
#X connect 22 0 43 0;
#X connect 23 0 22 0;
#X connect 24 0 22 1;
#X connect 25 0 47 1;
#X connect 25 0 48 1;
#X connect 26 0 32 0;
#X connect 27 0 28 0;
#X connect 28 0 29 0;
#X connect 29 0 26 0;
#X connect 30 0 27 0;
#X connect 30 0 36 0;
#X connect 31 0 27 1;
#X connect 32 0 48 0;
#X connect 35 0 40 0;
#X connect 36 0 37 0;
#X connect 37 0 38 0;
#X connect 38 0 35 0;
#X connect 39 0 36 1;
#X connect 40 0 47 0;
#X connect 41 0 34 0;
#X connect 41 0 33 0;
#X connect 42 0 24 0;
#X connect 43 0 21 1;
#X connect 44 0 6 0;
#X connect 44 0 46 0;
#X connect 45 0 6 1;
#X connect 45 0 46 1;
#X connect 47 0 15 0;
#X connect 48 0 16 0;
#X connect 49 0 3 1;
#X connect 50 0 53 0;
#X connect 51 0 54 0;
#X connect 52 0 5 0;
#X connect 52 0 8 0;
#X connect 53 0 33 0;
#X connect 54 0 34 0;
