#N canvas 36 181 1101 629 10;
#X obj 54 36 loadbang;
#X obj 53 74 delay;
#X msg 54 113 \; pd dsp 1;
#N canvas 810 202 598 780 midicontrol 1;
#X floatatom 209 400 5 0 0 0 - - -;
#X obj 60 362 expr ($f1 / 127) * 100;
#X obj 60 409 s \$0-reverbvol;
#X floatatom 425 408 5 0 0 0 - - -;
#X obj 275 417 s \$0-revdecay;
#X obj 275 370 expr ($f1 / 127) * 0.993;
#X obj 277 331 ctlin 0 2;
#X obj 61 325 ctlin 16 2;
#X floatatom 209 551 5 0 0 0 - - -;
#X obj 61 474 ctlin 1 2;
#X obj 59 513 expr ($f1 / 127) * 1;
#X obj 59 560 s \$0-inputgain;
#X floatatom 421 551 5 0 0 0 - - -;
#X obj 271 513 expr ($f1 / 127) * 1;
#X obj 273 474 ctlin 2 2;
#X obj 271 560 s \$0-dryvol;
#X connect 1 0 0 0;
#X connect 1 0 2 0;
#X connect 5 0 3 0;
#X connect 5 0 4 0;
#X connect 6 0 5 0;
#X connect 7 0 1 0;
#X connect 9 0 10 0;
#X connect 10 0 8 0;
#X connect 10 0 11 0;
#X connect 13 0 12 0;
#X connect 13 0 15 0;
#X connect 14 0 13 0;
#X restore 144 32 pd midicontrol;
#X obj 496 535 dac~;
#X obj 303 418 vols~;
#X obj 382 399 r \$0-reverbvol;
#X msg 403 245 0.5;
#X obj 398 210 loadbang;
#X floatatom 369 307 5 0 0 0 - - -;
#X obj 370 278 r \$0-revdecay;
#X obj 496 50 adc~;
#X obj 482 388 *~ 1;
#X obj 545 392 *~ 1;
#X obj 294 381 griesinger~;
#X obj 587 304 r \$0-dryvol;
#X obj 342 167 *~;
#X obj 396 143 r \$0-inputgain;
#X connect 0 0 1 0;
#X connect 1 0 2 0;
#X connect 5 0 4 0;
#X connect 5 1 4 1;
#X connect 6 0 5 2;
#X connect 7 0 14 1;
#X connect 8 0 7 0;
#X connect 10 0 9 0;
#X connect 10 0 14 1;
#X connect 11 0 12 0;
#X connect 11 0 13 0;
#X connect 11 0 16 0;
#X connect 12 0 4 0;
#X connect 13 0 4 1;
#X connect 14 0 5 0;
#X connect 14 1 5 1;
#X connect 15 0 13 1;
#X connect 15 0 12 1;
#X connect 16 0 14 0;
#X connect 17 0 16 1;
