#N canvas 138 113 1061 617 10;
#X floatatom 259 215 5 0 0 0 - - -;
#X obj 180 262 mtof;
#X floatatom 48 175 5 0 0 0 - - -;
#X obj 402 75 qrv;
#X obj 186 186 + 1;
#X obj 460 229 +;
#X obj 432 192 *;
#X obj 505 197 *;
#X floatatom 558 181 5 0 0 0 - - -;
#X obj 382 266 frv;
#X floatatom 549 373 5 0 0 0 - - -;
#X obj 189 405 *~;
#X obj 370 367 * 10;
#X obj 186 300 harmonicosc~;
#X obj 501 448 208random;
#X obj 110 111 s timer;
#X obj 487 418 r timer;
#X obj 189 364 *~;
#X floatatom 389 528 5 0 0 0 - - -;
#X obj 375 499 expr ($f1 * 500) + 100;
#X obj 316 535 s time1;
#X obj 364 398 s stepped;
#X obj 592 128 r stepped;
#X obj 699 495 s ffreq;
#X obj 671 436 expr 30000;
#X obj 105 50 pulse 80;
#X obj 90 9 bng 15 250 50 0 empty empty empty 17 7 0 10 -262144 -1
-1;
#X obj 284 293 r timer;
#X obj 199 545 dac~;
#X obj 103 80 t b;
#X obj 390 32 r timer;
#X obj 198 482 *~ 0.6;
#X obj 555 569 s steprand;
#X obj 569 530 int;
#X obj 567 496 expr ($f1 * 6) + 3;
#X obj 27 289 phasor~;
#X obj 19 339 moog~;
#X floatatom 40 315 5 0 0 0 - - -;
#X floatatom 138 8 5 0 0 0 - - -;
#X obj 68 442 expr~ ($v1 + $v2);
#X floatatom 100 307 5 0 0 0 - - -;
#X obj 182 108 clockdivider;
#X obj 457 18 random 10;
#X obj 462 40 / 10;
#X obj 47 252 /~ 2;
#X obj 40 393 *~ 0.5;
#X obj 277 327 adenv 200 1200;
#X obj 148 305 osc~;
#X obj 188 211 phrygian;
#X floatatom 454 155 5 0 0 0 - - -;
#X floatatom 358 165 5 0 0 0 - - -;
#X connect 0 0 48 1;
#X connect 1 0 13 0;
#X connect 1 0 44 0;
#X connect 1 0 47 0;
#X connect 3 0 6 0;
#X connect 3 0 50 0;
#X connect 3 1 7 0;
#X connect 4 0 48 0;
#X connect 5 0 4 0;
#X connect 6 0 5 0;
#X connect 8 0 7 1;
#X connect 9 0 12 0;
#X connect 9 1 10 0;
#X connect 9 1 11 1;
#X connect 11 0 39 1;
#X connect 12 0 21 0;
#X connect 13 0 17 0;
#X connect 14 0 19 0;
#X connect 14 2 34 0;
#X connect 14 3 24 0;
#X connect 16 0 14 0;
#X connect 17 0 11 0;
#X connect 19 0 18 0;
#X connect 19 0 20 0;
#X connect 22 0 8 0;
#X connect 24 0 23 0;
#X connect 25 0 29 0;
#X connect 26 0 25 0;
#X connect 27 0 46 0;
#X connect 29 0 15 0;
#X connect 29 0 41 0;
#X connect 30 0 3 0;
#X connect 31 0 28 0;
#X connect 31 0 28 1;
#X connect 33 0 32 0;
#X connect 34 0 33 0;
#X connect 35 0 36 0;
#X connect 36 0 45 0;
#X connect 37 0 36 1;
#X connect 38 0 25 3;
#X connect 39 0 31 0;
#X connect 40 0 36 2;
#X connect 41 4 42 0;
#X connect 42 0 43 0;
#X connect 43 0 3 1;
#X connect 44 0 35 0;
#X connect 45 0 39 0;
#X connect 46 0 17 1;
#X connect 47 0 17 0;
#X connect 48 0 1 0;
#X connect 48 0 2 0;
#X connect 49 0 6 1;
