#N canvas 181 22 1185 720 10;
#X obj 84 108 mini16seq;
#X obj 412 56 bng 15 250 50 0 empty empty empty 17 7 0 10 -262144 -1
-1;
#X obj 358 100 t l l;
#N canvas 796 34 565 629 genetics 0;
#X obj 31 28 inlet;
#X obj 109 28 inlet;
#X obj 130 579 outlet;
#X obj 361 576 outlet;
#X obj 261 255 zl slice 16;
#X obj 272 315 zl slice 16;
#X obj 255 501 zl join;
#X obj 170 253 t l l;
#X obj 154 522 t l l;
#X obj 281 25 zl slice 16;
#X obj 292 85 zl slice 16;
#X obj 290 209 zl join;
#X obj 380 455 mutatefloat 0 1;
#X obj 272 173 breed;
#X obj 252 430 mutate 0 1;
#X obj 255 467 mutate 0 1;
#X obj 379 500 mutatefloat 0 1;
#X obj 382 403 breed;
#X obj 252 403 breed;
#X obj 403 173 breed;
#X connect 0 0 7 0;
#X connect 1 0 8 0;
#X connect 4 0 18 0;
#X connect 4 1 17 1;
#X connect 5 0 18 1;
#X connect 5 1 17 0;
#X connect 6 0 2 0;
#X connect 7 0 9 0;
#X connect 7 1 4 0;
#X connect 8 0 10 0;
#X connect 8 1 5 0;
#X connect 9 0 13 0;
#X connect 9 1 19 1;
#X connect 10 0 13 1;
#X connect 10 1 19 0;
#X connect 11 0 3 0;
#X connect 12 0 16 0;
#X connect 13 0 11 0;
#X connect 14 0 15 0;
#X connect 15 0 6 0;
#X connect 16 0 6 1;
#X connect 17 0 12 0;
#X connect 18 0 14 0;
#X connect 19 0 11 1;
#X restore 305 349 pd genetics;
#X obj 556 434 pan~;
#X obj 758 129 complexosc~;
#X obj 524 608 output~;
#X obj 655 555 vu~;
#X obj 458 55 adenvdx~;
#X obj 430 387 adenvdx~;
#X obj 34 11 tgl 15 0 empty empty empty 17 7 0 10 -262144 -1 -1 1 1
;
#X obj 15 84 clockdivider;
#X obj 142 337 t b f;
#X obj 131 628 t b f;
#X obj 389 303 quantize;
#X floatatom 424 259 5 0 127 0 - - -;
#X obj 483 313 mtof;
#X floatatom 445 330 5 0 0 0 - - -;
#X msg 454 225 0 2 4 7 9 12;
#X obj 604 188 lpg~ 6000;
#X obj 554 552 vols~;
#X obj 639 565 vsl 15 128 0 127 0 0 empty empty empty 0 -9 0 10 -262144
-1 -1 10400 1;
#X floatatom 104 347 5 0 0 0 - - -;
#X obj 95 384 mini16seq;
#X obj 367 601 quantize;
#X floatatom 402 557 5 0 127 0 - - -;
#X obj 461 611 mtof;
#X floatatom 423 628 5 0 0 0 - - -;
#X obj 49 42 pulse 120 1 8;
#X obj 797 281 lpg~ 7000;
#X obj 391 483 - 12;
#X obj 615 385 hsl 128 15 -45 45 0 0 empty empty empty -2 -8 0 10 -262144
-1 -1 5545 1;
#X obj 607 439 pan~;
#X obj 624 409 hsl 128 15 -45 45 0 0 empty empty empty -2 -8 0 10 -262144
-1 -1 5600 1;
#N canvas 321 135 768 556 verb 0;
#X obj 62 236 inlet~;
#X obj 140 232 inlet~;
#X obj 130 555 outlet~;
#X obj 215 555 outlet~;
#X obj 198 454 zrev1~ 10 10 10;
#X obj 504 289 hsl 128 15 0 100 0 1 empty empty reverb_time -2 -8 0
10 -262144 -1 -1 10000 1;
#X floatatom 517 360 5 0 0 0 - - -;
#X obj 554 405 hsl 128 15 -1 1 0 1 empty empty mix -2 -8 0 10 -262144
-1 -1 8000 1;
#X floatatom 546 441 5 0 0 0 - - -;
#X obj 477 245 hsl 128 15 0 200 0 1 empty empty room_size -2 -8 0 10
-262144 -1 -1 8000 1;
#X floatatom 438 287 5 0 0 0 - - -;
#X obj 411 201 hsl 128 15 200 20000 1 1 empty empty lpf_cutoff -2 -8
0 10 -262144 -1 -1 9000 1;
#X floatatom 400 249 5 0 0 0 - - -;
#X obj 385 155 hsl 128 15 -99 18 0 1 empty empty recycle -2 -8 0 10
-262144 -1 -1 10000 1;
#X obj 326 115 hsl 128 15 -99 18 0 1 empty empty 2nd_reflection_(db)
-2 -8 0 10 -262144 -1 -1 5400 1;
#X obj 248 79 hsl 128 15 -99 18 0 1 empty empty 1st_reflection_(db)
-2 -8 0 10 -262144 -1 -1 8400 1;
#X connect 0 0 4 0;
#X connect 1 0 4 1;
#X connect 4 0 2 0;
#X connect 4 1 3 0;
#X connect 5 0 6 0;
#X connect 6 0 4 7;
#X connect 7 0 8 0;
#X connect 8 0 4 8;
#X connect 9 0 10 0;
#X connect 10 0 4 6;
#X connect 11 0 12 0;
#X connect 12 0 4 5;
#X connect 13 0 4 4;
#X connect 14 0 4 3;
#X connect 15 0 4 2;
#X restore 551 514 pd verb;
#X obj 929 36 sigtof~;
#X obj 1057 53 osc~ 0.015;
#X obj 1057 85 +~ 0.5;
#X obj 1038 114 sigtof~;
#X obj 964 13 +~ 0.5;
#N canvas 383 95 704 529 bbd1 0;
#X obj 451 363 *~ 0;
#X obj 543 214 vsl 15 128 0.01 1 1 0 empty empty empty 0 -9 0 10 -262144
-1 -1 10300 1;
#X obj 385 220 line~;
#X floatatom 524 448 5 0 0 0 - - -;
#X obj 135 47 inlet~;
#X obj 252 758 outlet~;
#X obj 387 158 nbx 5 14 -1e+37 1e+37 0 0 empty empty empty 0 -8 0 10
-262144 -1 -1 50 256;
#X floatatom 480 441 5 0 0 0 - - -;
#X obj 441 554 s~ \$0-fdbk;
#X obj 196 74 r~ \$0-fdbk;
#X obj 506 367 expr (1 - $f1);
#X obj 386 46 inlet;
#X obj 143 104 delwrite~ \$0-b1 500;
#X obj 245 141 vd~ \$0-b1;
#X obj 147 173 delwrite~ \$0-b2 500;
#X obj 247 199 vd~ \$0-b2;
#X obj 250 722 vd~ \$0-b10;
#X obj 151 684 delwrite~ \$0-b10 500;
#X obj 147 231 delwrite~ \$0-b3 500;
#X obj 248 262 vd~ \$0-b3;
#X obj 148 294 delwrite~ \$0-b4 500;
#X obj 252 324 vd~ \$0-b4;
#X obj 152 357 delwrite~ \$0-b5 500;
#X obj 251 395 vd~ \$0-b5;
#X obj 142 431 delwrite~ \$0-b6 500;
#X obj 244 468 vd~ \$0-b6;
#X obj 146 500 delwrite~ \$0-b7 500;
#X obj 246 526 vd~ \$0-b7;
#X obj 146 558 delwrite~ \$0-b8 500;
#X obj 247 589 vd~ \$0-b8;
#X obj 147 621 delwrite~ \$0-b9 500;
#X obj 251 651 vd~ \$0-b9;
#X obj 528 42 inlet;
#X obj 528 79 * 20000;
#X obj 611 66 inlet;
#X text 611 26 feedback;
#X text 526 25 decay;
#X text 136 29 input;
#X text 385 27 freq;
#X floatatom 633 110 5 0 0 0 - - -;
#X obj 443 487 lop~;
#X obj 385 191 pack 0 100;
#X connect 0 0 40 0;
#X connect 1 0 7 0;
#X connect 1 0 10 0;
#X connect 2 0 13 0;
#X connect 2 0 15 0;
#X connect 2 0 16 0;
#X connect 2 0 19 0;
#X connect 2 0 21 0;
#X connect 2 0 23 0;
#X connect 2 0 25 0;
#X connect 2 0 27 0;
#X connect 2 0 29 0;
#X connect 2 0 31 0;
#X connect 3 0 40 1;
#X connect 4 0 12 0;
#X connect 6 0 41 0;
#X connect 9 0 12 0;
#X connect 10 0 0 1;
#X connect 11 0 6 0;
#X connect 13 0 14 0;
#X connect 15 0 18 0;
#X connect 16 0 0 0;
#X connect 16 0 5 0;
#X connect 19 0 20 0;
#X connect 21 0 22 0;
#X connect 23 0 24 0;
#X connect 25 0 26 0;
#X connect 27 0 28 0;
#X connect 29 0 30 0;
#X connect 31 0 17 0;
#X connect 32 0 33 0;
#X connect 33 0 3 0;
#X connect 34 0 39 0;
#X connect 34 0 0 1;
#X connect 40 0 8 0;
#X connect 41 0 2 0;
#X restore 535 394 pd bbd1;
#X obj 858 438 complexosc~;
#X obj 990 0 *~ 0.6;
#X obj 244 22 countmeasures 4 8;
#X obj 991 321 sigtof~;
#X obj 1026 298 +~ 0.5;
#X obj 1052 285 *~ 0.6;
#X obj 1087 284 osc~ 0.06;
#X obj 709 431 fdn~ 16 640000;
#X obj 666 464 vols~;
#X obj 758 527 vsl 15 128 0 127 0 0 empty empty empty 0 -9 0 10 -262144
-1 -1 8400 1;
#X obj 637 111 * 45;
#X obj 633 35 cvscale;
#X obj 669 -3 sigtof~;
#X obj 759 6 osc~ 0.02;
#X obj 1025 -1 osc~ 0.01;
#X msg 753 386 linear 8 100 1000;
#X obj 823 614 recorder~;
#X obj 873 291 sig~;
#X floatatom 911 264 5 0 0 0 - - -;
#X obj 781 474 slew;
#X obj 922 54 cvscale;
#X obj 984 339 cvscale;
#X connect 0 0 12 0;
#X connect 0 0 22 0;
#X connect 0 1 3 0;
#X connect 1 0 2 0;
#X connect 2 0 0 4;
#X connect 2 1 23 4;
#X connect 3 0 0 4;
#X connect 3 1 23 4;
#X connect 4 0 34 0;
#X connect 4 1 34 1;
#X connect 5 0 19 0;
#X connect 8 0 19 2;
#X connect 9 0 29 2;
#X connect 10 0 28 0;
#X connect 11 0 23 0;
#X connect 12 0 8 0;
#X connect 12 1 14 0;
#X connect 13 0 9 0;
#X connect 13 1 24 0;
#X connect 14 0 16 0;
#X connect 14 0 17 0;
#X connect 15 0 14 1;
#X connect 15 0 30 0;
#X connect 16 0 5 0;
#X connect 18 0 14 2;
#X connect 18 0 24 2;
#X connect 19 0 40 0;
#X connect 20 0 6 0;
#X connect 20 0 57 0;
#X connect 20 1 6 1;
#X connect 20 1 7 0;
#X connect 20 1 57 1;
#X connect 21 0 20 2;
#X connect 23 0 13 0;
#X connect 23 1 3 1;
#X connect 24 0 26 0;
#X connect 24 0 27 0;
#X connect 25 0 24 1;
#X connect 26 0 60 0;
#X connect 28 0 0 0;
#X connect 28 0 11 0;
#X connect 28 0 43 0;
#X connect 29 0 48 0;
#X connect 29 0 32 0;
#X connect 30 0 25 0;
#X connect 31 0 4 1;
#X connect 32 0 34 0;
#X connect 32 1 34 1;
#X connect 33 0 32 1;
#X connect 34 0 20 0;
#X connect 34 1 20 1;
#X connect 35 0 61 0;
#X connect 36 0 37 0;
#X connect 37 0 38 0;
#X connect 38 0 5 4;
#X connect 39 0 35 0;
#X connect 40 0 4 0;
#X connect 42 0 39 0;
#X connect 43 0 1 0;
#X connect 44 0 62 0;
#X connect 45 0 44 0;
#X connect 46 0 45 0;
#X connect 47 0 46 0;
#X connect 48 0 49 0;
#X connect 48 1 49 1;
#X connect 49 0 34 0;
#X connect 49 1 34 1;
#X connect 50 0 49 2;
#X connect 51 0 31 0;
#X connect 52 0 51 0;
#X connect 53 0 52 0;
#X connect 54 0 53 0;
#X connect 55 0 42 0;
#X connect 56 0 48 0;
#X connect 58 0 29 2;
#X connect 59 0 58 0;
#X connect 60 0 41 0;
#X connect 61 0 5 3;
#X connect 62 0 41 3;
