#N canvas 121 32 1205 690 10;
#X obj 447 331 - 100;
#X obj 468 172 nbx 5 14 -1e+37 1e+37 0 0 empty empty empty 0 -8 0 10
-262144 -1 -1 0 256;
#X obj 290 490 vols~;
#X obj 398 464 hsl 128 15 0 110 0 0 empty empty empty -2 -8 0 10 -262144
-1 -1 12700 1;
#X obj 296 528 dac~;
#X obj 350 311 sig~;
#X obj 454 269 bng 15 250 50 0 empty empty empty 17 7 0 10 -262144
-1 -1;
#X obj 309 369 lpg~ 1003;
#X obj 318 143 sho~;
#X obj 487 141 bng 15 250 50 0 empty empty empty 17 7 0 10 -262144
-1 -1;
#N canvas 195 121 920 606 shoverb 0;
#X obj 99 234 inlet~;
#X obj 177 230 inlet~;
#X obj 123 525 outlet~;
#X obj 208 525 outlet~;
#X obj 191 424 zrev1~ 10 10 10;
#X obj 520 257 hsl 128 15 0 100 0 1 empty empty time -2 -8 0 10 -262144
-1 -1 10900 1;
#X floatatom 510 330 5 0 0 0 - - -;
#X obj 547 375 hsl 128 15 -1 1 0 1 empty empty mix -2 -8 0 10 -262144
-1 -1 10700 1;
#X floatatom 539 411 5 0 0 0 - - -;
#X obj 470 215 hsl 128 15 0 200 0 1 empty empty room_size -2 -8 0 10
-262144 -1 -1 12600 1;
#X floatatom 431 257 5 0 0 0 - - -;
#X obj 404 171 hsl 128 15 200 20000 1 1 empty empty lpf_hz -2 -8 0
10 -262144 -1 -1 10500 1;
#X floatatom 393 219 5 0 0 0 - - -;
#X obj 378 125 hsl 128 15 -99 18 0 1 empty empty recycle -2 -8 0 10
-262144 -1 -1 9100 1;
#X obj 319 85 hsl 128 15 -99 18 0 1 empty empty 2nd_ref -2 -8 0 10
-262144 -1 -1 9268 1;
#X obj 241 49 hsl 128 15 -99 18 0 1 empty empty 1st_ref -2 -8 0 10
-262144 -1 -1 8326 1;
#X obj 705 240 / 127;
#X floatatom 728 343 5 0 0 0 - - -;
#X obj 707 267 * 2;
#X obj 710 303 - 1;
#X obj 706 204 ctlin 20;
#X obj 238 218 inlet;
#X obj 295 217 inlet;
#X floatatom 263 96 5 0 0 0 - - -;
#X floatatom 329 129 5 0 0 0 - - -;
#X connect 0 0 4 0;
#X connect 1 0 4 1;
#X connect 4 2 2 0;
#X connect 4 3 3 0;
#X connect 5 0 6 0;
#X connect 6 0 4 7;
#X connect 7 0 8 0;
#X connect 8 0 4 8;
#X connect 9 0 10 0;
#X connect 10 0 4 6;
#X connect 11 0 12 0;
#X connect 12 0 4 5;
#X connect 13 0 4 4;
#X connect 14 0 4 3;
#X connect 14 0 24 0;
#X connect 15 0 4 2;
#X connect 15 0 23 0;
#X connect 16 0 18 0;
#X connect 18 0 19 0;
#X connect 19 0 17 0;
#X connect 19 0 7 0;
#X connect 20 0 16 0;
#X connect 21 0 4 2;
#X connect 22 0 4 3;
#X restore 295 419 pd shoverb;
#X obj 590 236 frv;
#X floatatom 348 262 5 0 0 0 - - -;
#X floatatom 759 342 5 0 0 0 - - -;
#X obj 340 236 +;
#X obj 386 217 nbx 5 14 -1e+37 1e+37 0 0 empty empty empty 0 -8 0 10
-262144 -1 -1 0 256;
#X obj 425 302 ead~ 3000 3000;
#X obj 488 255 line~;
#X msg 547 174 1 9000;
#X obj 279 207 *~;
#X msg 552 201 0 1;
#X obj 708 378 + 0;
#X obj 675 411 + 0;
#X obj 433 362 * -1;
#X obj 596 482 frv;
#X floatatom 786 593 5 0 0 0 - - -;
#X floatatom 399 418 5 0 0 0 - - -;
#X text 136 633 TODO: change chords;
#X text 140 601 TODO: simulate breaths phrasing?;
#X obj 161 82 vline~;
#X msg 153 37 1 4800;
#X msg 233 51 0 4000;
#X obj 243 81 bng 15 250 50 0 empty empty empty 17 7 0 10 -262144 -1
-1;
#X obj 231 105 ead~ 8000 8000;
#X obj 492 357 * 20;
#X obj 398 386 - 15;
#X obj 368 181 * 500;
#X msg 656 77 88 1 6 8 11 13 15 otsu;
#X msg 655 50 84 1 2 4 8 10 11 kuu;
#X msg 655 26 91 1 3 5 8 10 0 juu;
#X msg 657 107 90 1 3 4 6 9 12 ge;
#X msg 833 4 91 1 2 4 5 7 10 bi;
#N canvas 222 198 453 404 breath 0;
#X obj 67 47 inlet;
#X obj 162 48 inlet;
#X obj 272 47 inlet;
#X obj 150 319 outlet~;
#X obj 145 249 vline~;
#X obj 218 49 inlet;
#X obj 101 152 +;
#X obj 99 80 t b b;
#X obj 90 220 t b;
#X obj 37 319 outlet;
#X obj 147 104 pack 1 \$1;
#X obj 209 165 pack 0 \$3;
#X obj 73 188 delay \$2;
#X obj 164 132 print up;
#X obj 221 210 print down;
#X floatatom 131 177 5 0 0 0 - - -;
#X connect 0 0 7 0;
#X connect 0 0 9 0;
#X connect 1 0 6 0;
#X connect 1 0 10 1;
#X connect 2 0 11 1;
#X connect 4 0 3 0;
#X connect 5 0 6 1;
#X connect 6 0 12 1;
#X connect 6 0 15 0;
#X connect 7 0 12 0;
#X connect 7 1 10 0;
#X connect 8 0 11 0;
#X connect 10 0 4 0;
#X connect 10 0 13 0;
#X connect 11 0 4 0;
#X connect 11 0 14 0;
#X connect 12 0 8 0;
#X restore 332 109 pd breath 100 600 300;
#X msg 365 12 5000;
#X obj 315 56 t l l;
#X msg 456 17 5000;
#X msg 408 15 2000;
#X msg 655 2 90 1 2 5 7 10 12 juu2;
#X msg 380 284 1;
#X msg 405 257 0;
#X obj 263 317 slide~ 0 10;
#X connect 2 0 4 0;
#X connect 2 1 4 1;
#X connect 3 0 2 2;
#X connect 5 0 7 2;
#X connect 6 0 16 0;
#X connect 7 0 10 0;
#X connect 7 0 10 1;
#X connect 8 0 19 0;
#X connect 9 0 1 0;
#X connect 10 0 2 0;
#X connect 10 1 2 1;
#X connect 11 1 13 0;
#X connect 11 1 36 0;
#X connect 13 0 21 0;
#X connect 14 0 7 1;
#X connect 14 0 12 0;
#X connect 15 0 14 1;
#X connect 16 0 7 2;
#X connect 17 0 7 2;
#X connect 18 0 17 0;
#X connect 19 0 50 0;
#X connect 19 0 7 0;
#X connect 20 0 17 0;
#X connect 21 0 22 0;
#X connect 23 0 35 0;
#X connect 24 1 25 0;
#X connect 24 1 34 0;
#X connect 29 0 19 1;
#X connect 30 0 29 0;
#X connect 31 0 29 0;
#X connect 32 0 33 0;
#X connect 34 0 23 0;
#X connect 35 0 26 0;
#X connect 35 0 10 3;
#X connect 36 0 14 0;
#X connect 37 0 42 0;
#X connect 38 0 42 0;
#X connect 39 0 42 0;
#X connect 40 0 42 0;
#X connect 41 0 42 0;
#X connect 42 0 8 0;
#X connect 42 1 19 1;
#X connect 43 0 42 1;
#X connect 44 1 42 0;
#X connect 45 0 42 3;
#X connect 46 0 42 2;
#X connect 47 0 42 0;
#X connect 48 0 5 0;
#X connect 49 0 5 0;
