#N canvas 229 206 1480 883 12;
#X obj 357 169 numberseq;
#X obj 366 801 dac~;
#X msg 397 66 0 3 7 10;
#X obj 398 27 loadbang;
#X obj 357 203 + 80;
#X obj 357 228 mtof;
#X obj 382 320 *~;
#X obj 550 126 t b b;
#X obj 550 74 metro 200;
#X obj 803 44 tgl 15 0 empty empty empty 17 7 0 10 -262144 -1 -1 1
1;
#X obj 272 621 gain~;
#X floatatom 305 227 5 0 0 0 - - -, f 5;
#X obj 359 272 osc~;
#X obj 465 286 adenv~ 10 200;
#X floatatom 621 214 5 0 0 0 - - -, f 5;
#X obj 998 23 xsample;
#N canvas 0 22 1079 827 delayline1 0;
#X obj 389 415 vd~ \$0-delay_0;
#X floatatom 443 368 5 0 0 0 - - -, f 5;
#X msg 713 502 loop 1;
#X obj 794 457 loadbang;
#X msg 784 500 0;
#X msg 843 502 44100;
#X obj 644 649 bng 15 250 50 0 empty empty empty 17 7 0 10 -262144
-1 -1;
#X msg 607 469 reset;
#N canvas 0 22 450 278 (subpatch) 0;
#X array \$0-buffer 44100 float 2;
#X coords 0 1 44100 -1 200 140 1 0 0;
#X restore 791 279 graph;
#X msg 686 456 stop;
#X obj 601 722 bng 15 250 50 0 empty empty empty 17 7 0 10 -262144
-1 -1;
#X obj 544 440 sel 1;
#X obj 594 262 t b f b b b f;
#X obj 385 553 xrecord~ \$0-buffer;
#X obj 394 677 xgroove~ \$0-buffer;
#X obj 281 163 inlet~;
#X obj 476 162 inlet;
#X obj 348 735 outlet~;
#X obj 615 164 inlet;
#X obj 258 290 delwrite~ \$0-delay_0 1000;
#X obj 859 156 inlet;
#X floatatom 637 560 5 0 0 0 - - -, f 5;
#X msg 703 408 0.5;
#X obj 694 356 loadbang;
#X obj 641 294 bng 15 250 50 0 empty empty empty 17 7 0 10 -262144
-1 -1;
#X msg 207 445 mixmode 0;
#X connect 0 0 13 0;
#X connect 1 0 0 0;
#X connect 2 0 13 0;
#X connect 2 0 14 0;
#X connect 3 0 2 0;
#X connect 3 0 4 0;
#X connect 3 0 5 0;
#X connect 4 0 13 2;
#X connect 4 0 14 1;
#X connect 5 0 13 3;
#X connect 5 0 14 2;
#X connect 7 0 13 0;
#X connect 7 0 14 0;
#X connect 9 0 13 0;
#X connect 9 0 14 0;
#X connect 11 0 13 0;
#X connect 11 0 14 0;
#X connect 11 1 9 0;
#X connect 11 1 7 0;
#X connect 12 0 21 0;
#X connect 12 1 11 0;
#X connect 13 3 6 0;
#X connect 14 0 17 0;
#X connect 14 4 10 0;
#X connect 15 0 13 0;
#X connect 16 0 12 0;
#X connect 18 0 1 0;
#X connect 20 0 14 0;
#X connect 20 0 21 0;
#X connect 21 0 14 0;
#X connect 22 0 21 0;
#X connect 23 0 22 0;
#X connect 24 0 13 0;
#X connect 24 0 14 0;
#X connect 25 0 13 0;
#X restore 830 407 pd delayline1;
#X floatatom 904 300 5 0 0 0 - - -, f 5;
#X floatatom 923 438 5 0 0 0 - - -, f 5;
#N canvas 0 22 1079 827 delayline2 1;
#X floatatom 443 368 5 0 0 0 - - -, f 5;
#X msg 713 502 loop 1;
#X obj 794 457 loadbang;
#X msg 784 500 0;
#X msg 843 502 44100;
#X obj 644 649 bng 15 250 50 0 empty empty empty 17 7 0 10 -262144
-1 -1;
#X msg 607 469 reset;
#N canvas 0 22 450 278 (subpatch) 0;
#X array \$0-buffer2 44100 float 2;
#X coords 0 1 44100 -1 200 140 1 0 0;
#X restore 791 279 graph;
#X msg 686 456 stop;
#X obj 626 694 bng 15 250 50 0 empty empty empty 17 7 0 10 -262144
-1 -1;
#X obj 544 440 sel 1;
#X obj 542 401 t b f b b b f;
#X obj 281 163 inlet~;
#X obj 443 160 inlet;
#X obj 348 735 outlet~;
#X obj 615 164 inlet;
#X obj 401 580 xrecord~ \$0-buffer2;
#X obj 412 627 xgroove~ \$0-buffer2;
#X obj 258 290 delwrite~ \$0-delay_1 1000;
#X obj 389 415 vd~ \$0-delay_1;
#X msg 688 344 2;
#X obj 765 161 inlet;
#X obj 691 309 loadbang;
#X floatatom 689 392 5 0 0 0 - - -, f 5;
#X obj 606 293 bng 15 250 50 0 empty empty empty 17 7 0 10 -262144
-1 -1;
#X msg 231 506 mixmode 0;
#X connect 0 0 19 0;
#X connect 1 0 16 0;
#X connect 1 0 17 0;
#X connect 2 0 1 0;
#X connect 2 0 3 0;
#X connect 2 0 4 0;
#X connect 3 0 16 2;
#X connect 3 0 17 1;
#X connect 4 0 16 3;
#X connect 4 0 17 2;
#X connect 6 0 16 0;
#X connect 6 0 17 0;
#X connect 8 0 16 0;
#X connect 8 0 17 0;
#X connect 10 0 16 0;
#X connect 10 0 17 0;
#X connect 10 1 8 0;
#X connect 10 1 6 0;
#X connect 11 1 10 0;
#X connect 12 0 16 0;
#X connect 13 0 11 0;
#X connect 15 0 0 0;
#X connect 16 3 5 0;
#X connect 17 0 14 0;
#X connect 17 4 9 0;
#X connect 20 0 23 0;
#X connect 21 0 23 0;
#X connect 22 0 20 0;
#X connect 23 0 17 0;
#X connect 24 0 16 0;
#X connect 24 0 17 0;
#X connect 25 0 16 0;
#X restore 847 484 pd delayline2;
#X msg 980 232 0.5;
#X msg 980 260 1;
#X msg 981 289 2;
#X msg 983 317 4;
#X msg 995 367 0.5;
#X msg 995 395 1;
#X msg 996 424 2;
#X msg 998 452 4;
#X obj 848 603 delwrite~ feedback;
#X obj 803 283 *~;
#X obj 979 178 hsl 128 15 0 1 0 0 empty empty empty -2 -8 0 10 -262144
-1 -1 3500 1;
#X obj 779 196 delread~ feedback 0;
#X obj 478 629 gain~;
#X obj 542 32 tgl 15 0 empty empty empty 17 7 0 10 -262144 -1 -1 0
1;
#X obj 856 559 lop~ 20000;
#X floatatom 1040 510 5 0 0 0 - - -, f 5;
#X obj 384 624 gain~;
#X obj 665 74 metro 1000;
#X obj 657 28 tgl 15 0 empty empty empty 17 7 0 10 -262144 -1 -1 1
1;
#X obj 668 116 random 1000;
#X connect 0 0 4 0;
#X connect 2 0 0 1;
#X connect 3 0 2 0;
#X connect 4 0 5 0;
#X connect 4 0 11 0;
#X connect 5 0 12 0;
#X connect 6 0 16 0;
#X connect 6 0 36 0;
#X connect 7 0 13 0;
#X connect 7 1 0 0;
#X connect 8 0 7 0;
#X connect 9 0 16 1;
#X connect 9 0 19 1;
#X connect 10 0 1 0;
#X connect 12 0 6 0;
#X connect 13 0 6 1;
#X connect 14 0 13 2;
#X connect 16 0 19 0;
#X connect 16 0 10 0;
#X connect 17 0 16 2;
#X connect 18 0 19 2;
#X connect 19 0 34 0;
#X connect 19 0 32 0;
#X connect 20 0 16 3;
#X connect 21 0 16 3;
#X connect 22 0 16 3;
#X connect 23 0 16 3;
#X connect 24 0 19 3;
#X connect 25 0 19 3;
#X connect 26 0 19 3;
#X connect 27 0 19 3;
#X connect 29 0 16 0;
#X connect 30 0 29 1;
#X connect 31 0 29 0;
#X connect 32 0 1 1;
#X connect 33 0 8 0;
#X connect 34 0 28 0;
#X connect 35 0 34 1;
#X connect 36 0 1 0;
#X connect 36 0 1 1;
#X connect 37 0 7 0;
#X connect 37 0 39 0;
#X connect 38 0 37 0;
#X connect 39 0 37 1;
