#N canvas 229 206 1480 883 12;
#X obj 357 169 numberseq;
#X obj 425 807 dac~;
#X msg 397 66 0 3 7 10;
#X obj 398 27 loadbang;
#X obj 357 203 + 80;
#X obj 357 228 mtof;
#X obj 382 320 *~;
#X obj 529 192 t b b;
#X obj 717 334 tgl 15 0 empty empty empty 17 7 0 10 -262144 -1 -1 1
1;
#X floatatom 305 227 5 0 0 0 - - -, f 5;
#X obj 359 272 osc~;
#X obj 465 286 adenv~ 10 200;
#X floatatom 585 247 5 0 0 0 - - -, f 5;
#X obj 31 156 xsample;
#N canvas 0 22 1079 827 delayline1 0;
#X msg 733 592 loop 1;
#X obj 793 545 loadbang;
#X msg 802 595 0;
#X msg 718 560 44100;
#X obj 644 649 bng 15 250 50 0 empty empty empty 17 7 0 10 -262144
-1 -1;
#X msg 559 475 reset;
#N canvas 0 22 450 278 (subpatch) 0;
#X array \$0-buffer 44100 float 2;
#X coords 0 1 44100 -1 200 140 1 0 0;
#X restore 791 279 graph;
#X msg 611 479 stop;
#X obj 601 722 bng 15 250 50 0 empty empty empty 17 7 0 10 -262144
-1 -1;
#X obj 544 440 sel 1;
#X obj 594 262 t b f b b b f;
#X obj 331 568 xrecord~ \$0-buffer;
#X obj 432 670 xgroove~ \$0-buffer;
#X obj 281 163 inlet~;
#X obj 476 162 inlet;
#X obj 348 735 outlet~;
#X obj 258 290 delwrite~ \$0-delay_0 1000;
#X obj 859 156 inlet;
#X floatatom 637 560 5 0 0 0 - - -, f 5;
#X msg 703 408 0.5;
#X obj 694 356 loadbang;
#X obj 641 294 bng 15 250 50 0 empty empty empty 17 7 0 10 -262144
-1 -1;
#X msg 207 445 mixmode 0;
#X connect 0 0 11 0;
#X connect 0 0 12 0;
#X connect 1 0 0 0;
#X connect 1 0 2 0;
#X connect 1 0 3 0;
#X connect 2 0 11 2;
#X connect 2 0 12 1;
#X connect 3 0 11 3;
#X connect 3 0 12 2;
#X connect 5 0 11 0;
#X connect 5 0 12 0;
#X connect 7 0 11 0;
#X connect 7 0 12 0;
#X connect 9 0 11 0;
#X connect 9 0 12 0;
#X connect 9 1 7 0;
#X connect 9 1 5 0;
#X connect 10 0 18 0;
#X connect 10 1 9 0;
#X connect 11 3 4 0;
#X connect 12 0 15 0;
#X connect 12 4 8 0;
#X connect 13 0 11 0;
#X connect 14 0 10 0;
#X connect 17 0 12 0;
#X connect 17 0 18 0;
#X connect 18 0 12 0;
#X connect 19 0 18 0;
#X connect 20 0 19 0;
#X connect 21 0 11 0;
#X connect 21 0 12 0;
#X connect 22 0 11 0;
#X restore 591 586 pd delayline1;
#N canvas 0 22 1079 827 delayline2 0;
#X msg 713 502 loop 1;
#X obj 794 457 loadbang;
#X msg 784 500 0;
#X msg 843 502 44100;
#X obj 644 649 bng 15 250 50 0 empty empty empty 17 7 0 10 -262144
-1 -1;
#X msg 607 469 reset;
#N canvas 0 22 450 278 (subpatch) 0;
#X array \$0-buffer2 44100 float 2;
#X coords 0 1 44100 -1 200 140 1 0 0;
#X restore 791 279 graph;
#X msg 686 456 stop;
#X obj 626 694 bng 15 250 50 0 empty empty empty 17 7 0 10 -262144
-1 -1;
#X obj 544 440 sel 1;
#X obj 542 401 t b f b b b f;
#X obj 281 163 inlet~;
#X obj 443 160 inlet;
#X obj 348 735 outlet~;
#X obj 401 580 xrecord~ \$0-buffer2;
#X obj 412 627 xgroove~ \$0-buffer2;
#X msg 688 344 2;
#X obj 765 161 inlet;
#X obj 691 309 loadbang;
#X floatatom 689 392 5 0 0 0 - - -, f 5;
#X obj 606 293 bng 15 250 50 0 empty empty empty 17 7 0 10 -262144
-1 -1;
#X msg 231 506 mixmode 0;
#X connect 0 0 14 0;
#X connect 0 0 15 0;
#X connect 1 0 0 0;
#X connect 1 0 2 0;
#X connect 1 0 3 0;
#X connect 2 0 14 2;
#X connect 2 0 15 1;
#X connect 3 0 14 3;
#X connect 3 0 15 2;
#X connect 5 0 14 0;
#X connect 5 0 15 0;
#X connect 7 0 14 0;
#X connect 7 0 15 0;
#X connect 9 0 14 0;
#X connect 9 0 15 0;
#X connect 9 1 7 0;
#X connect 9 1 5 0;
#X connect 10 1 9 0;
#X connect 11 0 14 0;
#X connect 12 0 10 0;
#X connect 14 3 4 0;
#X connect 15 0 13 0;
#X connect 15 4 8 0;
#X connect 16 0 19 0;
#X connect 17 0 19 0;
#X connect 18 0 16 0;
#X connect 19 0 15 0;
#X connect 20 0 14 0;
#X connect 20 0 15 0;
#X connect 21 0 14 0;
#X restore 608 663 pd delayline2;
#X msg 741 411 0.5;
#X msg 741 439 1;
#X msg 742 468 2;
#X msg 744 496 4;
#X msg 756 546 0.5;
#X msg 756 574 1;
#X msg 757 603 2;
#X msg 759 631 4;
#X obj 609 782 delwrite~ feedback;
#X obj 564 462 *~;
#X obj 564 320 hsl 128 15 0 1.2 0 0 empty empty empty -2 -8 0 10 -262144
-1 -1 12700 1;
#X obj 540 375 delread~ feedback 0;
#X obj 521 98 tgl 15 0 empty empty empty 17 7 0 10 -262144 -1 -1 1
1;
#X obj 685 108 tgl 15 0 empty empty empty 17 7 0 10 -262144 -1 -1 1
1;
#X obj 625 19 loadbang;
#X obj 363 730 *~ 1;
#X obj 431 727 *~ 1;
#X obj 486 728 *~ 1;
#X floatatom 620 345 5 0 0 0 - - -, f 5;
#X obj 44 26 loadbang;
#X obj 43 64 delay;
#X msg 44 103 \; pd dsp 1;
#X obj 693 154 metro;
#X obj 696 196 random 2000;
#X obj 529 140 metro 500;
#X obj 663 693 r~ \$0-filterctl;
#X obj 586 419 r~ \$0-decayctl;
#N canvas 0 22 1140 797 midicontrol 0;
#X obj 54 34 ctlin 0 2;
#X floatatom 56 72 5 0 0 0 - - -, f 5;
#X obj 58 109 expr ($f1 / 127) * 1.2;
#X obj 59 145 lop~ 1;
#X floatatom 264 64 5 0 0 0 - - -, f 5;
#X obj 267 137 lop~ 1;
#X obj 266 101 expr ($f1 / 127) * 20000;
#X obj 267 177 s~ \$0-filterctl;
#X obj 57 182 s~ \$0-decayctl;
#X obj 262 26 ctlin 16 2;
#X obj 508 20 ctlin 61 2;
#X obj 508 61 sel 127;
#X obj 507 104 s \$0-cycle1;
#X obj 613 58 sel 127;
#X obj 613 17 ctlin 62 2;
#X obj 612 101 s \$0-cycle2;
#X obj 484 85 bng 15 250 50 0 empty empty empty 17 7 0 10 -262144 -1
-1;
#X obj 592 83 bng 15 250 50 0 empty empty empty 17 7 0 10 -262144 -1
-1;
#X connect 0 0 1 0;
#X connect 1 0 2 0;
#X connect 2 0 3 0;
#X connect 3 0 8 0;
#X connect 4 0 6 0;
#X connect 5 0 7 0;
#X connect 6 0 5 0;
#X connect 9 0 4 0;
#X connect 10 0 11 0;
#X connect 11 0 12 0;
#X connect 11 0 16 0;
#X connect 13 0 15 0;
#X connect 13 0 17 0;
#X connect 14 0 13 0;
#X restore 134 22 pd midicontrol;
#X obj 606 730 vcf~ 1;
#X floatatom 854 711 5 0 0 0 - - -, f 5;
#X msg 829 651 20000;
#X obj 831 626 loadbang;
#N canvas 0 22 698 520 randfactor 0;
#X obj 314 317 zl nth;
#X msg 293 264 0.5 1 2 4;
#X obj 348 222 t b f;
#X obj 348 193 + 1;
#X obj 352 123 bng 15 250 50 0 empty empty empty 17 7 0 10 -262144
-1 -1;
#X floatatom 324 352 5 0 0 0 - - -, f 5;
#X obj 348 168 random 4;
#X obj 289 389 outlet;
#X obj 363 85 inlet;
#X connect 0 0 5 0;
#X connect 0 0 7 0;
#X connect 1 0 0 0;
#X connect 2 0 1 0;
#X connect 2 1 0 1;
#X connect 3 0 2 0;
#X connect 4 0 6 0;
#X connect 6 0 3 0;
#X connect 8 0 6 0;
#X restore 737 377 pd randfactor;
#N canvas 0 22 698 520 randfactor 0;
#X obj 314 317 zl nth;
#X msg 293 264 0.5 1 2 4;
#X obj 348 222 t b f;
#X obj 348 193 + 1;
#X obj 352 123 bng 15 250 50 0 empty empty empty 17 7 0 10 -262144
-1 -1;
#X floatatom 324 352 5 0 0 0 - - -, f 5;
#X obj 348 168 random 4;
#X obj 289 389 outlet;
#X obj 363 85 inlet;
#X connect 0 0 5 0;
#X connect 0 0 7 0;
#X connect 1 0 0 0;
#X connect 2 0 1 0;
#X connect 2 1 0 1;
#X connect 3 0 2 0;
#X connect 4 0 6 0;
#X connect 6 0 3 0;
#X connect 8 0 6 0;
#X restore 825 490 pd randfactor;
#X obj 739 347 r \$0-cycle1;
#X obj 827 460 r \$0-cycle2;
#X connect 0 0 4 0;
#X connect 2 0 0 1;
#X connect 3 0 2 0;
#X connect 4 0 5 0;
#X connect 4 0 9 0;
#X connect 5 0 10 0;
#X connect 6 0 14 0;
#X connect 6 0 32 0;
#X connect 7 0 11 0;
#X connect 7 1 0 0;
#X connect 8 0 14 1;
#X connect 8 0 15 1;
#X connect 10 0 6 0;
#X connect 11 0 6 1;
#X connect 12 0 11 2;
#X connect 14 0 15 0;
#X connect 14 0 31 0;
#X connect 15 0 33 0;
#X connect 15 0 44 0;
#X connect 16 0 14 2;
#X connect 17 0 14 2;
#X connect 18 0 14 2;
#X connect 19 0 14 2;
#X connect 20 0 15 2;
#X connect 21 0 15 2;
#X connect 22 0 15 2;
#X connect 23 0 15 2;
#X connect 25 0 14 0;
#X connect 26 0 25 1;
#X connect 26 0 34 0;
#X connect 27 0 25 0;
#X connect 28 0 40 0;
#X connect 29 0 38 0;
#X connect 30 0 28 0;
#X connect 30 0 29 0;
#X connect 30 0 8 0;
#X connect 31 0 1 0;
#X connect 32 0 1 1;
#X connect 32 0 1 0;
#X connect 33 0 1 1;
#X connect 35 0 36 0;
#X connect 36 0 37 0;
#X connect 38 0 7 0;
#X connect 38 0 39 0;
#X connect 39 0 38 1;
#X connect 40 0 7 0;
#X connect 41 0 44 1;
#X connect 42 0 25 1;
#X connect 44 1 24 0;
#X connect 45 0 44 2;
#X connect 46 0 44 1;
#X connect 47 0 46 0;
#X connect 48 0 14 2;
#X connect 49 0 15 2;
#X connect 50 0 48 0;
#X connect 51 0 49 0;
