#N canvas 488 157 1054 854 10;
#X obj 482 770 dac~;
#X obj 113 39 tgl 15 0 empty empty empty 17 7 0 10 -262144 -1 -1 1
1;
#X obj 57 157 *~;
#X obj 113 59 metro 500;
#X floatatom 171 23 5 0 0 0 - - -;
#X obj 159 186 s~ \$0-input;
#X obj 38 192 s~ \$0-dry;
#X obj 52 76 pink~;
#X obj 492 437 +~;
#X obj 535 38 vd~ \$0-highfb;
#X floatatom 555 -17 5 0 0 0 - - -;
#X obj 423 -23 r~ \$0-input;
#X obj 489 92 -~;
#X obj 629 62 hsl 128 15 0 1 0 0 empty empty empty -2 -8 0 10 -262144
-1 -1 8600 1;
#X obj 483 561 tanh~;
#X floatatom 584 159 5 0 0 0 - - -;
#X obj 381 366 vd~ \$0-lp1 10;
#X floatatom 405 335 5 0 0 0 - - -;
#X obj 698 237 hsl 128 15 0 1 0 0 empty empty empty -2 -8 0 10 -262144
-1 -1 0 1;
#X floatatom 693 300 5 0 0 0 - - -;
#X obj 687 185 hsl 128 15 0 15 0 0 empty empty empty -2 -8 0 10 -262144
-1 -1 0 1;
#X floatatom 650 231 5 0 0 0 - - -;
#X obj 604 -46 hsl 128 15 0 40 0 0 empty empty empty -2 -8 0 10 -262144
-1 -1 5200 1;
#X obj 35 27 osc~ 440;
#X obj 103 121 adenv~ 10 100;
#X floatatom 90 0 5 0 0 0 - - -;
#X obj 355 572 r~ \$0-dry;
#N canvas 1266 551 450 300 4allpass 0;
#X obj 117 202 outlet~;
#X obj 92 26 inlet~;
#X obj 248 24 inlet~;
#X obj 193 28 inlet~;
#X obj 111 92 allpass~ 100 2.5 0.6;
#X obj 112 118 allpass~ 100 2.5 0.6;
#X obj 112 142 allpass~ 100 2.5 0.6;
#X obj 114 167 allpass~ 100 2.5 0.6;
#X connect 1 0 4 0;
#X connect 2 0 4 2;
#X connect 2 0 5 2;
#X connect 2 0 6 2;
#X connect 2 0 7 2;
#X connect 3 0 4 1;
#X connect 3 0 5 1;
#X connect 3 0 6 1;
#X connect 3 0 7 1;
#X connect 4 0 5 0;
#X connect 5 0 6 0;
#X connect 6 0 7 0;
#X connect 7 0 0 0;
#X restore 529 266 pd 4allpass;
#X obj 250 34 adc~;
#X obj 890 99 dsp;
#X floatatom 890 127 5 0 0 0 - - -;
#N canvas 1266 551 450 300 4allpass 0;
#X obj 117 202 outlet~;
#X obj 92 26 inlet~;
#X obj 248 24 inlet~;
#X obj 193 28 inlet~;
#X obj 111 92 allpass~ 100 2.5 0.6;
#X obj 112 118 allpass~ 100 2.5 0.6;
#X obj 112 142 allpass~ 100 2.5 0.6;
#X obj 114 167 allpass~ 100 2.5 0.6;
#X connect 1 0 4 0;
#X connect 2 0 4 2;
#X connect 2 0 5 2;
#X connect 2 0 6 2;
#X connect 2 0 7 2;
#X connect 3 0 4 1;
#X connect 3 0 5 1;
#X connect 3 0 6 1;
#X connect 3 0 7 1;
#X connect 4 0 5 0;
#X connect 5 0 6 0;
#X connect 6 0 7 0;
#X connect 7 0 0 0;
#X restore 525 294 pd 4allpass;
#N canvas 1266 551 450 300 4allpass 0;
#X obj 117 202 outlet~;
#X obj 92 26 inlet~;
#X obj 248 24 inlet~;
#X obj 193 28 inlet~;
#X obj 111 92 allpass~ 100 2.5 0.6;
#X obj 112 118 allpass~ 100 2.5 0.6;
#X obj 112 142 allpass~ 100 2.5 0.6;
#X obj 114 167 allpass~ 100 2.5 0.6;
#X connect 1 0 4 0;
#X connect 2 0 4 2;
#X connect 2 0 5 2;
#X connect 2 0 6 2;
#X connect 2 0 7 2;
#X connect 3 0 4 1;
#X connect 3 0 5 1;
#X connect 3 0 6 1;
#X connect 3 0 7 1;
#X connect 4 0 5 0;
#X connect 5 0 6 0;
#X connect 6 0 7 0;
#X connect 7 0 0 0;
#X restore 525 321 pd 4allpass;
#N canvas 1266 551 450 300 4allpass 0;
#X obj 117 202 outlet~;
#X obj 92 26 inlet~;
#X obj 248 24 inlet~;
#X obj 193 28 inlet~;
#X obj 111 92 allpass~ 100 2.5 0.6;
#X obj 112 118 allpass~ 100 2.5 0.6;
#X obj 112 142 allpass~ 100 2.5 0.6;
#X obj 114 167 allpass~ 100 2.5 0.6;
#X connect 1 0 4 0;
#X connect 2 0 4 2;
#X connect 2 0 5 2;
#X connect 2 0 6 2;
#X connect 2 0 7 2;
#X connect 3 0 4 1;
#X connect 3 0 5 1;
#X connect 3 0 6 1;
#X connect 3 0 7 1;
#X connect 4 0 5 0;
#X connect 5 0 6 0;
#X connect 6 0 7 0;
#X connect 7 0 0 0;
#X restore 524 345 pd 4allpass;
#X obj 377 231 delwrite~ \$0-lp1 1000;
#X obj 540 513 delwrite~ \$0-highfb 200;
#X floatatom 279 65 5 0 0 0 - - -;
#X obj 431 41 lop~ 1000;
#X obj 485 534 lop~ 1000;
#X obj 84 294 loadbang;
#X obj 85 326 delay 100;
#X obj 677 99 loadbang;
#X obj 762 267 loadbang;
#X obj 525 212 hp4_butt~ 200 100;
#X obj 378 201 lp4_butt~ 200 100;
#X obj 613 -16 loadbang;
#X floatatom 625 89 5 0 0 0 - - -;
#X obj 429 9 hip~ 400;
#N canvas 1266 551 450 300 4allpass 0;
#X obj 117 202 outlet~;
#X obj 92 26 inlet~;
#X obj 248 24 inlet~;
#X obj 193 28 inlet~;
#X obj 111 92 allpass~ 100 2.5 0.6;
#X obj 112 118 allpass~ 100 2.5 0.6;
#X obj 112 142 allpass~ 100 2.5 0.6;
#X obj 114 167 allpass~ 100 2.5 0.6;
#X connect 1 0 4 0;
#X connect 2 0 4 2;
#X connect 2 0 5 2;
#X connect 2 0 6 2;
#X connect 2 0 7 2;
#X connect 3 0 4 1;
#X connect 3 0 5 1;
#X connect 3 0 6 1;
#X connect 3 0 7 1;
#X connect 4 0 5 0;
#X connect 5 0 6 0;
#X connect 6 0 7 0;
#X connect 7 0 0 0;
#X restore 524 366 pd 4allpass;
#N canvas 1266 551 450 300 4allpass 0;
#X obj 117 202 outlet~;
#X obj 92 26 inlet~;
#X obj 248 24 inlet~;
#X obj 193 28 inlet~;
#X obj 111 92 allpass~ 100 2.5 0.6;
#X obj 112 118 allpass~ 100 2.5 0.6;
#X obj 112 142 allpass~ 100 2.5 0.6;
#X obj 114 167 allpass~ 100 2.5 0.6;
#X connect 1 0 4 0;
#X connect 2 0 4 2;
#X connect 2 0 5 2;
#X connect 2 0 6 2;
#X connect 2 0 7 2;
#X connect 3 0 4 1;
#X connect 3 0 5 1;
#X connect 3 0 6 1;
#X connect 3 0 7 1;
#X connect 4 0 5 0;
#X connect 5 0 6 0;
#X connect 6 0 7 0;
#X connect 7 0 0 0;
#X restore 524 390 pd 4allpass;
#X obj 463 294 * 24;
#X obj 723 345 hsl 128 15 0 1 0 0 empty empty empty -2 -8 0 10 -262144
-1 -1 8598 1;
#X floatatom 722 365 5 0 0 0 - - -;
#X obj 633 448 hsl 128 15 0 15 0 0 empty empty empty -2 -8 0 10 -262144
-1 -1 7099 1;
#X floatatom 627 472 5 0 0 0 - - -;
#X obj 649 397 hsl 128 15 0 15 0 0 empty empty empty -2 -8 0 10 -262144
-1 -1 8099 1;
#X floatatom 646 424 5 0 0 0 - - -;
#X msg 760 291 0.464;
#X msg 680 122 6.614;
#X obj 534 74 *~ 0.59;
#X msg 613 5 24.25;
#X obj 815 291 loadbang;
#X msg 813 315 0.677;
#X obj 869 341 loadbang;
#X msg 867 365 9.566;
#X obj 800 402 loadbang;
#X msg 798 426 8.385;
#X obj 529 667 *~;
#X obj 217 90 *~ 1;
#X obj 430 669 *~;
#X obj 568 569 loadbang;
#X msg 568 603 0.7;
#X msg 86 355 \; pd dsp 1;
#X msg 588 128 200;
#X obj 241 10 mtof;
#X obj 240 -12 + 60;
#X obj 241 -37 random 40;
#X connect 1 0 3 0;
#X connect 2 0 5 0;
#X connect 2 0 6 0;
#X connect 3 0 24 0;
#X connect 3 0 76 0;
#X connect 4 0 3 1;
#X connect 8 0 35 0;
#X connect 8 0 38 0;
#X connect 9 0 59 0;
#X connect 10 0 9 0;
#X connect 11 0 47 0;
#X connect 12 0 43 0;
#X connect 12 0 44 0;
#X connect 13 0 46 0;
#X connect 13 0 59 1;
#X connect 14 0 67 0;
#X connect 15 0 43 1;
#X connect 15 0 44 1;
#X connect 16 0 8 0;
#X connect 17 0 16 0;
#X connect 18 0 19 0;
#X connect 19 0 49 2;
#X connect 19 0 31 2;
#X connect 19 0 33 2;
#X connect 20 0 21 0;
#X connect 21 0 27 1;
#X connect 21 0 50 0;
#X connect 21 0 48 1;
#X connect 22 0 10 0;
#X connect 23 0 2 0;
#X connect 24 0 2 1;
#X connect 25 0 23 0;
#X connect 26 0 69 0;
#X connect 27 0 31 0;
#X connect 28 0 6 0;
#X connect 28 0 68 0;
#X connect 29 0 30 0;
#X connect 31 0 32 0;
#X connect 32 0 33 0;
#X connect 33 0 48 0;
#X connect 36 0 68 1;
#X connect 37 0 12 0;
#X connect 38 0 14 0;
#X connect 39 0 40 0;
#X connect 40 0 72 0;
#X connect 41 0 58 0;
#X connect 41 0 73 0;
#X connect 42 0 57 0;
#X connect 43 0 27 0;
#X connect 44 0 34 0;
#X connect 45 0 60 0;
#X connect 47 0 37 0;
#X connect 48 0 49 0;
#X connect 49 0 8 1;
#X connect 50 0 17 0;
#X connect 51 0 52 0;
#X connect 51 0 32 2;
#X connect 51 0 48 2;
#X connect 51 0 27 2;
#X connect 53 0 54 0;
#X connect 53 0 49 1;
#X connect 53 0 31 1;
#X connect 55 0 56 0;
#X connect 55 0 33 1;
#X connect 55 0 32 1;
#X connect 57 0 19 0;
#X connect 58 0 21 0;
#X connect 59 0 12 1;
#X connect 60 0 9 0;
#X connect 61 0 62 0;
#X connect 62 0 51 0;
#X connect 63 0 64 0;
#X connect 64 0 55 0;
#X connect 65 0 66 0;
#X connect 66 0 53 0;
#X connect 67 0 0 0;
#X connect 67 0 0 1;
#X connect 68 0 5 0;
#X connect 69 0 0 0;
#X connect 69 0 0 1;
#X connect 70 0 71 0;
#X connect 71 0 67 1;
#X connect 71 0 69 1;
#X connect 73 0 15 0;
#X connect 74 0 23 0;
#X connect 75 0 74 0;
#X connect 76 0 75 0;
