#N canvas 314 22 760 694 10;
#X obj 238 64 osc~;
#X floatatom 238 10 5 0 0 0 - - -;
#X obj 230 582 clip~ -1 1;
#X obj 228 623 output~;
#X obj 226 423 *~ 1;
#X obj 235 118 *~;
#X obj 342 38 metro;
#X obj 313 12 tgl 15 0 empty empty empty 17 7 0 10 -262144 -1 -1 1
1;
#X floatatom 382 5 5 0 0 0 - - -;
#X obj 421 51 random 2000;
#X obj 347 491 delwrite~ \$0-feedback 500;
#X obj 239 158 *~ 1;
#X obj 140 576 hip~ 1;
#X obj 475 257 / 100;
#X obj 196 515 *~ 0.1;
#X obj 363 84 adenv~ 15 1000;
#X obj 318 457 hip~ 100;
#X obj 76 176 nbx 5 14 -1e+37 1e+37 0 1 empty empty empty 0 -8 0 10
-262144 -1 -1 67 256;
#X obj 74 233 vd~ \$0-feedback 50;
#X obj 271 437 lop~ 800;
#X obj 285 185 lp4_butt~ 15000;
#X obj 298 222 hp4_butt~ 15000;
#X obj 312 287 allpass~ 200 25 1 -0.8;
#X obj 314 308 allpass~ 200 25 1 -0.8;
#X obj 313 332 allpass~ 200 25 1 -0.8;
#X obj 313 358 allpass~ 200 25 1 -0.8;
#X obj 514 192 nbx 5 14 -1e+37 1e+37 0 1 empty empty empty 0 -8 0 10
-262144 -1 -1 -77 256;
#X obj 389 151 nbx 5 14 -1e+37 1e+37 0 1 empty empty empty 0 -8 0 10
-262144 -1 -1 1500 256;
#X obj 417 230 nbx 5 14 -1e+37 1e+37 0 1 empty empty empty 0 -8 0 10
-262144 -1 -1 25 256;
#X connect 0 0 5 0;
#X connect 1 0 0 0;
#X connect 2 0 3 0;
#X connect 2 0 3 1;
#X connect 4 0 14 0;
#X connect 4 0 19 0;
#X connect 5 0 11 0;
#X connect 6 0 9 0;
#X connect 6 0 15 0;
#X connect 7 0 6 0;
#X connect 8 0 6 1;
#X connect 9 0 0 0;
#X connect 11 0 4 0;
#X connect 11 0 20 0;
#X connect 12 0 2 0;
#X connect 13 0 22 2;
#X connect 13 0 23 2;
#X connect 13 0 24 2;
#X connect 13 0 25 2;
#X connect 14 0 12 0;
#X connect 15 0 5 1;
#X connect 16 0 10 0;
#X connect 17 0 18 0;
#X connect 18 0 11 0;
#X connect 19 0 16 0;
#X connect 20 0 21 0;
#X connect 21 0 22 0;
#X connect 22 0 23 0;
#X connect 23 0 24 0;
#X connect 24 0 25 0;
#X connect 25 0 4 0;
#X connect 26 0 13 0;
#X connect 27 0 20 1;
#X connect 27 0 21 1;
#X connect 28 0 22 1;
#X connect 28 0 23 1;
#X connect 28 0 24 1;
#X connect 28 0 25 1;
