#N canvas 252 27 929 646 10;
#X obj 425 579 output~;
#X obj 697 487 vu~;
#X obj 506 503 vsl 15 128 50 150 0 0 empty empty empty 0 -9 0 10 -262144
-1 -1 12700 1;
#X obj 444 522 vols~;
#N canvas 325 59 809 630 verb~ 0;
#X obj 52 226 inlet~;
#X obj 130 222 inlet~;
#X obj 120 545 outlet~;
#X obj 205 545 outlet~;
#X obj 188 444 zrev1~ 10 10 10;
#X obj 494 279 hsl 128 15 0 100 0 1 empty empty reverb_time -2 -8 0
10 -262144 -1 -1 12200 1;
#X floatatom 507 350 5 0 0 0 - - -;
#X obj 544 395 hsl 128 15 -1 1 0 1 empty empty mix -2 -8 0 10 -262144
-1 -1 0 1;
#X floatatom 536 431 5 0 0 0 - - -;
#X obj 467 235 hsl 128 15 0 200 0 1 empty empty room_size -2 -8 0 10
-262144 -1 -1 6200 1;
#X floatatom 428 277 5 0 0 0 - - -;
#X obj 401 191 hsl 128 15 200 20000 1 1 empty empty lpf_cutoff -2 -8
0 10 -262144 -1 -1 5400 1;
#X floatatom 390 239 5 0 0 0 - - -;
#X obj 375 145 hsl 128 15 -99 18 0 1 empty empty recycle -2 -8 0 10
-262144 -1 -1 10100 1;
#X obj 316 105 hsl 128 15 -99 18 0 1 empty empty 2nd_reflection_(db)
-2 -8 0 10 -262144 -1 -1 0 1;
#X obj 238 69 hsl 128 15 -99 18 0 1 empty empty 1st_reflection_(db)
-2 -8 0 10 -262144 -1 -1 0 1;
#X connect 0 0 4 0;
#X connect 1 0 4 1;
#X connect 4 0 3 0;
#X connect 4 1 2 0;
#X connect 5 0 6 0;
#X connect 6 0 4 7;
#X connect 7 0 8 0;
#X connect 8 0 4 8;
#X connect 9 0 10 0;
#X connect 10 0 4 6;
#X connect 11 0 12 0;
#X connect 12 0 4 5;
#X connect 13 0 4 4;
#X connect 14 0 4 3;
#X connect 15 0 4 2;
#X restore 418 461 pd verb~;
#X obj 549 255 vols~;
#X obj 507 24 tgl 15 0 empty empty empty 17 7 0 10 -262144 -1 -1 1
1;
#X obj 629 7 nbx 5 14 -1e+37 1e+37 0 1 empty empty empty 0 -8 0 10
-262144 -1 -1 500 256;
#X obj 681 35 nbx 5 14 -1e+37 1e+37 0 1 empty empty empty 0 -8 0 10
-262144 -1 -1 7000 256;
#X obj 714 65 nbx 5 14 -1e+37 1e+37 0 0 empty empty empty 0 -8 0 10
-262144 -1 -1 0.6 256;
#X obj 559 8 nbx 5 14 -1e+37 1e+37 0 1 empty empty empty 0 -8 0 10
-262144 -1 -1 1000 256;
#X obj 630 273 nbx 5 14 -1e+37 1e+37 0 1 empty empty empty 0 -8 0 10
-262144 -1 -1 82 256;
#X obj 806 9 bng 15 250 50 0 empty empty empty 17 7 0 10 -262144 -1
-1;
#X obj 533 69 windbell~ 942;
#X obj 621 135 windbell~ 700;
#X obj 654 161 windbell~ 786;
#X obj 586 97 windbell~ 472;
#X obj 697 192 windbell~ 520;
#X obj 737 226 windbell~ 589;
#X obj 807 55 t b b b b;
#N canvas 495 219 447 493 highnote 0;
#X obj 87 203 osc~;
#X obj 155 332 *~;
#X obj 145 279 +~ 1;
#X obj 87 159 mtof;
#X obj 148 205 osc~;
#X obj 144 232 *~ 0.4;
#X obj 277 385 vols~;
#X obj 267 303 line;
#X obj 249 72 inlet;
#X obj 305 440 outlet~;
#X obj 80 119 nbx 5 14 0 1e+37 0 1 empty empty empty 0 -8 0 10 -262144
-1 -1 77 256;
#X obj 159 173 nbx 5 14 0 1e+37 0 1 empty empty empty 0 -8 0 10 -262144
-1 -1 8 256;
#X obj 207 350 *~ 0.01;
#X msg 257 262 90 5000;
#X obj 324 69 inlet;
#X msg 307 238 0 10000;
#X connect 0 0 1 0;
#X connect 1 0 12 0;
#X connect 2 0 1 1;
#X connect 3 0 0 0;
#X connect 4 0 5 0;
#X connect 5 0 2 0;
#X connect 6 0 9 0;
#X connect 7 0 6 2;
#X connect 8 0 13 0;
#X connect 10 0 3 0;
#X connect 11 0 4 0;
#X connect 12 0 6 0;
#X connect 12 0 6 1;
#X connect 13 0 7 0;
#X connect 14 0 15 0;
#X connect 15 0 7 0;
#X restore 131 329 pd highnote;
#N canvas 394 67 673 647 bassnote~ 0;
#X obj 349 504 outlet~;
#X obj 143 192 osc~;
#X obj 143 148 mtof;
#X obj 333 374 vols~;
#X obj 323 292 line;
#X obj 305 61 inlet;
#X obj 211 321 *~ 1;
#X obj 264 337 *~ 0.3;
#X obj 118 112 nbx 5 14 0 1e+37 0 1 empty empty empty 0 -8 0 10 -262144
-1 -1 33 256;
#X msg 313 251 85 5000;
#X obj 394 60 inlet;
#X msg 372 227 0 10000;
#X connect 1 0 6 0;
#X connect 2 0 1 0;
#X connect 3 0 0 0;
#X connect 4 0 3 2;
#X connect 5 0 9 0;
#X connect 6 0 7 0;
#X connect 7 0 3 0;
#X connect 7 0 3 1;
#X connect 8 0 2 0;
#X connect 9 0 4 0;
#X connect 10 0 11 0;
#X connect 11 0 4 0;
#X restore 233 179 pd bassnote~;
#X obj 89 261 delay;
#X obj 39 20 bng 15 250 50 0 empty empty empty 17 7 0 10 -262144 -1
-1;
#X obj 153 150 delay;
#X obj 283 111 bng 15 250 50 0 empty empty empty 17 7 0 10 -262144
-1 -1;
#X obj 178 55 delay;
#X obj 137 29 minutes 5.5;
#X obj 131 122 minutes 3.3;
#X obj 76 226 minutes 2;
#X msg 320 26 stop;
#X obj 622 490 vu~;
#X connect 2 0 3 2;
#X connect 3 0 0 0;
#X connect 3 0 31 0;
#X connect 3 1 0 1;
#X connect 3 1 1 0;
#X connect 4 0 3 0;
#X connect 4 1 3 1;
#X connect 5 0 4 0;
#X connect 5 1 4 1;
#X connect 6 0 13 0;
#X connect 6 0 14 0;
#X connect 6 0 15 0;
#X connect 6 0 16 0;
#X connect 6 0 17 0;
#X connect 6 0 18 0;
#X connect 7 0 13 3;
#X connect 7 0 14 3;
#X connect 7 0 15 3;
#X connect 7 0 16 3;
#X connect 7 0 17 3;
#X connect 7 0 18 3;
#X connect 8 0 13 4;
#X connect 8 0 14 4;
#X connect 8 0 15 4;
#X connect 8 0 16 4;
#X connect 8 0 17 4;
#X connect 8 0 18 4;
#X connect 9 0 13 5;
#X connect 9 0 14 5;
#X connect 9 0 15 5;
#X connect 9 0 16 5;
#X connect 9 0 17 5;
#X connect 9 0 18 5;
#X connect 10 0 13 2;
#X connect 10 0 14 2;
#X connect 10 0 15 2;
#X connect 10 0 16 2;
#X connect 10 0 17 2;
#X connect 10 0 18 2;
#X connect 11 0 5 2;
#X connect 12 0 19 0;
#X connect 13 0 5 0;
#X connect 13 1 5 1;
#X connect 14 0 5 0;
#X connect 14 1 5 1;
#X connect 15 0 5 0;
#X connect 15 1 5 1;
#X connect 16 0 5 0;
#X connect 16 1 5 1;
#X connect 17 0 5 0;
#X connect 17 1 5 1;
#X connect 18 0 5 0;
#X connect 18 1 5 1;
#X connect 19 0 10 0;
#X connect 19 1 7 0;
#X connect 19 2 8 0;
#X connect 19 3 9 0;
#X connect 20 0 4 0;
#X connect 20 0 4 1;
#X connect 21 0 4 0;
#X connect 21 0 4 1;
#X connect 22 0 20 0;
#X connect 23 0 27 0;
#X connect 23 0 28 0;
#X connect 23 0 29 0;
#X connect 24 0 21 0;
#X connect 25 0 21 1;
#X connect 25 0 20 1;
#X connect 26 0 25 0;
#X connect 27 0 26 0;
#X connect 28 0 24 0;
#X connect 29 0 22 0;
#X connect 30 0 26 0;
#X connect 30 0 24 0;
#X connect 30 0 22 0;
