#N canvas 338 197 1069 861 10;
#X obj 854 781 dac~;
#X obj 908 709 gain~;
#X obj 905 676 r~ \$0-dry;
#X obj 663 673 gain~;
#X obj 445 480 delwrite~ \$0-tapeloop 2000;
#X obj 153 625 vd~ \$0-tapeloop;
#X obj 129 708 s~ \$0-wet;
#X obj 662 638 r~ \$0-wet;
#X obj 202 793 s~ \$0-feedback;
#X obj 203 701 *~;
#X obj 498 316 r~ \$0-feedback;
#X obj 150 600 +~;
#X obj 755 733 equal_power_pan~;
#X obj 916 96 saturator;
#X floatatom 516 367 5 0 0 0 - - -;
#X floatatom 500 339 5 0 0 0 - - -;
#X obj 444 389 svf~ 3500;
#X obj 485 -7 adc~;
#X obj 498 76 s~ \$0-dry;
#X obj 245 680 lop~ 10;
#X obj 105 81 tgl 15 0 empty empty empty 17 7 0 10 -262144 -1 -1 1
1;
#X obj 49 199 *~;
#X obj 105 101 metro 500;
#X floatatom 163 65 5 0 0 0 - - -;
#X obj 44 118 pink~;
#X obj 27 69 osc~ 440;
#X obj 95 163 adenv~ 10 100;
#X floatatom 82 42 5 0 0 0 - - -;
#X obj 233 52 mtof;
#X obj 486 50 *~ 1;
#X obj 41 313 hsl 128 15 0 127 0 0 empty empty empty -2 -8 0 10 -262144
-1 -1 8200 1;
#X floatatom 17 374 5 0 0 0 - - -;
#X obj 232 30 + 50;
#X obj 484 138 *~;
#X obj 525 121 hsl 128 15 0 1.2 0 0 empty empty empty -2 -8 0 10 -262144
-1 -1 8800 1;
#X floatatom 529 146 5 0 0 0 - - -;
#X obj 916 39 dsp 1;
#X floatatom 916 65 5 0 0 0 - - -;
#X obj 202 748 tanh~;
#X obj 154 671 +~;
#X obj 234 5 random 50;
#X obj 444 357 hip~ 400;
#X obj 202 726 *~ 0.25;
#X obj 202 772 *~ 4;
#X obj 171 566 r~ \$0-wow;
#N canvas 1207 445 450 300 wow~ 0;
#X floatatom 174 103 5 0 0 0 - - -;
#X obj 104 30 pink~;
#X obj 106 60 samphold~;
#X obj 141 192 snapshot~;
#X obj 164 159 metro 100;
#X obj 166 132 tgl 15 0 empty empty empty 17 7 0 10 -262144 -1 -1 1
1;
#X floatatom 140 221 5 0 0 0 - - -;
#X obj 160 21 phasor~ 0.5;
#X obj 107 92 lop~ 0.05;
#X obj 107 123 *~ 10;
#X obj 60 151 s~ \$0-wow;
#X obj 222 99 loadbang;
#X connect 0 0 9 1;
#X connect 1 0 2 0;
#X connect 2 0 8 0;
#X connect 3 0 6 0;
#X connect 4 0 3 0;
#X connect 5 0 4 0;
#X connect 7 0 2 1;
#X connect 8 0 9 0;
#X connect 9 0 3 0;
#X connect 9 0 10 0;
#X connect 11 0 5 0;
#X restore 917 123 pd wow~;
#X text 40 294 delay time;
#X text 585 102 input gain;
#X obj 63 373 s~ \$0-delaytime;
#X obj 111 536 r~ \$0-delaytime;
#X obj 762 700 hsl 128 15 0 1 0 0 empty empty empty -2 -8 0 10 -262144
-1 -1 12700 1;
#X obj 114 564 lop~ 4;
#X obj 27 433 hsl 128 15 0 1.5 0 0 empty empty empty -2 -8 0 10 -262144
-1 -1 9100 1;
#X floatatom 6 461 5 0 0 0 - - -;
#X text 28 412 feedback;
#X obj 59 460 s~ \$0-fbamount;
#X obj 245 651 r~ \$0-fbamount;
#X floatatom 194 124 5 0 0 0 - - -;
#X obj 36 333 expr ($f1 / 127) * 1000;
#X obj 445 440 tb_compressor~;
#X obj 51 227 s~ \$0-testsig;
#X obj 523 18 r~ \$0-testsig;
#X obj 444 273 r~ \$0-input;
#X obj 479 169 s~ \$0-input;
#N canvas 948 559 450 300 compsettings 0;
#X obj 37 92 loadbang;
#X obj 32 174 outlet;
#X msg 35 117 threshold -5 \, ratio 2.5 \, response 40 \, gain 0 \,
rmspeak 1 \, lookahead 15;
#X connect 0 0 2 0;
#X connect 2 0 1 0;
#X restore 524 408 pd compsettings;
#X connect 1 0 0 1;
#X connect 1 0 0 0;
#X connect 2 0 1 0;
#X connect 3 0 12 0;
#X connect 5 0 39 0;
#X connect 7 0 3 0;
#X connect 9 0 42 0;
#X connect 10 0 41 0;
#X connect 11 0 5 0;
#X connect 12 0 0 0;
#X connect 12 1 0 1;
#X connect 14 0 16 1;
#X connect 15 0 41 1;
#X connect 16 0 59 0;
#X connect 17 0 29 0;
#X connect 19 0 9 1;
#X connect 20 0 22 0;
#X connect 21 0 60 0;
#X connect 22 0 26 0;
#X connect 22 0 40 0;
#X connect 23 0 22 1;
#X connect 25 0 21 0;
#X connect 26 0 21 1;
#X connect 27 0 25 0;
#X connect 28 0 25 0;
#X connect 29 0 18 0;
#X connect 29 0 33 0;
#X connect 30 0 58 0;
#X connect 32 0 28 0;
#X connect 33 0 63 0;
#X connect 34 0 33 1;
#X connect 34 0 35 0;
#X connect 36 0 37 0;
#X connect 38 0 43 0;
#X connect 39 0 6 0;
#X connect 39 0 9 0;
#X connect 40 0 32 0;
#X connect 41 0 16 0;
#X connect 42 0 38 0;
#X connect 43 0 8 0;
#X connect 44 0 11 1;
#X connect 49 0 51 0;
#X connect 50 0 12 1;
#X connect 51 0 11 0;
#X connect 52 0 53 0;
#X connect 52 0 55 0;
#X connect 56 0 19 0;
#X connect 57 0 26 2;
#X connect 58 0 31 0;
#X connect 58 0 48 0;
#X connect 59 0 4 0;
#X connect 61 0 29 0;
#X connect 62 0 41 0;
#X connect 64 0 59 1;
