#N canvas 338 197 1069 861 10;
#X obj 854 781 dac~;
#X obj 908 709 gain~;
#X obj 905 676 r~ \$0-dry;
#X obj 663 673 gain~;
#X obj 447 533 delwrite~ \$0-tapeloop 2000;
#X obj 153 625 vd~ \$0-tapeloop;
#X obj 129 708 s~ \$0-wet;
#X obj 662 638 r~ \$0-wet;
#X obj 202 793 s~ \$0-feedback;
#X obj 203 701 *~;
#X obj 505 301 r~ \$0-feedback;
#X obj 150 600 +~;
#X obj 755 733 equal_power_pan~;
#X obj 640 274 saturator;
#X floatatom 516 367 5 0 0 0 - - -;
#X floatatom 500 339 5 0 0 0 - - -;
#X obj 485 -7 adc~;
#X obj 498 76 s~ \$0-dry;
#X obj 245 680 lop~ 10;
#X obj 105 81 tgl 15 0 empty empty empty 17 7 0 10 -262144 -1 -1 1
1;
#X obj 29 271 *~;
#X obj 105 101 metro 500;
#X floatatom 163 65 5 0 0 0 - - -;
#X obj 44 118 pink~;
#X obj 95 163 adenv~ 10 100;
#X floatatom 82 42 5 0 0 0 - - -;
#X obj 235 66 mtof;
#X obj 486 50 *~ 1;
#X obj 895 191 hsl 128 15 0 127 0 1 empty empty empty -2 -8 0 10 -262144
-1 -1 3100 1;
#X floatatom 871 252 5 0 0 0 - - -;
#X obj 234 44 + 50;
#X obj 484 138 *~;
#X obj 525 121 hsl 128 15 0 1.2 0 1 empty empty empty -2 -8 0 10 -262144
-1 -1 9200 1;
#X floatatom 529 146 5 0 0 0 - - -;
#X obj 916 39 dsp 1;
#X floatatom 916 65 5 0 0 0 - - -;
#X obj 202 748 tanh~;
#X obj 154 671 +~;
#X obj 234 5 random 50;
#X obj 202 726 *~ 0.25;
#X obj 202 772 *~ 4;
#X obj 171 566 r~ \$0-wow;
#N canvas 1207 445 450 300 wow~ 0;
#X floatatom 174 103 5 0 0 0 - - -;
#X obj 104 30 pink~;
#X obj 106 60 samphold~;
#X obj 141 192 snapshot~;
#X obj 164 159 metro 100;
#X obj 166 132 tgl 15 0 empty empty empty 17 7 0 10 -262144 -1 -1 1
1;
#X floatatom 140 221 5 0 0 0 - - -;
#X obj 160 21 phasor~ 0.5;
#X obj 107 92 lop~ 0.05;
#X obj 107 123 *~ 10;
#X obj 60 151 s~ \$0-wow;
#X obj 222 99 loadbang;
#X connect 0 0 9 1;
#X connect 1 0 2 0;
#X connect 2 0 8 0;
#X connect 3 0 6 0;
#X connect 4 0 3 0;
#X connect 5 0 4 0;
#X connect 7 0 2 1;
#X connect 8 0 9 0;
#X connect 9 0 3 0;
#X connect 9 0 10 0;
#X connect 11 0 5 0;
#X restore 641 301 pd wow~;
#X text 894 172 delay time;
#X text 644 99 input gain;
#X obj 111 536 r~ \$0-delaytime;
#X obj 762 700 hsl 128 15 0 1 0 1 empty empty empty -2 -8 0 10 -262144
-1 -1 6000 1;
#X obj 876 309 hsl 128 15 0 1.5 0 1 empty empty empty -2 -8 0 10 -262144
-1 -1 8600 1;
#X floatatom 860 339 5 0 0 0 - - -;
#X text 882 290 feedback;
#X obj 245 651 r~ \$0-fbamount;
#X floatatom 194 124 5 0 0 0 - - -;
#X obj 444 427 tb_compressor~;
#X obj 25 317 s~ \$0-testsig;
#X obj 523 18 r~ \$0-testsig;
#X obj 444 273 r~ \$0-input;
#X obj 479 169 s~ \$0-input;
#N canvas 948 559 450 300 compsettings 0;
#X obj 37 92 loadbang;
#X obj 32 174 outlet;
#X msg 35 117 threshold -5 \, ratio 2.5 \, response 40 \, gain 0 \,
rmspeak 1 \, lookahead 15;
#X connect 0 0 2 0;
#X connect 2 0 1 0;
#X restore 523 395 pd compsettings;
#X obj 890 211 expr ($f1 / 127) * 1000;
#X obj 27 69 phasor~ 440;
#X obj 133 188 *~ 15000;
#X floatatom 206 161 5 0 0 0 - - -;
#X floatatom 139 124 5 0 0 0 - - -;
#X obj 31 218 svf~ 200 0.8;
#X obj 263 180 hsl 128 15 200 20000 1 1 empty empty empty -2 -8 0 10
-262144 -1 -1 3900 1;
#X obj 447 479 tanh~;
#X obj 445 457 *~ 0.3;
#X obj 447 501 *~ 3.33333;
#X floatatom 320 -7 5 0 0 0 - - -;
#X floatatom 282 28 5 0 0 0 - - -;
#X obj 444 357 hip~ 200;
#X obj 444 389 svf~ 7000;
#N canvas 1268 651 450 300 midicontrol 1;
#X obj 29 53 / 127;
#X obj 145 233 s~ \$0-inputgainctl;
#X obj 29 104 lop~ 2;
#X floatatom 117 89 5 0 0 0 - - -;
#X obj 202 51 / 127;
#X obj 202 76 * 1000;
#X obj 203 104 s~ \$0-delaytime;
#X floatatom 260 84 5 0 0 0 - - -;
#X obj 24 152 ctlin 4 1;
#X floatatom 31 179 5 0 0 0 - - -;
#X obj 27 127 s~ \$0-fbamount;
#X obj 143 170 ctlin 6 1;
#X obj 143 202 / 127;
#X floatatom 208 216 5 0 0 0 - - -;
#X obj 305 161 ctlin 10 1;
#X obj 304 189 / 127;
#X obj 306 219 s \$0-panctl;
#X obj 201 22 ctlin 7 1;
#X obj 28 24 ctlin 8 1;
#X obj 29 76 * 1.4;
#X connect 0 0 19 0;
#X connect 2 0 10 0;
#X connect 4 0 5 0;
#X connect 5 0 6 0;
#X connect 5 0 7 0;
#X connect 8 0 9 0;
#X connect 11 0 12 0;
#X connect 12 0 1 0;
#X connect 12 0 13 0;
#X connect 14 0 15 0;
#X connect 15 0 16 0;
#X connect 17 0 4 0;
#X connect 18 0 0 0;
#X connect 19 0 2 0;
#X connect 19 0 3 0;
#X restore 868 444 pd midicontrol;
#X obj 506 98 r~ \$0-inputgainctl;
#X obj 23 94 osc~;
#X obj 819 624 r \$0-panctl;
#X obj 114 564 lop~ 2;
#X connect 1 0 0 1;
#X connect 1 0 0 0;
#X connect 2 0 1 0;
#X connect 3 0 12 0;
#X connect 5 0 37 0;
#X connect 7 0 3 0;
#X connect 9 0 39 0;
#X connect 10 0 70 0;
#X connect 11 0 5 0;
#X connect 12 0 0 0;
#X connect 12 1 0 1;
#X connect 14 0 71 1;
#X connect 15 0 70 1;
#X connect 16 0 27 0;
#X connect 18 0 9 1;
#X connect 19 0 21 0;
#X connect 20 0 53 0;
#X connect 21 0 24 0;
#X connect 21 0 38 0;
#X connect 22 0 21 1;
#X connect 24 0 20 1;
#X connect 24 0 60 0;
#X connect 25 0 59 0;
#X connect 26 0 59 0;
#X connect 26 0 74 0;
#X connect 27 0 17 0;
#X connect 27 0 31 0;
#X connect 28 0 58 0;
#X connect 30 0 26 0;
#X connect 31 0 56 0;
#X connect 32 0 31 1;
#X connect 32 0 33 0;
#X connect 34 0 35 0;
#X connect 36 0 40 0;
#X connect 37 0 6 0;
#X connect 37 0 9 0;
#X connect 38 0 30 0;
#X connect 39 0 36 0;
#X connect 40 0 8 0;
#X connect 41 0 11 1;
#X connect 45 0 76 0;
#X connect 46 0 12 1;
#X connect 47 0 48 0;
#X connect 50 0 18 0;
#X connect 51 0 24 2;
#X connect 52 0 66 0;
#X connect 54 0 27 0;
#X connect 55 0 70 0;
#X connect 57 0 52 1;
#X connect 58 0 29 0;
#X connect 60 0 63 1;
#X connect 61 0 60 1;
#X connect 62 0 24 1;
#X connect 63 0 20 0;
#X connect 64 0 60 1;
#X connect 65 0 67 0;
#X connect 66 0 65 0;
#X connect 67 0 4 0;
#X connect 68 0 38 1;
#X connect 69 0 30 1;
#X connect 70 0 71 0;
#X connect 71 0 52 0;
#X connect 73 0 31 1;
#X connect 74 0 20 0;
#X connect 75 0 12 1;
#X connect 76 0 11 0;
