#N canvas 338 197 1069 861 10;
#X obj 499 778 dac~;
#X obj 556 658 gain~;
#X obj 550 604 r~ \$0-dry;
#X obj 406 652 gain~;
#X obj 499 405 delwrite~ \$0-tapeloop 2000;
#X obj 493 456 vd~ \$0-tapeloop;
#X floatatom 396 349 5 0 0 0 - - -, f 5;
#X obj 478 518 s~ \$0-wet;
#X obj 405 617 r~ \$0-wet;
#X obj 569 561 s~ \$0-feedback;
#X obj 568 494 *~;
#X obj 658 455 hsl 128 15 0 1.25 0 0 empty empty empty -2 -8 0 10 -262144
-1 -1 7900 1;
#X obj 549 192 r~ \$0-feedback;
#X obj 473 433 +~;
#X obj 400 730 equal_power_pan~;
#X obj 503 566 vsl 15 128 0 1 0 0 empty empty empty 0 -9 0 10 -262144
-1 -1 12000 1;
#X obj 916 96 saturator;
#X obj 496 295 saturator~;
#X obj 385 192 dbtorms;
#X floatatom 384 161 5 0 0 0 - - -, f 5;
#X msg 385 222 thresh \$1;
#X floatatom 577 238 5 0 0 0 - - -, f 5;
#X floatatom 551 215 5 0 0 0 - - -, f 5;
#X obj 714 357 noise~;
#X floatatom 766 395 5 0 0 0 - - -, f 5;
#X obj 707 388 lop~ 10;
#X obj 404 380 lop~ 1;
#X obj 331 391 noise~;
#X obj 331 422 *~ 0.0001;
#X obj 571 526 tanh~;
#X obj 503 320 *~ 1;
#X obj 493 349 allpass~ 100 40 1 0.65;
#X obj 493 376 allpass~ 100 23 1 0.45;
#X obj 372 121 loadbang;
#X obj 495 233 hip~ 200;
#X obj 502 262 svf~ 3500;
#X obj 711 420 *~ 0.05;
#X obj 485 46 adc~;
#X obj 509 89 s~ \$0-dry;
#X msg 436 160 78;
#X msg 300 222 autogain 0;
#X obj 618 481 lop~ 10;
#X connect 1 0 0 1;
#X connect 1 0 0 0;
#X connect 2 0 1 0;
#X connect 3 0 14 0;
#X connect 5 0 7 0;
#X connect 5 0 10 0;
#X connect 6 0 26 0;
#X connect 8 0 3 0;
#X connect 10 0 29 0;
#X connect 11 0 41 0;
#X connect 12 0 34 0;
#X connect 13 0 5 0;
#X connect 14 0 0 0;
#X connect 14 1 0 1;
#X connect 15 0 14 1;
#X connect 17 0 30 0;
#X connect 18 0 20 0;
#X connect 19 0 18 0;
#X connect 20 0 17 0;
#X connect 21 0 35 1;
#X connect 22 0 34 1;
#X connect 23 0 25 0;
#X connect 24 0 36 1;
#X connect 25 0 36 0;
#X connect 26 0 13 0;
#X connect 27 0 28 0;
#X connect 28 0 7 0;
#X connect 29 0 9 0;
#X connect 30 0 31 0;
#X connect 30 0 4 0;
#X connect 31 0 32 0;
#X connect 33 0 39 0;
#X connect 33 0 40 0;
#X connect 34 0 35 0;
#X connect 35 0 17 0;
#X connect 36 0 13 1;
#X connect 37 0 34 0;
#X connect 37 0 38 0;
#X connect 39 0 18 0;
#X connect 40 0 17 0;
#X connect 41 0 10 1;
