#N canvas 338 197 1069 861 10;
#X obj 854 781 dac~;
#X obj 908 709 gain~;
#X obj 905 676 r~ \$0-dry;
#X obj 663 673 gain~;
#X obj 505 517 s~ \$0-wet;
#X obj 662 638 r~ \$0-wet;
#X obj 755 733 equal_power_pan~;
#X obj 485 -7 adc~;
#X obj 498 76 s~ \$0-dry;
#X obj 105 81 tgl 15 0 empty empty empty 17 7 0 10 -262144 -1 -1 1
1;
#X obj 29 315 *~;
#X obj 105 101 metro 500;
#X floatatom 163 65 5 0 0 0 - - -;
#X obj 95 163 adenv~ 10 100;
#X floatatom 135 14 5 0 0 0 - - -;
#X obj 235 66 mtof;
#X obj 486 50 *~ 1;
#X obj 895 191 hsl 128 15 0 127 0 1 empty empty empty -2 -8 0 10 -262144
-1 -1 1600 1;
#X floatatom 871 252 5 0 0 0 - - -;
#X obj 234 44 + 50;
#X obj 484 138 *~;
#X obj 525 121 hsl 128 15 0 1.2 0 1 empty empty empty -2 -8 0 10 -262144
-1 -1 9700 1;
#X floatatom 529 146 5 0 0 0 - - -;
#X obj 916 39 dsp 1;
#X floatatom 916 65 5 0 0 0 - - -;
#X obj 234 5 random 50;
#X text 894 172 delay time;
#X text 644 99 input gain;
#X obj 762 700 hsl 128 15 0 1 0 1 empty empty empty -2 -8 0 10 -262144
-1 -1 8000 1;
#X obj 878 309 hsl 128 15 0 1.5 0 1 empty empty empty -2 -8 0 10 -262144
-1 -1 6600 1;
#X floatatom 860 339 5 0 0 0 - - -;
#X text 882 290 feedback;
#X floatatom 194 124 5 0 0 0 - - -;
#X obj 25 361 s~ \$0-testsig;
#X obj 523 18 r~ \$0-testsig;
#X obj 505 378 r~ \$0-input;
#X obj 479 169 s~ \$0-input;
#X obj 890 211 expr ($f1 / 127) * 1000;
#X obj 80 41 phasor~ 440;
#X obj 133 188 *~ 15000;
#X floatatom 206 161 5 0 0 0 - - -;
#X floatatom 139 124 5 0 0 0 - - -;
#X obj 33 267 svf~ 200 0.8;
#X obj 263 180 hsl 128 15 200 20000 1 1 empty empty empty -2 -8 0 10
-262144 -1 -1 11000 1;
#X floatatom 320 -7 5 0 0 0 - - -;
#X floatatom 282 28 5 0 0 0 - - -;
#X obj 27 143 osc~;
#X obj 819 624 r \$0-panctl;
#X obj 506 98 r \$0-inputgainctl;
#X obj 907 344 s \$0-fbamount;
#X obj 923 251 s \$0-delaytime;
#X floatatom 172 223 5 0 0 0 - - -;
#X obj 117 238 +~;
#X obj 24 104 +~;
#X obj 13 15 osc~ 60;
#X floatatom 77 10 5 0 0 0 - - -;
#X floatatom 21 -6 5 0 0 0 - - -;
#X obj 17 49 *~ 0;
#X obj 571 420 r \$0-fbamount;
#X obj 532 399 r \$0-delaytime;
#X obj 506 452 tapedelay~;
#X connect 1 0 0 1;
#X connect 1 0 0 0;
#X connect 2 0 1 0;
#X connect 3 0 6 0;
#X connect 5 0 3 0;
#X connect 6 0 0 0;
#X connect 6 1 0 1;
#X connect 7 0 16 0;
#X connect 9 0 11 0;
#X connect 10 0 33 0;
#X connect 11 0 13 0;
#X connect 11 0 25 0;
#X connect 12 0 11 1;
#X connect 13 0 10 1;
#X connect 13 0 39 0;
#X connect 14 0 38 0;
#X connect 15 0 38 0;
#X connect 15 0 53 0;
#X connect 16 0 8 0;
#X connect 16 0 20 0;
#X connect 17 0 37 0;
#X connect 19 0 15 0;
#X connect 20 0 36 0;
#X connect 21 0 20 1;
#X connect 21 0 22 0;
#X connect 23 0 24 0;
#X connect 25 0 19 0;
#X connect 28 0 6 1;
#X connect 29 0 30 0;
#X connect 29 0 49 0;
#X connect 32 0 13 2;
#X connect 34 0 16 0;
#X connect 35 0 60 0;
#X connect 37 0 18 0;
#X connect 37 0 50 0;
#X connect 39 0 52 0;
#X connect 40 0 39 1;
#X connect 41 0 13 1;
#X connect 42 0 10 0;
#X connect 43 0 39 1;
#X connect 44 0 25 1;
#X connect 45 0 19 1;
#X connect 46 0 10 0;
#X connect 47 0 6 1;
#X connect 48 0 20 1;
#X connect 51 0 52 1;
#X connect 52 0 42 1;
#X connect 53 0 46 0;
#X connect 54 0 57 0;
#X connect 55 0 57 1;
#X connect 56 0 54 0;
#X connect 57 0 53 1;
#X connect 58 0 60 2;
#X connect 59 0 60 1;
#X connect 60 0 4 0;
