#N canvas 340 45 720 579 10;
#X obj 200 71 osc~;
#X floatatom 198 22 5 0 0 0 - - -;
#X obj 183 425 vols~;
#X obj 180 482 dac~;
#X obj 186 366 *~ 1;
#X obj 436 346 pong~;
#X obj 433 171 scope~ 130 130 256 3 25 -1 1 0 0 0 0 102 255 51 135
135 135 0;
#X obj 258 24 hsl 128 15 0 15 0 0 empty empty empty -2 -8 0 10 -262144
-1 -1 3700 1;
#X obj 204 102 *~;
#X obj 278 365 hsl 128 15 0 75 0 0 empty empty empty -2 -8 0 10 -262144
-1 -1 12700 1;
#X msg 457 87 bufsize 25;
#X obj 271 104 nbx 5 14 -1e+37 1e+37 0 0 empty empty empty 0 -8 0 10
-262144 -1 -1 0 256;
#X obj 245 70 lop~ 1;
#X obj 194 132 pong~ 0 -0.9 0.9;
#X obj 478 414 slide~;
#X obj 340 108 bng 15 250 50 0 empty empty empty 17 7 0 10 -262144
-1 -1;
#X obj 200 280 nbx 5 14 -1e+37 1e+37 0 0 empty empty empty 0 -8 0 10
-262144 -1 -1 672 256;
#X obj 327 175 ead~ 20 100;
#X obj 177 258 cos~;
#X obj 176 231 +~;
#X obj 294 218 hsl 128 15 0 0.25 0 0 empty empty empty -2 -8 0 10 -262144
-1 -1 11100 1;
#X obj 17 148 hsl 128 15 0 5 0 0 empty empty empty -2 -8 0 10 -262144
-1 -1 1600 1;
#X obj 168 207 *~;
#X floatatom 41 237 5 0 0 0 - - -;
#X obj 92 182 lop~ 1;
#X obj 231 228 lop~ 1;
#X floatatom 277 44 5 0 0 0 - - -;
#X obj 178 175 osc~;
#X floatatom 156 127 5 0 0 0 - - -;
#X obj 391 111 knob 32 32 0 1000 0 0 empty empty empty 0 -8 0 8 -262144
-1 -1 2900 1;
#X obj 270 265 nbx 5 14 -1e+37 1e+37 0 0 empty empty empty 0 -8 0 10
-262144 -1 -1 292 256;
#X obj 188 309 lpg~;
#X connect 0 0 8 0;
#X connect 1 0 0 0;
#X connect 2 0 3 0;
#X connect 2 1 3 1;
#X connect 4 0 2 0;
#X connect 4 0 2 1;
#X connect 4 0 6 0;
#X connect 7 0 12 0;
#X connect 7 0 26 0;
#X connect 8 0 13 0;
#X connect 9 0 2 2;
#X connect 10 0 6 0;
#X connect 12 0 8 1;
#X connect 12 0 11 0;
#X connect 15 0 17 0;
#X connect 16 0 31 1;
#X connect 17 0 31 2;
#X connect 18 0 31 0;
#X connect 19 0 18 0;
#X connect 20 0 25 0;
#X connect 21 0 23 0;
#X connect 21 0 24 0;
#X connect 22 0 19 0;
#X connect 24 0 22 0;
#X connect 25 0 19 1;
#X connect 27 0 22 1;
#X connect 28 0 27 0;
#X connect 29 0 17 2;
#X connect 30 0 31 4;
#X connect 31 0 4 0;
