#N canvas 303 22 812 697 10;
#X obj 315 600 output~;
#N canvas 160 251 753 431 bd~ 0;
#X obj 374 298 *~;
#X obj 379 105 nbx 5 14 0 1e+37 0 1 empty empty empty 0 -8 0 10 -262144
-1 -1 618 256;
#X obj 380 164 rand~;
#X obj 381 207 bp2~ 215 2;
#X obj 481 49 inlet;
#X obj 357 389 outlet~;
#X obj 507 145 line;
#X obj 479 211 ead~ 5 75;
#X obj 507 114 pack 100 0;
#X obj 306 245 decimate~ 1 32;
#X obj 366 339 overdrive~ 10;
#X obj 426 270 *~ 3;
#X connect 0 0 10 0;
#X connect 1 0 2 0;
#X connect 2 0 3 0;
#X connect 3 0 9 0;
#X connect 4 0 7 0;
#X connect 4 0 8 0;
#X connect 6 0 2 0;
#X connect 7 0 11 0;
#X connect 8 0 6 0;
#X connect 9 0 0 0;
#X connect 10 0 5 0;
#X connect 11 0 0 1;
#X restore 358 306 pd bd~;
#X obj 415 201 triggerseq;
#X obj 181 31 tgl 15 0 empty empty empty 17 7 0 10 -262144 -1 -1 1
1;
#X obj 196 78 pulse 120 1 16;
#N canvas 81 214 450 386 hat1~ 0;
#X obj 271 153 pink~;
#X obj 181 253 *~;
#X obj 330 152 nbx 5 14 0 1e+37 0 1 empty empty empty 0 -8 0 10 -262144
-1 -1 8000 256;
#X obj 345 175 nbx 3 14 0 1e+37 0 1 empty empty empty 0 -8 0 10 -262144
-1 -1 0.4 256;
#X obj 178 208 ead~ 5 20;
#X obj 209 16 inlet;
#X obj 184 326 outlet~;
#X obj 184 288 *~ 1;
#X obj 298 191 bp2~ 7000 0.4;
#X obj 236 113 euclid 1 16 5;
#X obj 112 116 euclid 1 16 4;
#X obj 336 47 counter 0 1 4;
#X connect 0 0 8 0;
#X connect 1 0 7 0;
#X connect 2 0 8 1;
#X connect 3 0 8 2;
#X connect 4 0 1 0;
#X connect 5 0 9 0;
#X connect 5 0 10 0;
#X connect 7 0 6 0;
#X connect 8 0 1 1;
#X connect 9 0 4 0;
#X connect 10 0 4 0;
#X connect 10 0 11 0;
#X restore 235 306 pd hat1~;
#X obj 300 552 rev3~ 100 90 2000 20;
#X obj 216 423 panner~;
#X obj 360 427 pangain~;
#X connect 1 0 8 0;
#X connect 2 0 1 0;
#X connect 3 0 4 0;
#X connect 4 0 2 0;
#X connect 4 0 5 0;
#X connect 5 0 7 0;
#X connect 6 0 0 0;
#X connect 6 1 0 1;
#X connect 7 0 6 0;
#X connect 7 1 6 1;
#X connect 8 0 6 0;
#X connect 8 1 6 1;
